<svg width="430" height="309" viewBox="0 0 430 309" fill="none" xmlns="http://www.w3.org/2000/svg">
<g clip-path="url(#clip0_60_982)">
<path d="M89.2677 203.249C69.8267 185.577 61.6157 167.142 66.1467 151.338C71.9614 131.058 97.7932 117.036 137.019 112.867L137.163 114.031C98.4842 118.141 73.0464 131.848 67.3726 151.638C62.963 167.018 71.0547 185.051 90.1574 202.415L89.2677 203.249Z" fill="#F0F0F0"/>
<path d="M276.841 265.978C252.578 265.978 226.211 262.648 200.021 256.246C167.634 248.329 137.939 236.38 114.146 221.689L114.85 220.716C138.529 235.336 168.093 247.231 200.346 255.114C229.492 262.24 258.857 265.541 285.255 264.67L285.301 265.839C282.513 265.932 279.693 265.978 276.841 265.978Z" fill="#F0F0F0"/>
<path d="M332.504 258.615L332.098 257.506C353.799 250.731 367.371 239.818 371.349 225.945C376.405 208.309 365.421 187.844 340.418 168.319C315.287 148.695 279.049 132.412 238.376 122.47L238.701 121.338C279.551 131.324 315.966 147.691 341.236 167.425C366.634 187.258 377.764 208.148 372.575 226.245C368.483 240.516 354.627 251.709 332.504 258.615Z" fill="#F0F0F0"/>
<path d="M133.243 266.467C85.5668 246.942 48.8285 221.612 29.7964 195.141L30.8526 194.493C49.7531 220.781 86.2986 245.961 133.757 265.396L133.243 266.467Z" fill="#F0F0F0"/>
<path d="M300.871 300.291C295.953 300.291 290.951 300.19 285.866 299.987L285.92 298.818C323.872 300.335 357.358 296.141 382.764 286.688L383.238 287.774C361.076 296.019 332.828 300.291 300.871 300.291Z" fill="#F0F0F0"/>
<path d="M273.208 113.918C265.328 111.549 257.222 109.343 249.117 107.362C202.473 95.9599 156.622 91.9117 116.519 95.6569L116.391 94.4919C156.644 90.7344 202.652 94.7923 249.441 106.23C257.57 108.217 265.698 110.429 273.6 112.805L273.208 113.918Z" fill="#F0F0F0"/>
<path d="M59.4714 205.006C40.0303 187.334 31.8194 168.899 36.3503 153.095C42.165 132.815 67.9968 118.793 107.222 114.624L107.367 115.787C68.6878 119.898 43.25 133.605 37.5762 153.395C33.1666 168.775 41.2583 186.808 60.361 204.172L59.4714 205.006Z" fill="#F0F0F0"/>
<path d="M247.044 267.734C222.781 267.734 196.414 264.404 170.224 258.002C137.837 250.085 108.142 238.136 84.3486 223.445L85.0532 222.472C108.732 237.092 138.296 248.987 170.549 256.87C199.695 263.995 229.06 267.297 255.459 266.426L255.504 267.595C252.717 267.688 249.897 267.734 247.044 267.734Z" fill="#F0F0F0"/>
<path d="M302.708 260.371L302.302 259.262C324.002 252.487 337.575 241.574 341.553 227.701C346.609 210.065 335.624 189.6 310.621 170.075C285.491 150.451 249.253 134.168 208.58 124.226L208.904 123.094C249.755 133.079 286.17 149.447 311.44 169.181C336.838 189.014 347.967 209.903 342.779 228.001C338.687 242.272 324.831 253.465 302.708 260.371Z" fill="#F0F0F0"/>
<path d="M103.447 268.222C55.7705 248.698 19.0321 223.368 0 196.897L1.05621 196.249C19.9568 222.537 56.5023 247.717 103.961 267.152L103.447 268.222Z" fill="#F0F0F0"/>
<path d="M271.074 302.047C266.156 302.047 261.155 301.946 256.069 301.743L256.124 300.573C294.076 302.091 327.562 297.897 352.968 288.443L353.442 289.53C331.28 297.775 303.032 302.047 271.074 302.047Z" fill="#F0F0F0"/>
<path d="M243.411 115.674C235.531 113.305 227.426 111.099 219.32 109.117C172.677 97.7158 126.826 93.6676 86.7222 97.4128L86.5947 96.2477C126.848 92.4902 172.856 96.5482 219.645 107.986C227.773 109.973 235.901 112.185 243.804 114.561L243.411 115.674Z" fill="#F0F0F0"/>
<path d="M21.6113 173.648C30.7229 164.215 45.2574 158.466 58.429 161.907C46.2777 169.848 37.5596 181.5 33.8174 194.804C32.3943 199.94 31.3906 205.789 26.7651 208.928C23.887 210.882 20.0735 211.349 16.534 210.904C12.9944 210.459 9.6476 209.188 6.34596 207.929L5.45752 208C8.01185 195.582 12.4997 183.081 21.6113 173.648Z" fill="#F2F2F2"/>
<path d="M58.389 162.169C47.3767 164.631 37.4845 170.235 30.1174 178.183C28.4986 179.868 27.1775 181.779 26.2029 183.844C25.3239 185.884 25.0525 188.104 25.417 190.273C25.7128 192.302 26.2699 194.346 26.0263 196.407C25.8847 197.459 25.5036 198.473 24.9081 199.38C24.3126 200.288 23.5161 201.068 22.5709 201.672C20.2579 203.231 17.4759 203.93 14.7297 204.527C11.6806 205.189 8.50208 205.832 6.01653 207.703C5.71537 207.93 5.35201 207.485 5.65271 207.259C9.97714 204.003 15.9871 204.421 20.7717 202.057C23.0043 200.954 24.8903 199.222 25.3488 196.847C25.7498 194.769 25.1773 192.661 24.8585 190.609C24.4694 188.497 24.6461 186.33 25.3733 184.296C26.2309 182.192 27.4701 180.238 29.0377 178.517C32.5001 174.592 36.6093 171.194 41.2148 168.448C46.4521 165.287 52.2365 162.976 58.3178 161.616C58.6942 161.532 58.763 162.086 58.389 162.169L58.389 162.169Z" fill="white"/>
<path d="M32.3262 175.496C31.0497 174.173 30.3238 172.475 30.2782 170.704C30.2325 168.933 30.8701 167.205 32.0771 165.828C32.3223 165.55 32.8014 165.889 32.5558 166.167C31.4293 167.448 30.8356 169.058 30.8817 170.707C30.9279 172.356 31.6109 173.935 32.8075 175.16C33.0672 175.426 32.5844 175.761 32.3262 175.496H32.3262Z" fill="white"/>
<path d="M25.1203 189.263C29.0334 189.503 32.9007 188.372 35.951 186.096C36.253 185.871 36.6165 186.315 36.3148 186.541C33.1358 188.904 29.1087 190.073 25.0373 189.815C24.6492 189.79 24.7344 189.238 25.1203 189.263Z" fill="white"/>
<path d="M46.5878 166.015C46.9662 166.622 47.5019 167.132 48.1468 167.501C48.7917 167.869 49.5255 168.083 50.2824 168.125C50.6706 168.145 50.585 168.697 50.1993 168.677C49.3633 168.627 48.5532 168.389 47.8398 167.984C47.1263 167.579 46.5312 167.018 46.1065 166.351C46.0608 166.291 46.0414 166.218 46.0523 166.145C46.0632 166.073 46.1036 166.007 46.1652 165.961C46.2292 165.917 46.3095 165.898 46.3886 165.908C46.4677 165.918 46.5393 165.957 46.5878 166.015Z" fill="white"/>
<path d="M77.126 201.066C76.8832 201.059 76.6405 201.053 76.3946 201.05C73.13 200.981 69.8647 201.157 66.631 201.576C66.3804 201.605 66.127 201.638 65.8778 201.673C58.0987 202.76 50.6057 205.17 43.7796 208.783C41.0648 210.222 38.4726 211.851 36.0253 213.654C32.6458 216.144 29.1959 219.092 25.2393 220.368C24.8281 220.505 24.4082 220.619 23.9817 220.708L5.62016 208.995C5.5929 208.949 5.56256 208.906 5.53509 208.86L4.77881 208.424C4.89799 208.322 5.02395 208.22 5.14313 208.119C5.21201 208.06 5.28499 208.004 5.35383 207.945C5.40104 207.906 5.44848 207.868 5.4887 207.831C5.50436 207.818 5.52023 207.805 5.53301 207.796C5.57324 207.759 5.61487 207.728 5.65219 207.695C6.35459 207.12 7.06258 206.549 7.77617 205.981C7.77906 205.977 7.77907 205.977 7.78606 205.976C13.2352 201.663 19.1222 197.733 25.4681 194.752C25.6591 194.662 25.8527 194.569 26.0521 194.484C28.9206 193.156 31.9019 192.045 34.9663 191.165C36.646 190.688 38.3507 190.29 40.074 189.972C44.5284 189.158 49.0936 188.997 53.6023 189.493C62.5903 190.484 71.1351 194.118 76.7057 200.569C76.8481 200.734 76.9866 200.897 77.126 201.066Z" fill="#F2F2F2"/>
<path d="M76.924 201.254C66.526 197.098 54.974 196.073 43.9089 198.324C41.5175 198.769 39.2171 199.56 37.0924 200.667C35.0605 201.807 33.3962 203.429 32.2726 205.364C31.1857 207.149 30.2977 209.09 28.7599 210.6C27.9603 211.362 26.9953 211.959 25.9282 212.352C24.8611 212.746 23.7159 212.927 22.5679 212.883C19.7042 212.842 17.0271 211.854 14.4455 210.803C11.5792 209.637 8.62193 208.383 5.41733 208.496C5.02905 208.509 5.02891 207.952 5.41661 207.938C10.9921 207.743 15.5182 211.418 20.8802 212.19C23.3822 212.55 26.0169 212.216 27.932 210.575C29.6067 209.139 30.5242 207.137 31.6079 205.321C32.674 203.419 34.2284 201.787 36.1353 200.567C38.1921 199.364 40.4557 198.492 42.829 197.99C48.1528 196.781 53.6493 196.353 59.1172 196.72C65.3602 197.108 71.4855 198.478 77.2279 200.773C77.5833 200.915 77.2771 201.396 76.924 201.254Z" fill="white"/>
<path d="M47.4256 197.406C47.2686 195.64 47.7963 193.881 48.9146 192.441C50.0329 191.002 51.6688 189.977 53.5303 189.548C53.9073 189.463 54.0689 190 53.6914 190.085C51.9572 190.481 50.4334 191.437 49.395 192.779C48.3567 194.121 47.8721 195.762 48.0289 197.405C48.0625 197.762 47.459 197.761 47.4256 197.406Z" fill="white"/>
<path d="M32.6947 204.392C35.6625 206.759 39.4876 208.006 43.4071 207.885C43.7954 207.873 43.7957 208.43 43.4078 208.442C39.3288 208.561 35.3511 207.256 32.2686 204.787C31.9749 204.551 32.4026 204.158 32.6947 204.392Z" fill="white"/>
<path d="M64.9938 197.765C64.9004 198.459 64.9953 199.165 65.2701 199.817C65.5449 200.47 65.9909 201.049 66.568 201.503C66.8648 201.735 66.4367 202.128 66.1419 201.897C65.5068 201.393 65.0151 200.753 64.7098 200.032C64.4045 199.312 64.2948 198.534 64.3905 197.765C64.3929 197.692 64.4254 197.623 64.4814 197.571C64.5374 197.519 64.6126 197.489 64.6918 197.486C64.7716 197.487 64.8482 197.516 64.9047 197.568C64.9613 197.62 64.9933 197.691 64.9938 197.765H64.9938Z" fill="white"/>
<path d="M378.636 250.974C373.488 239.262 361.892 229.337 348.234 228.49C356.788 239.739 360.757 253.42 359.439 267.111C358.91 272.39 357.727 278.21 360.94 282.602C362.94 285.336 366.361 286.959 369.857 287.638C373.353 288.317 376.967 288.159 380.535 287.998L381.346 288.34C383.46 275.852 383.784 262.685 378.636 250.974Z" fill="#F2F2F2"/>
<path d="M348.176 228.75C357.651 234.486 364.929 242.833 368.974 252.606C369.885 254.695 370.434 256.904 370.6 259.152C370.686 261.346 370.133 263.521 369 265.451C367.983 267.271 366.714 269.023 366.194 271.039C365.944 272.074 365.934 273.147 366.164 274.186C366.395 275.226 366.861 276.208 367.532 277.07C369.142 279.256 371.508 280.778 373.877 282.192C376.508 283.762 379.268 285.354 380.927 287.888C381.129 288.195 381.633 287.889 381.432 287.582C378.544 283.174 372.731 281.703 369.086 277.991C367.385 276.259 366.239 274.043 366.672 271.663C367.05 269.582 368.357 267.775 369.404 265.941C370.539 264.073 371.161 261.976 371.217 259.835C371.175 257.587 370.719 255.362 369.869 253.255C368.037 248.484 365.404 244.009 362.066 239.993C358.284 235.39 353.677 231.419 348.444 228.251C348.12 228.055 347.854 228.555 348.176 228.75Z" fill="white"/>
<path d="M367.872 249.389C369.555 248.54 370.857 247.166 371.545 245.512C372.232 243.858 372.261 242.033 371.625 240.361C371.496 240.024 370.921 240.194 371.051 240.532C371.646 242.088 371.619 243.788 370.975 245.327C370.332 246.866 369.114 248.141 367.541 248.923C367.199 249.094 367.532 249.558 367.872 249.389Z" fill="white"/>
<path d="M369.648 264.592C365.875 263.603 362.644 261.338 360.6 258.248C360.397 257.942 359.893 258.248 360.095 258.554C362.229 261.766 365.596 264.117 369.525 265.137C369.9 265.234 370.02 264.688 369.648 264.592Z" fill="white"/>
<path d="M357.891 236.034C357.314 236.488 356.623 236.803 355.882 236.949C355.141 237.096 354.371 237.07 353.643 236.875C353.27 236.773 353.15 237.32 353.521 237.42C354.326 237.633 355.176 237.66 355.995 237.5C356.815 237.34 357.579 236.996 358.222 236.5C358.287 236.458 358.332 236.395 358.348 236.323C358.364 236.251 358.35 236.177 358.309 236.114C358.265 236.053 358.196 236.01 358.118 235.995C358.039 235.98 357.958 235.994 357.891 236.034Z" fill="white"/>
<path d="M316.371 259.568C316.602 259.637 316.833 259.707 317.065 259.781C320.165 260.729 323.176 261.908 326.069 263.306C326.295 263.411 326.522 263.52 326.743 263.631C333.674 267.068 339.854 271.664 344.968 277.185C347.001 279.383 348.85 281.721 350.498 284.179C352.775 287.573 354.951 291.42 358.213 293.85C358.55 294.107 358.904 294.344 359.273 294.561L380.831 289.227C380.873 289.192 380.917 289.161 380.96 289.127L381.831 288.95C381.755 288.818 381.674 288.682 381.599 288.55C381.555 288.473 381.507 288.397 381.464 288.32C381.433 288.269 381.402 288.219 381.378 288.171C381.368 288.154 381.358 288.137 381.349 288.125C381.325 288.077 381.297 288.036 381.274 287.993C380.821 287.233 380.362 286.475 379.897 285.719C379.896 285.715 379.896 285.715 379.889 285.711C376.327 279.958 372.213 274.43 367.322 269.653C367.174 269.509 367.026 269.361 366.869 269.22C364.651 267.078 362.247 265.107 359.682 263.327C358.273 262.356 356.813 261.452 355.305 260.618C351.406 258.47 347.165 256.901 342.738 255.969C333.913 254.113 324.542 254.883 316.947 259.23C316.753 259.342 316.563 259.452 316.371 259.568Z" fill="#F2F2F2"/>
<path d="M316.492 259.809C327.798 259.122 339.051 261.741 348.653 267.295C350.743 268.457 352.622 269.915 354.22 271.617C355.719 273.322 356.696 275.366 357.05 277.537C357.424 279.555 357.554 281.659 358.453 283.558C358.928 284.524 359.62 285.386 360.482 286.088C361.343 286.789 362.356 287.315 363.453 287.63C366.165 288.48 369.046 288.38 371.86 288.192C374.984 287.983 378.226 287.72 381.203 288.82C381.564 288.954 381.767 288.429 381.407 288.296C376.227 286.382 370.626 288.438 365.295 287.501C362.807 287.064 360.448 285.932 359.241 283.791C358.187 281.919 358.051 279.749 357.692 277.703C357.38 275.58 356.51 273.561 355.158 271.82C353.659 270.048 351.844 268.525 349.792 267.316C345.218 264.525 340.197 262.416 334.913 261.065C328.892 259.492 322.625 258.882 316.381 259.262C315.995 259.285 316.108 259.833 316.492 259.809Z" fill="white"/>
<path d="M345.675 265.339C346.466 263.725 346.609 261.904 346.08 260.201C345.551 258.498 344.383 257.025 342.786 256.044C342.462 255.846 342.114 256.302 342.439 256.499C343.928 257.411 345.015 258.783 345.505 260.37C345.994 261.956 345.853 263.652 345.107 265.151C344.946 265.477 345.515 265.663 345.675 265.339H345.675Z" fill="white"/>
<path d="M357.006 276.49C353.35 277.798 349.293 277.786 345.646 276.455C345.285 276.323 345.082 276.847 345.442 276.979C349.241 278.358 353.462 278.363 357.264 276.993C357.627 276.863 357.367 276.36 357.006 276.49Z" fill="white"/>
<path d="M328.999 260.224C328.834 260.908 328.488 261.542 327.991 262.072C327.495 262.601 326.864 263.008 326.155 263.257C325.791 263.383 326.052 263.886 326.413 263.76C327.195 263.482 327.891 263.032 328.441 262.448C328.991 261.865 329.377 261.166 329.567 260.412C329.591 260.342 329.586 260.267 329.552 260.201C329.518 260.135 329.458 260.083 329.384 260.056C329.309 260.031 329.226 260.035 329.154 260.067C329.082 260.098 329.026 260.155 328.999 260.224V260.224Z" fill="white"/>
<path d="M278.762 290.854C281.563 290.854 283.833 288.758 283.833 286.171C283.833 283.585 281.563 281.488 278.762 281.488C275.961 281.488 273.69 283.585 273.69 286.171C273.69 288.758 275.961 290.854 278.762 290.854Z" fill="#FD6584"/>
<path d="M296.727 211.092C299.528 211.092 301.798 208.995 301.798 206.409C301.798 203.822 299.528 201.726 296.727 201.726C293.925 201.726 291.655 203.822 291.655 206.409C291.655 208.995 293.925 211.092 296.727 211.092Z" fill="#E6E6E6"/>
<path d="M202.354 81.1932C205.155 81.1932 207.425 79.0965 207.425 76.5102C207.425 73.9238 205.155 71.8271 202.354 71.8271C199.552 71.8271 197.282 73.9238 197.282 76.5102C197.282 79.0965 199.552 81.1932 202.354 81.1932Z" fill="#E6E6E6"/>
<path d="M96.0718 256.15C96.0718 257.342 96.1143 258.534 96.2047 259.717C96.3003 261.129 96.465 262.532 96.6881 263.926C97.4381 268.617 98.8714 273.193 100.949 277.529C101.055 277.745 101.162 277.961 101.268 278.177L101.427 278.501C101.48 278.609 101.539 278.717 101.592 278.82C101.666 278.962 101.735 279.099 101.81 279.237C101.9 279.408 101.99 279.58 102.086 279.752C102.097 279.771 102.107 279.796 102.123 279.82C102.203 279.967 102.277 280.11 102.362 280.257C102.378 280.289 102.396 280.32 102.416 280.35C102.506 280.517 102.601 280.689 102.697 280.855C102.803 281.032 102.904 281.214 103.011 281.39C103.266 281.827 103.531 282.258 103.802 282.69C103.882 282.818 103.962 282.945 104.047 283.073C104.121 283.191 104.195 283.308 104.275 283.426C104.328 283.504 104.381 283.588 104.434 283.666C104.519 283.799 104.604 283.926 104.695 284.059C104.891 284.348 105.093 284.638 105.29 284.927H105.295C105.385 285.06 105.481 285.192 105.577 285.32V285.325C105.858 285.717 106.151 286.109 106.443 286.497C106.443 286.497 106.444 286.497 106.445 286.497C106.445 286.498 106.446 286.498 106.447 286.498C106.447 286.499 106.447 286.499 106.448 286.5C106.448 286.501 106.448 286.501 106.448 286.502C106.682 286.816 106.926 287.12 107.165 287.424V287.429C107.325 287.62 107.479 287.817 107.638 288.008C107.766 288.165 107.898 288.327 108.031 288.484C108.058 288.518 108.09 288.548 108.116 288.582V288.587C108.153 288.631 108.191 288.67 108.228 288.714C108.791 289.382 109.372 290.034 109.971 290.672L110.066 290.775C110.098 290.809 110.135 290.843 110.167 290.883C110.22 290.937 110.268 290.991 110.321 291.045C110.369 291.099 110.422 291.153 110.475 291.206C113.596 294.452 117.134 297.333 121.011 299.787C121.526 300.115 122.052 300.434 122.578 300.743C122.711 300.822 122.844 300.9 122.977 300.974C123.014 300.998 123.056 301.023 123.094 301.047C123.168 301.087 123.237 301.126 123.311 301.17C123.38 301.209 123.45 301.249 123.524 301.288C123.805 301.45 124.092 301.607 124.379 301.764C124.448 301.803 124.523 301.842 124.597 301.881C124.666 301.916 124.741 301.955 124.815 301.994C124.815 301.999 124.815 301.999 124.82 301.999H124.826V302.004H124.831C125.187 302.195 125.548 302.382 125.915 302.563C126.111 302.661 126.313 302.764 126.515 302.858C126.972 303.088 127.434 303.309 127.896 303.52C128.061 303.593 128.231 303.667 128.396 303.746C128.534 303.804 128.672 303.868 128.81 303.927C128.853 303.947 128.89 303.961 128.927 303.981C129.044 304.03 129.156 304.079 129.273 304.128C129.4 304.182 129.528 304.236 129.65 304.29C129.793 304.349 129.931 304.408 130.075 304.462C130.606 304.683 131.143 304.893 131.679 305.095C133.602 305.822 135.568 306.451 137.566 306.978C137.656 307.003 137.752 307.027 137.848 307.052C138.703 307.273 139.564 307.474 140.43 307.655C141.944 307.979 143.472 308.244 145.015 308.45H145.025C145.211 308.475 145.392 308.499 145.578 308.524C145.594 308.524 145.61 308.529 145.631 308.529C145.631 308.534 145.631 308.534 145.636 308.529C145.838 308.553 146.046 308.578 146.247 308.602C146.261 308.606 146.276 308.608 146.29 308.607C146.481 308.632 146.678 308.651 146.869 308.671C147.076 308.69 147.283 308.71 147.491 308.73C147.65 308.744 147.809 308.759 147.969 308.774C147.982 308.778 147.997 308.78 148.011 308.779C148.155 308.789 148.298 308.803 148.442 308.813H148.463C148.585 308.823 148.713 308.833 148.835 308.843C150.317 308.951 151.805 309 153.314 309C154.945 309 156.565 308.941 158.164 308.813H158.18C158.526 308.784 158.866 308.754 159.206 308.725C159.296 308.715 159.381 308.71 159.471 308.7C159.487 308.7 159.509 308.695 159.525 308.695C159.551 308.691 159.578 308.691 159.61 308.686C159.624 308.686 159.638 308.684 159.652 308.681C159.769 308.671 159.886 308.656 160.008 308.646L160.406 308.602C160.539 308.587 160.672 308.568 160.805 308.553C160.837 308.548 160.863 308.548 160.895 308.543C160.991 308.534 161.087 308.519 161.182 308.504C161.23 308.499 161.278 308.494 161.32 308.489C161.416 308.475 161.506 308.465 161.602 308.45H161.607C164.523 308.063 167.4 307.464 170.214 306.66C170.363 306.615 170.512 306.576 170.661 306.532C170.666 306.532 170.671 306.527 170.676 306.527C170.719 306.512 170.767 306.503 170.809 306.488C171.208 306.37 171.601 306.247 171.994 306.12C172.536 305.953 173.073 305.772 173.609 305.585C173.753 305.531 173.896 305.482 174.04 305.428C174.332 305.325 174.619 305.217 174.906 305.109C175.394 304.928 175.883 304.737 176.367 304.54C176.818 304.354 177.265 304.167 177.711 303.971C177.721 303.966 177.737 303.966 177.748 303.956C177.849 303.912 177.95 303.868 178.046 303.824H178.051C180.498 302.74 182.857 301.496 185.112 300.101C185.834 299.654 186.546 299.193 187.248 298.717C187.811 298.33 188.363 297.937 188.916 297.535C191.642 295.533 194.165 293.306 196.455 290.883V290.878C196.62 290.711 196.774 290.539 196.933 290.368C196.96 290.343 196.981 290.319 197.002 290.299C197.103 290.186 197.199 290.078 197.3 289.97V289.965C197.433 289.823 197.565 289.676 197.693 289.529C197.725 289.494 197.751 289.465 197.778 289.436V289.431C197.884 289.313 197.985 289.195 198.091 289.073C198.144 289.014 198.192 288.955 198.245 288.896V288.891C198.559 288.528 198.862 288.165 199.165 287.792C199.244 287.694 199.324 287.591 199.409 287.488C199.791 287.012 200.163 286.526 200.525 286.041V286.036C200.663 285.854 200.796 285.668 200.934 285.486C201.067 285.3 201.199 285.114 201.332 284.927C201.465 284.731 201.603 284.54 201.736 284.343L201.752 284.314C201.885 284.128 202.018 283.931 202.145 283.74C202.246 283.583 202.347 283.431 202.448 283.279C202.512 283.176 202.581 283.073 202.645 282.965C202.669 282.932 202.693 282.897 202.714 282.862C202.862 282.622 203.011 282.381 203.16 282.141C203.335 281.861 203.505 281.577 203.675 281.292C203.739 281.174 203.808 281.057 203.877 280.939C203.904 280.9 203.925 280.86 203.946 280.821C204.026 280.684 204.106 280.542 204.18 280.399C204.26 280.262 204.339 280.12 204.419 279.977C204.493 279.84 204.573 279.698 204.647 279.555C204.706 279.448 204.759 279.34 204.818 279.232C204.822 279.223 204.827 279.215 204.833 279.207C204.86 279.153 204.887 279.104 204.908 279.055C204.914 279.048 204.92 279.039 204.924 279.031C204.982 278.923 205.035 278.81 205.094 278.702C205.168 278.56 205.237 278.412 205.312 278.27C205.359 278.172 205.413 278.069 205.46 277.966C205.529 277.824 205.604 277.681 205.668 277.534C205.742 277.387 205.811 277.24 205.88 277.088C205.9 277.051 205.918 277.014 205.933 276.975C205.97 276.906 205.997 276.838 206.029 276.769C206.114 276.587 206.199 276.401 206.279 276.22C206.374 276.014 206.465 275.803 206.55 275.597C206.635 275.405 206.714 275.209 206.794 275.013L206.826 274.944C208.064 271.933 209.003 268.825 209.631 265.658V265.653C209.985 263.844 210.239 262.02 210.391 260.188C210.396 260.085 210.407 259.986 210.412 259.888C210.508 258.647 210.55 257.401 210.55 256.15C210.55 255.596 210.54 255.046 210.524 254.497C210.153 243.006 205.715 231.944 197.889 223.002C197.719 222.806 197.549 222.61 197.374 222.413C197.199 222.217 197.018 222.026 196.843 221.835C191.019 215.537 183.673 210.591 175.399 207.395C167.124 204.199 158.153 202.843 149.207 203.437C140.261 204.03 131.591 206.556 123.896 210.811C116.201 215.066 109.697 220.931 104.907 227.932C104.647 228.315 104.387 228.703 104.137 229.09C103.882 229.483 103.638 229.875 103.393 230.273C98.5799 238.172 96.058 247.086 96.0718 256.15Z" fill="#F2F2F2"/>
<path d="M151.039 221.582C160.451 223.812 170.096 225.098 179.807 225.416C181.276 225.49 182.748 225.481 184.215 225.388C187.44 225.138 190.202 224.202 193.278 223.691C194.756 223.446 196.404 223.266 197.892 223.002C197.548 222.608 197.198 222.218 196.842 221.834C193.632 222.084 190.371 222.904 187.123 223.285C181.6 223.933 175.413 223.21 171.226 221.425C169.195 220.559 167.639 219.479 165.615 218.609C165.34 218.478 165.042 218.394 164.734 218.36C164.151 218.344 163.574 218.482 163.073 218.758C159.677 220.341 154.747 221.627 150.171 220.919C149.83 221.166 150.478 221.446 151.039 221.582Z" fill="white"/>
<path d="M130.788 227.152C130.746 227.145 130.704 227.14 130.663 227.133C130.838 227.033 131.004 226.917 131.157 226.789L130.788 227.152Z" fill="white"/>
<path d="M103.395 230.275C105.306 230.416 107.227 230.521 109.158 230.59C110.627 230.663 112.099 230.654 113.566 230.562C116.79 230.311 119.552 229.376 122.628 228.865C125.447 228.397 128.873 228.171 130.663 227.133C126.037 226.393 121.244 227.899 116.474 228.459C112.615 228.897 108.703 228.719 104.91 227.932C104.382 228.699 103.877 229.48 103.395 230.275Z" fill="white"/>
<path d="M126.515 302.858C126.972 303.089 127.434 303.309 127.897 303.52C128.061 303.594 128.231 303.667 128.396 303.746C128.534 303.805 128.672 303.869 128.81 303.927C128.853 303.947 128.89 303.962 128.927 303.981C129.044 304.031 129.156 304.08 129.273 304.129C129.4 304.183 129.528 304.237 129.65 304.291C129.793 304.349 129.931 304.408 130.075 304.462C130.606 304.683 131.143 304.894 131.679 305.095C133.602 305.823 135.568 306.452 137.566 306.979C137.656 307.003 137.752 307.028 137.848 307.052C138.703 307.273 139.564 307.474 140.43 307.656C141.944 307.98 143.472 308.245 145.015 308.451H145.026C145.211 308.475 145.392 308.5 145.578 308.524C145.594 308.524 145.61 308.529 145.631 308.529C145.631 308.534 145.631 308.534 145.637 308.529C145.838 308.554 146.046 308.578 146.247 308.603C146.261 308.606 146.276 308.608 146.29 308.608C146.481 308.632 146.678 308.652 146.869 308.671C147.076 308.691 147.284 308.711 147.491 308.73C147.65 308.745 147.81 308.76 147.969 308.774C147.983 308.779 147.997 308.78 148.011 308.779C148.155 308.789 148.298 308.804 148.442 308.814H148.463C148.585 308.823 148.713 308.833 148.835 308.843C150.317 308.951 151.805 309 153.314 309C154.945 309 156.565 308.941 158.164 308.814H158.18C158.526 308.784 158.866 308.755 159.206 308.725C159.296 308.715 159.381 308.711 159.471 308.701C159.487 308.701 159.509 308.696 159.525 308.696C159.551 308.691 159.578 308.691 159.61 308.686C159.624 308.687 159.638 308.685 159.652 308.681C159.769 308.671 159.886 308.657 160.008 308.647L160.407 308.603C160.539 308.588 160.672 308.568 160.805 308.554C160.837 308.549 160.863 308.549 160.895 308.544C160.991 308.534 161.087 308.519 161.182 308.505C161.23 308.5 161.278 308.495 161.32 308.49C161.416 308.475 161.506 308.465 161.602 308.451H161.607C164.523 308.063 167.401 307.464 170.214 306.66C170.363 306.616 170.512 306.577 170.661 306.532C169.975 303.578 168.562 300.81 166.533 298.44C164.503 296.07 161.911 294.163 158.956 292.865C159.687 292.222 160.192 291.392 160.407 290.481C160.544 289.894 160.555 289.287 160.439 288.696C160.322 288.105 160.08 287.541 159.726 287.037C159.037 286.06 157.955 285.375 156.719 285.134L148.846 283.613C147.578 283.385 146.264 283.628 145.19 284.289C144.115 284.951 143.367 285.977 143.108 287.145C143.027 287.503 142.992 287.869 143.001 288.234C135.42 292.895 129.963 297.727 126.515 302.858Z" fill="#70EC44"/>
<path d="M149.764 280.742C158.824 280.742 166.168 273.96 166.168 265.595C166.168 257.23 158.824 250.448 149.764 250.448C140.704 250.448 133.36 257.23 133.36 265.595C133.36 273.96 140.704 280.742 149.764 280.742Z" fill="#FFB8B8"/>
<path d="M139.539 278.653C137.79 277.55 136.004 275.43 134.811 273.841C133.231 271.752 132.144 269.38 131.62 266.878C131.096 264.377 131.147 261.801 131.77 259.319C131.968 258.327 132.457 257.403 133.182 256.648C133.954 255.942 135.216 255.607 136.159 256.107C135.902 255.47 135.789 254.792 135.826 254.114C135.864 253.435 136.051 252.771 136.378 252.163C137.041 250.947 138.001 249.891 139.183 249.078C141.443 247.471 144.132 246.459 146.965 246.149C149.797 245.84 152.668 246.244 155.272 247.319C156.297 247.757 154.614 244.372 155.686 244.698C156.752 245.079 157.936 245.06 158.987 244.644C159.995 244.176 163.339 246.961 162.952 245.982C163.718 246.303 164.383 246.797 164.885 247.419C165.388 248.041 165.712 248.771 165.827 249.54C165.943 250.309 165.845 251.092 165.544 251.817C165.243 252.542 164.748 253.185 164.106 253.685C163.259 254.345 162.202 254.725 161.275 255.285C159.651 256.34 158.501 257.908 158.043 259.692C157.586 261.476 157.851 263.354 158.789 264.969C157.814 264.391 156.744 263.961 155.62 263.698C155.057 263.571 154.468 263.57 153.904 263.695C153.34 263.821 152.816 264.068 152.377 264.418C152.01 264.806 151.732 265.26 151.562 265.75C151.391 266.241 151.331 266.758 151.385 267.271C151.422 268.299 151.686 269.312 151.716 270.34C151.803 273.357 153.553 279.092 151.02 280.695C149.021 281.961 141.928 280.16 139.539 278.653Z" fill="#2F2E41"/>
<path d="M429.461 18.2978H0.538398C0.394516 18.2949 0.257604 18.24 0.156975 18.145C0.0563451 18.05 0 17.9224 0 17.7895C0 17.6566 0.0563451 17.529 0.156975 17.434C0.257604 17.339 0.394516 17.2842 0.538398 17.2812H429.461C429.605 17.2842 429.742 17.339 429.843 17.434C429.944 17.529 430 17.6566 430 17.7895C430 17.9224 429.944 18.05 429.843 18.145C429.742 18.24 429.605 18.2949 429.461 18.2978Z" fill="#CACACA"/>
<path d="M12.6586 11.1823C15.9299 11.1823 18.5819 8.67905 18.5819 5.59115C18.5819 2.50324 15.9299 0 12.6586 0C9.38729 0 6.73535 2.50324 6.73535 5.59115C6.73535 8.67905 9.38729 11.1823 12.6586 11.1823Z" fill="#3F3D56"/>
<path d="M33.1205 11.1823C36.3919 11.1823 39.0438 8.67905 39.0438 5.59115C39.0438 2.50324 36.3919 0 33.1205 0C29.8492 0 27.1973 2.50324 27.1973 5.59115C27.1973 8.67905 29.8492 11.1823 33.1205 11.1823Z" fill="#3F3D56"/>
<path d="M53.5829 11.1823C56.8543 11.1823 59.5062 8.67905 59.5062 5.59115C59.5062 2.50324 56.8543 0 53.5829 0C50.3116 0 47.6597 2.50324 47.6597 5.59115C47.6597 8.67905 50.3116 11.1823 53.5829 11.1823Z" fill="#3F3D56"/>
<path d="M417.202 3.41986H402.663C402.375 3.41399 402.101 3.30431 401.9 3.11431C401.699 2.9243 401.586 2.66908 401.586 2.40329C401.586 2.1375 401.699 1.88228 401.9 1.69227C402.101 1.50227 402.375 1.39259 402.663 1.38672H417.202C417.49 1.39259 417.763 1.50227 417.965 1.69227C418.166 1.88228 418.279 2.1375 418.279 2.40329C418.279 2.66908 418.166 2.9243 417.965 3.11431C417.763 3.30431 417.49 3.41399 417.202 3.41986Z" fill="#3F3D56"/>
<path d="M417.202 7.23236H402.663C402.375 7.22652 402.101 7.11685 401.9 6.92685C401.699 6.73684 401.586 6.4816 401.586 6.21579C401.586 5.94998 401.699 5.69474 401.9 5.50473C402.101 5.31473 402.375 5.20506 402.663 5.19922H417.202C417.49 5.20506 417.764 5.31473 417.965 5.50473C418.166 5.69474 418.279 5.94998 418.279 6.21579C418.279 6.4816 418.166 6.73684 417.965 6.92685C417.764 7.11685 417.49 7.22652 417.202 7.23236Z" fill="#3F3D56"/>
<path d="M417.202 11.0439H402.663C402.375 11.038 402.101 10.9284 401.9 10.7384C401.699 10.5484 401.586 10.2931 401.586 10.0273C401.586 9.7615 401.699 9.50627 401.9 9.31626C402.101 9.12625 402.375 9.01658 402.663 9.01074H417.202C417.49 9.01658 417.764 9.12625 417.965 9.31626C418.166 9.50627 418.279 9.7615 418.279 10.0273C418.279 10.2931 418.166 10.5484 417.965 10.7384C417.764 10.9284 417.49 11.038 417.202 11.0439Z" fill="#3F3D56"/>
<path d="M161.043 189.781C160.698 189.781 160.356 189.717 160.037 189.594C159.561 189.417 159.155 189.112 158.87 188.719C158.585 188.325 158.436 187.862 158.441 187.388V184.991C158.44 184.488 158.224 184.006 157.839 183.65C157.454 183.295 156.932 183.095 156.387 183.094C155.701 183.093 155.044 182.842 154.559 182.394C154.075 181.946 153.802 181.339 153.801 180.707V147.86C153.802 147.227 154.075 146.62 154.559 146.173C155.044 145.725 155.701 145.473 156.387 145.473H274.242C274.928 145.473 275.585 145.725 276.07 146.173C276.554 146.62 276.827 147.227 276.828 147.86V180.707C276.827 181.339 276.554 181.946 276.07 182.394C275.585 182.842 274.928 183.093 274.242 183.094H170.185C169.915 183.093 169.648 183.142 169.398 183.237C169.149 183.333 168.923 183.473 168.732 183.649L162.855 189.076C162.619 189.299 162.337 189.476 162.026 189.597C161.715 189.718 161.381 189.78 161.043 189.781Z" fill="white"/>
<path d="M161.043 190.271C160.628 190.271 160.217 190.194 159.833 190.046C159.26 189.833 158.77 189.466 158.427 188.991C158.083 188.517 157.903 187.958 157.91 187.388V184.99C157.909 184.618 157.749 184.26 157.463 183.996C157.178 183.733 156.791 183.584 156.387 183.584C155.561 183.583 154.768 183.279 154.184 182.74C153.6 182.2 153.271 181.469 153.27 180.706V147.859C153.271 147.096 153.6 146.365 154.184 145.825C154.768 145.286 155.56 144.982 156.387 144.981H274.242C275.069 144.982 275.861 145.286 276.445 145.825C277.03 146.365 277.358 147.096 277.359 147.859V180.706C277.358 181.469 277.03 182.2 276.445 182.74C275.861 183.279 275.069 183.583 274.242 183.584H170.185C169.985 183.583 169.787 183.62 169.602 183.69C169.417 183.761 169.249 183.865 169.108 183.996L163.231 189.422C162.945 189.691 162.605 189.904 162.229 190.049C161.854 190.195 161.45 190.271 161.043 190.271ZM156.387 145.963C155.842 145.963 155.32 146.163 154.935 146.519C154.55 146.874 154.333 147.357 154.333 147.86V180.706C154.333 181.209 154.55 181.691 154.935 182.047C155.32 182.402 155.842 182.602 156.387 182.603C157.072 182.604 157.73 182.855 158.214 183.303C158.699 183.751 158.972 184.358 158.972 184.991V187.388C158.972 187.763 159.093 188.13 159.319 188.441C159.545 188.753 159.865 188.996 160.241 189.14C160.616 189.283 161.029 189.321 161.428 189.248C161.826 189.175 162.192 188.994 162.479 188.729L168.357 183.302C168.596 183.08 168.881 182.903 169.195 182.783C169.509 182.663 169.845 182.602 170.185 182.603H274.242C274.787 182.602 275.309 182.402 275.694 182.047C276.08 181.691 276.296 181.209 276.297 180.706V147.859C276.296 147.357 276.079 146.874 275.694 146.519C275.309 146.163 274.787 145.963 274.242 145.963L156.387 145.963Z" fill="#3F3D56"/>
<path d="M264.115 160.343H168.546C168.181 160.343 167.831 160.209 167.573 159.97C167.314 159.732 167.169 159.409 167.169 159.072C167.169 158.735 167.314 158.411 167.573 158.173C167.831 157.935 168.181 157.801 168.546 157.801H264.115C264.48 157.801 264.83 157.935 265.088 158.173C265.346 158.411 265.491 158.735 265.491 159.072C265.491 159.409 265.346 159.732 265.088 159.97C264.83 160.209 264.48 160.343 264.115 160.343Z" fill="#70EC44"/>
<path d="M263.939 165.743H168.546C168.181 165.743 167.831 165.609 167.573 165.371C167.314 165.133 167.169 164.809 167.169 164.472C167.169 164.135 167.314 163.812 167.573 163.573C167.831 163.335 168.181 163.201 168.546 163.201H263.939C264.304 163.201 264.654 163.335 264.912 163.573C265.17 163.812 265.315 164.135 265.315 164.472C265.315 164.809 265.17 165.133 264.912 165.371C264.654 165.609 264.304 165.743 263.939 165.743Z" fill="#E6E6E6"/>
<path d="M263.844 171.142H168.546C168.181 171.142 167.831 171.008 167.573 170.769C167.314 170.531 167.169 170.208 167.169 169.871C167.169 169.534 167.314 169.21 167.573 168.972C167.831 168.734 168.181 168.6 168.546 168.6H263.844C264.209 168.6 264.559 168.734 264.817 168.972C265.076 169.21 265.221 169.534 265.221 169.871C265.221 170.208 265.076 170.531 264.817 170.769C264.559 171.008 264.209 171.142 263.844 171.142Z" fill="#E6E6E6"/>
<path d="M414.616 140.376C414.616 141.568 414.573 142.76 414.483 143.942C414.387 145.355 414.222 146.758 413.999 148.151C413.249 152.842 411.816 157.418 409.738 161.755C409.632 161.971 409.526 162.187 409.42 162.402L409.26 162.726C409.207 162.834 409.149 162.942 409.095 163.045C409.021 163.187 408.952 163.325 408.878 163.462C408.787 163.634 408.697 163.806 408.601 163.977C408.591 163.997 408.58 164.021 408.564 164.046C408.484 164.193 408.41 164.335 408.325 164.483C408.309 164.515 408.292 164.546 408.272 164.576C408.182 164.743 408.086 164.914 407.99 165.081C407.884 165.258 407.783 165.439 407.677 165.616C407.422 166.052 407.156 166.484 406.885 166.916C406.806 167.043 406.726 167.171 406.641 167.298C406.566 167.416 406.492 167.534 406.412 167.652C406.359 167.73 406.306 167.814 406.253 167.892C406.168 168.024 406.083 168.152 405.993 168.284C405.796 168.574 405.594 168.863 405.398 169.153H405.392C405.302 169.285 405.206 169.418 405.111 169.545V169.55C404.829 169.943 404.537 170.335 404.245 170.723C404.244 170.723 404.243 170.723 404.243 170.723C404.242 170.723 404.241 170.724 404.241 170.724C404.24 170.724 404.24 170.725 404.24 170.726C404.239 170.726 404.239 170.727 404.239 170.727C404.006 171.041 403.761 171.346 403.522 171.65V171.655C403.363 171.846 403.209 172.042 403.049 172.234C402.922 172.391 402.789 172.552 402.656 172.709C402.63 172.744 402.598 172.773 402.571 172.808V172.812C402.534 172.857 402.497 172.896 402.46 172.94C401.896 173.607 401.315 174.26 400.717 174.897L400.621 175C400.589 175.035 400.552 175.069 400.52 175.108C400.467 175.162 400.419 175.216 400.366 175.27C400.318 175.324 400.265 175.378 400.212 175.432C397.092 178.678 393.554 181.559 389.677 184.012C389.161 184.341 388.635 184.66 388.109 184.969C387.976 185.047 387.844 185.126 387.711 185.199C387.674 185.224 387.631 185.248 387.594 185.273C387.519 185.312 387.45 185.351 387.376 185.396C387.307 185.435 387.238 185.474 387.164 185.513C386.882 185.675 386.595 185.832 386.308 185.989C386.239 186.028 386.165 186.068 386.09 186.107C386.021 186.141 385.947 186.181 385.872 186.22C385.872 186.225 385.872 186.225 385.867 186.225H385.862V186.23H385.857C385.501 186.421 385.139 186.607 384.773 186.789C384.576 186.887 384.374 186.99 384.172 187.083C383.715 187.314 383.253 187.535 382.791 187.745C382.626 187.819 382.456 187.893 382.292 187.971C382.153 188.03 382.015 188.094 381.877 188.153C381.835 188.172 381.797 188.187 381.76 188.207C381.643 188.256 381.532 188.305 381.415 188.354C381.287 188.408 381.16 188.462 381.038 188.516C380.894 188.575 380.756 188.633 380.613 188.687C380.081 188.908 379.545 189.119 379.008 189.32C377.085 190.048 375.12 190.677 373.121 191.204C373.031 191.229 372.935 191.253 372.84 191.278C371.984 191.498 371.124 191.699 370.258 191.881C368.743 192.205 367.215 192.47 365.673 192.676H365.662C365.476 192.7 365.295 192.725 365.109 192.749C365.093 192.749 365.078 192.754 365.056 192.754C365.056 192.759 365.056 192.759 365.051 192.754C364.849 192.779 364.642 192.803 364.44 192.828C364.426 192.832 364.412 192.833 364.397 192.833C364.206 192.857 364.01 192.877 363.818 192.896C363.611 192.916 363.404 192.936 363.197 192.955C363.037 192.97 362.878 192.985 362.719 193C362.705 193.004 362.69 193.006 362.676 193.004C362.533 193.014 362.389 193.029 362.246 193.039H362.224C362.102 193.049 361.975 193.058 361.853 193.068C360.37 193.176 358.883 193.225 357.374 193.225C355.743 193.225 354.122 193.166 352.523 193.039H352.507C352.162 193.009 351.822 192.98 351.482 192.95C351.391 192.941 351.306 192.936 351.216 192.926C351.2 192.926 351.179 192.921 351.163 192.921C351.136 192.916 351.11 192.916 351.078 192.911C351.064 192.912 351.049 192.91 351.035 192.906C350.918 192.896 350.802 192.882 350.679 192.872L350.281 192.828C350.148 192.813 350.015 192.793 349.882 192.779C349.851 192.774 349.824 192.774 349.792 192.769C349.697 192.759 349.601 192.744 349.505 192.73C349.457 192.725 349.41 192.72 349.367 192.715C349.271 192.7 349.181 192.69 349.086 192.676H349.08C346.165 192.288 343.287 191.69 340.473 190.885C340.324 190.841 340.176 190.802 340.027 190.758C340.022 190.758 340.016 190.753 340.011 190.753C339.968 190.738 339.921 190.728 339.878 190.713C339.48 190.596 339.087 190.473 338.693 190.346C338.151 190.179 337.615 189.997 337.078 189.811C336.935 189.757 336.791 189.708 336.648 189.654C336.356 189.551 336.069 189.443 335.782 189.335C335.293 189.153 334.804 188.962 334.321 188.766C333.869 188.579 333.423 188.393 332.977 188.197C332.966 188.192 332.95 188.192 332.939 188.182C332.838 188.138 332.738 188.094 332.642 188.05H332.637C330.19 186.965 327.83 185.721 325.576 184.326C324.853 183.88 324.141 183.419 323.44 182.943C322.877 182.555 322.324 182.163 321.772 181.761C319.046 179.758 316.522 177.532 314.233 175.108V175.103C314.068 174.937 313.914 174.765 313.754 174.593C313.728 174.569 313.707 174.544 313.685 174.525C313.584 174.412 313.489 174.304 313.388 174.196V174.191C313.255 174.049 313.122 173.902 312.995 173.754C312.963 173.72 312.936 173.691 312.91 173.661V173.656C312.803 173.538 312.702 173.421 312.596 173.298C312.543 173.239 312.495 173.18 312.442 173.122V173.117C312.129 172.754 311.826 172.391 311.523 172.018C311.443 171.92 311.364 171.817 311.279 171.714C310.896 171.238 310.524 170.752 310.163 170.266V170.261C310.025 170.08 309.892 169.894 309.754 169.712C309.621 169.526 309.488 169.339 309.355 169.153C309.222 168.957 309.084 168.765 308.951 168.569L308.935 168.54C308.803 168.353 308.67 168.157 308.542 167.966C308.441 167.809 308.34 167.657 308.239 167.504C308.176 167.401 308.107 167.298 308.043 167.191C308.018 167.157 307.995 167.123 307.974 167.087C307.825 166.847 307.676 166.607 307.528 166.366C307.352 166.087 307.182 165.802 307.012 165.518C306.948 165.4 306.879 165.282 306.81 165.164C306.784 165.125 306.762 165.086 306.741 165.047C306.662 164.909 306.582 164.767 306.507 164.625C306.428 164.487 306.348 164.345 306.268 164.203C306.194 164.066 306.114 163.923 306.04 163.781C305.981 163.673 305.928 163.565 305.87 163.457C305.866 163.448 305.86 163.44 305.854 163.433C305.827 163.379 305.801 163.33 305.78 163.281C305.773 163.273 305.768 163.265 305.764 163.256C305.705 163.148 305.652 163.035 305.594 162.927C305.519 162.785 305.45 162.638 305.376 162.496C305.328 162.398 305.275 162.295 305.227 162.192C305.158 162.049 305.084 161.907 305.02 161.76C304.945 161.613 304.876 161.466 304.807 161.313C304.787 161.277 304.77 161.239 304.754 161.201C304.717 161.132 304.69 161.063 304.659 160.995C304.574 160.813 304.489 160.627 304.409 160.445C304.313 160.239 304.223 160.028 304.138 159.822C304.053 159.631 303.973 159.435 303.893 159.238L303.862 159.17C302.624 156.159 301.685 153.051 301.056 149.883V149.878C300.702 148.07 300.448 146.246 300.297 144.413C300.291 144.31 300.281 144.212 300.275 144.114C300.18 142.873 300.137 141.627 300.137 140.376C300.137 139.821 300.148 139.272 300.164 138.723C300.535 127.232 304.972 116.169 312.798 107.228C312.968 107.032 313.138 106.835 313.313 106.639C313.489 106.443 313.669 106.252 313.845 106.06C319.669 99.7623 327.014 94.8161 335.289 91.6204C343.563 88.4247 352.535 87.0689 361.481 87.6622C370.427 88.2556 379.097 90.7815 386.791 95.0364C394.486 99.2913 400.991 105.156 405.78 112.158C406.04 112.541 406.301 112.928 406.55 113.316C406.805 113.708 407.05 114.101 407.294 114.498C412.108 122.398 414.629 131.312 414.616 140.376Z" fill="#F2F2F2"/>
<path d="M359.649 105.807C350.237 108.037 340.591 109.322 330.88 109.641C329.412 109.715 327.94 109.705 326.473 109.613C323.248 109.363 320.486 108.427 317.41 107.915C315.931 107.67 314.284 107.491 312.795 107.226C313.139 106.832 313.49 106.443 313.846 106.058C317.056 106.309 320.316 107.129 323.565 107.51C329.087 108.158 335.275 107.434 339.462 105.65C341.493 104.784 343.049 103.703 345.073 102.833C345.348 102.703 345.646 102.619 345.953 102.584C346.537 102.568 347.113 102.706 347.615 102.982C351.01 104.565 355.941 105.852 360.517 105.144C360.858 105.39 360.21 105.671 359.649 105.807Z" fill="white"/>
<path d="M379.899 111.377C379.941 111.37 379.983 111.364 380.024 111.358C379.849 111.257 379.683 111.142 379.53 111.014L379.899 111.377Z" fill="white"/>
<path d="M407.293 114.5C405.382 114.641 403.461 114.746 401.53 114.814C400.061 114.888 398.589 114.878 397.122 114.787C393.898 114.535 391.136 113.601 388.06 113.089C385.241 112.621 381.815 112.396 380.025 111.357C384.651 110.618 389.444 112.123 394.214 112.683C398.073 113.121 401.985 112.943 405.778 112.156C406.306 112.923 406.811 113.704 407.293 114.5Z" fill="white"/>
<path d="M350.921 163.502C360.416 163.502 368.113 156.236 368.113 147.274C368.113 138.311 360.416 131.046 350.921 131.046C341.426 131.046 333.729 138.311 333.729 147.274C333.729 156.236 341.426 163.502 350.921 163.502Z" fill="#FFB6B6"/>
<path d="M384.172 187.083C383.715 187.313 383.253 187.534 382.791 187.745C382.626 187.819 382.456 187.892 382.291 187.971C382.153 188.029 382.015 188.093 381.877 188.152C381.835 188.172 381.797 188.186 381.76 188.206C381.643 188.255 381.532 188.304 381.415 188.353C381.287 188.407 381.16 188.461 381.038 188.515C380.894 188.574 380.756 188.633 380.613 188.687C380.081 188.908 379.545 189.119 379.008 189.32C377.085 190.048 375.12 190.676 373.121 191.204C373.031 191.228 372.935 191.253 372.84 191.277C371.984 191.498 371.124 191.699 370.258 191.881C368.743 192.204 367.215 192.469 365.673 192.675H365.662C365.476 192.7 365.295 192.724 365.109 192.749C365.093 192.749 365.077 192.754 365.056 192.754C365.056 192.759 365.056 192.759 365.051 192.754C364.849 192.778 364.642 192.803 364.44 192.827C364.426 192.831 364.412 192.833 364.397 192.832C364.206 192.857 364.01 192.876 363.818 192.896C363.611 192.916 363.404 192.935 363.197 192.955C363.037 192.97 362.878 192.984 362.719 192.999C362.705 193.003 362.69 193.005 362.676 193.004C362.533 193.014 362.389 193.028 362.246 193.038H362.224C362.102 193.048 361.975 193.058 361.853 193.068C360.37 193.176 358.883 193.225 357.374 193.225C355.743 193.225 354.122 193.166 352.523 193.038H352.507C352.162 193.009 351.822 192.979 351.482 192.95C351.391 192.94 351.306 192.935 351.216 192.925C351.2 192.925 351.179 192.921 351.163 192.921C351.136 192.916 351.11 192.916 351.078 192.911C351.063 192.911 351.049 192.91 351.035 192.906C350.918 192.896 350.802 192.881 350.679 192.871L350.281 192.827C350.148 192.813 350.015 192.793 349.882 192.778C349.851 192.773 349.824 192.773 349.792 192.768C349.696 192.759 349.601 192.744 349.505 192.729C349.457 192.724 349.41 192.719 349.367 192.714C349.271 192.7 349.181 192.69 349.085 192.675H349.08C346.165 192.288 343.287 191.689 340.473 190.885C340.324 190.841 340.176 190.801 340.027 190.757C340.713 187.803 342.125 185.034 344.155 182.664C346.184 180.295 348.776 178.387 351.731 177.09C351 176.447 350.495 175.616 350.281 174.706C350.143 174.118 350.132 173.512 350.249 172.921C350.365 172.33 350.607 171.766 350.961 171.262C351.65 170.284 352.732 169.6 353.968 169.358L361.842 167.838C363.109 167.609 364.423 167.852 365.498 168.514C366.572 169.175 367.32 170.202 367.58 171.37C367.66 171.728 367.696 172.093 367.686 172.459C375.268 177.119 380.724 181.951 384.172 187.083Z" fill="#70EC44"/>
<path d="M396.925 140.236C394.002 137.089 392.613 132.914 390.277 129.341C387.941 125.768 383.876 122.57 379.581 123.402C376.62 123.975 374.332 126.387 373.174 129.076C372.016 131.766 371.799 134.731 371.596 137.637C371.667 131.666 367.407 125.878 361.538 123.973C355.67 122.067 348.647 124.193 344.959 128.989C343.35 127.612 341.249 126.828 339.056 126.785C336.862 126.743 334.728 127.445 333.057 128.759C329.759 131.481 329.029 136.662 331.455 140.134C333.881 143.606 339.134 144.899 342.989 142.974L344.352 144.131C343.585 146.609 345.072 149.535 347.573 150.468C349.601 151.224 352.464 151.098 353.223 153.063C353.753 154.436 352.762 155.902 351.708 156.957C350.653 158.012 349.402 159.101 349.275 160.561C349.084 162.764 351.549 164.307 353.79 164.772C359.194 165.893 365.191 163.582 368.305 159.179C368.365 159.094 368.431 159.009 368.501 158.923C370.249 156.86 371.522 154.489 372.244 151.956C372.965 149.423 373.12 146.78 372.699 144.19C372.523 143.172 372.7 142.415 373.46 142.174C376.745 141.132 385.948 143.319 388.733 145.295C391.518 147.271 393.749 149.887 396.431 151.99C399.114 154.094 402.533 155.717 405.939 155.144C408.668 154.685 410.989 152.856 412.55 150.65C414.111 148.444 415.009 145.873 415.814 143.318C409.781 146.535 401.524 145.188 396.925 140.236Z" fill="#2F2E41"/>
<path d="M44.0049 107.507C44.0049 108.699 44.0474 109.891 44.1378 111.073C44.2334 112.486 44.3981 113.889 44.6212 115.282C45.3712 119.973 46.8045 124.549 48.8822 128.886C48.9885 129.102 49.0947 129.317 49.201 129.533L49.3604 129.857C49.4135 129.965 49.472 130.073 49.5251 130.176C49.5995 130.318 49.6685 130.456 49.7429 130.593C49.8332 130.765 49.9236 130.936 50.0192 131.108C50.0298 131.128 50.0405 131.152 50.0564 131.177C50.1361 131.324 50.2105 131.466 50.2955 131.613C50.3111 131.645 50.3289 131.677 50.3486 131.707C50.4389 131.873 50.5346 132.045 50.6302 132.212C50.7365 132.388 50.8374 132.57 50.9437 132.747C51.1987 133.183 51.4643 133.615 51.7353 134.047C51.815 134.174 51.8947 134.302 51.9797 134.429C52.0541 134.547 52.1285 134.665 52.2081 134.782C52.2613 134.861 52.3144 134.944 52.3675 135.023C52.4525 135.155 52.5375 135.283 52.6279 135.415C52.8244 135.705 53.0263 135.994 53.2229 136.284H53.2282C53.3186 136.416 53.4142 136.549 53.5098 136.676V136.681C53.7914 137.073 54.0836 137.466 54.3758 137.853C54.3765 137.853 54.3772 137.854 54.3779 137.854C54.3785 137.854 54.3791 137.854 54.3796 137.855C54.3801 137.855 54.3805 137.856 54.3808 137.856C54.381 137.857 54.3812 137.858 54.3811 137.858C54.6149 138.172 54.8593 138.476 55.0984 138.781V138.786C55.2578 138.977 55.4119 139.173 55.5712 139.364C55.6988 139.521 55.8316 139.683 55.9644 139.84C55.991 139.875 56.0228 139.904 56.0494 139.938V139.943C56.0866 139.987 56.1238 140.027 56.161 140.071C56.7242 140.738 57.305 141.39 57.9036 142.028L57.9993 142.131C58.0312 142.166 58.0683 142.2 58.1002 142.239C58.1533 142.293 58.2012 142.347 58.2543 142.401C58.3021 142.455 58.3552 142.509 58.4084 142.563C61.5287 145.808 65.0668 148.69 68.944 151.143C69.4593 151.472 69.9853 151.791 70.5113 152.1C70.6441 152.178 70.7769 152.257 70.9098 152.33C70.9469 152.355 70.9895 152.379 71.0266 152.404C71.101 152.443 71.1701 152.482 71.2445 152.526C71.3135 152.566 71.3826 152.605 71.457 152.644C71.7386 152.806 72.0255 152.963 72.3124 153.12C72.3815 153.159 72.4558 153.199 72.5302 153.238C72.5993 153.272 72.6737 153.311 72.748 153.351C72.748 153.356 72.748 153.356 72.7534 153.356H72.7587V153.36H72.764C73.12 153.552 73.4813 153.738 73.8478 153.92C74.0444 154.018 74.2463 154.121 74.4482 154.214C74.9051 154.445 75.3673 154.665 75.8296 154.876C75.9943 154.95 76.1643 155.023 76.329 155.102C76.4671 155.161 76.6053 155.225 76.7434 155.283C76.7859 155.303 76.8231 155.318 76.8603 155.337C76.9772 155.387 77.0887 155.436 77.2056 155.485C77.3331 155.539 77.4606 155.593 77.5828 155.647C77.7263 155.705 77.8644 155.764 78.0079 155.818C78.5392 156.039 79.0758 156.25 79.6124 156.451C81.5354 157.179 83.5007 157.808 85.4991 158.335C85.5895 158.359 85.6851 158.384 85.7807 158.408C86.6361 158.629 87.4969 158.83 88.3629 159.012C89.8771 159.336 91.4054 159.601 92.9479 159.807H92.9586C93.1445 159.831 93.3252 159.856 93.5111 159.88C93.5271 159.88 93.543 159.885 93.5642 159.885C93.5642 159.89 93.5642 159.89 93.5696 159.885C93.7715 159.91 93.9787 159.934 94.1805 159.959C94.1943 159.962 94.2087 159.964 94.2231 159.964C94.4143 159.988 94.6109 160.008 94.8022 160.027C95.0094 160.047 95.2166 160.067 95.4238 160.086C95.5832 160.101 95.7426 160.116 95.902 160.13C95.9156 160.135 95.9301 160.136 95.9445 160.135C96.0879 160.145 96.2314 160.16 96.3748 160.17H96.3961C96.5183 160.179 96.6458 160.189 96.768 160.199C98.2503 160.307 99.7379 160.356 101.247 160.356C102.878 160.356 104.498 160.297 106.098 160.17H106.113C106.459 160.14 106.799 160.111 107.139 160.081C107.229 160.071 107.314 160.067 107.405 160.057C107.42 160.057 107.442 160.052 107.458 160.052C107.484 160.047 107.511 160.047 107.543 160.042C107.557 160.043 107.571 160.041 107.585 160.037C107.702 160.027 107.819 160.013 107.941 160.003L108.34 159.959C108.472 159.944 108.605 159.924 108.738 159.91C108.77 159.905 108.797 159.905 108.828 159.9C108.924 159.89 109.02 159.875 109.115 159.861C109.163 159.856 109.211 159.851 109.253 159.846C109.349 159.831 109.439 159.821 109.535 159.807H109.54C112.456 159.419 115.334 158.82 118.147 158.016C118.296 157.972 118.445 157.933 118.594 157.888C118.599 157.888 118.604 157.884 118.61 157.884C118.652 157.869 118.7 157.859 118.742 157.844C119.141 157.727 119.534 157.604 119.927 157.476C120.469 157.31 121.006 157.128 121.542 156.942C121.686 156.888 121.829 156.839 121.973 156.785C122.265 156.682 122.552 156.574 122.839 156.466C123.327 156.284 123.816 156.093 124.3 155.897C124.751 155.71 125.198 155.524 125.644 155.328C125.655 155.323 125.67 155.323 125.681 155.313C125.782 155.269 125.883 155.225 125.979 155.18H125.984C128.431 154.096 130.79 152.852 133.045 151.457C133.767 151.011 134.479 150.549 135.181 150.074C135.744 149.686 136.296 149.294 136.849 148.891C139.575 146.889 142.098 144.663 144.388 142.239V142.234C144.553 142.067 144.707 141.896 144.866 141.724C144.893 141.7 144.914 141.675 144.935 141.655C145.036 141.543 145.132 141.435 145.233 141.327V141.322C145.366 141.18 145.498 141.032 145.626 140.885C145.658 140.851 145.684 140.821 145.711 140.792V140.787C145.817 140.669 145.918 140.552 146.024 140.429C146.078 140.37 146.125 140.311 146.178 140.252V140.247C146.492 139.884 146.795 139.521 147.098 139.149C147.177 139.05 147.257 138.947 147.342 138.844C147.725 138.369 148.096 137.883 148.458 137.397V137.392C148.596 137.211 148.729 137.024 148.867 136.843C149 136.656 149.132 136.47 149.265 136.284C149.398 136.087 149.536 135.896 149.669 135.7L149.685 135.67C149.818 135.484 149.951 135.288 150.078 135.096C150.179 134.939 150.28 134.787 150.381 134.635C150.445 134.532 150.514 134.429 150.578 134.321C150.603 134.288 150.626 134.254 150.647 134.218C150.795 133.978 150.944 133.738 151.093 133.497C151.268 133.218 151.438 132.933 151.608 132.649C151.672 132.531 151.741 132.413 151.81 132.295C151.837 132.256 151.858 132.217 151.879 132.178C151.959 132.04 152.039 131.898 152.113 131.756C152.193 131.618 152.272 131.476 152.352 131.334C152.427 131.196 152.506 131.054 152.581 130.912C152.639 130.804 152.692 130.696 152.751 130.588C152.755 130.579 152.76 130.571 152.767 130.564C152.793 130.51 152.82 130.461 152.841 130.411C152.847 130.404 152.853 130.396 152.857 130.387C152.915 130.279 152.968 130.166 153.027 130.058C153.101 129.916 153.17 129.769 153.245 129.627C153.293 129.528 153.346 129.425 153.393 129.322C153.463 129.18 153.537 129.038 153.601 128.891C153.675 128.744 153.744 128.596 153.813 128.444C153.833 128.408 153.851 128.37 153.866 128.331C153.904 128.263 153.93 128.194 153.962 128.125C154.047 127.944 154.132 127.757 154.212 127.576C154.307 127.37 154.398 127.159 154.483 126.953C154.568 126.762 154.647 126.565 154.727 126.369L154.759 126.3C155.997 123.29 156.936 120.182 157.564 117.014V117.009C157.919 115.201 158.172 113.377 158.324 111.544C158.329 111.441 158.34 111.343 158.345 111.245C158.441 110.004 158.483 108.758 158.483 107.507C158.483 106.952 158.473 106.403 158.457 105.853C158.086 94.3624 153.648 83.3 145.823 74.3586C145.653 74.1624 145.482 73.9662 145.307 73.7699C145.132 73.5737 144.951 73.3824 144.776 73.191C138.952 66.8932 131.606 61.947 123.332 58.7513C115.057 55.5555 106.086 54.1997 97.1397 54.7931C88.1937 55.3864 79.5238 57.9124 71.8291 62.1673C64.1343 66.4222 57.63 72.287 52.8404 79.2889C52.5801 79.6715 52.3197 80.0591 52.07 80.4467C51.815 80.8391 51.5706 81.2316 51.3262 81.6289C46.513 89.5287 43.9911 98.4425 44.0049 107.507Z" fill="#F2F2F2"/>
<path d="M98.9714 72.9385C108.384 75.1686 118.029 76.454 127.74 76.7725C129.209 76.8464 130.681 76.8371 132.148 76.7448C135.372 76.4944 138.134 75.5587 141.21 75.0473C142.689 74.8022 144.336 74.6229 145.825 74.358C145.481 73.9639 145.131 73.5747 144.774 73.1903C141.564 73.4407 138.304 74.2605 135.055 74.6414C129.533 75.2898 123.345 74.5662 119.159 72.7817C117.128 71.9158 115.572 70.8351 113.548 69.9652C113.272 69.8347 112.974 69.7504 112.667 69.7161C112.083 69.6999 111.507 69.838 111.006 70.1141C107.61 71.697 102.68 72.9833 98.1035 72.2756C97.7624 72.5221 98.4104 72.8028 98.9714 72.9385Z" fill="white"/>
<path d="M78.7212 78.5088C78.6794 78.5017 78.6375 78.4962 78.5957 78.4896C78.7715 78.3889 78.937 78.2738 79.0903 78.1455L78.7212 78.5088Z" fill="white"/>
<path d="M51.3271 81.6313C53.2384 81.7724 55.1596 81.8773 57.0909 81.9463C58.5594 82.0195 60.0313 82.0103 61.4986 81.9187C64.7231 81.6669 67.485 80.7325 70.561 80.2211C73.3801 79.7532 76.8058 79.5279 78.5957 78.4893C73.9696 77.7499 69.1765 79.255 64.4062 79.8152C60.5476 80.2533 56.6361 80.0749 52.843 79.288C52.3149 80.055 51.8096 80.8362 51.3271 81.6313Z" fill="white"/>
<path d="M74.4478 154.215C74.9047 154.445 75.3669 154.666 75.8291 154.877C75.9938 154.95 76.1638 155.024 76.3285 155.102C76.4667 155.161 76.6048 155.225 76.743 155.284C76.7855 155.304 76.8227 155.318 76.8598 155.338C76.9767 155.387 77.0883 155.436 77.2052 155.485C77.3327 155.539 77.4602 155.593 77.5824 155.647C77.7259 155.706 77.864 155.765 78.0074 155.819C78.5387 156.039 79.0753 156.25 79.6119 156.452C81.535 157.179 83.5003 157.808 85.4987 158.335C85.589 158.36 85.6847 158.384 85.7803 158.409C86.6357 158.63 87.4964 158.831 88.3624 159.012C89.8766 159.336 91.405 159.601 92.9475 159.807H92.9581C93.1441 159.832 93.3247 159.856 93.5107 159.881C93.5266 159.881 93.5426 159.886 93.5638 159.886C93.5638 159.89 93.5638 159.89 93.5691 159.886C93.771 159.91 93.9782 159.935 94.1801 159.959C94.1939 159.963 94.2083 159.965 94.2226 159.964C94.4139 159.989 94.6105 160.008 94.8017 160.028C95.0089 160.047 95.2161 160.067 95.4233 160.087C95.5827 160.101 95.7421 160.116 95.9015 160.131C95.9152 160.135 95.9296 160.137 95.944 160.136C96.0875 160.146 96.2309 160.16 96.3744 160.17H96.3956C96.5178 160.18 96.6453 160.19 96.7675 160.2C98.2498 160.307 99.7375 160.356 101.246 160.356C102.877 160.356 104.498 160.298 106.097 160.17H106.113C106.458 160.141 106.798 160.111 107.138 160.082C107.229 160.072 107.314 160.067 107.404 160.057C107.42 160.057 107.441 160.052 107.457 160.052C107.484 160.047 107.51 160.047 107.542 160.043C107.557 160.043 107.571 160.041 107.585 160.038C107.702 160.028 107.818 160.013 107.941 160.003L108.339 159.959C108.472 159.944 108.605 159.925 108.738 159.91C108.769 159.905 108.796 159.905 108.828 159.9C108.924 159.89 109.019 159.876 109.115 159.861C109.163 159.856 109.21 159.851 109.253 159.846C109.349 159.832 109.439 159.822 109.535 159.807H109.54C112.455 159.42 115.333 158.821 118.147 158.016C118.296 157.972 118.444 157.933 118.593 157.889C117.907 154.935 116.495 152.166 114.465 149.796C112.436 147.426 109.844 145.519 106.889 144.222C107.62 143.579 108.125 142.748 108.339 141.837C108.477 141.25 108.488 140.644 108.371 140.053C108.255 139.462 108.013 138.898 107.659 138.394C106.97 137.416 105.888 136.731 104.652 136.49L96.7781 134.969C95.5106 134.741 94.1968 134.984 93.1223 135.646C92.0478 136.307 91.2996 137.333 91.0402 138.502C90.9598 138.86 90.9242 139.225 90.9339 139.591C83.3523 144.251 77.8959 149.083 74.4478 154.215Z" fill="#70EC44"/>
<path d="M105.597 130.062C116.182 130.062 124.763 122.139 124.763 112.365C124.763 102.592 116.182 94.6689 105.597 94.6689C95.0123 94.6689 86.4316 102.592 86.4316 112.365C86.4316 122.139 95.0123 130.062 105.597 130.062Z" fill="#9E616A"/>
<path d="M102.873 129.115C98.0754 130.312 92.7857 128.721 89.0412 125.703C85.2968 122.686 82.9545 118.41 81.6049 113.993C80.6165 110.759 80.1478 107.168 81.7076 104.132C83.2674 101.095 87.4653 99.0461 90.704 100.58C88.7061 98.4307 89.7042 94.8758 92.0377 93.0371C94.3711 91.1985 97.5753 90.6713 100.627 90.3831C105.056 89.9649 109.631 89.9181 113.845 91.2429C118.059 92.5678 121.889 95.4643 123.208 99.3904C124.555 99.9696 126.072 100.12 127.521 99.8176C128.971 99.5155 130.271 98.7779 131.218 97.7205C131.462 98.9349 131.266 100.19 130.66 101.291C130.054 102.392 129.072 103.278 127.865 103.812L134.323 101.879C135.433 104.049 133.487 106.736 130.999 107.431C128.51 108.126 125.824 107.366 123.463 106.362C121.102 105.358 118.813 104.088 116.248 103.697C113.684 103.305 110.671 104.066 109.484 106.202C108.863 107.321 108.83 108.631 108.47 109.843C108.109 111.056 107.195 112.312 105.838 112.412C104.98 112.474 104.14 112.053 103.285 112.139C102.76 112.234 102.277 112.469 101.894 112.814C101.512 113.159 101.247 113.6 101.131 114.082C100.918 115.05 100.916 116.047 101.123 117.016L102.764 128.592L102.873 129.115Z" fill="#2F2E41"/>
</g>
<defs>
<clipPath id="clip0_60_982">
<rect width="430" height="309" fill="white"/>
</clipPath>
</defs>
</svg>
