<svg width="36" height="25" viewBox="0 0 36 25" fill="none" xmlns="http://www.w3.org/2000/svg">
<rect width="34.8542" height="25" transform="translate(0.991699)" fill="white"/>
<path d="M17.6926 2.0835C10.8815 2.0835 5.34839 6.05225 5.34839 10.9377C5.34839 15.8231 10.8815 19.7918 17.6926 19.7918H18.4187V22.9168C25.4767 20.4793 30.0368 15.6252 30.0368 10.9377C30.0368 6.05225 24.5037 2.0835 17.6926 2.0835ZM19.1448 17.1877H16.2403V15.1043H19.1448V17.1877ZM19.1448 13.5418H16.2403C16.2403 10.1564 20.5971 10.4168 20.5971 8.3335C20.5971 7.18766 19.2901 6.25016 17.6926 6.25016C16.0951 6.25016 14.7881 7.18766 14.7881 8.3335H11.8835C11.8835 6.03141 14.4831 4.16683 17.6926 4.16683C20.9021 4.16683 23.5016 6.03141 23.5016 8.3335C23.5016 10.9377 19.1448 11.1981 19.1448 13.5418Z" fill="#2F2E41"/>
</svg>
