<svg width="508" height="286" viewBox="0 0 508 286" fill="none" xmlns="http://www.w3.org/2000/svg">
<g clip-path="url(#clip0_60_344)">
<path d="M38.2202 285.857L37.6856 284.869C44.8539 280.994 53.7752 276.173 58.4348 268.26C63.0283 260.46 63.1313 249.868 58.7038 240.617C54.9359 232.744 48.0145 225.691 38.688 220.219C36.8483 219.14 34.9172 218.117 33.0496 217.128C28.5354 214.737 23.8675 212.264 20.0185 208.756C14.7173 203.925 10.7062 195.817 13.6958 188.595C14.679 186.29 16.2892 184.307 18.3436 182.87C20.3979 181.434 22.8142 180.602 25.3179 180.469L25.3813 181.591C23.0876 181.712 20.8739 182.474 18.9914 183.789C17.109 185.105 15.6331 186.921 14.7314 189.032C11.9533 195.743 15.7648 203.359 20.776 207.926C24.5197 211.338 29.1237 213.777 33.576 216.135C35.4542 217.13 37.3965 218.159 39.2572 219.25C48.7778 224.836 55.853 232.056 59.7179 240.132C64.3046 249.715 64.1842 260.712 59.4037 268.83C54.5852 277.012 45.5113 281.917 38.2202 285.857Z" fill="#F1F1F1"/>
<path d="M32.4426 186.39C37.875 186.39 42.2788 184.252 42.2788 181.615C42.2788 178.979 37.875 176.841 32.4426 176.841C27.0102 176.841 22.6064 178.979 22.6064 181.615C22.6064 184.252 27.0102 186.39 32.4426 186.39Z" fill="#F1F1F1"/>
<path d="M40.3113 217.847C45.7436 217.847 50.1474 215.71 50.1474 213.073C50.1474 210.436 45.7436 208.298 40.3113 208.298C34.8789 208.298 30.4751 210.436 30.4751 213.073C30.4751 215.71 34.8789 217.847 40.3113 217.847Z" fill="#F1F1F1"/>
<path d="M22.3254 222.903C27.7578 222.903 32.1616 220.765 32.1616 218.128C32.1616 215.491 27.7578 213.354 22.3254 213.354C16.8931 213.354 12.4893 215.491 12.4893 218.128C12.4893 220.765 16.8931 222.903 22.3254 222.903Z" fill="#F1F1F1"/>
<path d="M50.4285 249.303C55.8608 249.303 60.2646 247.166 60.2646 244.529C60.2646 241.892 55.8608 239.754 50.4285 239.754C44.9961 239.754 40.5923 241.892 40.5923 244.529C40.5923 247.166 44.9961 249.303 50.4285 249.303Z" fill="#F1F1F1"/>
<path d="M70.1008 249.303C75.5332 249.303 79.937 247.166 79.937 244.529C79.937 241.892 75.5332 239.754 70.1008 239.754C64.6685 239.754 60.2646 241.892 60.2646 244.529C60.2646 247.166 64.6685 249.303 70.1008 249.303Z" fill="#F1F1F1"/>
<path d="M508 8.66699H191.671V158.679H508V8.66699Z" fill="#E6E6E6"/>
<path d="M498.955 21.5312H200.717V146.691H498.955V21.5312Z" fill="white"/>
<path d="M507.865 0H191.536V13.4304H507.865V0Z" fill="#70EC44"/>
<path d="M201.523 8.70122C202.898 8.70122 204.014 7.58673 204.014 6.21194C204.014 4.83715 202.898 3.72266 201.523 3.72266C200.147 3.72266 199.032 4.83715 199.032 6.21194C199.032 7.58673 200.147 8.70122 201.523 8.70122Z" fill="white"/>
<path d="M210.977 8.70122C212.353 8.70122 213.468 7.58673 213.468 6.21194C213.468 4.83715 212.353 3.72266 210.977 3.72266C209.601 3.72266 208.486 4.83715 208.486 6.21194C208.486 7.58673 209.601 8.70122 210.977 8.70122Z" fill="white"/>
<path d="M220.432 8.70122C221.807 8.70122 222.923 7.58673 222.923 6.21194C222.923 4.83715 221.807 3.72266 220.432 3.72266C219.056 3.72266 217.941 4.83715 217.941 6.21194C217.941 7.58673 219.056 8.70122 220.432 8.70122Z" fill="white"/>
<path d="M334.111 51.2334C333.791 51.2334 333.484 51.3605 333.257 51.5866C333.031 51.8128 332.904 52.1195 332.904 52.4394C332.904 52.7592 333.031 53.0659 333.257 53.2921C333.484 53.5183 333.791 53.6453 334.111 53.6453H400.324C400.644 53.6453 400.951 53.5183 401.178 53.2921C401.404 53.0659 401.531 52.7592 401.531 52.4394C401.531 52.1195 401.404 51.8128 401.178 51.5866C400.951 51.3605 400.644 51.2334 400.324 51.2334H334.111Z" fill="#E6E6E6"/>
<path d="M334.111 58.4707C333.791 58.4714 333.485 58.5987 333.259 58.8248C333.034 59.0509 332.907 59.3573 332.907 59.6767C332.907 59.9961 333.034 60.3024 333.259 60.5285C333.485 60.7546 333.791 60.8819 334.111 60.8826H367.914C368.234 60.8819 368.54 60.7546 368.766 60.5285C368.992 60.3024 369.118 59.9961 369.118 59.6767C369.118 59.3573 368.992 59.0509 368.766 58.8248C368.54 58.5987 368.234 58.4714 367.914 58.4707H334.111Z" fill="#E6E6E6"/>
<path d="M332.445 93.4961C332.124 93.4961 331.818 93.6232 331.591 93.8493C331.365 94.0755 331.238 94.3822 331.238 94.702C331.238 95.0219 331.365 95.3286 331.591 95.5548C331.818 95.7809 332.124 95.908 332.445 95.908H456.595C456.916 95.908 457.222 95.7809 457.449 95.5548C457.675 95.3286 457.802 95.0219 457.802 94.702C457.802 94.3822 457.675 94.0755 457.449 93.8493C457.222 93.6232 456.916 93.4961 456.595 93.4961H332.445Z" fill="#E6E6E6"/>
<path d="M332.445 100.732C332.125 100.733 331.819 100.86 331.593 101.087C331.367 101.313 331.24 101.619 331.24 101.938C331.24 102.258 331.367 102.564 331.593 102.79C331.819 103.016 332.125 103.144 332.445 103.144H424.185C424.505 103.144 424.811 103.016 425.037 102.79C425.263 102.564 425.389 102.258 425.389 101.938C425.389 101.619 425.263 101.313 425.037 101.087C424.811 100.86 424.505 100.733 424.185 100.732H332.445Z" fill="#E6E6E6"/>
<path d="M332.445 107.805C332.125 107.805 331.819 107.933 331.593 108.159C331.367 108.385 331.24 108.691 331.24 109.011C331.24 109.33 331.367 109.636 331.593 109.862C331.819 110.089 332.125 110.216 332.445 110.217H456.596C456.915 110.216 457.221 110.089 457.447 109.862C457.673 109.636 457.8 109.33 457.8 109.011C457.8 108.691 457.673 108.385 457.447 108.159C457.221 107.933 456.915 107.805 456.596 107.805H332.445Z" fill="#E6E6E6"/>
<path d="M332.445 115.041C332.125 115.042 331.819 115.169 331.593 115.395C331.367 115.621 331.24 115.928 331.24 116.247C331.24 116.566 331.367 116.873 331.593 117.099C331.819 117.325 332.125 117.452 332.445 117.453H424.185C424.505 117.452 424.811 117.325 425.037 117.099C425.263 116.873 425.389 116.566 425.389 116.247C425.389 115.928 425.263 115.621 425.037 115.395C424.811 115.169 424.505 115.042 424.185 115.041H332.445Z" fill="#E6E6E6"/>
<path d="M267.537 98.3898C273.341 98.3898 278.045 93.6883 278.045 87.8888C278.045 82.0892 273.341 77.3877 267.537 77.3877C261.734 77.3877 257.03 82.0892 257.03 87.8888C257.03 93.6883 261.734 98.3898 267.537 98.3898Z" fill="#A0616A"/>
<path d="M264.21 79.4881C264.21 79.4881 269.114 80.8007 271.653 81.3258C274.192 81.8508 273.93 80.3632 273.93 80.3632C273.93 80.3632 277.257 80.8007 277.082 80.4507C276.907 80.1006 278.483 78.263 276.644 76.1628C274.805 74.0625 275.33 72.4874 275.33 72.4874H273.754L273.317 71.8748H270.865C270.865 71.8748 268.154 69.4993 263.338 70.1994C258.522 70.8995 252.827 72.7499 252.302 75.6377C252.23 76.0294 252.137 76.4646 252.028 76.9242C250.711 82.4805 253.509 87.6792 256.411 92.5978C257.124 93.8066 260.574 96.4424 260.486 94.634C260.398 92.8255 257.38 88.764 259.482 88.5015C261.583 88.239 265.173 82.9009 264.21 79.4881Z" fill="#2F2E41"/>
<path d="M261.577 121.837C259.548 121.674 257.537 121.344 255.563 120.849L255.674 118.755L256.594 102.104L256.602 101.977H275.111L278.016 117.308L278.408 119.376C277.641 119.674 276.866 119.955 276.074 120.202C276.065 120.202 276.065 120.211 276.057 120.211C274.958 120.551 273.842 120.849 272.718 121.096C271.223 121.418 269.709 121.651 268.186 121.794C267.009 121.911 265.827 121.968 264.643 121.964C263.621 121.964 262.59 121.922 261.577 121.837Z" fill="#70EC44"/>
<path d="M249.677 118.875C248.911 118.543 248.17 118.185 247.437 117.811L247.122 117.649C246.909 117.538 246.688 117.419 246.475 117.3C246.185 117.138 245.904 116.977 245.631 116.815C245.367 116.662 245.095 116.5 244.831 116.338C244.814 116.33 244.806 116.321 244.788 116.321C243.868 115.734 242.966 115.129 242.097 114.474C241.952 114.363 241.807 114.253 241.662 114.142L241.509 111.69L241.73 111.554L256.594 102.105L256.798 101.977L256.815 101.969L258.911 101.977V109.775C260.095 111.486 260.895 115.07 261.389 119.76C261.458 120.433 261.517 121.122 261.577 121.837C259.549 121.675 257.537 121.345 255.563 120.85C255.35 120.807 255.146 120.756 254.933 120.697C253.692 120.372 252.469 119.98 251.27 119.522C250.904 119.386 250.546 119.241 250.189 119.096L250.155 119.079C250.001 119.011 249.831 118.943 249.677 118.875Z" fill="#2F2E41"/>
<path d="M246.475 117.3C246.185 117.138 245.904 116.977 245.631 116.815C245.367 116.662 245.095 116.5 244.831 116.338C244.814 116.33 244.805 116.321 244.788 116.321C243.868 115.734 242.965 115.129 242.097 114.474C241.952 114.363 241.807 114.253 241.662 114.142C241.594 114.082 241.526 114.031 241.449 113.972C240.904 113.555 240.376 113.121 239.865 112.661C239.839 112.644 239.822 112.618 239.797 112.601C240.313 112.205 240.891 111.897 241.509 111.69L242.114 111.869L246.424 113.163L246.449 114.908L246.475 117.3Z" fill="#2F2E41"/>
<path d="M282.769 117.325C282.513 117.461 282.258 117.597 282.003 117.725C281.943 117.759 281.892 117.785 281.841 117.81C281.5 117.981 281.168 118.151 280.827 118.312C280.819 118.321 280.802 118.321 280.802 118.33C280.784 118.338 280.759 118.347 280.742 118.355C279.976 118.721 279.2 119.062 278.408 119.377C277.641 119.675 276.866 119.955 276.074 120.202C276.066 120.202 276.066 120.211 276.057 120.211C274.958 120.551 273.843 120.849 272.718 121.096C272.705 120.397 272.797 119.7 272.991 119.028L272.999 118.908L273.732 107.059L272.752 101.977L275.563 101.56L291.023 109.876C291.023 109.876 289.319 111.579 282.326 115.205C281.708 115.526 282.616 116.593 282.769 117.325Z" fill="#2F2E41"/>
<path d="M267.999 119.751C266.892 119.853 265.767 119.904 264.643 119.904C263.553 119.904 262.471 119.862 261.389 119.76C261.457 120.432 261.517 121.122 261.577 121.837C262.59 121.922 263.621 121.964 264.643 121.964C265.826 121.968 267.009 121.911 268.186 121.794C269.709 121.651 271.223 121.418 272.718 121.096C272.705 120.397 272.797 119.7 272.991 119.027L272.999 118.908C271.355 119.308 269.684 119.59 267.999 119.751ZM300.188 71.9781C298.388 66.8108 295.482 62.0981 291.672 58.1686C287.862 54.2391 283.241 51.1874 278.13 49.2263C273.019 47.2651 267.542 46.4417 262.08 46.8135C256.617 47.1853 251.302 48.7434 246.505 51.3791C241.707 54.0147 237.542 57.6645 234.301 62.074C231.06 66.4835 228.82 71.5465 227.738 76.9099C226.655 82.2734 226.757 87.8082 228.035 93.1284C229.313 98.4487 231.737 103.426 235.137 107.714C235.478 108.14 235.827 108.565 236.185 108.974C236.219 109.008 236.236 109.034 236.262 109.059C237.141 110.073 238.077 111.036 239.064 111.945C239.303 112.166 239.549 112.388 239.796 112.6C239.822 112.617 239.839 112.643 239.865 112.66C240.376 113.12 240.904 113.554 241.449 113.971C241.526 114.031 241.594 114.082 241.662 114.141C241.807 114.252 241.952 114.363 242.096 114.473C242.965 115.129 243.868 115.733 244.788 116.32C244.805 116.32 244.814 116.329 244.831 116.337C245.095 116.499 245.367 116.661 245.631 116.814C245.904 116.976 246.185 117.138 246.475 117.299C246.688 117.419 246.909 117.538 247.122 117.648L247.437 117.81C248.17 118.185 248.911 118.542 249.677 118.874C249.831 118.942 250.001 119.01 250.154 119.079L250.188 119.096C250.546 119.24 250.904 119.385 251.27 119.521C252.469 119.979 253.691 120.371 254.933 120.696C255.146 120.756 255.35 120.807 255.563 120.849C257.537 121.344 259.548 121.674 261.577 121.837C262.59 121.922 263.621 121.964 264.643 121.964C265.826 121.968 267.009 121.911 268.186 121.794C269.709 121.651 271.222 121.418 272.718 121.096C273.842 120.849 274.958 120.551 276.057 120.211C276.065 120.211 276.065 120.202 276.074 120.202C276.866 119.955 277.641 119.674 278.408 119.376C279.2 119.062 279.975 118.721 280.742 118.355C280.759 118.346 280.784 118.338 280.801 118.329C280.801 118.321 280.818 118.321 280.827 118.312C281.168 118.151 281.5 117.98 281.841 117.81C281.892 117.785 281.943 117.759 282.002 117.725C282.258 117.597 282.513 117.461 282.769 117.325C282.786 117.316 282.794 117.308 282.811 117.299C283.484 116.925 284.149 116.533 284.805 116.116C284.984 116.006 285.163 115.895 285.341 115.767C285.605 115.605 285.861 115.427 286.108 115.248C286.44 115.018 286.772 114.78 287.096 114.533C287.204 114.464 287.306 114.387 287.403 114.303C288.195 113.707 288.961 113.077 289.694 112.413C295.249 107.466 299.211 100.984 301.079 93.7867C302.947 86.5891 302.637 78.9995 300.188 71.9781L300.188 71.9781ZM289.055 110.217C288.133 111.084 287.166 111.902 286.159 112.669C285.938 112.839 285.707 113.009 285.478 113.162C285.256 113.333 285.035 113.494 284.805 113.647C284.609 113.784 284.413 113.92 284.209 114.048C284.191 114.065 284.166 114.073 284.149 114.09C284.004 114.192 283.851 114.286 283.706 114.38C283.254 114.66 282.786 114.941 282.326 115.205C282.215 115.265 282.113 115.333 282.003 115.393C281.943 115.427 281.883 115.461 281.815 115.495C281.56 115.639 281.304 115.767 281.048 115.903C281.014 115.929 280.972 115.937 280.938 115.963C280.925 115.965 280.913 115.971 280.904 115.98C280.725 116.074 280.546 116.159 280.367 116.244C280.214 116.32 280.069 116.397 279.916 116.465C279.294 116.763 278.655 117.044 278.016 117.308C277.343 117.58 276.662 117.827 275.972 118.057C275.801 118.117 275.622 118.185 275.444 118.236C274.634 118.491 273.825 118.721 272.999 118.908C271.355 119.308 269.684 119.59 267.999 119.751C266.892 119.853 265.768 119.904 264.643 119.904C263.553 119.904 262.471 119.862 261.389 119.76C259.46 119.583 257.548 119.247 255.674 118.755C255.606 118.738 255.529 118.721 255.461 118.704C253.924 118.303 252.418 117.791 250.955 117.172C250.878 117.138 250.793 117.112 250.725 117.078C250.64 117.044 250.563 117.018 250.495 116.984C250.41 116.95 250.333 116.916 250.257 116.882C249.618 116.601 248.996 116.295 248.374 115.98L248.084 115.827C247.531 115.537 246.986 115.239 246.449 114.907C246.262 114.805 246.066 114.686 245.878 114.567C245.665 114.439 245.452 114.303 245.248 114.167C245.197 114.133 245.146 114.099 245.095 114.065C244.618 113.741 244.132 113.418 243.672 113.069C243.349 112.83 243.034 112.6 242.718 112.354C242.514 112.2 242.309 112.039 242.114 111.868C241.986 111.775 241.858 111.664 241.73 111.553C241.56 111.409 241.389 111.264 241.219 111.111C240.955 110.898 240.708 110.66 240.469 110.438C239.51 109.555 238.603 108.617 237.752 107.629C237.463 107.306 237.19 106.982 236.926 106.642C236.865 106.575 236.808 106.503 236.756 106.429C232.468 101.019 229.848 94.4782 229.215 87.6053C228.583 80.7324 229.966 73.8242 233.196 67.7235C236.425 61.6227 241.361 56.5932 247.402 53.2485C253.443 49.9037 260.328 48.3884 267.216 48.8873C274.104 49.3862 280.698 51.8778 286.193 56.0581C291.688 60.2384 295.847 65.9267 298.162 72.4291C300.478 78.9315 300.85 85.9668 299.233 92.6768C297.615 99.3867 294.079 105.481 289.055 110.217L289.055 110.217Z" fill="#3F3D56"/>
<path d="M91.862 279.008L98.7529 279.007L102.031 252.444L91.8608 252.445L91.862 279.008Z" fill="#A0616A"/>
<path d="M90.1045 276.759L103.675 276.759H103.676C105.969 276.759 108.169 277.67 109.791 279.29C111.412 280.911 112.324 283.109 112.324 285.402V285.682L90.1049 285.683L90.1045 276.759Z" fill="#2F2E41"/>
<path d="M117.717 279.008L124.608 279.007L127.886 252.444L117.716 252.445L117.717 279.008Z" fill="#A0616A"/>
<path d="M115.959 276.759L129.53 276.759H129.531C131.824 276.759 134.024 277.67 135.646 279.29C137.267 280.911 138.179 283.109 138.179 285.402V285.682L115.96 285.683L115.959 276.759Z" fill="#2F2E41"/>
<path d="M70.9532 174.045C71.5171 173.442 71.9418 172.722 72.1973 171.937C72.4529 171.151 72.533 170.32 72.4321 169.5C72.3311 168.68 72.0516 167.893 71.6132 167.193C71.1748 166.493 70.5882 165.898 69.8946 165.449L74.6824 145.954L64.8505 149.455L61.8113 167.431C61.134 168.645 60.9259 170.066 61.2266 171.423C61.5273 172.781 62.3157 173.981 63.4426 174.796C64.5694 175.611 65.9564 175.985 67.3406 175.847C68.7249 175.708 70.0102 175.067 70.9532 174.045Z" fill="#9E616A"/>
<path d="M144.101 172.36C143.537 171.756 143.113 171.036 142.857 170.251C142.602 169.466 142.521 168.634 142.622 167.814C142.723 166.995 143.003 166.207 143.441 165.507C143.88 164.807 144.466 164.212 145.16 163.763L140.372 144.269L150.204 147.77L153.243 165.745C153.92 166.96 154.129 168.38 153.828 169.738C153.527 171.095 152.739 172.295 151.612 173.111C150.485 173.926 149.098 174.3 147.714 174.161C146.33 174.023 145.044 173.382 144.101 172.36Z" fill="#9E616A"/>
<path d="M80.0195 160.38L89.5707 272.2L103.546 270.927L109.139 184.505L114.118 218.724L115.115 273.08L127.761 272.238L134.784 213.762L133.061 157.13L85.0512 152.271L80.0195 160.38Z" fill="#2F2E41"/>
<path d="M106.294 58.6263C114.298 58.6263 120.787 52.1413 120.787 44.1417C120.787 36.1422 114.298 29.6572 106.294 29.6572C98.2892 29.6572 91.8003 36.1422 91.8003 44.1417C91.8003 52.1413 98.2892 58.6263 106.294 58.6263Z" fill="#A0616A"/>
<path d="M101.704 32.5538C101.704 32.5538 108.468 34.3643 111.97 35.0885C115.473 35.8128 115.11 33.7608 115.11 33.7608C115.11 33.7608 119.7 34.3643 119.458 33.8815C119.217 33.3987 121.391 30.8639 118.854 27.967C116.318 25.0701 117.043 22.8974 117.043 22.8974H114.869L114.265 22.0525H110.883C110.883 22.0525 107.144 18.7759 100.501 19.7415C93.8587 20.7071 86.0029 23.2595 85.2782 27.2428C85.1799 27.783 85.0505 28.3833 84.9003 29.0173C83.0838 36.6812 86.9433 43.8521 90.9463 50.6364C91.9301 52.3038 96.6887 55.9395 96.567 53.4451C96.4453 50.9506 92.2833 45.3484 95.182 44.9863C98.0807 44.6242 103.033 37.2612 101.704 32.5538Z" fill="#2F2E41"/>
<path d="M91.2117 63.5742H116.736L134.784 158.829C134.784 158.829 119.05 160.173 110.056 163.544C101.063 166.914 86.1133 155.845 86.1133 155.845L91.2117 63.5742Z" fill="#70EC44"/>
<path d="M94.3987 74.3312V63.5742L91.5087 63.5566L70.3936 76.9735L74.9753 150.482C74.9753 150.482 80.3981 175.006 88.6232 174.752C96.8483 174.498 103.19 87.0717 94.3987 74.3312Z" fill="#2F2E41"/>
<path d="M77.1759 79.0043L70.3935 76.9736C70.3935 76.9736 65.3725 78.4425 65.3725 83.4981C65.3725 88.5536 61.0464 160.38 61.0464 160.38L74.7893 161.594L77.738 125.066L77.1759 79.0043Z" fill="#2F2E41"/>
<path d="M114.834 70.5784L113.482 63.5744L117.364 62.9951L131.415 68.6124C131.415 68.6124 144.062 161.016 138.441 163.825C132.82 166.634 129.025 164.458 129.025 164.458C129.025 164.458 110.538 96.3055 113.81 87.0932L114.834 70.5784Z" fill="#2F2E41"/>
<path d="M121.579 70.0166L123.977 68.9735C123.977 68.9735 131.016 65.4876 135.01 72.5268C139.003 79.566 153.055 158.208 153.055 158.208L141.493 160.38L132.849 132.078L121.579 70.0166Z" fill="#2F2E41"/>
<path d="M214.71 286H0.562067C0.412997 286 0.270033 285.941 0.164625 285.836C0.0592172 285.731 0 285.588 0 285.439C0 285.29 0.0592172 285.147 0.164625 285.041C0.270033 284.936 0.412997 284.877 0.562067 284.877H214.71C214.859 284.877 215.002 284.936 215.107 285.041C215.212 285.147 215.272 285.29 215.272 285.439C215.272 285.588 215.212 285.731 215.107 285.836C215.002 285.941 214.859 286 214.71 286Z" fill="#CACACA"/>
</g>
<defs>
<clipPath id="clip0_60_344">
<rect width="508" height="286" fill="white"/>
</clipPath>
</defs>
</svg>
