<svg width="484" height="239" viewBox="0 0 484 239" fill="none" xmlns="http://www.w3.org/2000/svg">
<g clip-path="url(#clip0_72_1544)">
<path d="M190.991 190.964H1.94668C1.43057 190.964 0.935749 190.803 0.570799 190.516C0.20585 190.229 0.000572347 189.841 0 189.435V44.6534C0.000572347 44.2479 0.20585 43.8592 0.570799 43.5725C0.935749 43.2857 1.43057 43.1245 1.94668 43.124H190.991C191.508 43.1245 192.002 43.2857 192.367 43.5725C192.732 43.8592 192.938 44.2479 192.938 44.6534V189.435C192.938 189.841 192.732 190.229 192.367 190.516C192.002 190.803 191.508 190.964 190.991 190.964Z" fill="#F0F0F0"/>
<path d="M170.443 56.3789H22.495C21.979 56.3795 21.4843 56.5408 21.1194 56.8275C20.7545 57.1142 20.5491 57.5029 20.5483 57.9083V147.972C20.5491 148.377 20.7545 148.766 21.1194 149.053C21.4843 149.339 21.979 149.501 22.495 149.501H170.443C170.959 149.501 171.454 149.339 171.819 149.053C172.184 148.766 172.389 148.377 172.39 147.972V57.9083C172.389 57.5029 172.184 57.1142 171.819 56.8275C171.454 56.5408 170.959 56.3795 170.443 56.3789Z" fill="white"/>
<path d="M162.007 167.174H30.9306C30.6439 167.174 30.369 167.084 30.1663 166.925C29.9635 166.766 29.8495 166.55 29.8491 166.325V161.566C29.8495 161.341 29.9635 161.125 30.1663 160.966C30.369 160.807 30.6439 160.717 30.9306 160.717H162.007C162.294 160.717 162.569 160.807 162.772 160.966C162.975 161.125 163.089 161.341 163.089 161.566V166.325C163.089 166.55 162.975 166.766 162.772 166.925C162.569 167.084 162.294 167.174 162.007 167.174Z" fill="white"/>
<path d="M116.585 178.73H30.9306C30.6439 178.73 30.369 178.64 30.1663 178.481C29.9635 178.321 29.8495 178.105 29.8491 177.88V173.122C29.8495 172.897 29.9635 172.681 30.1663 172.522C30.369 172.362 30.6439 172.273 30.9306 172.272H116.585C116.871 172.273 117.146 172.362 117.349 172.522C117.552 172.681 117.666 172.897 117.666 173.122V177.88C117.666 178.105 117.552 178.321 117.349 178.481C117.146 178.64 116.871 178.73 116.585 178.73Z" fill="white"/>
<path d="M92.8139 117.408C103.203 117.408 111.625 110.791 111.625 102.629C111.625 94.4672 103.203 87.8506 92.8139 87.8506C82.4249 87.8506 74.0029 94.4672 74.0029 102.629C74.0029 110.791 82.4249 117.408 92.8139 117.408Z" fill="#FFB8B8"/>
<path d="M120.335 149.501H78.6289L79.9915 125.412L80.3162 125.143L84.9966 121.259H99.8909L105.411 125.459L105.857 125.799L117.61 134.649L120.335 149.501Z" fill="#96F527"/>
<path d="M85.8011 149.501H54.2475C54.1698 144.064 54.1265 140.808 54.1265 140.808L55.9519 139.934C55.9542 139.932 55.9573 139.931 55.9606 139.931H55.965L76.0721 130.34L80.2941 124.953L80.3159 125.143L81.5575 136.498C81.5575 136.498 83.6079 141.705 85.8011 149.501Z" fill="#2F2E41"/>
<path d="M138.833 149.501H105.411C105.917 133.643 103.192 124.953 104.593 124.953L105.411 125.46L115.261 131.57L128.243 135.312H128.252L137.202 137.892L138.773 138.344V138.925C138.777 140.318 138.786 144.128 138.833 149.501Z" fill="#2F2E41"/>
<path d="M75.0179 107.252C75.0179 107.252 76.6162 105.047 76.2446 97.6808C75.873 90.3144 90.1511 94.4808 102.082 93.778C114.013 93.0753 111.487 106.077 111.487 106.077C111.487 106.077 112.348 105.304 114.191 99.0289C116.034 92.7541 111.849 86.5011 111.849 86.5011C110.617 79.9074 103.976 82.0207 103.976 82.0207C107.174 82.9989 106.56 85.0905 106.56 85.0905C103.853 81.3613 97.2113 83.4746 97.2113 83.4746C88.3537 79.1078 79.3767 84.8583 79.3767 84.8583C68.6762 86.7663 74.9516 93.4517 74.9516 93.4517C64.1905 97.7241 75.0179 107.252 75.0179 107.252Z" fill="#2F2E41"/>
<path d="M58.4611 149.501H45.4961C45.5972 148.246 45.6001 146.987 45.5047 145.732C44.7304 143.309 55.6232 140.033 55.9519 139.934C55.9542 139.932 55.9572 139.931 55.9606 139.931H55.965L58.0414 140.808L58.4611 149.501Z" fill="#2F2E41"/>
<path d="M141.174 149.502H127.555L125.855 136.315L127.763 135.221C127.763 135.221 127.936 135.251 128.243 135.312H128.252C129.779 135.608 134.503 136.587 137.202 137.892C137.803 138.157 138.336 138.507 138.773 138.925C139.04 139.178 139.174 139.501 139.145 139.829C139.076 140.322 139.872 143.952 141.174 149.502Z" fill="#2F2E41"/>
<path d="M482.053 147.84H293.009C292.493 147.84 291.998 147.679 291.633 147.392C291.268 147.105 291.063 146.717 291.062 146.311V1.52938C291.063 1.1239 291.268 0.735165 291.633 0.448447C291.998 0.161729 292.493 0.000450925 293.009 0H482.053C482.57 0.00044334 483.064 0.161713 483.429 0.448433C483.794 0.735152 484 1.1239 484 1.52938V146.311C484 146.717 483.794 147.105 483.429 147.392C483.064 147.679 482.57 147.84 482.053 147.84Z" fill="#F0F0F0"/>
<path d="M461.505 13.2549H313.557C313.041 13.2555 312.546 13.4168 312.181 13.7035C311.816 13.9902 311.611 14.3788 311.61 14.7843V104.848C311.611 105.253 311.816 105.642 312.181 105.929C312.546 106.215 313.041 106.377 313.557 106.377H461.505C462.021 106.377 462.516 106.215 462.881 105.929C463.246 105.642 463.451 105.253 463.452 104.848V14.7843C463.451 14.3788 463.246 13.9902 462.881 13.7035C462.516 13.4168 462.021 13.2555 461.505 13.2549Z" fill="white"/>
<path d="M453.069 124.05H321.993C321.706 124.05 321.431 123.96 321.228 123.801C321.026 123.642 320.911 123.426 320.911 123.201V118.442C320.911 118.217 321.026 118.001 321.228 117.842C321.431 117.683 321.706 117.593 321.993 117.593H453.069C453.356 117.593 453.631 117.683 453.834 117.842C454.037 118.001 454.151 118.217 454.151 118.442V123.201C454.151 123.426 454.037 123.642 453.834 123.801C453.631 123.96 453.356 124.05 453.069 124.05Z" fill="white"/>
<path d="M407.647 135.606H321.993C321.706 135.606 321.431 135.516 321.228 135.357C321.026 135.197 320.911 134.981 320.911 134.756V129.998C320.911 129.773 321.026 129.557 321.228 129.398C321.431 129.238 321.706 129.149 321.993 129.148H407.647C407.934 129.149 408.208 129.238 408.411 129.398C408.614 129.557 408.728 129.773 408.728 129.998V134.756C408.728 134.981 408.614 135.197 408.411 135.357C408.208 135.516 407.934 135.606 407.647 135.606Z" fill="white"/>
<path d="M423.947 106.378C424.782 104.016 425.431 101.98 425.764 100.539C425.867 100.095 425.877 99.6399 425.794 99.193C424.548 92.2292 402.045 86.3428 399.159 85.6155L398.463 79.5523L370.136 77.1562L366.55 84.9119L356.384 87.9061C356.016 88.0129 355.666 88.1544 355.342 88.3276C354.489 88.7799 353.833 89.4267 353.463 90.1808C353.092 90.9349 353.025 91.7601 353.27 92.5453L357.6 106.378H423.947V106.378Z" fill="#96F527"/>
<path d="M365.226 106.377H343.246C344.033 102.523 344.739 99.1143 345.197 96.946C346.876 89.0544 354.195 88.3815 355.341 88.3271C355.432 88.3203 355.489 88.3203 355.493 88.3203H360.117L365.226 106.377Z" fill="#96F527"/>
<path d="M423.947 106.377H429.277C428.805 102.975 427.308 100.685 425.794 99.1926C424.784 98.1437 423.48 97.2914 421.983 96.7014L421.581 96.5654L416.896 106.377H423.947Z" fill="#96F527"/>
<path d="M383.193 73.3183C394.457 73.3183 403.588 66.1444 403.588 57.2949C403.588 48.4454 394.457 41.2715 383.193 41.2715C371.929 41.2715 362.797 48.4454 362.797 57.2949C362.797 66.1444 371.929 73.3183 383.193 73.3183Z" fill="#A0616A"/>
<path d="M369.503 49.4887C371.615 51.4518 375.187 52.0054 378.483 52.2306C385.177 52.692 394.91 51.9437 401.452 50.7574C401.922 54.3123 400.646 58.1456 403.311 61.0704C404.56 57.5298 405.287 53.888 405.476 50.2169C405.557 48.6425 405.525 47.0137 404.711 45.5684C403.897 44.1232 402.12 42.8962 400.075 42.8835C401.595 41.9781 403.375 41.3806 405.258 41.1435L398.782 38.5868L400.445 37.2454L388.721 36.6817L392.117 34.9871C387.004 34.4355 381.831 34.3077 376.684 34.6058C374.295 34.744 371.797 35.0082 369.862 36.0959C367.926 37.1837 366.807 39.345 368.009 40.9416C366.505 41.1357 365.088 41.6284 363.894 42.3729C362.699 43.1175 361.767 44.0893 361.184 45.1962C360.321 46.9151 360.4 48.8244 360.666 50.6562C361.108 53.5857 361.974 56.4659 363.249 59.2407" fill="#2F2E41"/>
<path d="M340.119 239H151.074C150.558 238.999 150.063 238.838 149.698 238.551C149.334 238.264 149.128 237.876 149.128 237.47V92.6886C149.128 92.2831 149.334 91.8943 149.698 91.6076C150.063 91.3209 150.558 91.1596 151.074 91.1592H340.119C340.635 91.1596 341.13 91.3209 341.495 91.6076C341.86 91.8943 342.065 92.2831 342.066 92.6886V237.47C342.065 237.876 341.86 238.264 341.495 238.551C341.13 238.838 340.635 238.999 340.119 239Z" fill="#E4E4E4"/>
<path d="M319.571 104.414H171.623C171.107 104.415 170.612 104.576 170.247 104.863C169.882 105.149 169.677 105.538 169.676 105.943V196.007C169.677 196.413 169.882 196.801 170.247 197.088C170.612 197.375 171.107 197.536 171.623 197.537H319.571C320.087 197.536 320.582 197.375 320.947 197.088C321.312 196.801 321.517 196.413 321.518 196.007V105.943C321.517 105.538 321.312 105.149 320.947 104.863C320.582 104.576 320.087 104.415 319.571 104.414Z" fill="white"/>
<path d="M311.135 215.209H180.059C179.772 215.209 179.497 215.12 179.294 214.96C179.091 214.801 178.977 214.585 178.977 214.36V209.602C178.977 209.376 179.091 209.16 179.294 209.001C179.497 208.842 179.772 208.752 180.059 208.752H311.135C311.422 208.752 311.697 208.842 311.9 209.001C312.102 209.16 312.216 209.376 312.217 209.602V214.36C312.216 214.585 312.102 214.801 311.9 214.96C311.697 215.12 311.422 215.209 311.135 215.209Z" fill="white"/>
<path d="M265.713 226.765H180.059C179.772 226.765 179.497 226.675 179.294 226.516C179.091 226.357 178.977 226.141 178.977 225.915V221.157C178.977 220.932 179.091 220.716 179.294 220.557C179.497 220.397 179.772 220.308 180.059 220.308H265.713C265.999 220.308 266.274 220.397 266.477 220.557C266.68 220.716 266.794 220.932 266.794 221.157V225.915C266.794 226.141 266.68 226.357 266.477 226.516C266.274 226.675 265.999 226.765 265.713 226.765Z" fill="white"/>
<path d="M260.154 197.537H230.378L232.234 175.657L242.975 177.604L253.423 174.447L253.699 174.365L253.717 174.358C253.72 174.365 253.723 174.372 253.725 174.379C253.89 174.899 257.169 185.214 260.154 197.537Z" fill="#96F527"/>
<path d="M278.098 179.229L275.316 197.537H250.222L253.423 174.447L253.453 174.223L253.7 174.365L253.725 174.379L259.916 177.927L278.098 179.229Z" fill="#2F2E41"/>
<path d="M234.782 197.537H212.309L211.984 183.123L228.523 178.814L232.234 175.656C232.234 175.656 233.407 185.155 234.782 197.537Z" fill="#2F2E41"/>
<path d="M288.917 197.537H270.294L271.488 184.422L278.098 179.229C278.098 179.229 283.328 187.847 288.917 197.537Z" fill="#2F2E41"/>
<path d="M217.608 197.537H207.784C207.827 193.336 207.853 190.434 207.853 189.614C207.804 188.348 208.155 187.092 208.876 185.959C209.598 184.826 210.665 183.852 211.984 183.123L216.946 184.421L217.608 197.537Z" fill="#2F2E41"/>
<path d="M241.821 170.842C250.231 170.842 257.049 164.95 257.049 157.682C257.049 150.413 250.231 144.521 241.821 144.521C233.411 144.521 226.593 150.413 226.593 157.682C226.593 164.95 233.411 170.842 241.821 170.842Z" fill="#A0616A"/>
<path d="M236.167 146.974C236.167 146.974 243.497 148.516 247.293 149.133C251.088 149.75 250.696 148.002 250.696 148.002C250.696 148.002 255.669 148.516 255.408 148.105C255.146 147.694 257.502 145.534 254.753 143.066C252.005 140.598 252.79 138.747 252.79 138.747H250.434L249.779 138.028H246.114C246.114 138.028 242.063 135.236 234.864 136.059C227.665 136.882 219.151 139.056 218.366 142.449C218.26 142.91 218.119 143.421 217.957 143.961C215.988 150.49 220.171 156.599 224.509 162.379C225.575 163.799 230.732 166.897 230.6 164.772C230.468 162.647 225.958 157.874 229.099 157.565C232.24 157.257 237.607 150.984 236.167 146.974Z" fill="#2F2E41"/>
</g>
<defs>
<clipPath id="clip0_72_1544">
<rect width="484" height="239" fill="white"/>
</clipPath>
</defs>
</svg>
