<svg width="697" height="463" viewBox="0 0 697 463" fill="none" xmlns="http://www.w3.org/2000/svg">
<path d="M353.094 130.132C346.88 119.849 339.515 108.87 327.982 105.513C314.626 101.624 300.906 109.348 289.268 116.971C254.465 139.766 220.948 164.47 188.873 190.969L188.908 191.368C213.88 189.646 238.852 187.923 263.825 186.2C281.867 184.955 300.529 183.539 316.474 175C322.524 171.76 328.422 167.432 335.278 167.131C343.797 166.756 351.224 172.707 357.061 178.925C391.587 215.705 401.578 271.95 440.314 304.264C415.888 244.004 386.724 185.778 353.094 130.132V130.132Z" fill="#70EC44" fill-opacity="0.24"/>
<path d="M565.324 442.091C561.505 437.268 559.945 436.138 556.179 431.271C525.513 391.594 496.69 350.577 469.709 308.221C451.383 279.453 433.965 250.134 417.456 220.262C409.597 206.06 401.953 191.747 394.524 177.323C388.759 166.138 383.124 154.887 377.616 143.569C376.042 140.336 374.511 137.089 372.988 133.834C369.4 126.179 365.879 118.488 362.098 110.937C357.789 102.332 352.545 93.31 344.633 87.5283C341.033 84.7891 336.727 83.1317 332.22 82.7499C325.779 82.3337 319.836 84.9942 314.25 87.8999C273.377 109.221 235.113 135.952 200.503 166.369C165.804 196.854 134.789 231.295 108.09 268.99C107.273 270.157 105.341 269.042 106.166 267.868C109.412 263.275 112.723 258.732 116.098 254.238C158.065 198.403 209.522 150.387 268.118 112.387C277.976 105.995 288.02 99.9042 298.249 94.1125C303.404 91.192 308.582 88.3086 313.849 85.6036C319.012 82.9505 324.494 80.565 330.392 80.4758C350.465 80.1637 360.857 102.904 367.996 118.205C370.24 123.021 372.51 127.822 374.808 132.608C383.492 150.777 392.511 168.781 401.863 186.619C407.635 197.633 413.534 208.582 419.559 219.467C438.308 253.361 458.237 286.57 479.344 319.093C507.306 362.173 535.045 400.229 566.899 440.515C567.775 441.63 566.208 443.221 565.324 442.091Z" fill="#E4E4E4"/>
<path d="M198.519 155.14C197.353 153.84 196.194 152.539 195.02 151.239C185.764 140.998 175.832 130.877 163.122 125.006C157.061 122.118 150.445 120.584 143.733 120.51C136.794 120.532 130.012 122.353 123.601 124.902C120.57 126.113 117.606 127.488 114.687 128.952C111.351 130.631 108.075 132.422 104.814 134.228C98.6928 137.617 92.6509 141.154 86.6884 144.84C74.8246 152.175 63.3325 160.07 52.2119 168.524C46.447 172.909 40.8012 177.437 35.2743 182.109C30.1337 186.449 25.0972 190.905 20.1645 195.478C19.1097 196.452 17.5348 194.876 18.5896 193.903C19.8896 192.692 21.2045 191.488 22.5194 190.299C26.2337 186.94 30.0075 183.645 33.8408 180.415C40.8309 174.514 48.002 168.841 55.3542 163.397C66.787 154.925 78.6133 147.028 90.8333 139.705C96.9398 136.049 103.13 132.546 109.405 129.197C111.299 128.186 113.216 127.198 115.155 126.262C119.554 124.042 124.125 122.18 128.823 120.695C135.479 118.542 142.521 117.85 149.468 118.667C156.175 119.643 162.638 121.879 168.515 125.258C180.995 132.237 190.674 143.027 200.094 153.557C201.045 154.628 199.477 156.21 198.519 155.14Z" fill="#E4E4E4"/>
<path d="M454.231 261.26L484.136 250.317L498.984 244.885C503.82 243.115 508.644 241.101 513.643 239.834C517.987 238.593 522.6 238.651 526.911 240.003C530.756 241.427 534.275 243.609 537.26 246.421C540.309 249.23 543.147 252.261 545.748 255.489C548.981 259.375 552.166 263.303 555.365 267.217C568.569 283.371 581.687 299.595 594.718 315.889C607.749 332.183 620.693 348.546 633.549 364.979C646.437 381.451 659.237 397.993 671.948 414.603C673.505 416.638 675.061 418.674 676.615 420.711C677.474 421.836 679.41 420.727 678.539 419.585C665.735 402.808 652.841 386.099 639.858 369.459C626.843 352.78 613.738 336.17 600.543 319.632C587.348 303.094 574.064 286.628 560.691 270.233C557.36 266.149 554.023 262.069 550.68 257.994C547.861 254.556 545.073 251.081 541.98 247.881C536.303 242.008 529.211 236.818 520.721 236.677C515.73 236.594 510.899 238.179 506.262 239.857C501.262 241.666 496.274 243.51 491.281 245.337L461.167 256.355L453.638 259.11C452.302 259.599 452.879 261.754 454.231 261.26L454.231 261.26Z" fill="#E4E4E4"/>
<path d="M159.186 137.891C143.989 130.078 124.526 131.608 110.561 141.37C137.199 145.967 163.545 152.119 189.465 159.792C178.701 153.482 170.282 143.596 159.186 137.891Z" fill="#70EC44" fill-opacity="0.29"/>
<path d="M110.412 141.344L107.486 143.723C108.476 142.89 109.504 142.109 110.561 141.371C110.511 141.362 110.462 141.352 110.412 141.344Z" fill="#F2F2F2"/>
<path d="M536.134 261.368C533.19 257.784 530.007 254.03 525.604 252.574L521.493 252.736C552.787 308.054 595.051 356.391 645.692 394.779C609.173 350.309 572.653 305.838 536.134 261.368Z" fill="#70EC44" fill-opacity="0.3"/>
<path d="M280.499 231.797C282.402 238.711 286.688 244.73 292.599 248.787C294.884 250.344 297.588 251.837 298.37 254.49C298.781 256.181 298.527 257.965 297.662 259.475C296.797 260.965 295.746 262.339 294.533 263.562L294.422 263.977C288.751 260.615 283.356 256.362 280.223 250.56C277.09 244.757 276.653 237.152 280.499 231.797" fill="#F2F2F2"/>
<path d="M469.309 396.359C471.211 403.274 475.497 409.292 481.408 413.349C483.694 414.906 486.397 416.399 487.179 419.052C487.59 420.743 487.337 422.528 486.471 424.037C485.607 425.528 484.555 426.901 483.342 428.124L483.232 428.539C477.56 425.177 472.165 420.925 469.032 415.122C465.9 409.32 465.463 401.715 469.309 396.359" fill="#F2F2F2"/>
<path d="M92.5001 385.01C94.4025 391.924 98.6884 397.942 104.599 402C106.885 403.556 109.588 405.05 110.37 407.702C110.782 409.394 110.528 411.178 109.662 412.688C108.798 414.178 107.747 415.552 106.533 416.775L106.423 417.19C100.752 413.828 95.3563 409.575 92.2237 403.773C89.091 397.97 88.6537 390.365 92.5001 385.01" fill="#F2F2F2"/>
<path d="M526.113 82.6861C548.938 82.6861 567.44 64.1762 567.44 41.3431C567.44 18.5099 548.938 0 526.113 0C503.289 0 484.786 18.5099 484.786 41.3431C484.786 64.1762 503.289 82.6861 526.113 82.6861Z" fill="#70EC44"/>
<path d="M600.693 9.62225C580.664 6.91393 557.798 17.7439 552.606 37.2844C551.298 33.8101 548.92 30.8418 545.815 28.8083C542.71 26.7748 539.039 25.7815 535.332 25.9717C531.626 26.162 528.076 27.526 525.195 29.8668C522.315 32.2075 520.253 35.4038 519.307 38.9938L521.6 40.6368C564.521 49.9221 608.952 49.7212 651.788 40.0479C637.856 25.4004 620.722 12.3305 600.693 9.62225Z" fill="#F0F0F0"/>
<path d="M514.797 64.7473C494.768 62.0389 471.902 72.8689 466.71 92.4094C465.402 88.9351 463.024 85.9668 459.919 83.9333C456.814 81.8998 453.143 80.9065 449.436 81.0967C445.73 81.287 442.18 82.651 439.299 84.9918C436.419 87.3325 434.357 90.5288 433.411 94.1188L435.704 95.7618C478.625 105.047 523.056 104.846 565.892 95.1729C551.96 80.5254 534.826 67.4555 514.797 64.7473Z" fill="#F0F0F0"/>
<path d="M689.609 75.1707C689.526 75.1709 689.444 75.1581 689.365 75.1327C475.105 7.34782 286.265 16.2119 165.577 35.5843C149.152 38.2197 132.684 41.2636 116.629 44.6321C112.53 45.491 108.278 46.4117 103.99 47.3704C98.8698 48.5112 93.8175 49.686 88.9728 50.8608C86.8805 51.3564 84.8291 51.8559 82.8185 52.3594C79.773 53.1114 76.6828 53.8952 73.3702 54.7564C69.6687 55.7112 65.9078 56.7126 62.1896 57.7331C62.176 57.7378 62.1621 57.7418 62.1481 57.7449L62.1485 57.7457C57.9488 58.8928 53.7712 60.0732 49.7314 61.252C47.5449 61.8837 45.4336 62.5067 43.4113 63.1218C43.1854 63.1844 42.9852 63.2445 42.7822 63.3063L42.3477 63.4385C42.0961 63.5153 41.8476 63.5905 41.5991 63.6617L41.5833 63.6665L41.5837 63.6673L40.9261 63.8716C40.1418 64.1091 39.3766 64.341 38.624 64.5722C18.7343 70.7059 7.80019 75.0694 7.69217 75.1122C7.59339 75.1518 7.48779 75.1715 7.38138 75.1703C7.27497 75.1691 7.16984 75.1469 7.072 75.1051C6.97416 75.0632 6.88551 75.0025 6.81113 74.9263C6.73675 74.8502 6.67808 74.7602 6.63849 74.6613C6.5989 74.5625 6.57916 74.4569 6.58038 74.3504C6.5816 74.244 6.60376 74.1388 6.64561 74.0409C6.68746 73.9431 6.74817 73.8544 6.82427 73.78C6.90038 73.7056 6.99039 73.6469 7.08916 73.6073C7.19798 73.5645 18.1855 69.1788 38.1476 63.0221C38.903 62.7902 39.6702 62.5582 40.4568 62.3199L41.0677 62.1299C41.0887 62.122 41.1096 62.1157 41.131 62.1094C41.3783 62.0389 41.6252 61.9637 41.8761 61.8877L42.3113 61.7555C42.5281 61.6898 42.7418 61.6249 42.9606 61.5647C44.9691 60.9536 47.0875 60.3289 49.2795 59.6948C53.321 58.5153 57.5024 57.3349 61.7053 56.1862C61.7184 56.1815 61.7318 56.1783 61.7449 56.1744V56.1736C65.4761 55.15 69.2508 54.1446 72.9642 53.1867C76.282 52.3246 79.3781 51.5393 82.4288 50.7856C84.4479 50.2829 86.5033 49.7823 88.595 49.2839C93.4451 48.1075 98.5078 46.9311 103.637 45.7879C107.932 44.8284 112.191 43.9054 116.297 43.0457C132.376 39.6717 148.87 36.623 165.32 33.9837C286.181 14.5835 475.292 5.70514 689.853 73.5874C690.038 73.6457 690.195 73.768 690.297 73.9324C690.4 74.0968 690.44 74.2923 690.41 74.4836C690.381 74.6749 690.284 74.8494 690.137 74.9754C689.99 75.1014 689.803 75.1707 689.609 75.1707V75.1707Z" fill="#CCCCCC"/>
<path d="M213.111 340.342C212.83 339.521 212.358 338.779 211.733 338.178C211.502 337.964 211.253 337.771 210.988 337.602C208.873 336.191 205.712 335.875 203.703 337.602C203.5 337.778 203.313 337.97 203.143 338.178C202.544 338.915 201.928 339.637 201.296 340.342C200.259 341.526 199.197 342.669 198.087 343.779C197.771 344.087 197.455 344.403 197.131 344.711C196.944 344.898 196.758 345.076 196.572 345.255C195.858 345.935 195.129 346.592 194.392 347.241C194.003 347.589 193.614 347.93 193.217 348.262C192.625 348.757 192.034 349.251 191.434 349.729C191.377 349.77 191.321 349.81 191.264 349.859C191.248 349.867 191.24 349.883 191.223 349.891C191.215 349.891 191.207 349.891 191.199 349.908C191.177 349.916 191.158 349.93 191.142 349.948C190.964 350.07 190.842 350.151 190.753 350.224C190.786 350.208 190.818 350.183 190.851 350.167C190.705 350.281 190.551 350.394 190.405 350.508C188.987 351.553 187.536 352.558 186.053 353.499C182.384 355.848 178.531 357.895 174.53 359.619C174.263 359.725 173.987 359.838 173.712 359.943C163.238 364.236 151.876 365.911 140.609 364.824C139.459 364.734 138.308 364.613 137.157 364.459C135.828 364.264 134.508 364.029 133.195 363.762C128.197 362.764 123.307 361.287 118.592 359.352C112.695 356.65 107.086 353.358 101.851 349.527C101.04 348.951 100.222 348.376 99.4035 347.816C100.335 345.53 101.251 343.244 102.142 340.942C102.588 339.831 103.018 338.721 103.439 337.602C106.753 328.985 109.865 320.287 112.847 311.556C115.862 302.712 118.706 293.816 121.38 284.869C121.656 283.961 121.923 283.053 122.182 282.146C123.584 277.419 124.929 272.683 126.218 267.935C126.339 267.473 126.469 267.019 126.582 266.557C126.955 265.195 127.32 263.833 127.676 262.471C128.487 259.399 126.655 255.727 123.43 254.989C121.877 254.591 120.231 254.811 118.837 255.603C117.443 256.396 116.411 257.698 115.959 259.237C115.61 260.55 115.262 261.855 114.905 263.168C113.196 269.516 111.397 275.841 109.508 282.146C109.233 283.053 108.957 283.961 108.682 284.869C104.517 298.602 99.9438 312.196 94.9629 325.653C94.3632 327.282 93.7554 328.906 93.1396 330.525C92.8398 331.319 92.5399 332.114 92.232 332.908C91.6405 334.473 91.0327 336.037 90.425 337.602C90.0765 338.518 89.7199 339.434 89.3634 340.342C89.1284 340.918 88.9015 341.493 88.6746 342.061C86.3642 341.231 83.9704 340.654 81.5355 340.342L81.1465 340.293C79.2588 340.066 77.3496 340.082 75.466 340.342C72.6469 340.671 69.9345 341.616 67.5204 343.109C65.1064 344.602 63.0497 346.608 61.4958 348.984C57.6304 355.071 57.6791 363.778 63.1002 368.95C68.6835 374.276 77.1354 374.235 83.7072 370.903C87.1899 369.019 90.1264 366.265 92.232 362.91C93.0387 361.694 93.7799 360.436 94.4524 359.141C94.6225 359.254 94.7927 359.368 94.9629 359.489C95.6111 359.943 96.2594 360.406 96.8996 360.859C100.63 363.563 104.56 365.977 108.658 368.082C117.468 372.464 126.951 375.333 136.712 376.57C136.93 376.594 137.141 376.627 137.36 376.651C138.438 376.789 139.524 376.894 140.609 376.983C156.186 378.158 171.782 374.969 185.648 367.774C186.823 367.166 187.987 366.529 189.141 365.861C190.932 364.824 192.682 363.721 194.392 362.554C195.324 361.921 196.231 361.281 197.131 360.608C201.061 357.712 204.725 354.47 208.078 350.921C209.351 349.583 210.569 348.203 211.733 346.778C212.834 345.614 213.468 344.084 213.516 342.482C213.51 341.75 213.372 341.025 213.111 340.342V340.342ZM78.9262 359.652C79.0964 359.53 79.2666 359.4 79.4286 359.271C79.38 359.392 79.145 359.53 78.9262 359.652H78.9262ZM81.5274 357.033C81.341 357.244 81.1708 357.455 80.9845 357.666C80.4175 358.3 79.8083 358.896 79.1612 359.449C79.0721 359.53 78.9748 359.611 78.8776 359.684C78.8765 359.684 78.8755 359.684 78.8745 359.685C78.8735 359.685 78.8726 359.686 78.8718 359.686C78.8711 359.687 78.8705 359.688 78.8701 359.689C78.8697 359.69 78.8695 359.691 78.8695 359.692C78.7524 359.744 78.6388 359.804 78.5291 359.871C78.1807 360.081 77.8241 360.276 77.4595 360.454C76.7455 360.717 76.011 360.92 75.2635 361.062C74.6891 361.104 74.1126 361.109 73.5375 361.078H73.5212C73.1243 360.99 72.7322 360.882 72.3462 360.754C72.1518 360.657 71.9654 360.543 71.779 360.43C71.7061 360.365 71.6412 360.3 71.6007 360.26C71.5216 360.187 71.4484 360.109 71.382 360.025C71.382 360.023 71.3818 360.022 71.3814 360.021C71.381 360.02 71.3804 360.019 71.3797 360.019C71.3789 360.018 71.378 360.017 71.377 360.017C71.376 360.017 71.3749 360.016 71.3739 360.016C71.2847 359.854 71.1875 359.692 71.0984 359.53C71.0937 359.526 71.0908 359.52 71.0903 359.514C71.0254 359.311 70.9687 359.1 70.9201 358.89C70.9025 358.52 70.9052 358.149 70.9282 357.779C71.0369 357.261 71.1832 356.752 71.3658 356.255C71.5298 355.903 71.7166 355.562 71.9249 355.234C71.9411 355.201 72.0222 355.071 72.1113 354.926C72.1194 354.917 72.1194 354.917 72.1194 354.909C72.2409 354.772 72.3625 354.626 72.4922 354.496C72.7109 354.253 72.946 354.042 73.1809 353.823C73.638 353.524 74.1114 353.25 74.599 353.004C75.3726 352.729 76.1665 352.515 76.9733 352.364C78.1632 352.269 79.359 352.28 80.5469 352.396C81.6721 352.592 82.7822 352.865 83.8693 353.215C83.2105 354.494 82.4603 355.724 81.6247 356.895C81.5922 356.944 81.5599 356.993 81.5274 357.033V357.033ZM72.5164 354.366C72.445 354.481 72.3607 354.587 72.2652 354.682C72.3295 354.563 72.4146 354.456 72.5164 354.366V354.366Z" fill="#3F3D56"/>
<path d="M188.752 257.551C188.679 260.096 188.606 262.641 188.533 265.187C188.379 270.837 188.22 276.49 188.055 282.146C187.885 288.509 187.706 294.87 187.52 301.228C187.431 304.511 187.339 307.795 187.245 311.078C186.993 319.922 186.745 328.763 186.499 337.602C186.475 338.518 186.442 339.426 186.418 340.342C186.296 344.728 186.175 349.113 186.053 353.499C185.916 358.257 185.781 363.016 185.648 367.774C185.551 371.341 185.451 374.911 185.348 378.483C184.619 404.367 183.89 430.251 183.16 456.135C183.13 457.738 182.479 459.266 181.346 460.4C180.213 461.534 178.685 462.184 177.083 462.215C175.475 462.202 173.937 461.557 172.8 460.42C171.663 459.282 171.018 457.743 171.005 456.135C171.411 441.576 171.821 427.017 172.237 412.457C172.602 399.292 172.972 386.127 173.347 372.963C173.469 368.626 173.59 364.286 173.712 359.943C173.898 353.41 174.082 346.876 174.263 340.342C174.287 339.426 174.32 338.518 174.344 337.602C174.36 336.8 174.384 336.005 174.409 335.203C174.765 322.516 175.122 309.827 175.478 297.135C175.624 292.141 175.765 287.145 175.9 282.146C176.062 276.447 176.224 270.751 176.386 265.057C176.459 262.552 176.524 260.055 176.597 257.551C176.628 255.948 177.278 254.419 178.411 253.286C179.544 252.152 181.072 251.502 182.674 251.471C184.282 251.484 185.82 252.128 186.957 253.266C188.094 254.403 188.739 255.942 188.752 257.551V257.551Z" fill="#3F3D56"/>
<path d="M522.149 259.239C515.776 283.379 508.159 307.174 499.329 330.528C496.892 336.97 494.399 343.399 491.735 349.75L492.347 348.298C491.158 351.323 489.639 354.208 487.818 356.9C487.694 357.074 487.568 357.246 487.44 357.416C488.069 356.611 488.189 356.451 487.798 356.939C487.593 357.182 487.389 357.427 487.176 357.664C486.609 358.3 486 358.896 485.354 359.45C485.191 359.59 485.026 359.726 484.858 359.859L485.618 359.268C485.53 359.476 484.911 359.753 484.718 359.87C484.094 360.247 483.442 360.578 482.769 360.858L484.221 360.245C483.118 360.69 481.968 361.006 480.793 361.186L482.408 360.969C481.254 361.129 480.083 361.141 478.925 361.006L480.541 361.224C479.594 361.093 478.667 360.843 477.782 360.48L479.234 361.093C478.762 360.887 478.307 360.644 477.873 360.367C477.653 360.223 476.978 359.711 477.861 360.387C478.78 361.089 477.979 360.447 477.79 360.26C477.633 360.105 477.491 359.936 477.337 359.778C476.622 359.045 478.144 361.04 477.658 360.182C477.399 359.752 477.161 359.309 476.947 358.855L477.559 360.308C477.28 359.616 477.082 358.895 476.969 358.158L477.186 359.775C477.07 358.858 477.07 357.931 477.184 357.014L476.967 358.631C477.115 357.608 477.386 356.606 477.773 355.647L477.16 357.1C477.43 356.455 477.749 355.832 478.115 355.236C478.283 354.929 478.481 354.638 478.705 354.368C478.745 354.381 477.677 355.594 478.244 354.982C478.392 354.821 478.531 354.653 478.681 354.494C478.921 354.239 479.178 354.007 479.431 353.766C480.277 352.96 478.246 354.549 479.223 353.911C479.931 353.445 480.676 353.039 481.451 352.696L479.999 353.308C481.296 352.775 482.657 352.41 484.047 352.222L482.431 352.439C484.172 352.239 485.931 352.26 487.666 352.501L486.051 352.284C488.248 352.618 490.396 353.222 492.446 354.084L490.994 353.471C495.361 355.347 499.229 358.132 503.091 360.862C506.82 363.564 510.75 365.978 514.846 368.082C523.656 372.465 533.14 375.335 542.901 376.573C556.901 378.288 571.106 376.46 584.215 371.254C597.324 366.049 608.916 357.633 617.927 346.78C619.027 345.613 619.66 344.084 619.707 342.481C619.696 340.871 619.057 339.329 617.927 338.182C615.698 336.134 611.486 335.556 609.332 338.182C607.292 340.674 605.098 343.037 602.763 345.256C601.673 346.291 600.554 347.293 599.407 348.264C598.751 348.818 598.086 349.362 597.412 349.894C597.094 350.146 596.101 350.817 597.626 349.734C597.276 349.982 596.941 350.253 596.596 350.508C591.493 354.272 585.962 357.418 580.12 359.883L581.572 359.27C575.303 361.901 568.719 363.705 561.985 364.639L563.601 364.421C556.673 365.333 549.656 365.323 542.731 364.391L544.347 364.608C537.424 363.657 530.653 361.812 524.204 359.119L525.656 359.732C519.433 356.978 513.527 353.555 508.042 349.525C505.188 347.411 502.177 345.516 499.037 343.856C495.378 341.986 491.417 340.782 487.337 340.298C479.689 339.398 471.895 342.378 467.69 348.988C463.82 355.072 463.87 363.778 469.289 368.951C474.87 374.279 483.323 374.234 489.9 370.901C496.235 367.691 500.04 361.023 502.716 354.735C508.738 340.585 514.069 326.108 519.036 311.558C523.95 297.162 528.407 282.621 532.406 267.934C532.901 266.115 533.389 264.294 533.87 262.471C534.681 259.4 532.848 255.727 529.625 254.992C528.072 254.592 526.424 254.811 525.029 255.604C523.634 256.396 522.601 257.699 522.149 259.239L522.149 259.239Z" fill="#3F3D56"/>
<path d="M582.789 257.551L580.601 335.205L578.425 412.455L577.195 456.136C577.209 457.744 577.853 459.283 578.99 460.42C580.127 461.557 581.665 462.202 583.272 462.216C584.875 462.185 586.402 461.534 587.536 460.401C588.669 459.267 589.319 457.739 589.35 456.136L591.538 378.481L593.714 301.231L594.944 257.551C594.93 255.942 594.286 254.404 593.149 253.267C592.012 252.129 590.474 251.484 588.867 251.471C587.264 251.502 585.736 252.152 584.603 253.286C583.47 254.419 582.82 255.948 582.789 257.551V257.551Z" fill="#3F3D56"/>
<path opacity="0.2" d="M372.426 434.455H374.313V348.492H418.338V346.609H374.313V310.337H408.311C407.813 309.703 407.3 309.077 406.773 308.459H374.313V284.502C373.689 284.236 373.06 283.979 372.426 283.737V308.459H335.432V277.764C334.798 277.793 334.174 277.836 333.545 277.89V308.459H304.032V285.557C303.398 285.838 302.774 286.133 302.155 286.443V308.459H277.345V310.337H302.155V346.609H277.345V348.492H302.155V434.455H304.032V348.492C307.908 348.491 311.746 349.255 315.327 350.738C318.908 352.221 322.162 354.396 324.903 357.138C327.643 359.88 329.817 363.135 331.3 366.717C332.783 370.299 333.546 374.139 333.545 378.016V434.455H335.432V348.492H372.426V434.455ZM304.032 346.609V310.337H333.545V346.609H304.032ZM335.432 346.609V310.337H336.173C340.934 310.338 345.648 311.276 350.047 313.099C354.445 314.922 358.442 317.594 361.809 320.962C365.175 324.33 367.845 328.329 369.667 332.729C371.489 337.13 372.426 341.846 372.426 346.609H335.432Z" fill="black"/>
<path d="M360.901 408.681C358.525 419.283 352.834 428.852 344.654 436C344.054 436.519 343.454 437.021 342.83 437.516C341.315 437.654 339.81 437.794 338.317 437.937C337.077 438.051 335.853 438.172 334.638 438.286L334.419 438.31L334.265 436.981L333.649 431.598C331.26 427.696 329.779 423.306 329.316 418.754C328.853 414.202 329.42 409.604 330.975 405.301C333.114 399.529 336.988 394.43 340.796 389.371C346.055 382.384 351.169 375.477 351.355 366.957C353.943 370.27 356.094 373.902 357.757 377.763C356.188 378.502 354.779 379.54 353.608 380.819C353.276 381.184 352.943 381.695 353.17 382.132C353.365 382.505 353.851 382.594 354.272 382.643C355.285 382.748 356.306 382.854 357.319 382.959C358.129 383.048 358.94 383.129 359.75 383.219C360.731 386.438 361.395 389.744 361.735 393.092C362.282 398.3 362 403.561 360.901 408.681V408.681Z" fill="#3F3D56"/>
<path d="M387.804 387.432C383.023 390.91 380.227 395.912 378.056 401.424C375.83 402.137 373.828 403.416 372.246 405.137C371.913 405.502 371.581 406.012 371.808 406.45C372.003 406.823 372.489 406.912 372.91 406.961C373.923 407.066 374.944 407.172 375.957 407.277C373.785 413.795 371.792 420.539 367.951 426.044C365.396 429.678 362.067 432.698 358.202 434.888C357.149 435.488 356.061 436.027 354.945 436.501C350.828 436.817 346.79 437.155 342.83 437.514C341.315 437.652 339.81 437.793 338.317 437.936C337.077 438.049 335.853 438.171 334.638 438.284C334.63 437.838 334.63 437.393 334.638 436.947C334.894 425.07 339.262 413.649 346.995 404.634C347.36 404.213 347.733 403.799 348.114 403.386C352.032 399.199 356.639 395.717 361.735 393.091C369.766 388.914 378.766 386.96 387.804 387.432V387.432Z" fill="#70EC44"/>
<path d="M339.718 433.778L338.786 436.534L338.316 437.937C337.077 438.05 335.853 438.172 334.637 438.285L334.419 438.31C333.074 438.447 331.736 438.585 330.399 438.723C330.051 438.318 329.703 437.904 329.362 437.483C320.904 427.236 316.844 414.057 318.069 400.825C319.295 387.593 325.706 375.385 335.902 366.867C334.832 372.469 336.08 377.835 338.13 383.161C337.911 383.25 337.701 383.34 337.498 383.437C335.929 384.176 334.52 385.214 333.349 386.493C333.017 386.858 332.685 387.368 332.911 387.806C333.106 388.179 333.592 388.268 334.014 388.317C335.026 388.422 336.047 388.528 337.06 388.633C337.871 388.722 338.681 388.803 339.491 388.892C339.872 388.933 340.253 388.974 340.634 389.014C340.691 389.136 340.739 389.249 340.796 389.371C343.106 394.381 345.593 399.415 346.995 404.635C347.347 405.945 347.623 407.274 347.822 408.616C348.446 413.149 348.041 417.765 346.639 422.121C345.236 426.477 342.871 430.461 339.718 433.778V433.778Z" fill="#70EC44"/>
<path d="M421.286 316.203C414.31 302.59 403.502 291.137 390.791 282.72C378.039 274.315 363.406 269.196 348.197 267.82C346.204 267.639 344.205 267.533 342.202 267.502C339.834 267.467 304.224 277.742 292.295 286.132C280.372 294.421 270.565 305.397 263.663 318.175C256.774 331.023 253.385 345.459 253.837 360.031C254.428 374.692 258.513 388.999 265.752 401.76C272.892 414.48 283.029 425.262 295.284 433.169C307.713 441.103 320.198 462.138 334.873 462.881C349.658 463.629 366.52 443.786 380.005 437.761C393.49 431.686 405.148 422.182 413.817 410.195C422.241 398.448 427.691 384.833 429.699 370.516C431.784 355.857 430.812 340.739 425.808 326.728C424.524 323.128 423.014 319.612 421.286 316.203C419.844 313.361 415.617 312.315 412.971 314.022C411.607 314.861 410.62 316.195 410.214 317.744C409.808 319.293 410.014 320.939 410.79 322.34C411.637 324.009 412.425 325.705 413.153 327.429L412.54 325.977C415.295 332.604 417.169 339.564 418.112 346.679L417.895 345.063C418.899 352.782 418.881 360.6 417.842 368.314L418.059 366.698C417.008 374.412 414.95 381.954 411.937 389.132L412.55 387.68C411 391.342 409.193 394.89 407.143 398.298C406.105 400.019 405.002 401.701 403.837 403.341C403.325 404.061 402.797 404.769 402.265 405.474C401.572 406.395 403.211 404.272 402.494 405.175C402.372 405.329 402.251 405.483 402.128 405.636C401.76 406.096 401.387 406.553 401.008 407.004C398.482 410.02 395.725 412.834 392.762 415.422C392.024 416.066 391.274 416.696 390.511 417.311C390.131 417.618 389.756 417.938 389.36 418.223C389.375 418.212 390.64 417.251 389.891 417.809C389.655 417.984 389.422 418.163 389.186 418.337C387.614 419.502 386 420.608 384.345 421.655C380.534 424.057 376.535 426.148 372.388 427.907L373.84 427.294C366.686 430.307 359.167 432.365 351.477 433.416L353.093 433.199C345.406 434.238 337.616 434.252 329.926 433.24L331.541 433.457C324.552 432.518 317.716 430.669 311.206 427.957L312.657 428.57C308.887 426.977 305.251 425.082 301.786 422.903C300.071 421.822 298.401 420.674 296.775 419.46C296.543 419.287 296.313 419.111 296.082 418.936C295.34 418.376 296.615 419.35 296.625 419.356C296.194 419.047 295.779 418.715 295.381 418.363C294.596 417.724 293.823 417.069 293.063 416.4C290.019 413.719 287.177 410.817 284.56 407.719C283.904 406.944 283.263 406.157 282.636 405.359C282.364 405.014 281.869 404.313 282.963 405.788C282.819 405.594 282.67 405.404 282.524 405.211C282.175 404.747 281.831 404.28 281.491 403.81C280.301 402.163 279.169 400.475 278.097 398.747C275.674 394.835 273.559 390.74 271.772 386.499L272.385 387.951C269.46 380.991 267.461 373.677 266.437 366.196L266.654 367.812C265.73 360.917 265.717 353.93 266.614 347.031L266.397 348.647C267.318 341.966 269.115 335.436 271.741 329.225L271.128 330.677C272.781 326.789 274.73 323.033 276.959 319.444C278.075 317.648 279.257 315.896 280.506 314.188C280.79 313.799 281.077 313.414 281.367 313.03C281.63 312.683 282.352 311.82 281.12 313.345C281.241 313.195 281.357 313.042 281.476 312.891C282.161 312.022 282.864 311.167 283.583 310.325C286.304 307.139 289.251 304.153 292.402 301.391C293.198 300.693 294.007 300.01 294.828 299.341C295.202 299.037 295.577 298.736 295.956 298.439C296.107 298.32 296.26 298.203 296.411 298.083C294.792 299.372 295.961 298.434 296.328 298.158C298.021 296.889 299.76 295.684 301.543 294.542C305.508 292.005 309.679 289.807 314.012 287.969L312.56 288.582C318.848 285.941 346.708 279.706 351.775 280.387L350.16 280.17C357.607 281.21 364.887 283.222 371.812 286.154L370.36 285.541C373.87 287.032 377.28 288.746 380.571 290.672C382.215 291.636 383.827 292.653 385.406 293.722C386.154 294.228 386.893 294.746 387.625 295.274C387.991 295.539 388.354 295.806 388.716 296.076C388.917 296.226 389.116 296.378 389.317 296.528C390.159 297.16 388.157 295.614 389.04 296.312C391.994 298.634 394.8 301.14 397.441 303.813C398.738 305.135 399.991 306.498 401.198 307.903C401.818 308.624 402.425 309.356 403.019 310.098C403.314 310.467 404.319 311.801 403.087 310.167C403.388 310.566 403.693 310.963 403.99 311.365C406.551 314.833 408.825 318.503 410.79 322.34C412.243 325.175 416.452 326.233 419.106 324.521C420.469 323.682 421.457 322.349 421.863 320.799C422.269 319.25 422.062 317.604 421.286 316.203Z" fill="#3F3D56"/>
<path d="M350.47 415.422C349.843 415.451 349.222 415.286 348.691 414.95C348.16 414.614 347.746 414.123 347.504 413.543C347.261 412.964 347.203 412.323 347.337 411.71C347.47 411.096 347.789 410.538 348.25 410.111C348.328 409.804 348.383 409.584 348.46 409.276C348.433 409.21 348.405 409.143 348.377 409.076C345.557 402.35 327.563 421.101 326.785 427.422C326.443 430.217 326.587 433.05 327.212 435.794C321.384 423.076 318.357 409.252 318.338 395.26C318.337 391.749 318.532 388.24 318.922 384.751C319.244 381.891 319.692 379.051 320.264 376.231C323.388 360.931 330.096 346.591 339.835 334.388C345.406 334.699 350.287 333.85 350.759 323.051C350.842 321.13 352.267 319.467 352.581 317.574C352.049 317.644 351.508 317.687 350.977 317.722C350.811 317.731 350.637 317.74 350.471 317.749L350.408 317.751C349.824 317.777 349.244 317.634 348.74 317.339C348.235 317.043 347.826 316.608 347.563 316.085C347.299 315.562 347.193 314.975 347.255 314.393C347.318 313.811 347.547 313.26 347.916 312.805C348.146 312.523 348.375 312.24 348.605 311.958C348.954 311.522 349.311 311.094 349.66 310.658C349.7 310.617 349.738 310.573 349.773 310.528C350.175 310.03 350.576 309.542 350.977 309.045C350.245 307.908 349.26 306.956 348.1 306.263C344.081 303.908 338.537 305.539 335.634 309.176C332.722 312.812 332.173 317.914 333.184 322.458C334.178 326.324 335.823 329.993 338.048 333.307C337.83 333.586 337.604 333.856 337.386 334.135C333.402 339.26 329.929 344.763 327.019 350.565C327.842 344.13 317.771 320.889 313.877 315.966C309.199 310.054 299.606 312.634 298.782 320.13C298.774 320.202 298.766 320.275 298.758 320.347C299.337 320.674 299.903 321.02 300.457 321.387C301.153 321.852 301.692 322.517 302.004 323.294C302.316 324.071 302.386 324.924 302.205 325.742C302.024 326.559 301.6 327.303 300.99 327.876C300.379 328.448 299.609 328.823 298.782 328.95L298.697 328.964C290.954 340.024 315.777 368.811 321.991 362.347C319.066 370.638 317.232 379.275 316.533 388.039C316.138 393.21 316.161 398.404 316.603 403.571L316.577 403.388C315.196 392.134 291.512 375.402 284.596 376.796C280.611 377.599 276.687 377.416 277.292 381.437C277.302 381.501 277.312 381.565 277.322 381.629C278.395 382.066 279.44 382.57 280.451 383.138C281.03 383.464 281.596 383.811 282.15 384.177C282.846 384.642 283.385 385.307 283.697 386.084C284.009 386.861 284.079 387.715 283.898 388.532C283.717 389.35 283.293 390.094 282.683 390.666C282.072 391.239 281.302 391.613 280.475 391.741L280.39 391.754C280.329 391.763 280.277 391.771 280.216 391.78C276.691 403.913 302.83 423.493 318.721 417.263H318.73C320.305 424.109 322.587 430.772 325.539 437.146H349.861C349.948 436.876 350.026 436.597 350.105 436.326C347.853 436.468 345.593 436.333 343.375 435.925C345.179 433.71 346.984 431.478 348.788 429.263C348.829 429.221 348.866 429.177 348.902 429.132C349.817 427.998 350.741 426.873 351.656 425.739L351.657 425.738C351.706 422.263 351.307 418.796 350.471 415.422L350.47 415.422ZM322.618 360.612L322.631 360.594L322.618 360.629V360.612ZM317.231 409.196L317.021 408.725C317.03 408.385 317.03 408.045 317.021 407.696C317.021 407.6 317.004 407.504 317.004 407.408C317.083 408.01 317.152 408.611 317.239 409.213L317.231 409.196Z" fill="#3F3D56"/>
<path d="M77.184 364.791C82.1069 364.791 86.0978 360.799 86.0978 355.874C86.0978 350.949 82.1069 346.957 77.184 346.957C72.2611 346.957 68.2703 350.949 68.2703 355.874C68.2703 360.799 72.2611 364.791 77.184 364.791Z" fill="#3F3D56"/>
<path d="M184.149 462.069C189.072 462.069 193.063 458.076 193.063 453.152C193.063 448.227 189.072 444.234 184.149 444.234C179.226 444.234 175.235 448.227 175.235 453.152C175.235 458.076 179.226 462.069 184.149 462.069Z" fill="#3F3D56"/>
<path d="M590.13 462.069C595.053 462.069 599.044 458.076 599.044 453.152C599.044 448.227 595.053 444.234 590.13 444.234C585.207 444.234 581.216 448.227 581.216 453.152C581.216 458.076 585.207 462.069 590.13 462.069Z" fill="#3F3D56"/>
<path d="M612.009 348.578C616.932 348.578 620.923 344.586 620.923 339.661C620.923 334.736 616.932 330.744 612.009 330.744C607.087 330.744 603.096 334.736 603.096 339.661C603.096 344.586 607.087 348.578 612.009 348.578Z" fill="#3F3D56"/>
<path d="M586.078 265.893C591.001 265.893 594.992 261.901 594.992 256.976C594.992 252.051 591.001 248.059 586.078 248.059C581.155 248.059 577.165 252.051 577.165 256.976C577.165 261.901 581.155 265.893 586.078 265.893Z" fill="#3F3D56"/>
<path d="M214.132 339.662C214.126 341.94 213.246 344.129 211.673 345.775C210.099 347.421 207.953 348.4 205.679 348.507C203.404 348.615 201.176 347.844 199.454 346.353C197.732 344.863 196.649 342.767 196.429 340.5C196.208 338.233 196.868 335.968 198.27 334.174C199.673 332.38 201.711 331.193 203.964 330.861C206.216 330.528 208.51 331.075 210.371 332.387C212.232 333.699 213.518 335.677 213.962 337.911C214.076 338.488 214.133 339.074 214.132 339.662V339.662Z" fill="#3F3D56"/>
<path d="M392.407 291.834C397.33 291.834 401.321 287.842 401.321 282.917C401.321 277.992 397.33 274 392.407 274C387.484 274 383.493 277.992 383.493 282.917C383.493 287.842 387.484 291.834 392.407 291.834Z" fill="#3F3D56"/>
<path d="M304.08 282.916C304.074 285.194 303.194 287.382 301.62 289.029C300.047 290.675 297.901 291.654 295.627 291.761C293.352 291.869 291.124 291.098 289.402 289.607C287.68 288.117 286.597 286.021 286.376 283.754C286.156 281.487 286.815 279.222 288.218 277.428C289.621 275.634 291.659 274.447 293.912 274.115C296.164 273.782 298.458 274.329 300.319 275.641C302.18 276.953 303.466 278.931 303.909 281.165C304.024 281.742 304.081 282.328 304.08 282.916V282.916Z" fill="#3F3D56"/>
<path d="M189.011 256.975C189.006 259.253 188.125 261.441 186.552 263.087C184.978 264.734 182.833 265.712 180.558 265.82C178.284 265.927 176.055 265.156 174.333 263.666C172.611 262.175 171.528 260.08 171.308 257.813C171.088 255.546 171.747 253.281 173.15 251.486C174.552 249.692 176.591 248.506 178.843 248.173C181.096 247.841 183.39 248.387 185.251 249.699C187.112 251.012 188.397 252.99 188.841 255.224C188.955 255.8 189.012 256.387 189.011 256.975V256.975Z" fill="#3F3D56"/>
<path d="M485.596 368.033C490.519 368.033 494.51 364.041 494.51 359.116C494.51 354.192 490.519 350.199 485.596 350.199C480.673 350.199 476.682 354.192 476.682 359.116C476.682 364.041 480.673 368.033 485.596 368.033Z" fill="#3F3D56"/>
<path d="M345.407 286.97C352.568 286.97 358.373 281.163 358.373 274C358.373 266.836 352.568 261.029 345.407 261.029C338.246 261.029 332.442 266.836 332.442 274C332.442 281.163 338.246 286.97 345.407 286.97Z" fill="#3F3D56"/>
<path d="M696.035 462.751L0.964852 463C0.838145 463 0.712676 462.975 0.595614 462.926C0.478552 462.878 0.372193 462.807 0.282598 462.717C0.193003 462.628 0.121923 462.521 0.0734347 462.404C0.0249461 462.287 0 462.161 0 462.035C0 461.908 0.0249461 461.782 0.0734347 461.665C0.121923 461.548 0.193003 461.442 0.282598 461.352C0.372193 461.263 0.478552 461.191 0.595614 461.143C0.712676 461.094 0.838145 461.069 0.964852 461.069L696.035 460.82C696.291 460.821 696.535 460.923 696.716 461.104C696.896 461.285 696.997 461.53 696.997 461.786C696.997 462.041 696.896 462.286 696.716 462.467C696.535 462.648 696.291 462.75 696.035 462.751V462.751Z" fill="#CACACA"/>
</svg>
