<svg width="258" height="152" viewBox="0 0 258 152" fill="none" xmlns="http://www.w3.org/2000/svg">
<g clip-path="url(#clip0_60_799)">
<path opacity="0.1" d="M82.3707 5.73336C89.3374 0.707219 100.269 -0.323138 110.219 0.0770195C141.473 1.33549 169.686 13.5703 194.089 27.4095C202.925 32.4183 211.622 37.8175 217.356 44.7168C229.039 58.7591 225.568 78.216 209.336 89.7839C203.812 93.7217 197.117 96.7432 190.243 99.4128C178.021 104.17 164.834 107.988 150.965 109.078C141.073 109.852 131.059 109.223 121.227 108.143C93.753 105.117 66.785 98.4366 44.1825 87.0176C34.2689 82.003 24.9227 75.7726 20.8361 67.6611C16.7495 59.5497 19.365 49.2752 29.4885 44.4752C33.6752 42.4899 38.6821 41.5929 43.5817 40.752C50.7964 39.5129 58.1255 38.2911 64.6368 35.7723C71.3603 33.1703 79.3213 28.1364 77.9885 22.3776C76.5627 16.1877 75.4159 10.7595 82.3707 5.73336Z" fill="#227703"/>
<path opacity="0.1" d="M202.764 138.221C217.177 138.221 228.862 137.613 228.862 136.864C228.862 136.114 217.177 135.507 202.764 135.507C188.351 135.507 176.666 136.114 176.666 136.864C176.666 137.613 188.351 138.221 202.764 138.221Z" fill="#6C63FF"/>
<path opacity="0.1" d="M134.931 129.139C149.344 129.139 161.029 128.531 161.029 127.782C161.029 127.032 149.344 126.425 134.931 126.425C120.518 126.425 108.833 127.032 108.833 127.782C108.833 128.531 120.518 129.139 134.931 129.139Z" fill="#6C63FF"/>
<path opacity="0.1" d="M39.1178 150.666C53.5312 150.666 65.2156 150.059 65.2156 149.309C65.2156 148.56 53.5312 147.952 39.1178 147.952C24.7044 147.952 13.02 148.56 13.02 149.309C13.02 150.059 24.7044 150.666 39.1178 150.666Z" fill="#6C63FF"/>
<path opacity="0.1" d="M88.7098 152C94.6405 152 99.4483 151.75 99.4483 151.441C99.4483 151.133 94.6405 150.883 88.7098 150.883C82.779 150.883 77.9712 151.133 77.9712 151.441C77.9712 151.75 82.779 152 88.7098 152Z" fill="#6C63FF"/>
<path opacity="0.1" d="M249.629 137.492C254.251 137.492 257.997 137.297 257.997 137.057C257.997 136.817 254.251 136.622 249.629 136.622C245.007 136.622 241.26 136.817 241.26 137.057C241.26 137.297 245.007 137.492 249.629 137.492Z" fill="#6C63FF"/>
<path opacity="0.1" d="M172.821 128.361C176.74 128.361 179.917 128.196 179.917 127.992C179.917 127.788 176.74 127.623 172.821 127.623C168.902 127.623 165.726 127.788 165.726 127.992C165.726 128.196 168.902 128.361 172.821 128.361Z" fill="#6C63FF"/>
<path d="M250.833 126.618C250.833 126.618 251.954 127.807 250.318 129.601C248.683 131.395 247.328 132.909 247.874 134.026C247.874 134.026 250.347 130.695 252.357 130.649C254.367 130.602 253.048 128.623 250.833 126.618Z" fill="#6C63FF"/>
<path opacity="0.1" d="M250.833 126.618C250.934 126.733 251.014 126.858 251.071 126.991C253.034 128.861 254.078 130.604 252.192 130.649C250.435 130.689 248.327 133.237 247.822 133.881C247.838 133.93 247.858 133.979 247.881 134.026C247.881 134.026 250.354 130.695 252.364 130.649C254.374 130.602 253.048 128.623 250.833 126.618Z" fill="black"/>
<path d="M252.92 128.132C252.92 128.551 252.862 128.89 252.791 128.89C252.719 128.89 252.662 128.551 252.662 128.132C252.662 127.712 252.734 127.911 252.805 127.911C252.877 127.911 252.92 127.714 252.92 128.132Z" fill="#FFD037"/>
<path d="M253.634 128.632C253.181 128.825 252.788 128.953 252.752 128.903C252.716 128.852 253.057 128.647 253.51 128.446C253.963 128.245 253.784 128.392 253.818 128.446C253.851 128.501 254.087 128.431 253.634 128.632Z" fill="#FFD037"/>
<path d="M244.918 126.618C244.918 126.618 243.797 127.807 245.435 129.601C247.073 131.395 248.423 132.909 247.877 134.026C247.877 134.026 245.407 130.695 243.394 130.649C241.382 130.602 242.705 128.623 244.918 126.618Z" fill="#6C63FF"/>
<path opacity="0.1" d="M244.917 126.618C244.816 126.733 244.736 126.858 244.679 126.991C242.717 128.861 241.67 130.604 243.556 130.649C245.313 130.689 247.423 133.237 247.926 133.881C247.91 133.93 247.89 133.979 247.867 134.026C247.867 134.026 245.397 130.695 243.384 130.649C241.372 130.602 242.705 128.623 244.917 126.618Z" fill="black"/>
<path d="M242.834 128.132C242.834 128.551 242.891 128.89 242.962 128.89C243.034 128.89 243.094 128.551 243.094 128.132C243.094 127.712 243.02 127.911 242.948 127.911C242.877 127.911 242.834 127.714 242.834 128.132Z" fill="#FFD037"/>
<path d="M242.119 128.632C242.572 128.825 242.968 128.953 243.001 128.903C243.034 128.852 242.696 128.647 242.243 128.446C241.79 128.245 241.969 128.392 241.935 128.446C241.902 128.501 241.666 128.431 242.119 128.632Z" fill="#FFD037"/>
<path d="M243.204 133.871C243.204 133.871 246.336 133.794 247.281 133.249C248.225 132.704 252.099 132.052 252.335 132.926C252.571 133.8 257.042 137.274 253.506 137.297C249.97 137.32 245.287 136.85 244.343 136.386C243.399 135.922 243.204 133.871 243.204 133.871Z" fill="#A8A8A8"/>
<path opacity="0.2" d="M253.556 136.993C250.02 137.016 245.337 136.547 244.395 136.081C243.68 135.727 243.392 134.455 243.296 133.867H243.191C243.191 133.867 243.389 135.916 244.331 136.38C245.273 136.844 249.955 137.314 253.494 137.291C254.514 137.291 254.867 136.991 254.848 136.554C254.705 136.823 254.316 136.987 253.556 136.993Z" fill="black"/>
<path d="M174.08 119.067C174.08 119.067 175.034 120.082 173.636 121.617C172.239 123.152 171.081 124.447 171.548 125.404C171.548 125.404 173.66 122.555 175.382 122.504C177.103 122.454 175.968 120.78 174.08 119.067Z" fill="#6C63FF"/>
<path opacity="0.1" d="M174.08 119.067C174.163 119.166 174.229 119.273 174.276 119.386C175.945 120.985 176.848 122.479 175.229 122.514C173.727 122.549 171.923 124.73 171.491 125.28C171.505 125.323 171.523 125.364 171.543 125.404C171.543 125.404 173.656 122.555 175.377 122.504C177.099 122.454 175.969 120.78 174.08 119.067Z" fill="black"/>
<path d="M175.861 120.363C175.861 120.72 175.811 121.01 175.751 121.01C175.692 121.01 175.639 120.72 175.639 120.363C175.639 120.005 175.701 120.17 175.763 120.17C175.825 120.17 175.861 120.005 175.861 120.363Z" fill="#FFD037"/>
<path d="M176.474 120.789C176.085 120.96 175.759 121.064 175.718 121.02C175.677 120.975 175.98 120.803 176.367 120.633C176.753 120.463 176.605 120.587 176.631 120.633C176.657 120.679 176.86 120.617 176.474 120.789Z" fill="#FFD037"/>
<path d="M169.016 119.067C169.016 119.067 168.062 120.082 169.457 121.617C170.851 123.152 172.015 124.447 171.548 125.404C171.548 125.404 169.433 122.555 167.711 122.504C165.99 122.454 167.122 120.78 169.016 119.067Z" fill="#6C63FF"/>
<path opacity="0.1" d="M169.016 119.067C168.931 119.165 168.865 119.273 168.818 119.386C167.149 120.985 166.246 122.479 167.864 122.514C169.369 122.549 171.171 124.73 171.603 125.28C171.589 125.321 171.572 125.364 171.553 125.404C171.553 125.404 169.438 122.555 167.717 122.504C165.995 122.454 167.123 120.78 169.016 119.067Z" fill="black"/>
<path d="M167.232 120.363C167.232 120.72 167.282 121.01 167.344 121.01C167.406 121.01 167.454 120.72 167.454 120.363C167.454 120.005 167.392 120.17 167.33 120.17C167.268 120.17 167.232 120.005 167.232 120.363Z" fill="#FFD037"/>
<path d="M166.622 120.789C167.009 120.96 167.338 121.064 167.376 121.02C167.414 120.975 167.116 120.803 166.727 120.633C166.339 120.463 166.489 120.587 166.463 120.633C166.436 120.679 166.234 120.617 166.622 120.789Z" fill="#FFD037"/>
<path d="M167.537 125.273C167.537 125.273 170.217 125.205 171.025 124.739C171.834 124.274 175.15 123.715 175.35 124.463C175.551 125.211 179.377 128.184 176.352 128.204C173.326 128.223 169.321 127.817 168.515 127.43C167.709 127.044 167.537 125.273 167.537 125.273Z" fill="#A8A8A8"/>
<path opacity="0.2" d="M176.406 127.942C173.378 127.963 169.373 127.556 168.567 127.169C167.954 126.865 167.709 125.777 167.628 125.274H167.537C167.537 125.274 167.706 127.026 168.515 127.424C169.323 127.822 173.326 128.224 176.352 128.197C177.224 128.197 177.527 127.94 177.51 127.567C177.398 127.807 177.055 127.938 176.406 127.942Z" fill="black"/>
<g opacity="0.8">
<path opacity="0.8" d="M35.2344 120.196C38.7602 120.197 42.2064 121.046 45.1374 122.635C48.0683 124.224 50.3524 126.482 51.7009 129.123C53.0494 131.765 53.4018 134.671 52.7134 137.475C52.025 140.278 50.3269 142.854 47.8336 144.875C45.3403 146.896 42.1639 148.273 38.7058 148.83C35.2478 149.388 31.6635 149.102 28.4059 148.008C25.1484 146.915 22.3639 145.062 20.4046 142.686C18.4452 140.309 17.3989 137.515 17.398 134.656C17.3964 132.757 17.8567 130.876 18.7525 129.121C19.6484 127.366 20.9622 125.771 22.6188 124.428C24.2754 123.085 26.2423 122.02 28.407 121.294C30.5717 120.568 32.8917 120.195 35.2344 120.196Z" fill="#E74D89"/>
<path opacity="0.8" d="M35.2344 150.137C31.458 150.133 27.7676 149.222 24.6295 147.519C21.4915 145.815 19.0468 143.396 17.6042 140.566C16.1616 137.736 15.786 134.623 16.5249 131.621C17.2637 128.618 19.0838 125.86 21.7551 123.696C24.4264 121.532 27.8291 120.058 31.5331 119.461C35.2371 118.864 39.0762 119.171 42.5651 120.343C46.0541 121.515 49.0363 123.499 51.135 126.044C53.2336 128.59 54.3545 131.583 54.3559 134.645C54.3515 138.754 52.335 142.694 48.7496 145.599C45.1642 148.504 40.3031 150.136 35.2344 150.137ZM51.3542 136.765C48.0531 135.985 44.584 135.787 41.1807 136.185C42.5746 139.249 43.638 142.406 44.3588 145.619C46.213 144.612 47.7911 143.307 48.9948 141.783C50.1984 140.26 51.0016 138.552 51.3542 136.765ZM41.6146 146.841C40.8471 143.417 39.6815 140.059 38.1336 136.814C38.1007 136.826 38.0651 136.834 38.0287 136.837C28.8113 139.441 25.5091 144.614 25.2111 145.097C28.0726 146.905 31.5972 147.885 35.2248 147.883C37.4174 147.895 39.5894 147.54 41.605 146.841H41.6146ZM23.1058 143.51C23.4777 143.001 27.9601 136.995 36.386 134.778C36.5934 134.718 36.8175 134.67 37.0273 134.621C36.6244 133.869 36.1762 133.119 35.6969 132.381C27.5429 134.355 19.6248 134.27 18.9072 134.258C18.9072 134.391 18.8929 134.525 18.8929 134.656C18.8976 137.928 20.3987 141.083 23.1058 143.51ZM19.2505 131.956C24.3457 131.937 29.4175 131.396 34.3451 130.345C32.498 127.712 30.478 125.16 28.2939 122.702C26.008 123.574 24.0022 124.863 22.4333 126.468C20.8644 128.074 19.775 129.952 19.2505 131.956ZM31.4101 121.807C33.65 124.273 35.6865 126.856 37.5066 129.539C43.3169 127.772 45.7655 125.107 46.0659 124.768C43.0811 122.619 39.2264 121.434 35.2344 121.437C33.9461 121.445 32.6631 121.571 31.4101 121.814V121.807ZM47.8732 126.299C47.5299 126.676 44.7952 129.522 38.7607 131.519C39.1326 132.149 39.5069 132.791 39.8503 133.432C39.9695 133.663 40.0887 133.893 40.2103 134.111C45.6463 133.552 51.0394 134.449 51.5783 134.534C51.538 131.526 50.2307 128.62 47.8732 126.297V126.299Z" fill="#B2215A"/>
</g>
<path d="M79.4497 90.5286C79.0182 90.0897 78.527 87.0721 78.527 87.0721L76.6196 79.3821L75.6326 74.9514C75.6326 74.9514 75.3941 69.355 71.0739 66.579L70.7377 66.3645C70.7377 66.3142 70.7377 66.2659 70.7377 66.2156C70.6984 65.6751 70.5527 65.1432 70.3062 64.6401C70.2019 64.4772 70.1486 64.2959 70.1512 64.1124C70.1624 64.04 70.1916 63.9703 70.2371 63.9074C70.4395 63.6825 70.7062 63.5007 71.0143 63.3778C71.7987 62.9911 72.4663 62.3822 72.6475 61.6611C72.6464 61.6451 72.6464 61.6289 72.6475 61.6128C72.6475 61.5819 72.6475 61.549 72.6642 61.5162C72.6809 61.4833 72.6642 61.4814 72.6642 61.462C72.6666 61.4286 72.6666 61.395 72.6642 61.3615V61.319C72.6642 61.2803 72.6642 61.2397 72.6642 61.1991C72.663 61.1908 72.663 61.1824 72.6642 61.174C72.6642 61.1295 72.6523 61.0831 72.6427 61.0387V61.029C72.5997 60.7674 72.4756 60.5189 72.2822 60.3066C72.0888 60.0944 71.8322 59.9252 71.5365 59.815C71.6439 59.7942 71.7439 59.7536 71.8287 59.6962C71.9135 59.6389 71.9808 59.5664 72.0252 59.4845C72.0546 59.4369 72.0778 59.387 72.0944 59.3356C72.1107 59.2876 72.121 59.2384 72.1254 59.1887C72.1254 59.1887 72.1254 59.1732 72.1254 59.1655C72.1289 59.123 72.1289 59.0804 72.1254 59.0379C72.1254 59.0244 72.1254 59.0108 72.1254 58.9973C72.1182 58.9548 72.107 58.9128 72.092 58.8716C72.0931 58.8607 72.0931 58.8497 72.092 58.8388L72.0777 58.8117C71.9179 58.4406 71.5388 58.1545 71.2122 57.8568C69.3287 56.1459 68.9639 53.7392 68.4513 51.5084C68.1675 50.2712 67.6311 48.8619 66.1529 48.3922C65.735 48.2848 65.3099 48.197 64.8797 48.1292C63.5684 47.847 62.4955 47.1047 61.2127 46.7413C60.3465 46.5001 59.4199 46.437 58.5162 46.5576C57.8271 46.6504 57.2501 46.9249 56.5849 47.0544C55.1544 47.3386 53.4187 47.0216 52.2933 47.9591C51.5042 48.6106 51.4422 49.6042 51.0535 50.4529C50.3192 52.0284 48.4118 53.1747 47.9183 54.8121C47.6012 55.8676 47.9302 56.9385 48.2759 57.9998C48.5362 58.7127 48.7119 59.4442 48.8004 60.1842C48.8136 60.371 48.8136 60.5581 48.8004 60.7448C48.7495 61.2899 48.5976 61.8255 48.3498 62.3339C46.7381 62.8172 45.0715 63.3874 44.9475 63.7083C44.7091 64.3405 40.818 66.1421 40.818 66.1421C40.818 66.1421 39.3398 67.1648 39.3398 67.5533C39.3398 67.9419 38.8487 69.1598 38.5387 69.1598C38.2288 69.1598 37.616 74.0757 37.616 74.0757V79.1869C37.616 79.1869 35.3391 85.2221 34.8145 90.5769C34.8145 90.5769 33.8942 93.9966 35.3963 95.9587C35.5928 96.2249 35.8435 96.4622 36.1378 96.6604L36.9055 98.2862C37.1756 97.9206 37.5188 97.5939 37.9212 97.3196C37.9593 97.5226 38.0023 97.7604 38.0547 98.0252C38.1191 98.3577 38.1954 98.7347 38.2931 99.1387C37.8163 99.7438 36.6647 101.01 35.2819 101.484C34.0039 101.92 35.6681 103.076 36.8173 103.751C36.5121 104.983 36.071 106.494 35.7134 106.691C35.0959 107.032 33.1265 111.315 33.1265 111.315C33.1265 111.315 29.2474 118.661 34.8217 119.493C40.396 120.324 43.238 118.373 43.238 118.373H44.5732C44.5732 118.373 46.1969 117.631 46.2422 116.096C47.1505 115.489 48.5453 114.526 48.829 114.138C49.1128 113.749 48.3307 112.485 47.8348 111.795L47.966 111.602C47.966 111.602 53.2661 106.102 53.9432 106.686C54.6203 107.269 55.0519 108.193 54.7443 108.779L55.0352 112.149V117.405C55.0352 117.405 54.2746 119.79 55.0352 120.034C55.7958 120.277 55.0352 121.194 55.0352 121.194C55.0352 121.194 55.3189 122.265 55.3714 122.605C55.3986 123.043 55.3986 123.482 55.3714 123.919L55.1163 129.178L54.6227 136.964C54.6227 136.964 54.0696 137.598 54.5011 138.035C54.9327 138.472 54.7396 139.497 54.6227 139.69C54.5059 139.883 54.4391 141.492 54.4391 141.492C54.4391 141.492 52.651 142.999 54.0696 143.39L54.1244 143.403C53.5379 143.844 53.5308 144.836 53.5761 145.143C53.6214 145.451 53.1993 146.69 52.8822 147.392C52.8189 147.57 52.7206 147.739 52.5914 147.892C52.3744 148.016 52.5914 149.379 52.5914 149.379C52.5914 149.379 59.5199 149.841 60.1065 149.379C60.3449 149.199 60.2853 148.762 60.1184 148.258C59.8523 147.525 59.4977 146.816 59.0598 146.141C58.6568 145.534 58.8452 144.755 58.8452 144.755V144.175C59.3101 144.235 59.6129 144.27 59.6129 144.27C59.6129 144.27 60.476 143.69 60.1065 143.15C59.7369 142.611 60.7836 139.599 60.7836 139.599C60.7836 139.599 61.9542 136.191 61.9542 135.851C61.9542 135.511 63.4945 131.082 63.4945 131.082C63.4945 131.082 65.7738 123.245 64.6651 119.545C64.6651 119.545 65.6498 118.621 65.5258 118.385C65.4018 118.149 65.1157 117.119 65.5377 116.682C65.9597 116.245 67.7455 110.792 68.2391 109.868C68.4656 109.44 69.033 108.261 69.5766 107.111C72.03 106.813 74.9531 106.264 74.9531 106.264C74.9531 106.264 74.5168 104.758 74.1925 103.22L74.4595 102.162L74.5549 101.797C74.7752 101.972 74.9711 102.167 75.139 102.377L75.6302 100.43C75.6302 100.43 75.685 100.362 75.778 100.237C76.3526 99.5079 78.446 96.8886 79.4497 96.094C80.6204 95.1526 79.8836 90.9654 79.4497 90.5286Z" fill="url(#paint0_linear_60_799)"/>
<path d="M64.5031 57.9609H57.708V64.1469H64.5031V57.9609Z" fill="#925978"/>
<path opacity="0.1" d="M64.5031 57.9609H57.708V64.1469H64.5031V57.9609Z" fill="black"/>
<path d="M47.7515 111.267C47.7515 111.267 49.4801 113.49 49.0629 114.07C48.6456 114.65 45.7893 116.534 45.7893 116.534L44.9453 111.895L47.7515 111.267Z" fill="#FF6484"/>
<path d="M42.3867 118.419L43.648 118.274H44.9402C44.9402 118.274 46.6569 117.474 46.5591 115.81C46.4614 114.145 46.5591 112.523 46.5591 112.523L42.3867 118.419Z" fill="#575988"/>
<path opacity="0.1" d="M42.3867 118.419L43.648 118.274H44.9402C44.9402 118.274 46.6569 117.474 46.5591 115.81C46.4614 114.145 46.5591 112.523 46.5591 112.523L42.3867 118.419Z" fill="black"/>
<path d="M44.9406 95.7539L37.788 102.133C37.788 102.133 36.9535 106.338 36.3574 106.676C35.7614 107.014 33.8683 111.267 33.8683 111.267C33.8683 111.267 30.1179 118.565 35.5086 119.386C40.8994 120.208 43.6436 118.275 43.6436 118.275L48.2213 111.557C48.2213 111.557 53.3498 106.096 54.0055 106.676C54.6612 107.256 55.0784 108.174 54.7804 108.754L55.0593 112.089V117.308C55.0593 117.308 54.325 119.676 55.0593 119.918C55.7937 120.16 55.0593 121.078 55.0593 121.078C55.0593 121.078 55.3359 122.141 55.386 122.479C55.436 122.818 55.386 123.784 55.386 123.784L55.1475 129.004L54.6707 136.736C54.6707 136.736 54.1342 137.365 54.5515 137.799C54.9687 138.234 54.7899 139.249 54.6707 139.443C54.5515 139.636 54.4919 141.231 54.4919 141.231C54.4919 141.231 52.7633 142.729 54.1342 143.116C55.5052 143.502 59.4988 143.985 59.4988 143.985C59.4988 143.985 60.3332 143.406 59.9756 142.874C59.618 142.342 60.6313 139.346 60.6313 139.346C60.6313 139.346 61.7638 135.963 61.7638 135.625C61.7638 135.286 63.2539 130.889 63.2539 130.889C63.2539 130.889 65.4593 123.108 64.3864 119.435C64.3864 119.435 65.3401 118.517 65.2209 118.275C65.1017 118.033 64.8227 117.018 65.2209 116.583C65.6191 116.148 67.3667 110.736 67.8436 109.817C68.3204 108.899 70.347 104.453 70.347 104.453V96.2372L44.9406 95.7539Z" fill="#575988"/>
<path d="M66.2937 66.6119L62.1786 72.9158L61.0937 74.5744L60.9292 74.8277L50.3194 75.166C50.3194 75.166 50.0166 74.6228 49.5874 73.7799C48.8459 72.3204 47.7254 69.9581 47.1603 67.9651C47.0205 67.488 46.9169 67.0045 46.8503 66.5171C46.693 65.3109 46.9314 64.4506 47.8851 64.3772C48.1261 64.3594 48.369 64.3798 48.6004 64.4371C49.2634 64.5959 49.9578 64.6504 50.646 64.5975C53.1638 64.3501 53.9005 62.1947 54.0245 60.1687C54.0245 60.0257 54.0412 59.8826 54.0436 59.7415C54.0436 59.3027 54.0436 58.8774 54.0078 58.4869C53.96 57.8246 53.8661 57.165 53.7265 56.5113C54.3566 56.2611 55.0164 56.0636 55.6958 55.9217C57.7081 55.5041 60.543 55.5157 60.5811 58.8794C60.5769 59.6247 60.668 60.3684 60.8529 61.0986C60.9603 61.5148 61.1325 61.9182 61.3655 62.2991C62.0641 63.3874 63.0345 63.5053 63.4899 63.4918C63.574 63.4919 63.6579 63.4848 63.7402 63.4705L66.2937 66.6119Z" fill="#FFC5CB"/>
<path opacity="0.1" d="M55.703 70.2617C55.8498 70.6042 55.9247 70.9643 55.9247 71.3269C55.9697 71.7087 55.9585 72.0935 55.8913 72.4732C55.8234 72.8573 55.5883 73.2091 55.2285 73.4649" fill="black"/>
<path opacity="0.1" d="M58.7047 61.5893C62.2271 61.5893 65.0826 59.2741 65.0826 56.4182C65.0826 53.5623 62.2271 51.2471 58.7047 51.2471C55.1824 51.2471 52.3269 53.5623 52.3269 56.4182C52.3269 59.2741 55.1824 61.5893 58.7047 61.5893Z" fill="black"/>
<path d="M65.0802 56.2251C65.0807 57.2644 64.6949 58.2796 63.9731 59.1383C63.2512 59.9971 62.2269 60.6595 61.0338 61.0392C59.8407 61.4188 58.5341 61.4981 57.2846 61.2666C56.0351 61.0351 54.9006 60.5036 54.0292 59.7415C53.9736 59.6955 53.9211 59.6471 53.8719 59.5965C53.2006 58.9647 52.7279 58.2105 52.494 57.3985C52.2601 56.5864 52.2719 55.7405 52.5286 54.933C52.7853 54.1254 53.2791 53.3802 53.9679 52.7609C54.6567 52.1417 55.5201 51.6667 56.4844 51.3766C57.4487 51.0865 58.4852 50.9898 59.5055 51.0949C60.5259 51.2 61.4997 51.5036 62.3439 51.9799C63.1882 52.4563 63.8777 53.0911 64.3538 53.8304C64.8298 54.5696 65.0782 55.3912 65.0778 56.2251H65.0802Z" fill="#FFC5CB"/>
<path opacity="0.1" d="M48.4666 69.125C48.4666 69.125 50.7316 73.9095 55.5001 73.1362C55.5001 73.1362 60.3139 73.4417 63.07 70.5748C65.8262 67.708 65.9907 87.0064 65.9907 87.0064L64.9178 99.8134C64.9178 99.8134 57.2334 103.535 53.8955 103.051C50.5576 102.568 48.9482 101.118 48.9482 101.118C48.9482 101.118 45.4315 98.4602 44.4778 98.1219C43.5241 97.7836 44.895 81.3037 44.895 81.3037L46.0275 75.1177L48.4666 69.125Z" fill="black"/>
<path d="M48.4666 68.7383C48.4666 68.7383 50.7316 73.5228 55.5001 72.7495C55.5001 72.7495 60.3139 73.055 63.07 70.1881C65.8262 67.3213 65.9907 86.6197 65.9907 86.6197L64.9178 99.4267C64.9178 99.4267 57.2334 103.148 53.8955 102.665C50.5576 102.181 48.9482 100.732 48.9482 100.732C48.9482 100.732 45.4315 98.0735 44.4778 97.7352C43.5241 97.3969 44.895 80.917 44.895 80.917L46.0275 74.731L48.4666 68.7383Z" fill="#E8F4FF"/>
<path opacity="0.1" d="M48.2283 95.7539C48.2283 95.7539 53.3544 100.393 53.0564 100.877C52.7584 101.36 48.1091 97.1554 48.2283 95.7539Z" fill="black"/>
<path opacity="0.1" d="M47.3459 84.2168C47.3459 84.2168 48.9839 86.0726 50.0091 85.8793L47.3459 84.2168Z" fill="black"/>
<path opacity="0.1" d="M50.8866 64.4374C50.8866 64.4374 50.8866 64.4935 50.8699 64.5979C50.8151 65.1913 50.61 67.3429 50.3335 69.74C50.1785 71.0932 50.0021 72.5121 49.8209 73.7802C49.5252 75.8429 49.2105 77.4938 48.9435 77.7277C48.1686 78.4043 48.4666 84.7836 48.4666 84.7836V92.8544C48.4666 92.8544 47.8133 95.4158 47.2745 95.9958C46.7357 96.5757 45.4196 98.7505 44.3657 99.0404C43.995 99.2051 43.6619 99.4202 43.3811 99.6764C42.4274 100.45 41.0779 101.739 40.0431 102.756C39.1896 103.605 38.5578 104.26 38.5578 104.26C38.5578 104.26 34.3854 102.133 36.1735 101.505C37.5111 101.035 38.6174 99.7789 39.0871 99.1854C39.2468 98.9921 39.3255 98.8549 39.3255 98.8549C39.4099 98.4043 39.5366 97.9597 39.7046 97.5249C39.856 97.1149 40.0783 96.7243 40.365 96.365C40.5832 96.066 40.9378 95.8486 41.3521 95.7599C42.9018 95.5183 43.6767 83.5812 43.6767 83.5812L38.9082 75.145L38.4314 74.3022C38.4314 74.3022 39.0274 69.421 39.3255 69.421C39.6235 69.421 40.1004 68.2128 40.1004 67.8262C40.1004 67.4396 41.5309 66.4247 41.5309 66.4247C41.5309 66.4247 45.3123 64.6307 45.5507 64.0025C45.6771 63.6719 47.4104 63.0746 49.0245 62.5836C50.4741 62.1428 51.826 61.7871 51.826 61.7871C52.6152 62.7614 50.8866 64.4374 50.8866 64.4374Z" fill="black"/>
<path d="M50.6481 64.4374C50.6481 64.4374 50.6481 64.4935 50.6314 64.5979C50.5766 65.1913 50.3715 67.3429 50.0949 69.74C49.94 71.0932 49.7635 72.5121 49.5823 73.7802C49.2867 75.8429 48.972 77.4938 48.7049 77.7277C47.9301 78.4043 48.2281 84.7836 48.2281 84.7836V92.8544C48.2281 92.8544 47.5748 95.4158 47.036 95.9958C46.4971 96.5757 45.181 98.7505 44.1272 99.0404C43.7565 99.2051 43.4234 99.4202 43.1425 99.6764C42.1888 100.45 40.8394 101.739 39.8046 102.756C38.951 103.605 38.3192 104.26 38.3192 104.26C38.3192 104.26 34.1468 102.133 35.935 101.505C37.2726 101.035 38.3788 99.7789 38.8485 99.1854C39.0083 98.9921 39.087 98.8549 39.087 98.8549C39.1714 98.4043 39.2981 97.9597 39.466 97.5249C39.6174 97.1149 39.8398 96.7243 40.1265 96.365C40.3447 96.066 40.6993 95.8486 41.1135 95.7599C42.6633 95.5183 43.4382 83.5812 43.4382 83.5812L38.6697 75.145L38.1929 74.3022C38.1929 74.3022 38.7889 69.421 39.087 69.421C39.385 69.421 39.8618 68.2128 39.8618 67.8262C39.8618 67.4396 41.2924 66.4247 41.2924 66.4247C41.2924 66.4247 45.0738 64.6307 45.3122 64.0025C45.4385 63.6719 47.1719 63.0746 48.786 62.5836C50.2356 62.1428 51.5875 61.7871 51.5875 61.7871C52.3767 62.7614 50.6481 64.4374 50.6481 64.4374Z" fill="#FF6484"/>
<path opacity="0.1" d="M74.3566 75.5404L69.209 80.4332C69.209 80.4332 73.6794 99.2328 73.143 100.103C73.1021 100.175 73.0755 100.252 73.0643 100.331C73.0092 100.781 73.0196 101.236 73.0953 101.684C73.1573 102.158 73.2527 102.683 73.36 103.207C73.6747 104.735 74.0967 106.231 74.0967 106.231C74.0967 106.231 68.0765 107.391 66.2287 107.246C64.3809 107.101 65.4538 104.684 65.7519 103.573C66.0499 102.461 63.7253 100.905 63.7253 100.905L60.447 89.9925C60.447 89.9925 60.2085 87.5761 59.4933 86.4162C58.778 85.2563 59.4337 83.9998 59.1952 82.3566C59.026 81.1852 60.0655 76.998 60.8499 74.5642C61.1479 73.6382 61.4102 72.9674 61.5652 72.8108C61.5719 72.8023 61.5799 72.7945 61.589 72.7876C62.0658 72.4493 61.589 70.4679 61.589 70.4679C61.589 70.4679 62.7215 65.2484 62.6023 64.8135C62.5355 64.566 62.9099 63.959 63.246 63.4816C63.5012 63.1201 63.7348 62.832 63.7348 62.832C63.7348 62.832 66.0404 64.017 69.9934 66.6074L70.3511 66.8433C74.5235 69.598 74.7619 75.1557 74.7619 75.1557L74.3566 75.5404Z" fill="black"/>
<path d="M74.5951 75.5404L69.4475 80.4332C69.4475 80.4332 73.918 99.2328 73.3815 100.103C73.3406 100.175 73.314 100.252 73.3028 100.331C73.2477 100.781 73.2581 101.236 73.3338 101.684C73.3958 102.158 73.4912 102.683 73.5985 103.207C73.9132 104.735 74.3352 106.231 74.3352 106.231C74.3352 106.231 68.315 107.391 66.4672 107.246C64.6195 107.101 65.6924 104.684 65.9904 103.573C66.2884 102.461 63.9638 100.905 63.9638 100.905L60.6855 89.9925C60.6855 89.9925 60.4471 87.5761 59.7318 86.4162C59.0165 85.2563 59.6722 83.9998 59.4338 82.3566C59.2645 81.1852 60.304 76.998 61.0884 74.5642C61.3864 73.6382 61.6487 72.9674 61.8037 72.8108C61.8104 72.8023 61.8184 72.7945 61.8275 72.7876C62.3044 72.4493 61.8275 70.4679 61.8275 70.4679C61.8275 70.4679 62.96 65.2484 62.8408 64.8135C62.7741 64.566 63.1484 63.959 63.4846 63.4816C63.7397 63.1201 63.9733 62.832 63.9733 62.832C63.9733 62.832 66.2789 64.017 70.2319 66.6074L70.5896 66.8433C74.762 69.598 75.0004 75.1557 75.0004 75.1557L74.5951 75.5404Z" fill="#FF6484"/>
<path opacity="0.1" d="M63.7259 78.1621C63.6662 78.5487 65.1564 99.0882 66.7061 100.296L63.7259 78.1621Z" fill="black"/>
<path d="M43.6292 106.724C41.9602 107.575 40.6871 105.337 39.8144 102.756C39.4067 101.544 39.0992 100.256 38.8607 99.1776C38.7725 98.7755 38.6986 98.4043 38.6366 98.0718C38.4721 97.2096 38.3982 96.6451 38.3982 96.6451L40.153 96.359L42.0938 96.0439L42.3322 97.8205L42.4442 98.6266C42.4442 98.6266 42.7494 99.0364 43.1595 99.6763C44.3111 101.548 46.2662 105.393 43.6292 106.724Z" fill="#FFC5CB"/>
<path d="M74.2756 100.5L73.8583 102.168L73.5985 103.218L73.5842 103.27C73.5842 103.27 68.3746 108.996 66.7057 106.628C65.4301 104.818 68.5415 101.851 70.077 100.554C70.5538 100.152 70.8781 99.9102 70.8781 99.9102L73.3028 100.332L74.2756 100.5Z" fill="#FFC5CB"/>
<path d="M59.9706 149.059C59.4032 149.517 52.6987 149.059 52.6987 149.059C52.6987 149.059 52.4889 147.706 52.6987 147.584C52.8252 147.432 52.9202 147.263 52.9801 147.086C53.2876 146.38 53.6953 145.152 53.6524 144.855C53.5928 144.445 53.6238 142.802 54.9924 142.922C54.9924 142.922 56.7805 139.974 58.7499 143.598V144.468C58.6516 144.933 58.7237 145.412 58.9573 145.845C59.3818 146.517 59.7251 147.22 59.9826 147.946C60.1447 148.446 60.1924 148.878 59.9706 149.059Z" fill="#FF6484"/>
<path d="M59.9706 149.059C59.4032 149.517 52.6987 149.059 52.6987 149.059C52.6987 149.059 52.4889 147.706 52.6987 147.584C52.8252 147.431 52.9202 147.263 52.9801 147.085C53.867 146.778 55.0734 146.48 55.9174 146.739C56.9832 147.068 58.9502 147.644 59.9706 147.946C60.1447 148.446 60.1924 148.877 59.9706 149.059Z" fill="#E8F4FF"/>
<path opacity="0.1" d="M54.0102 60.1689C54.1794 60.7218 54.4131 61.2805 54.4226 61.845C54.4369 62.6182 54.0245 63.3644 53.5858 64.0603C53.0851 64.8568 52.52 65.7112 52.6869 66.5947C52.7772 66.9295 52.8959 67.2589 53.0422 67.5806C53.4124 68.6172 53.2917 69.7286 52.7036 70.6968C52.3126 71.3366 51.5115 71.9552 50.6555 71.7484C50.5912 71.066 50.4863 70.3217 50.0881 69.7399C49.9307 69.5036 49.7138 69.2968 49.4515 69.1329C48.8316 68.7462 47.9757 68.665 47.413 68.2281C47.3118 68.1496 47.223 68.0613 47.1483 67.9652C46.8742 67.5904 46.7571 67.1536 46.8145 66.7203C46.8145 66.6546 46.8312 66.5889 46.8455 66.527C46.9605 66.0566 47.1546 65.6013 47.4225 65.1738C47.5703 64.9148 47.7253 64.6557 47.8803 64.4006C48.2388 63.8229 48.5402 63.223 48.7815 62.6066C50.2311 62.1659 51.583 61.8102 51.583 61.8102C52.377 62.7767 50.6484 64.4605 50.6484 64.4605C50.6484 64.4605 50.6484 64.5166 50.6317 64.6209C53.1494 64.3503 53.8957 62.1949 54.0102 60.1689Z" fill="black"/>
<path opacity="0.1" d="M57.5819 52.8966C56.8857 53.0763 56.2205 53.4359 55.913 53.9772C55.5839 54.5764 55.7532 55.2685 55.6745 55.9219C55.6566 56.0651 55.6231 56.2068 55.5744 56.3453C55.2788 57.1475 54.3513 57.7139 53.9865 58.4872C53.9603 58.5452 53.9364 58.6031 53.915 58.665C53.8187 58.9694 53.8017 59.2867 53.8649 59.5968C53.0126 58.7923 52.4863 57.7947 52.3573 56.7394C52.2282 55.6841 52.5028 54.6221 53.1438 53.6977C53.7847 52.7732 54.7609 52.0311 55.94 51.5719C57.119 51.1128 58.4437 50.9589 59.7343 51.1311C61.0249 51.3034 62.2189 51.7934 63.1542 52.5347C64.0895 53.2761 64.7209 54.2328 64.9626 55.275C65.2042 56.3172 65.0445 57.3945 64.5051 58.3606C63.9658 59.3268 63.0728 60.1349 61.9475 60.6755C62.2169 60.024 62.5006 59.3745 62.72 58.7095C63.235 57.1456 63.3232 55.3381 62.1096 54.0526C61.5827 53.5162 60.8702 53.1197 60.0636 52.9137C59.2569 52.7077 58.3928 52.7018 57.5819 52.8966Z" fill="black"/>
<path opacity="0.1" d="M70.0366 68.5486C69.8268 69.1652 69.2927 69.8418 68.5059 69.8128C68.1316 69.7993 67.7907 69.6195 67.4163 69.5905C66.8847 69.5519 66.3816 69.8302 66.0621 70.1705C65.7723 70.5357 65.5203 70.9198 65.3087 71.3188C64.7222 72.2428 63.573 73.074 62.3045 72.9291L62.1734 72.9097C62.0434 72.8887 61.9164 72.8569 61.7943 72.815C60.657 72.4284 60.0419 71.2414 60.0824 70.1917C60.1301 68.9951 60.7476 67.8623 60.9503 66.6754C61.1387 65.5812 60.967 64.4658 61.1124 63.3678C61.1619 63.0056 61.2416 62.6465 61.3509 62.293C62.0494 63.3813 63.0198 63.4992 63.4752 63.4857C63.7303 63.1242 63.964 62.8362 63.964 62.8362C63.964 62.8362 66.2695 64.0212 70.2226 66.6116C70.3123 67.261 70.2492 67.9183 70.0366 68.5486Z" fill="black"/>
<path d="M61.048 47.1509C62.2854 47.5124 63.3273 48.2489 64.5957 48.5292C65.0126 48.5957 65.4242 48.6822 65.8284 48.7882C67.2589 49.2541 67.7787 50.6537 68.0529 51.8812C68.5464 54.0966 68.9016 56.4859 70.7232 58.1852C71.0475 58.4867 71.4242 58.7767 71.5744 59.1517C71.7246 59.5268 71.5219 60.0448 71.0379 60.128C71.8676 60.4121 72.2753 61.2434 72.1013 61.9606C71.9272 62.6778 71.2811 63.2693 70.5205 63.6637C70.1653 63.857 69.7361 64.0503 69.6884 64.3905C69.6855 64.573 69.7371 64.7534 69.8387 64.9163C70.33 65.9499 70.4011 67.0838 70.0413 68.1524C69.8315 68.7671 69.2974 69.4456 68.5106 69.4166C68.1363 69.4031 67.7954 69.2233 67.4234 69.1943C66.8894 69.1557 66.3887 69.434 66.0668 69.7743C65.7765 70.1393 65.5245 70.5234 65.3134 70.9225C64.7293 71.8466 63.58 72.6778 62.3093 72.5328C60.8477 72.3647 60.0419 70.9863 60.0872 69.7955C60.1325 68.6047 60.7547 67.4661 60.9574 66.2792C61.1434 65.185 60.9717 64.0696 61.1195 62.9716C61.3341 61.3632 62.2187 59.8689 62.7336 58.307C63.2486 56.745 63.3345 54.9356 62.1209 53.65C61.5946 53.1124 60.882 52.7147 60.0748 52.508C59.2675 52.3014 58.4025 52.2951 57.5909 52.4902C56.8923 52.67 56.2295 53.0295 55.9219 53.5708C55.5213 54.3015 55.8623 55.1714 55.581 55.9389C55.2639 56.801 54.2148 57.3926 53.912 58.2586C53.5591 59.3006 54.3888 60.3599 54.4127 61.4386C54.427 62.2119 54.0145 62.9581 53.5782 63.654C53.0751 64.4504 52.5101 65.3049 52.6793 66.1883C52.7688 66.5231 52.8867 66.8526 53.0322 67.1742C53.4104 68.2159 53.293 69.3348 52.7032 70.3097C52.3122 70.9496 51.4968 71.5682 50.6551 71.3614C50.5621 70.4045 50.3952 69.3258 49.4511 68.7458C48.8288 68.3592 47.9729 68.278 47.4102 67.8392C47.1787 67.6387 47.0047 67.3993 46.9004 67.138C46.7961 66.8767 46.7642 66.5999 46.807 66.3275C46.8966 65.7835 47.1023 65.2562 47.415 64.7694C48.0992 63.5709 48.9313 62.3762 49.0267 61.0578C49.1698 59.0686 47.5962 57.1084 48.1684 55.1676C48.6452 53.5437 50.4954 52.4051 51.1964 50.8354C51.5707 49.9926 51.6303 49.0047 52.3885 48.3571C53.4852 47.4273 55.1613 47.7424 56.549 47.4621C57.1927 47.3307 57.7411 47.06 58.4182 46.9692C59.2994 46.8438 60.2057 46.9065 61.048 47.1509Z" fill="#925978"/>
<path opacity="0.1" d="M44.1203 88.4038C44.1203 88.4038 44.1203 92.7533 44.1203 94.6864C44.1203 94.9455 44.1203 95.2142 44.1012 95.4848C44.0202 97.2246 43.6935 99.036 43.6935 99.036C43.312 98.5805 42.8529 98.1711 42.3297 97.8201C41.1877 97.0913 40.2149 97.1841 39.483 97.5166C39.1667 97.6652 38.8805 97.8523 38.6342 98.0714C38.4697 97.2092 38.3958 96.6447 38.3958 96.6447L40.1505 96.3586C40.3688 96.0596 40.7233 95.8423 41.1376 95.7535C42.6874 95.5119 43.4622 83.5748 43.4622 83.5748L38.6938 75.1386V74.7269L40.3055 72.6488C42.9878 70.764 43.6434 73.4704 43.6434 73.4704C43.6434 73.4704 44.1203 80.8163 44.1203 81.0096C44.1203 81.2029 44.1203 88.4038 44.1203 88.4038Z" fill="black"/>
<path d="M43.6432 87.9731C43.6432 87.9731 43.6432 92.3227 43.6432 94.2558C43.6432 94.5148 43.6431 94.7835 43.6241 95.0542C43.543 96.794 43.2164 98.6053 43.2164 98.6053C39.8785 94.7874 37.5228 98.3347 37.5228 98.3347L36.779 96.7205C36.4943 96.5226 36.2525 96.2873 36.0637 96.0246C34.6117 94.076 35.501 90.6795 35.501 90.6795C36.0088 85.3634 38.2119 79.3707 38.2119 79.3707V74.2962L39.8284 72.2181C42.5106 70.3333 43.6432 73.0397 43.6432 73.0397C43.6432 73.0397 43.6432 80.3856 43.6432 80.5789C43.6432 80.7722 43.6432 87.9731 43.6432 87.9731Z" fill="#FF6484"/>
<path opacity="0.1" d="M43.6288 94.8603C43.5477 96.6001 43.2211 98.4114 43.2211 98.4114C39.8831 94.5935 37.5275 98.1408 37.5275 98.1408L36.7836 96.5266C36.4989 96.3287 36.2572 96.0935 36.0684 95.8307C37.6229 95.1367 41.049 93.857 43.6288 94.8603Z" fill="black"/>
<path d="M43.6288 95.0536C43.5477 96.7935 43.2211 98.6048 43.2211 98.6048C39.8831 94.7869 37.5275 98.3342 37.5275 98.3342L36.7836 96.72C36.4989 96.522 36.2572 96.2868 36.0684 96.0241C37.6229 95.3301 41.049 94.0503 43.6288 95.0536Z" fill="#FF6484"/>
<path opacity="0.1" d="M43.6288 95.0536C43.5477 96.7935 43.2211 98.6048 43.2211 98.6048C39.8831 94.7869 37.5275 98.3342 37.5275 98.3342L36.7836 96.72C36.4989 96.522 36.2572 96.2868 36.0684 96.0241C37.6229 95.3301 41.049 94.0503 43.6288 95.0536Z" fill="white"/>
<path opacity="0.1" d="M39.1135 81.9805C39.1135 81.9805 40.1864 86.765 41.2593 88.1665C42.3322 89.568 39.1135 81.9805 39.1135 81.9805Z" fill="black"/>
<path opacity="0.1" d="M36.3665 90.0996C36.3665 90.0996 37.0221 92.9993 38.393 93.3376C39.7639 93.6759 36.3665 90.0996 36.3665 90.0996Z" fill="black"/>
<path opacity="0.1" d="M73.3034 100.331L74.2761 100.499L73.8589 102.168C73.7005 101.998 73.5251 101.84 73.3344 101.694C72.4513 101.011 71.2962 100.607 70.0775 100.554C69.5477 100.526 69.0157 100.553 68.4944 100.635C68.7213 99.9781 68.8714 99.3057 68.9426 98.6262C68.985 98.3709 68.9328 98.1111 68.7924 97.88C68.3156 97.3484 68.0771 92.4189 68.0771 92.4189C68.0771 92.4189 68.4944 89.9059 68.7328 89.4226C68.9712 88.9393 67.6599 86.4688 67.7195 85.7226C67.7791 84.9764 68.4944 78.5487 68.4944 78.2104C68.4944 77.8721 70.0441 71.2512 73.2628 73.7642L74.5146 75.1658L74.5956 75.5408L69.4481 80.4335C69.4481 80.4335 73.9185 99.2332 73.3821 100.103C73.3411 100.175 73.3146 100.252 73.3034 100.331Z" fill="black"/>
<path d="M78.6913 96.1403C77.7186 96.929 75.6944 99.531 75.1388 100.254L74.9958 100.447L74.5189 102.38C74.5189 102.38 72.85 100.061 68.9756 100.641C69.2025 99.984 69.3526 99.3115 69.4238 98.6321C69.4662 98.3768 69.414 98.117 69.2736 97.8859C68.7968 97.3543 68.5583 92.4248 68.5583 92.4248C68.5583 92.4248 68.9756 89.9117 69.214 89.4285C69.4524 88.9452 68.1411 86.4746 68.2007 85.7284C68.2603 84.9823 68.9756 78.5546 68.9756 78.2163C68.9756 77.878 70.5253 71.257 73.7441 73.7701L74.9958 75.1716L75.9495 79.5695L77.7973 87.2054C77.7973 87.2054 78.2741 90.2017 78.6913 90.6367C79.1086 91.0716 79.8191 95.222 78.6913 96.1403Z" fill="#FF6484"/>
<path opacity="0.1" d="M75.1339 100.06L74.9909 100.254L74.514 102.187C74.514 102.187 72.8451 99.8671 68.9707 100.447C69.1976 99.7904 69.3477 99.1179 69.4189 98.4385C70.7469 98.5061 73.4221 98.8096 75.1339 100.06Z" fill="black"/>
<path d="M75.1339 100.254L74.9909 100.447L74.514 102.38C74.514 102.38 72.8451 100.06 68.9707 100.64C69.1976 99.9838 69.3477 99.3113 69.4189 98.6318C70.7469 98.6995 73.4221 99.003 75.1339 100.254Z" fill="#FF6484"/>
<path opacity="0.1" d="M75.1339 100.254L74.9909 100.447L74.514 102.38C74.514 102.38 72.8451 100.06 68.9707 100.64C69.1976 99.9838 69.3477 99.3113 69.4189 98.6318C70.7469 98.6995 73.4221 99.003 75.1339 100.254Z" fill="white"/>
<path opacity="0.1" d="M71.2358 86.6681C71.2358 86.6681 75.289 86.6275 75.8851 88.3383C76.4811 90.0491 71.2358 86.6681 71.2358 86.6681Z" fill="black"/>
<path opacity="0.1" d="M70.4609 91.5009C70.4609 91.5009 77.3156 91.2592 77.0176 93.6756C76.7195 96.0921 70.4609 91.5009 70.4609 91.5009Z" fill="black"/>
<path opacity="0.1" d="M70.8782 95.2222C70.8782 95.2222 71.4146 95.1255 71.7723 96.1404C72.1299 97.1553 70.8782 95.2222 70.8782 95.2222Z" fill="black"/>
<path opacity="0.1" d="M56.9951 118.854C56.9951 118.854 58.6283 118.468 59.3794 118.854C60.1304 119.241 56.9951 118.854 56.9951 118.854Z" fill="black"/>
<path opacity="0.1" d="M57.2881 120.256C57.2881 120.256 61.1625 120.304 61.5201 120.643C61.8777 120.981 57.2881 120.256 57.2881 120.256Z" fill="black"/>
<g opacity="0.1">
<path opacity="0.1" d="M49.0365 60.4778C49.151 58.8966 48.1901 57.3365 48.0709 55.7881C47.9469 57.3501 48.9245 58.9236 49.0246 60.5165C49.0297 60.5039 49.0336 60.4909 49.0365 60.4778Z" fill="black"/>
<path opacity="0.1" d="M53.5884 63.0918C53.0924 63.8766 52.5393 64.7156 52.6824 65.5875C52.7849 64.9244 53.2045 64.2826 53.5884 63.6737C54.0247 62.9777 54.4371 62.2393 54.4252 61.4583C54.4252 61.3732 54.4181 61.2882 54.4038 61.2031C54.3203 61.8643 53.9627 62.4945 53.5884 63.0918Z" fill="black"/>
<path opacity="0.1" d="M71.0334 59.5562C71.2103 59.6169 71.372 59.7034 71.5103 59.8114C71.6293 59.6085 71.6514 59.3771 71.5723 59.1618C71.5723 59.1618 71.5723 59.1444 71.5604 59.1348C71.5267 59.2366 71.4601 59.3294 71.3675 59.4034C71.2748 59.4775 71.1595 59.5302 71.0334 59.5562Z" fill="black"/>
<path opacity="0.1" d="M52.7035 69.7285C52.3125 70.3684 51.4971 70.987 50.6555 70.7802C50.5625 69.8233 50.3956 68.7446 49.4514 68.1646C48.8291 67.778 47.9732 67.6968 47.4129 67.2599C47.0773 66.9832 46.8686 66.6216 46.8216 66.2354C46.8216 66.2663 46.8097 66.2972 46.8073 66.3281C46.7644 66.6007 46.7964 66.8777 46.9011 67.139C47.0058 67.4004 47.1806 67.6397 47.4129 67.8399C47.9732 68.2787 48.8291 68.3657 49.4514 68.7465C50.4051 69.3264 50.5625 70.4051 50.6555 71.362C51.4971 71.5689 52.3125 70.9503 52.7035 70.3104C53.1111 69.6313 53.2927 68.8776 53.2304 68.124C53.1853 68.6816 53.0063 69.2266 52.7035 69.7285Z" fill="black"/>
<path opacity="0.1" d="M72.097 61.3883C71.923 62.1035 71.2769 62.697 70.5187 63.0913C70.1611 63.2847 69.7319 63.478 69.6842 63.8182C69.6733 63.9504 69.701 64.0829 69.7653 64.2048C69.9606 63.983 70.2191 63.8026 70.5187 63.679C71.2769 63.2924 71.923 62.6912 72.097 61.9759C72.1435 61.7682 72.1435 61.5554 72.097 61.3477C72.0979 61.3612 72.0979 61.3747 72.097 61.3883Z" fill="black"/>
<path opacity="0.1" d="M70.0373 67.5805C69.8275 68.1952 69.2958 68.8738 68.5066 68.8448C68.1323 68.8312 67.7913 68.6515 67.4194 68.6225C66.8853 68.5838 66.3846 68.8622 66.0628 69.2024C65.7728 69.5672 65.5216 69.9514 65.3117 70.3507C64.7252 71.2747 63.576 72.106 62.3076 71.961C61.0392 71.816 60.2262 70.7083 60.1022 69.6238C60.1022 69.6837 60.0855 69.7437 60.0855 69.8055C60.0378 71.0021 60.8437 72.3747 62.3076 72.5428C63.576 72.6878 64.7252 71.8566 65.3117 70.9326C65.521 70.5331 65.7723 70.1489 66.0628 69.7843C66.3846 69.4382 66.8853 69.1599 67.4194 69.2043C67.7913 69.2333 68.1347 69.4131 68.5066 69.4266C69.2958 69.4556 69.8275 68.7771 70.0373 68.1624C70.2219 67.6177 70.2936 67.052 70.2495 66.4883C70.2277 66.8575 70.1566 67.2237 70.0373 67.5805Z" fill="black"/>
<path opacity="0.1" d="M62.1165 53.6657C62.7209 54.3411 63.0539 55.1511 63.0702 55.9855C63.1322 54.9339 62.889 53.8977 62.1165 53.0742C61.5902 52.5366 60.8776 52.1389 60.0704 51.9322C59.2631 51.7255 58.3981 51.7193 57.5864 51.9143C56.8879 52.0941 56.225 52.4536 55.9175 52.9949C55.5145 53.7256 55.8555 54.5975 55.5741 55.363C55.257 56.2252 54.208 56.8167 53.9052 57.6828C53.817 57.9604 53.7959 58.2492 53.8432 58.5333C53.856 58.4427 53.8767 58.3529 53.9052 58.2646C54.1984 57.3986 55.2475 56.8071 55.5741 55.9449C55.8555 55.1716 55.5145 54.3075 55.9175 53.5768C56.2155 53.0355 56.8712 52.676 57.5864 52.4962C58.3992 52.3022 59.2651 52.3099 60.0724 52.5184C60.8797 52.7268 61.5917 53.1264 62.1165 53.6657Z" fill="black"/>
</g>
<g opacity="0.8">
<path opacity="0.8" d="M135.391 127.784C145.951 127.784 154.512 120.843 154.512 112.28C154.512 103.718 145.951 96.7764 135.391 96.7764C124.83 96.7764 116.269 103.718 116.269 112.28C116.269 120.843 124.83 127.784 135.391 127.784Z" fill="#70EC44"/>
<path opacity="0.8" d="M129.776 105.253C130.534 105.248 131.291 105.308 132.034 105.431C132.658 105.53 133.251 105.727 133.781 106.011C134.267 106.282 134.656 106.652 134.909 107.084C135.197 107.603 135.335 108.169 135.312 108.739C135.339 109.364 135.131 109.982 134.716 110.509C134.267 111.016 133.66 111.416 132.956 111.669C133.917 111.863 134.763 112.326 135.341 112.978C135.804 113.588 136.073 114.281 136.122 114.996C136.17 115.712 135.998 116.425 135.62 117.072C135.295 117.578 134.824 118.013 134.249 118.341C133.652 118.677 132.986 118.924 132.282 119.069C131.541 119.226 130.779 119.305 130.014 119.305H121.622V105.253H129.776ZM129.299 110.941C129.892 110.961 130.478 110.826 130.968 110.554C131.407 110.296 131.625 109.87 131.624 109.274C131.637 108.995 131.561 108.717 131.404 108.468C131.267 108.265 131.067 108.095 130.823 107.975C130.564 107.853 130.281 107.77 129.986 107.73C129.661 107.684 129.331 107.661 129.001 107.662H125.425V110.948L129.299 110.941ZM129.518 116.902C129.877 116.904 130.235 116.874 130.587 116.813C130.905 116.762 131.21 116.662 131.483 116.52C131.746 116.379 131.959 116.186 132.103 115.959C132.271 115.677 132.353 115.366 132.341 115.052C132.341 114.333 132.091 113.817 131.588 113.506C131.006 113.177 130.306 113.013 129.597 113.042H125.449V116.908L129.518 116.902ZM140.939 116.607C141.457 117.014 142.201 117.217 143.171 117.217C143.812 117.23 144.442 117.08 144.973 116.788C145.397 116.584 145.723 116.268 145.896 115.893H148.928C148.442 117.114 147.697 117.986 146.694 118.511C145.598 119.058 144.328 119.333 143.042 119.301C142.13 119.311 141.225 119.18 140.374 118.915C139.611 118.675 138.923 118.302 138.359 117.822C137.796 117.335 137.362 116.759 137.084 116.131C136.777 115.436 136.625 114.703 136.635 113.966C136.627 113.24 136.783 112.519 137.096 111.839C137.383 111.207 137.828 110.63 138.402 110.142C138.976 109.655 139.668 109.269 140.433 109.007C141.259 108.725 142.148 108.584 143.044 108.594C144.011 108.575 144.969 108.748 145.836 109.096C146.608 109.418 147.277 109.881 147.789 110.449C148.308 111.03 148.683 111.686 148.893 112.383C149.12 113.122 149.2 113.886 149.131 114.646H140.071C140.119 115.547 140.402 116.204 140.92 116.608L140.939 116.607ZM144.835 111.256C144.421 110.888 143.794 110.705 142.954 110.705C142.481 110.691 142.011 110.769 141.583 110.931C141.245 111.064 140.947 111.255 140.71 111.491C140.5 111.7 140.343 111.941 140.247 112.199C140.167 112.417 140.114 112.641 140.09 112.868H145.688C145.529 112.16 145.242 111.623 144.825 111.256H144.835ZM139.489 105.963H146.492V107.538H139.489V105.963Z" fill="white"/>
</g>
<g opacity="0.8">
<path opacity="0.8" d="M221.8 121.36C221.8 121.505 221.8 121.652 221.8 121.799C221.67 125.51 219.902 129.061 216.817 131.804C213.732 134.548 209.535 136.304 204.989 136.752C204.225 136.826 203.457 136.862 202.688 136.862C198.906 136.862 195.209 135.953 192.065 134.249C188.92 132.545 186.469 130.124 185.022 127.291C183.575 124.458 183.196 121.34 183.934 118.333C184.672 115.325 186.494 112.563 189.168 110.395C191.843 108.227 195.25 106.75 198.959 106.152C202.669 105.554 206.513 105.861 210.007 107.035C213.501 108.209 216.488 110.196 218.588 112.746C220.689 115.296 221.81 118.294 221.81 121.36H221.8Z" fill="#B3BBC6"/>
<path opacity="0.8" d="M221.791 121.799C221.66 125.51 219.892 129.061 216.807 131.804C213.722 134.548 209.525 136.304 204.979 136.752L189.367 127.335L191.318 117.09L199.038 117.476L203.43 120.461L206.553 116.334L211.798 119.868L214.619 121.505V116.338L221.729 121.673C221.745 121.716 221.772 121.756 221.791 121.799Z" fill="#666C76"/>
<path opacity="0.8" d="M201.31 121.741C201.31 118.455 198.819 116.228 194.074 116.228H189.389V127.289H194.172C198.778 127.289 201.31 125.027 201.31 121.741ZM197.908 121.758C197.908 124.13 196.406 125.157 193.995 125.157H192.768V118.36H193.995C196.308 118.36 197.908 119.433 197.908 121.758ZM214.774 127.289V116.228H211.629V122.414L206.608 116.228H203.325V127.287H206.47V120.668L211.846 127.287H214.774V127.289Z" fill="white"/>
</g>
<path d="M207.424 104.867C207.185 104.48 204.961 101.894 204.961 101.894L204.894 101.662L204.164 99.0229L204.114 98.8296C204.591 98.731 204.934 98.6092 205.042 98.4565C205.566 97.7122 204.598 96.8075 204.598 96.8075L204.396 92.8949L203.871 83.4226C203.871 83.4226 202.782 80.2522 202.619 79.5099C202.457 78.7676 200.965 77.2133 200.965 77.2133C200.965 77.2133 201.287 76.4401 200.884 75.8872C200.481 75.3344 199.591 72.7498 199.591 72.7498L198.826 65.5972L198.461 58.5606C198.827 58.5584 199.192 58.5863 199.551 58.6437C199.603 58.6785 199.575 58.5915 199.498 58.4349C199.517 58.4374 199.535 58.4427 199.551 58.4504C199.675 58.5316 199.343 57.9265 198.986 57.3099L198.943 57.2383C199.115 56.7338 199.825 54.6905 200.319 53.952C200.686 53.4069 199.98 49.6431 199.441 47.072C199.403 46.8884 199.365 46.7124 199.329 46.5423C200.204 45.3013 201.208 43.894 201.208 43.894C201.208 43.894 203.749 38.0095 204.799 35.4539C205.848 32.8983 204.799 26.2715 204.799 26.2715C204.799 26.2715 204.799 25.9468 204.741 25.4403C204.577 24.0716 203.947 21.3943 201.53 20.3542C198.22 18.9315 197.171 17.1858 197.171 17.1858C197.171 17.1858 193.042 14.1392 192.52 15.1619L192.484 15.1039C192.176 14.5926 191.949 14.0514 191.809 13.4936C191.795 13.4356 191.783 13.3776 191.771 13.3215C192.299 12.9837 192.757 12.5806 193.13 12.1268C193.13 12.2119 193.113 12.297 193.106 12.382C193.106 12.4361 193.106 12.4903 193.106 12.5425V12.6159C193.104 12.6513 193.104 12.6868 193.106 12.7222C193.106 12.7435 193.106 12.7648 193.106 12.786C193.259 12.7981 193.413 12.7723 193.547 12.7118C193.681 12.6514 193.789 12.5593 193.857 12.4477C193.987 12.2246 194.073 11.9866 194.112 11.7422C194.252 11.2216 194.508 10.7262 194.868 10.2807C195.221 9.84189 195.693 9.40113 195.755 8.90045C195.765 8.8272 195.765 8.75333 195.755 8.68008C195.724 8.4249 195.576 8.18713 195.531 7.93389C195.512 7.8055 195.512 7.67566 195.531 7.54726C195.531 7.47187 195.553 7.39648 195.567 7.32302C195.581 7.24956 195.605 7.12971 195.622 7.02145C195.638 6.9132 195.653 6.85327 195.665 6.76821V6.75855C195.698 6.53577 195.698 6.31053 195.665 6.08775C195.644 5.88183 195.563 5.68283 195.429 5.50731C195.295 5.33179 195.111 5.18483 194.892 5.07866C194.654 4.98007 194.379 4.94914 194.141 4.85055C193.512 4.58958 193.311 3.96324 192.949 3.47996C192.692 3.15779 192.343 2.88997 191.933 2.69869C191.522 2.50741 191.061 2.39816 190.589 2.38001C189.635 2.34908 188.7 2.68738 187.763 2.57332C187.165 2.496 186.614 2.23309 186.008 2.1983C185.124 2.14804 184.328 2.58492 183.61 3.00441C183.102 3.30018 182.561 3.63461 182.394 4.12176C182.26 4.51998 182.394 4.97814 182.117 5.3261C181.939 5.55228 181.614 5.6818 181.414 5.90604C181.249 6.08437 181.164 6.30361 181.176 6.52657C181.176 6.5459 181.176 6.56717 181.176 6.58843C181.176 6.6097 181.176 6.65802 181.176 6.69282C181.192 6.84167 181.226 6.99246 181.257 7.13937C181.258 7.15483 181.258 7.17031 181.257 7.18577C181.328 7.59366 181.166 7.87976 180.985 8.27799C180.908 8.44589 180.864 8.62277 180.856 8.80186C180.856 8.80186 180.856 8.81926 180.856 8.82893C180.856 8.83859 180.856 8.85406 180.856 8.86759C180.854 8.90494 180.854 8.94236 180.856 8.97971C180.877 9.1187 180.953 9.24863 181.071 9.35087C181.13 9.27195 181.212 9.20567 181.309 9.15756C181.309 9.21555 181.309 9.27355 181.309 9.33347V9.34507C181.31 10.0265 181.479 10.701 181.806 11.3285C182.134 11.9561 182.614 12.524 183.216 12.9987C183.216 13.0547 183.197 13.1127 183.188 13.1688C183.085 13.7487 182.949 14.3867 182.785 14.9975L182.728 15.1909H181.536C181.536 15.1909 181.738 14.4795 179.759 15.3532C177.78 16.227 175.358 16.6465 174.991 16.8069C174.624 16.9674 170.149 19.784 170.149 19.784C170.149 19.784 166.272 21.5934 166.393 24.698L165.95 28.1776L165.628 34.6768C165.628 34.6768 165.022 40.2075 165.628 40.9827C166.234 41.7578 167.283 46.351 167.08 46.9328C166.935 47.3543 168.396 50.3158 169.412 52.0421C169.139 52.2752 168.887 52.5232 168.656 52.7844C168.656 52.7844 168.251 54.0796 168.251 54.2091C168.251 54.2091 168.251 54.2227 168.27 54.2304C167.376 54.965 165.95 56.1732 165.95 56.44C165.95 56.8266 166.234 57.1649 165.79 57.1417C165.347 57.1185 165.332 57.5399 165.359 57.797C165.385 58.0541 164.82 57.6694 164.86 58.1527C164.901 58.636 160.743 66.237 160.743 66.237C160.743 66.237 158.847 69.9564 158.12 70.5711C157.393 71.1859 156.384 73.9019 156.465 74.9033C156.546 75.9046 156.587 76.1985 156.263 76.1985C155.938 76.1985 155.295 77.1032 155.295 77.1032L152.107 85.058C152.107 85.058 151.177 87.515 150.896 87.4841C150.615 87.4531 149.98 91.706 149.98 91.706C149.98 91.706 149.296 92.9664 149.174 92.9664C149.151 92.9664 149.263 93.0573 149.47 93.2003L149.332 93.295C149.032 93.5031 148.718 93.6967 148.39 93.875C148.378 93.875 146.547 92.8446 145.291 92.9413C144.034 93.0379 141.457 93.2951 140.162 92.5547C139.447 92.141 137.938 91.7814 136.724 91.7659C135.756 91.7543 134.972 91.9593 134.917 92.5547C134.795 93.8789 139.316 96.3707 139.316 96.3707C139.316 96.3707 144.084 97.4687 145.007 98.4971C145.929 99.5255 149.742 101.084 149.742 101.084C149.742 101.084 150.889 100.674 151.32 100.262C151.372 100.223 151.412 100.175 151.44 100.122C151.467 100.069 151.48 100.012 151.478 99.9547C151.397 99.4695 153.051 97.6349 153.051 97.6349L153.29 96.7244C153.406 96.274 153.554 95.725 153.7 95.2436C153.719 95.1779 153.738 95.1135 153.757 95.0503C153.946 95.058 154.135 95.0344 154.312 94.9807C155.927 94.4646 156.089 93.0476 156.089 93.0476L158.504 88.9513C158.504 88.9513 159.553 86.591 159.875 86.1695C160.197 85.7481 162.7 81.5146 162.7 81.5146C162.7 81.5146 163.144 79.7032 163.549 79.1542C163.954 78.6052 163.992 77.4144 163.992 77.4144C163.992 77.4144 164.839 75.6031 165.728 74.8917C166.369 74.3334 166.924 73.7149 167.383 73.0494C167.383 73.0494 171.055 68.3596 173.558 67.0354C173.558 67.0354 179.573 61.0853 179.936 60.5672C180.298 60.0491 181.428 58.692 182.797 59.9196C184.165 61.1471 185.62 62.7342 185.62 62.7342L188.085 68.1663L190.829 75.1256C190.829 75.1256 192.119 76.8055 192.041 77.1612C191.962 77.5169 194.139 80.6872 194.139 80.6872C194.139 80.6872 194.985 81.8471 194.825 82.427C194.666 83.0069 195.431 83.5869 195.431 83.5869L195.669 85.9472C195.669 85.9472 196.559 88.267 196.315 88.6323C196.072 88.9977 197.164 91.2189 197.164 91.2189C197.164 91.2189 197.164 93.1907 197.567 93.8383C197.97 94.4859 198.461 97.0704 198.421 97.2638C198.38 97.4571 198.421 99.2375 198.421 99.2375C198.421 99.2375 198.704 99.2375 199.155 99.2259L199.174 99.4192L199.374 101.366L199.394 101.546C199.285 101.613 199.196 101.699 199.132 101.797C199.069 101.895 199.032 102.003 199.024 102.114C199.024 102.64 199.119 104.184 199.2 105.4C199.219 105.723 199.241 106.021 199.26 106.27C199.266 106.357 199.295 106.442 199.343 106.52C199.392 106.598 199.459 106.667 199.542 106.723C199.625 106.779 199.72 106.821 199.824 106.846C199.927 106.871 200.035 106.878 200.142 106.868C201.29 106.75 202.454 106.785 203.587 106.972C204.844 107.206 206.136 107.283 207.421 107.2C207.421 107.2 207.509 106.471 207.524 105.818C207.536 105.4 207.517 105.016 207.424 104.867Z" fill="url(#paint1_linear_60_799)"/>
<path d="M204.336 101.984H198.892L198.84 101.464L198.642 99.5229L198.494 98.0537H203.263L203.553 99.1227L204.271 101.752L204.336 101.984Z" fill="#FFAAB0"/>
<path d="M154.305 94.1855C154.203 94.2667 154.033 94.7558 153.862 95.3454C153.554 96.3816 153.232 97.7289 153.232 97.7289L153.032 97.7676L148.788 98.5989C148.788 98.5989 146.563 94.4755 147.596 94.3788C147.96 94.317 148.304 94.1932 148.604 94.0154C148.945 93.8325 149.27 93.6323 149.58 93.4161C150.145 93.0295 150.576 92.6699 150.576 92.6699C150.576 92.6699 154.584 93.9593 154.305 94.1855Z" fill="#FFAAB0"/>
<path opacity="0.1" d="M154.305 94.1854C154.203 94.2666 154.033 94.7557 153.862 95.3453C152.395 95.2757 150.178 93.8646 149.57 93.4122C150.135 93.0256 150.567 92.666 150.567 92.666C150.567 92.666 154.584 93.9593 154.305 94.1854Z" fill="black"/>
<path opacity="0.1" d="M203.552 99.1208C202.245 99.4069 199.849 99.4938 198.64 99.5209L198.492 98.0518H203.261L203.552 99.1208Z" fill="black"/>
<path d="M168.968 53.9131C168.968 53.9131 165.988 56.2966 165.988 56.6833C165.988 57.0699 166.267 57.4043 165.83 57.3831C165.394 57.3618 165.38 57.7793 165.406 58.0364C165.432 58.2936 164.877 57.9069 164.915 58.3902C164.953 58.8735 160.862 66.4456 160.862 66.4456C160.862 66.4456 158.995 70.1514 158.28 70.7622C157.564 71.3731 156.57 74.0814 156.651 75.0808C156.732 76.0803 156.77 76.3683 156.451 76.3683C156.131 76.3683 155.497 77.2711 155.497 77.2711L152.36 85.1969C152.36 85.1969 151.444 87.6462 151.167 87.6133C150.891 87.5805 150.214 91.8333 150.214 91.8333C150.214 91.8333 149.537 93.0899 149.417 93.0899C149.298 93.0899 152.875 95.6029 154.465 95.0887C156.055 94.5745 156.213 93.1556 156.213 93.1556L158.597 89.096C158.597 89.096 159.631 86.7434 159.949 86.3239C160.266 85.9044 162.731 81.6844 162.731 81.6844C162.731 81.6844 163.167 79.8808 163.565 79.3337C163.964 78.7867 164.002 77.5939 164.002 77.5939C164.002 77.5939 164.836 75.7884 165.711 75.0808C166.342 74.5233 166.889 73.9068 167.34 73.2444C167.34 73.2444 170.957 68.572 173.42 67.2517C173.42 67.2517 179.34 61.3228 179.697 60.8066C180.055 60.2905 181.168 58.9392 182.52 60.1629C183.872 61.3866 185.3 62.9659 185.3 62.9659L187.725 68.3787L190.426 75.3051C190.426 75.3051 191.699 76.9811 191.618 77.3349C191.537 77.6886 193.685 80.8474 193.685 80.8474C193.685 80.8474 194.52 82.0072 194.36 82.5872C194.2 83.1671 194.956 83.7471 194.956 83.7471L195.195 86.0997C195.195 86.0997 196.07 88.4194 195.831 88.7732C195.593 89.127 196.666 91.3501 196.666 91.3501C196.666 91.3501 196.666 93.316 197.064 93.9598C197.462 94.6035 197.937 97.1823 197.898 97.3756C197.86 97.5689 197.898 99.3416 197.898 99.3416C197.898 99.3416 203.895 99.3088 204.412 98.5684C204.929 97.828 203.976 96.9252 203.976 96.9252L203.776 93.0261L203.261 83.5866C203.261 83.5866 202.188 80.4279 202.028 79.6875C201.868 78.9471 200.399 77.4006 200.399 77.4006C200.399 77.4006 200.717 76.6273 200.318 76.0783C199.92 75.5293 199.048 72.9544 199.048 72.9544L198.292 65.8328L197.903 58.0693L168.968 53.9131Z" fill="#DCE6F2"/>
<path opacity="0.1" d="M199.009 58.9068C198.771 58.7444 188.995 58.6806 188.876 58.6806C188.757 58.6806 185.061 57.4879 185.061 57.4879C185.061 57.4879 176.836 56.3937 175.565 56.877C174.294 57.3603 170.358 55.9742 170.358 55.9742V55.3614C170.358 55.3614 168.252 54.7815 168.252 54.6539C168.252 54.5263 168.651 53.235 168.651 53.235L168.889 53.1673L169.8 52.9141L197.736 56.5542C197.736 56.5542 198.105 57.1689 198.451 57.7701C198.797 58.3713 199.131 58.988 199.009 58.9068Z" fill="black"/>
<path d="M199.009 58.7134C198.771 58.551 188.995 58.4872 188.876 58.4872C188.757 58.4872 185.061 57.2945 185.061 57.2945C185.061 57.2945 176.836 56.2003 175.565 56.6836C174.294 57.1669 170.358 55.7808 170.358 55.7808V55.168C170.358 55.168 168.252 54.5881 168.252 54.4605C168.252 54.3329 168.651 53.0416 168.651 53.0416L168.889 52.9739L169.8 52.7207L197.736 56.3608C197.736 56.3608 198.105 56.9755 198.451 57.5767C198.797 58.1779 199.131 58.7946 199.009 58.7134Z" fill="#F1FAFF"/>
<path opacity="0.1" d="M153.459 96.6253L153.22 97.5358C153.22 97.5358 153.142 97.6248 153.02 97.7678L148.788 98.5991C148.788 98.5991 146.563 94.4757 147.596 94.3791C147.96 94.3173 148.304 94.1934 148.604 94.0156C148.387 95.307 149.622 96.6659 149.622 96.6659C151.365 97.7292 153.459 96.6253 153.459 96.6253Z" fill="black"/>
<path d="M153.459 96.8205L153.221 97.731C153.221 97.731 151.592 99.5675 151.671 100.051C151.673 100.108 151.66 100.165 151.633 100.218C151.607 100.271 151.567 100.319 151.516 100.358C151.091 100.768 149.961 101.176 149.961 101.176C149.961 101.176 146.228 99.6294 145.312 98.599C144.396 97.5686 139.709 96.4725 139.709 96.4725C139.709 96.4725 135.26 93.9904 135.379 92.6701C135.432 92.0901 136.204 91.8736 137.158 91.8852C138.35 91.8968 139.835 92.2583 140.544 92.6701C141.817 93.4105 144.358 93.1533 145.591 93.0567C146.824 92.96 148.636 93.9885 148.636 93.9885C148.223 95.3417 149.604 96.8592 149.604 96.8592C151.366 97.9243 153.459 96.8205 153.459 96.8205Z" fill="#575988"/>
<path d="M151.528 100.356C151.103 100.766 149.973 101.174 149.973 101.174C149.973 101.174 146.24 99.6273 145.324 98.597C144.408 97.5666 139.721 96.4706 139.721 96.4706C139.721 96.4706 135.272 93.9884 135.391 92.6681C135.444 92.0882 136.216 91.8717 137.17 91.8833C137.885 92.8498 138.941 94.1933 139.721 94.5684C140.994 95.1812 143.498 96.341 143.498 96.341C143.498 96.341 147.47 98.3708 147.749 98.597C147.978 98.7845 150.278 100.018 151.528 100.356Z" fill="#F1FAFF"/>
<path opacity="0.1" d="M204.341 101.983H198.89L198.838 101.463C199.525 100.939 200.996 100.689 200.996 100.689C202.016 100.436 203.897 101.523 204.269 101.747L204.341 101.983Z" fill="black"/>
<path d="M206.861 105.891C206.847 106.542 206.758 107.267 206.758 107.267C205.493 107.35 204.22 107.274 202.984 107.041C201.869 106.854 200.723 106.819 199.594 106.936C199.488 106.947 199.38 106.939 199.278 106.914C199.176 106.889 199.081 106.848 198.999 106.792C198.918 106.736 198.851 106.667 198.804 106.59C198.756 106.512 198.729 106.428 198.723 106.341C198.707 106.094 198.685 105.796 198.666 105.475C198.585 104.271 198.492 102.732 198.492 102.208C198.492 101.307 200.996 100.888 200.996 100.888C202.131 100.605 204.334 101.984 204.334 101.984C204.334 101.984 206.52 104.561 206.758 104.947C206.851 105.096 206.87 105.479 206.861 105.891Z" fill="#575988"/>
<path d="M206.861 105.891C206.846 106.542 206.758 107.267 206.758 107.267C205.493 107.35 204.22 107.274 202.984 107.041C201.869 106.855 200.723 106.819 199.593 106.937C199.487 106.947 199.38 106.939 199.278 106.914C199.175 106.889 199.081 106.848 198.999 106.792C198.917 106.736 198.851 106.667 198.803 106.59C198.756 106.512 198.729 106.428 198.723 106.341C198.707 106.094 198.685 105.796 198.666 105.475C199.582 105.363 200.931 105.255 201.87 105.431C202.962 105.636 205.471 105.808 206.861 105.891Z" fill="#F1FAFF"/>
<path opacity="0.1" d="M152.576 86.5342C152.576 86.5342 151.742 87.6941 152.576 88.2257C153.411 88.7573 152.576 86.5342 152.576 86.5342Z" fill="black"/>
<path opacity="0.1" d="M197.4 91.0293C197.638 91.4159 198.272 91.9959 198.163 92.6725C198.053 93.3491 197.4 91.0293 197.4 91.0293Z" fill="black"/>
<path d="M196.666 20.3404C196.666 20.3404 193.025 20.0408 189.251 19.6348L189.096 19.6174C184.714 19.1438 180.217 18.531 181.087 18.0845C181.476 17.8912 181.803 17.4001 182.072 16.7815C182.24 16.3854 182.381 15.982 182.494 15.5733C182.513 15.5095 182.53 15.4438 182.549 15.38C182.714 14.7711 182.845 14.1351 182.947 13.559C183.15 12.3856 183.233 11.45 183.233 11.45C183.233 11.45 192.572 8.58122 191.421 12.1575C191.246 12.7317 191.235 13.3306 191.387 13.9089C191.525 14.4644 191.748 15.0035 192.053 15.5134C193.54 18.0883 196.666 20.3404 196.666 20.3404Z" fill="#FFAAB0"/>
<path opacity="0.1" d="M191.42 12.1555C191.246 12.7298 191.234 13.3286 191.387 13.907C190.175 14.704 188.642 15.1092 187.084 15.0446C185.526 14.98 184.052 14.4501 182.947 13.5571C183.149 12.3837 183.233 11.448 183.233 11.448C183.233 11.448 192.572 8.57926 191.42 12.1555Z" fill="black"/>
<path d="M193.724 9.7351C193.726 11.0937 193.062 12.3974 191.878 13.3592C191.292 13.8354 190.596 14.2134 189.83 14.4715C189.064 14.7297 188.243 14.8629 187.413 14.8637C186.583 14.8644 185.761 14.7327 184.994 14.476C184.227 14.2192 183.53 13.8425 182.943 13.3674C181.757 12.4077 181.089 11.1053 181.087 9.7467V9.7351C181.087 8.37645 181.753 7.07344 182.938 6.11273C184.123 5.15202 185.73 4.6123 187.406 4.6123C189.081 4.6123 190.688 5.15202 191.873 6.11273C193.058 7.07344 193.724 8.37645 193.724 9.7351Z" fill="#FFAAB0"/>
<path opacity="0.1" d="M189.335 19.424C189.317 19.4965 189.289 19.5672 189.251 19.6347L189.096 19.6173C184.714 19.1437 180.217 18.5309 181.087 18.0843C181.476 17.891 181.803 17.4 182.072 16.7814C182.24 16.3852 182.381 15.9819 182.494 15.5732C182.513 15.5094 182.53 15.4437 182.549 15.3799H182.733C182.747 15.4611 183.209 17.9374 187.308 18.3608L187.446 18.3743C189.046 18.5193 189.454 18.9446 189.335 19.424Z" fill="black"/>
<path d="M189.095 19.6173C188.895 20.4196 187.207 21.3707 187.207 21.3707L182.517 20.6612C182.517 20.6612 179.578 18.5348 179.578 18.471C179.578 18.4072 181.325 15.5713 181.325 15.5713H182.494C182.508 15.6525 182.97 18.1288 187.069 18.5522L187.207 18.5657C188.807 18.7126 189.215 19.1379 189.095 19.6173Z" fill="#F1FAFF"/>
<path opacity="0.1" d="M196.665 20.3407C196.665 20.3407 192.925 20.0333 189.095 19.6177C188.895 20.4199 187.207 21.371 187.207 21.371L182.517 20.6616C182.517 20.6616 179.578 18.5351 179.578 18.4713C179.578 18.4075 181.325 15.5716 181.325 15.5716H181.385C181.539 16.0003 181.77 16.4081 182.072 16.7818C182.808 17.6942 184.217 18.6936 186.84 18.568L187.059 18.5545C190.996 18.2896 191.88 16.0801 192.042 15.5117C193.54 18.0886 196.665 20.3407 196.665 20.3407Z" fill="black"/>
<path opacity="0.1" d="M198.451 57.5767L198.373 57.8106C197.419 57.2307 190.467 56.8441 190.467 56.8441C190.467 56.8441 188.638 56.6701 186.89 56.4439C185.622 56.2796 184.396 56.0863 183.946 55.9104C183.841 55.8725 183.733 55.8395 183.624 55.8118C182.041 55.4097 177.186 54.9438 177.186 54.9438C177.186 54.9438 174.802 55.8137 173.531 55.4271C172.261 55.0405 168.644 53.2349 168.644 53.2349C168.644 53.2349 168.722 53.1383 168.882 52.9739L169.793 52.7207L197.729 56.3608C197.729 56.3608 198.108 56.9755 198.451 57.5767Z" fill="black"/>
<path d="M198.9 47.3889C199.431 49.9522 200.125 53.7005 199.765 54.2437C199.207 55.0808 198.373 57.6267 198.373 57.6267C197.419 57.0468 190.467 56.6602 190.467 56.6602C190.467 56.6602 188.638 56.4862 186.89 56.26C185.622 56.0957 184.396 55.9024 183.946 55.7265C183.841 55.6885 183.733 55.6556 183.624 55.6279C182.041 55.2258 177.186 54.7599 177.186 54.7599C177.186 54.7599 174.802 55.6298 173.531 55.2432C172.261 54.8565 168.644 53.051 168.644 53.051C169.164 52.4722 169.764 51.943 170.432 51.4736C171.662 50.5708 173.927 42.8054 173.87 42.7088C173.813 42.6121 173.252 40.1319 173.412 38.682C173.572 37.2322 172.935 30.1434 172.935 30.1434C172.935 30.1434 166.543 28.1368 166.431 25.0438C166.319 21.9508 170.127 20.1472 170.127 20.1472C170.127 20.1472 174.538 17.3442 174.895 17.1818C175.253 17.0194 177.637 16.6018 179.585 15.7319C181.533 14.862 181.333 15.5715 181.333 15.5715C181.333 15.5715 182.129 18.9873 186.857 18.7611C191.585 18.535 192.102 15.5715 192.102 15.5715C192.61 14.5411 196.682 17.6013 196.682 17.6013C196.682 17.6013 197.715 19.3411 200.974 20.7581C203.358 21.7942 203.973 24.4619 204.135 25.8248C204.195 26.3293 204.193 26.6541 204.193 26.6541L194.615 32.2293L198.38 44.9551C198.38 44.9551 198.618 45.9931 198.9 47.3889Z" fill="#575988"/>
<path d="M175.207 54.0093C175.207 54.0093 178.347 58.3898 181.604 57.1661C182.338 56.8956 182.947 56.4435 183.345 55.8748C184.63 54.0731 183.345 51.7746 180.856 51.2353C179.938 51.042 178.948 50.9202 178.147 51.042C175.882 51.3667 175.207 54.0093 175.207 54.0093Z" fill="#FFAAB0"/>
<path opacity="0.1" d="M175.207 54.0093C175.207 54.0093 178.347 58.3898 181.604 57.1661C182.338 56.8956 182.947 56.4435 183.345 55.8748C184.63 54.0731 183.345 51.7746 180.856 51.2353C179.938 51.042 178.948 50.9202 178.147 51.042C175.882 51.3667 175.207 54.0093 175.207 54.0093Z" fill="black"/>
<path opacity="0.1" d="M170.599 22.0166C170.599 22.0166 173.076 23.3698 173.128 25.4962L170.599 22.0166Z" fill="black"/>
<path opacity="0.1" d="M174.492 23.0469C174.492 23.1764 173.777 32.1326 175.048 35.1927C176.319 38.2529 174.492 23.0469 174.492 23.0469Z" fill="black"/>
<path opacity="0.1" d="M193.723 9.73508C193.726 10.7278 193.371 11.6995 192.701 12.5304C192.701 12.4647 192.701 12.4009 192.701 12.3371C192.66 11.7997 192.31 11.3144 191.969 10.8505C191.737 10.4816 191.412 10.1562 191.015 9.89553C190.899 9.84095 190.791 9.77611 190.693 9.70221C190.474 9.5089 190.498 9.20153 190.455 8.92896C190.391 8.57251 190.192 8.24108 189.884 7.9811C189.577 7.72111 189.177 7.54559 188.74 7.47912C188.559 7.44242 188.368 7.46463 188.206 7.54098C188.044 7.63377 187.968 7.80581 187.832 7.91214C187.617 8.06872 187.288 8.04939 187.005 8.00493C186.38 7.9044 185.729 7.72076 185.124 7.88314C184.084 8.16344 183.693 9.32912 182.627 9.54563C182.312 9.58385 181.993 9.60194 181.674 9.59976C181.468 9.61064 181.269 9.66029 181.092 9.74474V9.73314C181.092 8.37449 181.757 7.07149 182.942 6.11078C184.127 5.15007 185.734 4.61035 187.41 4.61035C189.086 4.61035 190.693 5.15007 191.878 6.11078C193.063 7.07149 193.728 8.37449 193.728 9.73314L193.723 9.73508Z" fill="black"/>
<path d="M181.149 6.3347C181.347 6.12012 181.664 5.9906 181.843 5.76443C182.115 5.4184 181.981 4.96218 182.115 4.56589C182.277 4.08067 182.811 3.74817 183.307 3.4524C184.022 3.03485 184.797 2.59989 185.667 2.64822C186.264 2.68302 186.805 2.94592 187.396 3.02325C188.319 3.14504 189.244 2.80867 190.178 2.82994C190.646 2.84894 191.1 2.95859 191.504 3.14965C191.909 3.34072 192.25 3.60763 192.501 3.92795C192.87 4.40737 193.066 5.03177 193.693 5.28114C193.931 5.37973 194.198 5.41066 194.432 5.50925C194.648 5.61611 194.83 5.7632 194.962 5.93833C195.094 6.11347 195.173 6.31163 195.192 6.51641C195.225 6.92499 195.19 7.3353 195.088 7.73622C195.041 7.93818 195.03 8.1445 195.054 8.34902C195.097 8.60226 195.245 8.8381 195.276 9.09328C195.347 9.67322 194.799 10.1816 194.401 10.6784C194.047 11.1241 193.796 11.6179 193.659 12.136C193.62 12.3797 193.535 12.6171 193.407 12.8397C193.34 12.9501 193.234 13.0416 193.102 13.102C192.97 13.1624 192.818 13.1889 192.668 13.178C192.622 12.8281 192.73 12.4743 192.701 12.1225C192.66 11.5851 192.31 11.0999 191.969 10.6378C191.738 10.268 191.413 9.94198 191.015 9.68095C190.9 9.62697 190.793 9.56208 190.696 9.48764C190.474 9.29432 190.498 8.98889 190.457 8.71438C190.393 8.35828 190.194 8.02728 189.886 7.76767C189.579 7.50807 189.179 7.33283 188.743 7.26647C188.562 7.2292 188.371 7.2507 188.209 7.3264C188.047 7.41919 187.971 7.59123 187.835 7.69756C187.62 7.85414 187.291 7.83674 187.007 7.79035C186.383 7.69176 185.732 7.50618 185.126 7.66856C184.087 7.94886 183.696 9.11454 182.63 9.33105C182.314 9.37032 181.995 9.38843 181.676 9.38518C181.515 9.38549 181.357 9.41708 181.214 9.47729C181.072 9.53749 180.949 9.62457 180.856 9.73121C180.537 9.46057 180.601 9.01982 180.758 8.66799C180.942 8.25623 181.109 7.96433 181.018 7.53131C180.928 7.09829 180.808 6.70393 181.149 6.3347Z" fill="#794F6A"/>
<path opacity="0.1" d="M157.941 76.627C157.941 76.627 155.676 77.5935 156.868 77.7868C158.06 77.9801 157.941 76.627 157.941 76.627Z" fill="black"/>
<path opacity="0.1" d="M195.254 78.9467C195.254 78.9467 196.506 77.5935 197.877 78.4151C199.247 79.2367 195.254 78.9467 195.254 78.9467Z" fill="black"/>
<path opacity="0.1" d="M198.163 79.8173C198.163 79.8173 199.725 79.3824 200.678 79.8173H198.163Z" fill="black"/>
<path opacity="0.1" d="M167.299 57.876C167.299 57.876 170.637 60.4857 171.71 60.5824C172.783 60.679 167.299 57.876 167.299 57.876Z" fill="black"/>
<path opacity="0.1" d="M167.776 23.5625L166.908 25.0432L166.47 28.5229L166.153 34.9989C166.153 34.9989 165.557 40.5083 166.153 41.2815C166.749 42.0548 167.781 46.6305 167.583 47.2104C167.385 47.7904 170.206 53.2031 170.723 53.526C171.241 53.8488 173.067 53.9126 174.099 53.7502L175.988 55.2058L181.333 51.2062L178.033 49.1764C178.033 49.1764 178.789 48.1441 176.684 47.0171C176.684 47.0171 175.73 45.7277 175.69 45.0511C175.64 43.6709 175.345 42.3036 174.815 40.9916C174.061 39.1879 173.622 29.1685 173.622 29.1685C173.622 29.1685 171.829 21.8536 167.776 23.5625Z" fill="black"/>
<path d="M167.299 23.5625L166.432 25.0432L165.993 28.5229L165.676 34.9989C165.676 34.9989 165.08 40.5083 165.676 41.2815C166.272 42.0548 167.304 46.6305 167.106 47.2104C166.908 47.7904 169.729 53.2031 170.246 53.526C170.764 53.8488 172.59 53.9126 173.622 53.7502L175.511 55.2058L180.856 51.2062L177.556 49.1764C177.556 49.1764 178.312 48.1441 176.207 47.0171C176.207 47.0171 175.253 45.7277 175.213 45.0511C175.163 43.6709 174.868 42.3036 174.338 40.9916C173.584 39.1879 173.146 29.1685 173.146 29.1685C173.146 29.1685 171.353 21.8536 167.299 23.5625Z" fill="#575988"/>
<path opacity="0.1" d="M175.606 47.791C175.367 47.8877 170.558 51.4968 172.346 51.5935C174.135 51.6901 175.606 47.791 175.606 47.791Z" fill="black"/>
<path d="M181.723 52.1406C181.723 52.1406 174.85 52.7206 175.207 54.9765C175.565 57.2325 180.453 59.4053 182.002 58.721C183.552 58.0367 184.863 57.3833 184.863 57.3833L181.723 52.1406Z" fill="#FFAAB0"/>
<path opacity="0.1" d="M202.705 25.1089L203.699 26.6554C203.699 26.6554 204.732 33.259 203.699 35.8049C202.667 38.3509 200.163 44.214 200.163 44.214C200.163 44.214 197.143 48.4998 197.064 48.6931C196.985 48.8864 191.261 55.5866 190.228 55.9423C189.196 56.298 187.248 56.1105 187.129 55.72C187.01 55.3295 184.387 57.3825 184.387 57.3825C184.387 57.3825 179.332 52.4298 180.136 51.9137C180.939 51.3976 183.374 51.27 183.374 51.27C183.374 51.27 183.552 51.7533 183.75 50.7538C183.948 49.7544 184.864 49.2402 185.539 49.304C186.213 49.3678 185.937 48.7898 186.056 48.177C186.175 47.5642 188.042 46.47 188.042 46.47C188.042 46.47 188.958 45.2773 188.958 44.5678C188.958 43.8584 190.865 43.2475 191.022 43.2475C191.18 43.2475 191.141 42.9575 191.141 41.9272C191.141 40.8968 192.095 39.0584 192.095 39.0584L192.684 33.259L193.719 27.363C193.719 27.363 196.547 20.1795 202.705 25.1089Z" fill="black"/>
<path opacity="0.1" d="M198.38 44.9551C198.38 44.9551 198.618 45.9932 198.907 47.3792C198.43 48.0732 198.051 48.6261 198.022 48.6918C197.944 48.8851 192.221 55.5873 191.189 55.9411C190.157 56.2948 188.209 56.1092 188.09 55.7207C188.037 55.5467 187.491 55.8541 186.897 56.2504C186.158 56.7452 185.345 57.3812 185.345 57.3812C185.345 57.3812 184.544 56.5964 183.631 55.6182C182.248 54.1413 180.61 52.2256 181.092 51.9144C181.895 51.3982 184.332 51.2706 184.332 51.2706C184.332 51.2706 184.511 51.7539 184.709 50.7545C184.907 49.7551 185.822 49.2408 186.497 49.3046C187.172 49.3684 186.895 48.7885 187.014 48.1776C187.133 47.5667 189 46.4687 189 46.4687C189 46.4687 189.913 45.2779 189.913 44.5685C189.913 43.859 191.821 43.2481 191.981 43.2481C192.14 43.2481 192.1 42.9582 192.1 41.9259C192.1 40.8936 193.053 39.059 193.053 39.059L193.642 33.2597L194.675 27.3636C194.675 27.3636 197.498 20.1782 203.656 25.1076L204.116 25.8248C204.176 26.3294 204.174 26.6542 204.174 26.6542L194.596 32.2293L198.38 44.9551Z" fill="black"/>
<path d="M203.182 25.1089L204.176 26.6554C204.176 26.6554 205.208 33.259 204.176 35.8049C203.144 38.3509 200.64 44.214 200.64 44.214C200.64 44.214 197.619 48.4998 197.541 48.6931C197.462 48.8864 191.738 55.5866 190.705 55.9423C189.673 56.298 187.725 56.1105 187.606 55.72C187.486 55.3295 184.864 57.3825 184.864 57.3825C184.864 57.3825 179.809 52.4298 180.613 51.9137C181.416 51.3976 183.85 51.27 183.85 51.27C183.85 51.27 184.029 51.7533 184.227 50.7538C184.425 49.7544 185.341 49.2402 186.015 49.304C186.69 49.3678 186.414 48.7898 186.533 48.177C186.652 47.5642 188.519 46.47 188.519 46.47C188.519 46.47 189.434 45.2773 189.434 44.5678C189.434 43.8584 191.342 43.2475 191.499 43.2475C191.656 43.2475 191.618 42.9575 191.618 41.9272C191.618 40.8968 192.572 39.0584 192.572 39.0584L193.161 33.259L194.196 27.363C194.196 27.363 197.023 20.1795 203.182 25.1089Z" fill="#575988"/>
<path opacity="0.1" d="M185.459 51C185.459 51 185.698 51.435 186.771 51.5935C187.844 51.752 185.459 51 185.459 51Z" fill="black"/>
<path opacity="0.1" d="M198.294 25.1406C198.256 25.2373 194.718 28.4791 195.433 29.3239C196.148 30.1687 198.294 25.1406 198.294 25.1406Z" fill="black"/>
<path opacity="0.1" d="M194.281 40.0254C194.281 40.0254 196.308 41.6376 195.91 42.4109C195.512 43.1841 194.281 40.0254 194.281 40.0254Z" fill="black"/>
<path opacity="0.1" d="M194.598 36.9648C194.717 37.1253 199.09 37.5448 199.328 38.898C199.567 40.2511 194.598 36.9648 194.598 36.9648Z" fill="black"/>
<g opacity="0.1">
<path opacity="0.1" d="M195.042 7.98806C195.042 7.9146 195.063 7.8392 195.077 7.76381C195.166 7.39529 195.205 7.01991 195.192 6.64453C195.173 6.89004 195.12 7.13554 195.077 7.37719C195.03 7.57841 195.018 7.78409 195.042 7.98806Z" fill="black"/>
<path opacity="0.1" d="M181.02 7.60945C181.048 7.46667 181.048 7.32113 181.02 7.17836C180.991 7.04111 180.96 6.90385 180.944 6.7666C180.918 7.03433 180.944 7.30363 181.02 7.56498V7.60945Z" fill="black"/>
<path opacity="0.1" d="M195.254 9.04199C195.152 9.50208 194.725 9.91383 194.398 10.3217C194.043 10.7661 193.792 11.2595 193.657 11.7774C193.616 12.0208 193.531 12.2579 193.404 12.481C193.338 12.5918 193.232 12.6836 193.1 12.744C192.968 12.8045 192.816 12.8308 192.665 12.8193C192.666 12.8129 192.666 12.8064 192.665 12.8C192.652 12.9351 192.652 13.0708 192.665 13.2059C192.816 13.2174 192.968 13.1911 193.1 13.1307C193.232 13.0702 193.338 12.9784 193.404 12.8677C193.531 12.6445 193.616 12.4074 193.657 12.164C193.792 11.6461 194.043 11.1528 194.398 10.7083C194.794 10.2115 195.352 9.71085 195.271 9.12125C195.28 9.09419 195.259 9.06906 195.254 9.04199Z" fill="black"/>
<path opacity="0.1" d="M192.698 11.7654C192.658 11.228 192.307 10.7408 191.966 10.2788C191.736 9.90584 191.411 9.57648 191.012 9.31224C190.897 9.25772 190.789 9.19288 190.691 9.11892C190.471 8.92561 190.495 8.61824 190.452 8.34567C190.388 7.98957 190.189 7.65857 189.881 7.39896C189.574 7.13936 189.174 6.96412 188.738 6.89776C188.557 6.86049 188.365 6.88199 188.204 6.95768C188.042 7.05048 187.965 7.22252 187.83 7.33078C187.709 7.39534 187.572 7.43719 187.429 7.45324C187.286 7.4693 187.14 7.45916 187.002 7.42357C186.378 7.32305 185.727 7.13747 185.121 7.30178C184.082 7.58015 183.69 8.74583 182.622 8.96234C182.307 9.00137 181.988 9.02012 181.669 9.0184C181.508 9.01784 181.35 9.04885 181.207 9.10878C181.065 9.16872 180.943 9.25578 180.851 9.3625C180.742 9.26875 180.67 9.15107 180.643 9.0242C180.606 9.14979 180.606 9.2807 180.642 9.40653C180.678 9.53237 180.749 9.64967 180.851 9.74912C180.943 9.64241 181.065 9.55534 181.207 9.49541C181.35 9.43548 181.508 9.40446 181.669 9.40503C181.988 9.40674 182.307 9.388 182.622 9.34897C183.686 9.13246 184.082 7.96678 185.121 7.68841C185.727 7.52409 186.378 7.70967 187.002 7.8102C187.14 7.84579 187.286 7.85592 187.429 7.83987C187.572 7.82381 187.709 7.78197 187.83 7.7174C187.977 7.60915 188.042 7.4371 188.204 7.34431C188.365 7.26862 188.557 7.24711 188.738 7.28438C189.174 7.35075 189.574 7.52598 189.881 7.78559C190.189 8.0452 190.388 8.37619 190.452 8.7323C190.493 8.99907 190.469 9.2987 190.691 9.50555C190.789 9.57951 190.897 9.64435 191.012 9.69886C191.411 9.96311 191.736 10.2925 191.966 10.6654C192.298 11.1158 192.634 11.5875 192.681 12.1075C192.697 11.9939 192.702 11.8796 192.698 11.7654Z" fill="black"/>
</g>
<path d="M114.336 28.3845V48.6707C114.335 48.7134 114.345 48.7558 114.365 48.7953C114.385 48.8348 114.414 48.8707 114.452 48.9008C114.489 48.9309 114.534 48.9547 114.582 48.9706C114.631 48.9865 114.684 48.9943 114.736 48.9935C121.627 48.8195 127.373 44.2013 127.373 38.5276C127.373 32.8538 121.631 28.2337 114.736 28.0616C114.684 28.0606 114.631 28.0682 114.582 28.084C114.533 28.0998 114.488 28.1235 114.451 28.1537C114.414 28.1839 114.384 28.2199 114.364 28.2595C114.344 28.2992 114.335 28.3417 114.336 28.3845Z" fill="#70EC44"/>
<path d="M97.1291 56.0882V39.299C97.1045 36.614 98.1656 33.9965 100.15 31.8468C102.026 29.848 104.947 28.0385 109.363 28.0617C109.422 28.0615 109.481 28.0707 109.536 28.089C109.591 28.1072 109.641 28.134 109.684 28.168C109.726 28.2019 109.759 28.2422 109.783 28.2867C109.806 28.3312 109.818 28.3789 109.818 28.4271V45.7093C109.818 45.7093 110.533 55.1546 97.3818 56.2719C97.3503 56.2735 97.3187 56.2699 97.2889 56.2615C97.2591 56.2531 97.2316 56.24 97.2081 56.2229C97.1846 56.2058 97.1655 56.1851 97.1519 56.162C97.1384 56.1389 97.1306 56.1138 97.1291 56.0882Z" fill="#4064AC"/>
<path opacity="0.1" d="M42.9136 26.167C47.0615 26.167 50.424 23.4407 50.424 20.0776C50.424 16.7146 47.0615 13.9883 42.9136 13.9883C38.7658 13.9883 35.4033 16.7146 35.4033 20.0776C35.4033 23.4407 38.7658 26.167 42.9136 26.167Z" fill="#6C63FF"/>
<path opacity="0.1" d="M27.1776 9.34877C29.7453 9.34877 31.8268 7.66107 31.8268 5.57917C31.8268 3.49728 29.7453 1.80957 27.1776 1.80957C24.6099 1.80957 22.5283 3.49728 22.5283 5.57917C22.5283 7.66107 24.6099 9.34877 27.1776 9.34877Z" fill="#6C63FF"/>
<path opacity="0.1" d="M2.86108 16.3075C4.44121 16.3075 5.72215 15.2689 5.72215 13.9877C5.72215 12.7066 4.44121 11.668 2.86108 11.668C1.28095 11.668 0 12.7066 0 13.9877C0 15.2689 1.28095 16.3075 2.86108 16.3075Z" fill="#6C63FF"/>
<path d="M97.7224 129.893C97.4937 130.147 97.3107 130.426 97.1788 130.722C97.1455 130.793 97.1121 130.876 97.0787 130.956C97.0186 130.933 96.9554 130.915 96.8903 130.904C96.6125 130.846 96.325 130.826 96.0392 130.844C96.0392 130.755 96.0535 130.65 96.0559 130.561C96.0916 129.543 95.9438 128.122 94.7445 128.723C93.5953 129.303 94.4155 130.269 95.157 130.89L95.3477 131.041C94.6706 131.427 94.5419 132.342 94.4298 133.291C94.3178 134.24 93.3235 135.28 92.6631 135.87C92.5964 135.93 92.5367 135.984 92.4771 136.034C92.2106 135.861 91.9015 135.735 91.5706 135.666C91.2397 135.598 90.8945 135.586 90.5578 135.634C90.5316 135.551 90.503 135.464 90.4696 135.371C89.9379 133.799 88.8293 131.093 87.413 130.513L87.599 130.32C88.1998 129.682 88.877 128.735 87.878 128.493C86.879 128.251 86.7884 129.315 86.8432 130.111C86.8432 130.21 86.8623 130.304 86.8718 130.393C86.6721 130.401 86.4765 130.441 86.2969 130.512C86.1173 130.584 85.9575 130.684 85.8275 130.807L85.6726 130.66C84.8619 129.887 83.3765 128.655 82.9259 129.585C82.5087 130.451 83.8152 131.574 84.7356 132.226L84.7928 132.266C84.1753 134.3 86.8718 135.957 88.3238 136.682L88.5122 136.774C86.5094 138.688 85.272 142.274 85.272 142.274L90.8821 143.086C90.8821 143.086 94.5991 140.484 94.1223 138.043H94.1604C97.8774 137.439 98.7214 134.227 98.1445 132.319C98.1659 132.319 98.1874 132.305 98.2088 132.295C98.8855 132.071 99.4787 131.708 99.9302 131.242C100.97 130.065 98.7906 128.742 97.7224 129.893Z" fill="#6C63FF"/>
<path opacity="0.1" d="M97.7224 129.893C97.4937 130.147 97.3107 130.426 97.1788 130.722C97.1455 130.793 97.1121 130.876 97.0787 130.956C97.0186 130.933 96.9554 130.915 96.8903 130.904C96.6125 130.846 96.325 130.826 96.0392 130.844C96.0392 130.755 96.0535 130.65 96.0559 130.561C96.0916 129.543 95.9438 128.122 94.7445 128.723C93.5953 129.303 94.4155 130.269 95.157 130.89L95.3477 131.041C94.6706 131.427 94.5419 132.342 94.4298 133.291C94.3178 134.24 93.3235 135.28 92.6631 135.87C92.5964 135.93 92.5367 135.984 92.4771 136.034C92.2106 135.861 91.9015 135.735 91.5706 135.666C91.2397 135.598 90.8945 135.586 90.5578 135.634C90.5316 135.551 90.503 135.464 90.4696 135.371C89.9379 133.799 88.8293 131.093 87.413 130.513L87.599 130.32C88.1998 129.682 88.877 128.735 87.878 128.493C86.879 128.251 86.7884 129.315 86.8432 130.111C86.8432 130.21 86.8623 130.304 86.8718 130.393C86.6721 130.401 86.4765 130.441 86.2969 130.512C86.1173 130.584 85.9575 130.684 85.8275 130.807L85.6726 130.66C84.8619 129.887 83.3765 128.655 82.9259 129.585C82.5087 130.451 83.8152 131.574 84.7356 132.226L84.7928 132.266C84.1753 134.3 86.8718 135.957 88.3238 136.682L88.5122 136.774C86.5094 138.688 85.272 142.274 85.272 142.274L90.8821 143.086C90.8821 143.086 94.5991 140.484 94.1223 138.043H94.1604C97.8774 137.439 98.7214 134.227 98.1445 132.319C98.1659 132.319 98.1874 132.305 98.2088 132.295C98.8855 132.071 99.4787 131.708 99.9302 131.242C100.97 130.065 98.7906 128.742 97.7224 129.893Z" fill="black"/>
<path d="M86.5592 131.204L85.9035 132.75C85.9035 132.75 85.5387 132.541 85.0786 132.213C84.1583 131.561 82.8517 130.438 83.2689 129.572C83.7196 128.642 85.2049 129.87 86.0156 130.647C86.3422 130.964 86.5592 131.204 86.5592 131.204Z" fill="#6C63FF"/>
<path d="M87.9423 130.32C87.7428 130.532 87.5295 130.736 87.3033 130.929C87.2475 130.658 87.2085 130.386 87.1865 130.112C87.1317 129.315 87.2366 128.258 88.2213 128.494C89.206 128.729 88.5431 129.679 87.9423 130.32Z" fill="#6C63FF"/>
<path d="M96.3994 130.562C96.3803 131.074 96.3184 131.482 96.3184 131.482C96.03 131.303 95.7568 131.109 95.5006 130.9C94.7591 130.276 93.9389 129.313 95.0881 128.733C96.2874 128.122 96.4352 129.547 96.3994 130.562Z" fill="#6C63FF"/>
<path d="M100.273 131.233C99.8217 131.699 99.2285 132.062 98.5519 132.286C98.3644 132.353 98.1717 132.41 97.9749 132.456L97.2024 131.577C97.2842 131.286 97.3909 131.001 97.5219 130.722C97.6537 130.426 97.8367 130.147 98.0655 129.893C99.1336 128.743 101.313 130.065 100.273 131.233Z" fill="#6C63FF"/>
<path opacity="0.1" d="M86.0161 130.656C86.3427 130.964 86.5597 131.203 86.5597 131.203L85.904 132.75C85.904 132.75 85.5393 132.541 85.0791 132.212C85.1818 131.714 85.4358 131.245 85.8182 130.846C85.8826 130.784 85.9517 130.716 86.0161 130.656Z" fill="black"/>
<path opacity="0.1" d="M87.9426 130.32C87.743 130.532 87.5298 130.735 87.3036 130.929C87.2477 130.658 87.2087 130.385 87.1868 130.111C87.4595 130.115 87.7238 130.188 87.9426 130.32Z" fill="black"/>
<path d="M91.1681 136.492L89.5349 137.072C89.5349 137.072 89.1796 136.933 88.667 136.676C86.9528 135.819 83.5075 133.668 85.8179 131.132C88.1282 128.595 90.0546 133.144 90.8128 135.369C91.0441 136.036 91.1681 136.492 91.1681 136.492Z" fill="#6C63FF"/>
<path opacity="0.1" d="M95.5005 130.9C95.7373 130.701 96.0589 130.584 96.3993 130.571C96.3803 131.084 96.3183 131.491 96.3183 131.491C96.0295 131.309 95.7563 131.112 95.5005 130.9Z" fill="black"/>
<path opacity="0.1" d="M98.5519 132.286C98.3644 132.353 98.1716 132.409 97.9749 132.456L97.2024 131.576C97.2842 131.286 97.3909 131 97.5219 130.722C98.0202 130.959 98.3873 131.545 98.5519 132.286Z" fill="black"/>
<path d="M94.5035 138.034L94.2293 138.072C88.7622 138.747 92.4268 136.354 92.4268 136.354C92.4268 136.354 92.6652 136.16 93.0062 135.87C93.6666 135.281 94.6584 134.247 94.7729 133.292C94.9445 131.855 95.1424 130.508 97.2334 130.904C99.2862 131.287 99.6725 137.193 94.5035 138.034Z" fill="#6C63FF"/>
<path d="M94.4038 149.069H83.9585V151.296H94.4038V149.069Z" fill="#D4DFEC"/>
<path d="M95.9464 141.832H82.2991V149.603H95.9464V141.832Z" fill="#D4DFEC"/>
<path opacity="0.1" d="M94.4038 149.069H83.9585V151.296H94.4038V149.069Z" fill="black"/>
<path opacity="0.1" d="M95.9464 141.832H82.2991V149.603H95.9464V141.832Z" fill="black"/>
<path d="M95.0906 149.069H84.6453V151.296H95.0906V149.069Z" fill="#D4DFEC"/>
<path opacity="0.1" d="M90.8133 135.371C91.0517 136.036 91.1685 136.492 91.1685 136.492L89.5353 137.072C89.5353 137.072 89.1801 136.933 88.6675 136.676C89.3065 136.021 90.0265 135.524 90.8133 135.371Z" fill="black"/>
<path opacity="0.1" d="M94.5034 138.033L94.2293 138.072C88.7622 138.747 92.4268 136.353 92.4268 136.353C92.4268 136.353 92.6652 136.16 93.0061 135.87C94.0266 136.533 94.4486 137.279 94.5034 138.033Z" fill="black"/>
<path d="M85.606 142.271C85.606 142.271 88.6673 133.379 92.9613 136.124C97.2553 138.869 91.216 143.083 91.216 143.083L85.606 142.271Z" fill="#6C63FF"/>
<path opacity="0.1" d="M87.1629 132.806C87.3525 132.806 87.5062 132.681 87.5062 132.527C87.5062 132.374 87.3525 132.249 87.1629 132.249C86.9733 132.249 86.8196 132.374 86.8196 132.527C86.8196 132.681 86.9733 132.806 87.1629 132.806Z" fill="black"/>
<path opacity="0.1" d="M87.1343 134.105C87.324 134.105 87.4777 133.98 87.4777 133.826C87.4777 133.672 87.324 133.548 87.1343 133.548C86.9447 133.548 86.791 133.672 86.791 133.826C86.791 133.98 86.9447 134.105 87.1343 134.105Z" fill="black"/>
<path opacity="0.1" d="M97.0904 133.061C97.28 133.061 97.4337 132.936 97.4337 132.782C97.4337 132.629 97.28 132.504 97.0904 132.504C96.9008 132.504 96.7471 132.629 96.7471 132.782C96.7471 132.936 96.9008 133.061 97.0904 133.061Z" fill="black"/>
<path opacity="0.1" d="M89.0799 139.721C89.2695 139.721 89.4232 139.596 89.4232 139.442C89.4232 139.289 89.2695 139.164 89.0799 139.164C88.8903 139.164 88.7366 139.289 88.7366 139.442C88.7366 139.596 88.8903 139.721 89.0799 139.721Z" fill="black"/>
<path opacity="0.1" d="M96.3751 135.219C96.5647 135.219 96.7184 135.094 96.7184 134.94C96.7184 134.787 96.5647 134.662 96.3751 134.662C96.1855 134.662 96.0317 134.787 96.0317 134.94C96.0317 135.094 96.1855 135.219 96.3751 135.219Z" fill="black"/>
<path opacity="0.1" d="M92.8272 138.097C93.0168 138.097 93.1705 137.972 93.1705 137.818C93.1705 137.665 93.0168 137.54 92.8272 137.54C92.6376 137.54 92.4839 137.665 92.4839 137.818C92.4839 137.972 92.6376 138.097 92.8272 138.097Z" fill="black"/>
<path opacity="0.1" d="M88.336 133.362C88.5256 133.362 88.6793 133.238 88.6793 133.084C88.6793 132.93 88.5256 132.806 88.336 132.806C88.1464 132.806 87.9927 132.93 87.9927 133.084C87.9927 133.238 88.1464 133.362 88.336 133.362Z" fill="black"/>
<path opacity="0.1" d="M96.1463 133.897C96.3359 133.897 96.4896 133.772 96.4896 133.618C96.4896 133.464 96.3359 133.34 96.1463 133.34C95.9567 133.34 95.803 133.464 95.803 133.618C95.803 133.772 95.9567 133.897 96.1463 133.897Z" fill="black"/>
<path opacity="0.1" d="M94.9732 136.054C95.1628 136.054 95.3166 135.929 95.3166 135.775C95.3166 135.622 95.1628 135.497 94.9732 135.497C94.7836 135.497 94.6299 135.622 94.6299 135.775C94.6299 135.929 94.7836 136.054 94.9732 136.054Z" fill="black"/>
<path opacity="0.1" d="M91.3682 139.512C91.5578 139.512 91.7116 139.387 91.7116 139.233C91.7116 139.08 91.5578 138.955 91.3682 138.955C91.1786 138.955 91.0249 139.08 91.0249 139.233C91.0249 139.387 91.1786 139.512 91.3682 139.512Z" fill="black"/>
<path opacity="0.1" d="M90.6246 138.144C90.8142 138.144 90.9679 138.019 90.9679 137.865C90.9679 137.712 90.8142 137.587 90.6246 137.587C90.435 137.587 90.2812 137.712 90.2812 137.865C90.2812 138.019 90.435 138.144 90.6246 138.144Z" fill="black"/>
<path opacity="0.1" d="M88.8509 135.056C89.0405 135.056 89.1942 134.931 89.1942 134.777C89.1942 134.624 89.0405 134.499 88.8509 134.499C88.6613 134.499 88.5076 134.624 88.5076 134.777C88.5076 134.931 88.6613 135.056 88.8509 135.056Z" fill="black"/>
<path opacity="0.1" d="M95.0906 149.069H84.6453V149.883H95.0906V149.069Z" fill="black"/>
<path d="M96.6332 141.832H82.9858V149.603H96.6332V141.832Z" fill="#D4DFEC"/>
<path opacity="0.1" d="M91.8262 140.765C92.0158 140.765 92.1695 140.64 92.1695 140.486C92.1695 140.333 92.0158 140.208 91.8262 140.208C91.6366 140.208 91.4829 140.333 91.4829 140.486C91.4829 140.64 91.6366 140.765 91.8262 140.765Z" fill="black"/>
<path opacity="0.1" d="M89.7667 141.112C89.9563 141.112 90.11 140.988 90.11 140.834C90.11 140.68 89.9563 140.556 89.7667 140.556C89.5771 140.556 89.4233 140.68 89.4233 140.834C89.4233 140.988 89.5771 141.112 89.7667 141.112Z" fill="black"/>
</g>
<defs>
<linearGradient id="paint0_linear_60_799" x1="55.946" y1="149.58" x2="55.946" y2="46.4938" gradientUnits="userSpaceOnUse">
<stop stop-color="#808080" stop-opacity="0.25"/>
<stop offset="0.54" stop-color="#808080" stop-opacity="0.12"/>
<stop offset="1" stop-color="#808080" stop-opacity="0.1"/>
</linearGradient>
<linearGradient id="paint1_linear_60_799" x1="56563.6" y1="64238.1" x2="56563.6" y2="7164.73" gradientUnits="userSpaceOnUse">
<stop stop-color="#808080" stop-opacity="0.25"/>
<stop offset="0.54" stop-color="#808080" stop-opacity="0.12"/>
<stop offset="1" stop-color="#808080" stop-opacity="0.1"/>
</linearGradient>
<clipPath id="clip0_60_799">
<rect width="258" height="152" fill="white"/>
</clipPath>
</defs>
</svg>
