<svg width="266" height="202" viewBox="0 0 266 202" fill="none" xmlns="http://www.w3.org/2000/svg">
<g clip-path="url(#clip0_38_249)">
<path d="M252.848 181.08L253.259 173.045C257.546 171.054 262.328 170.002 267.189 169.981C260.499 174.734 261.335 183.896 256.799 190.288C255.367 192.272 253.439 193.95 251.159 195.199C248.878 196.448 246.304 197.234 243.626 197.501L238.028 200.48C237.259 196.758 237.429 192.936 238.524 189.277C239.619 185.618 241.615 182.209 244.372 179.284C245.938 177.657 247.733 176.207 249.716 174.97C251.057 178.042 252.848 181.08 252.848 181.08Z" fill="#F2F2F2"/>
<path d="M219.603 199.992C231.994 199.992 242.039 191.263 242.039 180.496C242.039 169.729 231.994 161 219.603 161C207.211 161 197.166 169.729 197.166 180.496C197.166 191.263 207.211 199.992 219.603 199.992Z" fill="#70EC44"/>
<path d="M210.447 172.87C210.139 174.308 209.634 175.708 208.943 177.041C204.985 184.317 216.256 181.945 220.284 181.945C224.688 181.945 228.902 183.958 228.258 175.016C227.983 171.197 224.688 168.087 220.284 168.087C216.522 168.087 211.234 169.54 210.447 172.87Z" fill="#2F2E41"/>
<path d="M219.624 181.944C223.203 181.944 226.104 179.423 226.104 176.313C226.104 173.204 223.203 170.683 219.624 170.683C216.046 170.683 213.145 173.204 213.145 176.313C213.145 179.423 216.046 181.944 219.624 181.944Z" fill="#FFB6B6"/>
<path d="M215.223 170.574C216.359 169.972 217.659 169.647 218.989 169.631C220.319 169.616 221.629 169.912 222.782 170.487C223.936 171.062 224.89 171.896 225.545 172.902C226.201 173.907 226.533 175.047 226.508 176.202C223.206 176.923 219.738 177.474 216.216 176.375L215.385 174.606L214.895 176.376C213.822 176.757 212.747 177.079 211.672 176.372C211.628 175.22 211.933 174.078 212.556 173.061C213.179 172.043 214.099 171.185 215.223 170.574V170.574Z" fill="#2F2E41"/>
<path d="M237.05 193.46C233.163 197.303 227.693 199.664 221.82 200.033C215.947 200.401 210.143 198.749 205.66 195.431L207.585 190.765C208.019 189.936 208.706 189.226 209.57 188.71C210.434 188.195 211.443 187.893 212.49 187.838L213.714 187.773L216.633 185.585C216.633 185.585 224.499 185.341 224.382 185.224L229.147 187.714L229.143 187.697L231.016 187.797C232.062 187.852 233.072 188.153 233.936 188.669C234.8 189.184 235.486 189.895 235.921 190.724L237.05 193.46Z" fill="#3F3D56"/>
<path d="M44.8732 44.3216C44.8653 48.1775 43.5418 51.9449 41.0698 55.1472C38.5979 58.3495 35.0887 60.8429 30.986 62.3122C26.8832 63.7815 22.3712 64.1606 18.0204 63.4017C13.6697 62.6427 9.67568 60.7797 6.54343 58.0483C3.41119 55.3169 1.2814 51.8398 0.423398 48.0566C-0.434605 44.2734 0.0177088 40.3541 1.72315 36.7943C3.42859 33.2345 6.31055 30.1941 10.0046 28.0575C13.6986 25.9209 18.0389 24.7842 22.4764 24.791C25.425 24.7889 28.345 25.2932 31.0685 26.2748C33.7921 27.2564 36.2656 28.696 38.3469 30.5109C40.4281 32.3258 42.0761 34.4802 43.1961 36.8503C44.3161 39.2204 44.8861 41.7595 44.8732 44.3216V44.3216Z" fill="#E4E4E4"/>
<path d="M12.0371 37.9448C12.9649 35.3756 15.0746 33.0193 17.9923 32.1508C20.9101 31.2822 25.1827 32.6053 27.3762 34.5049C31.3887 37.9797 32.3679 49.917 29.6112 53.6893C29.0628 53.6641 27.1708 53.6454 26.6158 53.6274L25.8307 51.3537V53.605C24.9466 53.5812 24.0555 53.5648 23.1576 53.5558C20.1468 53.5234 17.2678 52.4779 15.1257 50.6391C12.9837 48.8004 11.7455 46.3117 11.6714 43.6961C11.5996 41.1939 11.6715 38.9573 12.0371 37.9448Z" fill="#CCCCCC"/>
<path d="M22.1033 46.4596C25.6347 46.4596 28.4975 43.972 28.4975 40.9034C28.4975 37.8348 25.6347 35.3472 22.1033 35.3472C18.5718 35.3472 15.709 37.8348 15.709 40.9034C15.709 43.972 18.5718 46.4596 22.1033 46.4596Z" fill="#CCCCCC"/>
<path d="M16.5859 36.0237L23.9483 32.8203C25.4535 33.4097 26.7499 34.3383 27.7029 35.5097C28.6559 36.6811 29.2309 38.0528 29.3683 39.4824L29.5518 41.3924L26.4688 40.7105L26.131 38.2681L25.6075 40.52L24.1847 40.2054L24.1982 36.4137L22.7745 40.2027L17.693 39.1882L16.5859 36.0237Z" fill="#CCCCCC"/>
<path d="M39.0856 57.1887C35.1985 61.0319 29.7281 63.3928 23.8551 63.7616C17.9822 64.1304 12.178 62.4776 7.69531 59.16L9.61974 54.4939C10.0546 53.6652 10.7409 52.9549 11.6051 52.4393C12.4692 51.9237 13.4785 51.6222 14.5248 51.5671L15.7491 51.5018L18.6684 49.314C18.6684 49.314 26.5342 49.07 26.4175 48.9531L31.1821 51.4434L31.1782 51.4262L33.0512 51.5259C34.0976 51.5807 35.107 51.8821 35.9712 52.3978C36.8353 52.9134 37.5216 53.6238 37.9562 54.4527L39.0856 57.1887Z" fill="#CCCCCC"/>
<path d="M22.5968 153.322C34.9882 153.322 45.0334 144.593 45.0334 133.826C45.0334 123.059 34.9882 114.33 22.5968 114.33C10.2054 114.33 0.160156 123.059 0.160156 133.826C0.160156 144.593 10.2054 153.322 22.5968 153.322Z" fill="#E4E4E4"/>
<path d="M13.4391 126.2C13.1312 127.638 12.6263 129.038 11.9351 130.371C7.97723 137.647 19.2484 135.275 23.2764 135.275C27.6803 135.275 31.894 137.288 31.2505 128.346C30.9756 124.527 27.6803 121.417 23.2764 121.417C19.5147 121.417 14.2257 122.87 13.4391 126.2Z" fill="#CCCCCC"/>
<path d="M22.6166 135.274C26.1953 135.274 29.0964 132.753 29.0964 129.643C29.0964 126.534 26.1953 124.013 22.6166 124.013C19.0378 124.013 16.1367 126.534 16.1367 129.643C16.1367 132.753 19.0378 135.274 22.6166 135.274Z" fill="#CCCCCC"/>
<path d="M18.2156 123.904C19.351 123.302 20.6516 122.977 21.9813 122.961C23.3111 122.946 24.6211 123.242 25.7744 123.817C26.9277 124.392 27.882 125.226 28.5375 126.232C29.1929 127.237 29.5255 128.377 29.5003 129.532C26.1985 130.253 22.7297 130.804 19.2086 129.705L18.377 127.936L17.8868 129.706C16.8145 130.087 15.7394 130.409 14.6643 129.702C14.6204 128.55 14.9253 127.408 15.5485 126.391C16.1717 125.373 17.0913 124.516 18.2156 123.904Z" fill="#CCCCCC"/>
<path d="M40.0426 146.789C36.1555 150.633 30.6851 152.993 24.8122 153.362C18.9393 153.731 13.135 152.078 8.65234 148.761L10.5768 144.095C11.0117 143.266 11.698 142.556 12.5621 142.04C13.4262 141.524 14.4355 141.223 15.4818 141.168L16.7061 141.102L19.6254 138.915C19.6254 138.915 27.4913 138.671 27.3746 138.554L32.1392 141.044L32.1352 141.027L34.0082 141.126C35.0546 141.181 36.0641 141.483 36.9282 141.998C37.7924 142.514 38.4786 143.224 38.9133 144.053L40.0426 146.789Z" fill="#CCCCCC"/>
<path d="M119.126 135.503C139.188 135.503 155.452 121.371 155.452 103.938C155.452 86.5045 139.188 72.3721 119.126 72.3721C99.0629 72.3721 82.7988 86.5045 82.7988 103.938C82.7988 121.371 99.0629 135.503 119.126 135.503Z" fill="#F2F2F2"/>
<path d="M120.605 107.158C127.147 107.158 132.451 102.549 132.451 96.8648C132.451 91.1801 127.147 86.5718 120.605 86.5718C114.063 86.5718 108.76 91.1801 108.76 96.8648C108.76 102.549 114.063 107.158 120.605 107.158Z" fill="#CCCCCC"/>
<path d="M131.035 90.0652C131.035 90.0652 134.12 84.942 127.334 84.4762C127.334 84.4762 121.55 79.9167 115.654 83.6427C115.654 83.6427 112.438 83.6427 110.679 86.805C110.679 86.805 108.15 85.9714 107.594 88.2022C107.594 88.2022 105.743 92.8597 107.594 97.0514C109.445 101.243 110.06 101.709 110.06 101.709C110.06 101.709 108.761 96.5072 116.164 96.0415C123.566 95.5757 130.358 91.546 130.975 96.6693C131.592 101.792 132.27 99.4781 132.27 99.4781C132.27 99.4781 138.129 92.1611 131.035 90.0652Z" fill="#CCCCCC"/>
<path d="M146.243 124.927C139.95 131.15 131.093 134.972 121.584 135.569C112.075 136.167 102.678 133.491 95.4199 128.119L98.5357 120.564C99.2399 119.223 100.351 118.073 101.75 117.238C103.149 116.403 104.783 115.915 106.477 115.826L108.46 115.72L113.186 112.178C113.186 112.178 125.922 111.782 125.733 111.593L133.447 115.625L133.441 115.597L136.473 115.759C138.167 115.848 139.802 116.336 141.201 117.17C142.6 118.005 143.711 119.155 144.415 120.498L146.243 124.927Z" fill="#CCCCCC"/>
<path d="M59.294 104.042C71.6854 104.042 81.7306 95.3132 81.7306 84.5458C81.7306 73.7785 71.6854 65.0498 59.294 65.0498C46.9026 65.0498 36.8574 73.7785 36.8574 84.5458C36.8574 95.3132 46.9026 104.042 59.294 104.042Z" fill="#E6E6E6"/>
<path d="M58.6757 86.9613C62.6312 86.9613 65.8377 84.175 65.8377 80.738C65.8377 77.3009 62.6312 74.5146 58.6757 74.5146C54.7202 74.5146 51.5137 77.3009 51.5137 80.738C51.5137 84.175 54.7202 86.9613 58.6757 86.9613Z" fill="#CCCCCC"/>
<path d="M76.1266 97.5906C72.2395 101.434 66.7691 103.795 60.8962 104.163C55.0232 104.532 49.219 102.879 44.7363 99.5619L46.6608 94.8958C47.0957 94.0671 47.782 93.3568 48.6461 92.8412C49.5102 92.3256 50.5195 92.0241 51.5658 91.969L52.7901 91.9037L55.7094 89.7159C55.7094 89.7159 63.5752 89.4718 63.4586 89.355L68.2232 91.8452L68.2192 91.828L70.0922 91.9277C71.1386 91.9826 72.1481 92.284 73.0122 92.7996C73.8764 93.3153 74.5626 94.0257 74.9973 94.8546L76.1266 97.5906Z" fill="#CCCCCC"/>
<path d="M66.2288 76.8783C65.6236 74.996 64.2485 73.3704 62.3618 72.3066C60.8582 71.4709 58.9819 71.0442 57.2784 71.4862C55.575 71.9281 54.1646 73.3808 54.2761 74.9503C53.9606 74.8782 53.6281 74.8843 53.3163 74.968C53.0046 75.0517 52.726 75.2095 52.5121 75.4236C52.0847 75.862 51.7875 76.3848 51.6466 76.9462C51.1 78.7059 51.1362 80.564 51.7511 82.3066L51.7173 82.5567C52.5484 82.4372 53.1788 81.8176 53.5708 81.1575C53.9627 80.4973 54.1883 79.7649 54.6132 79.1209C55.038 78.4769 55.7435 77.9024 56.5852 77.8823L56.511 79.0002L58.6833 78.0277C58.511 78.3857 58.3388 78.7437 58.1666 79.1017C58.7989 78.8721 59.4313 78.6424 60.0637 78.4127C59.993 78.757 59.9223 79.1012 59.8516 79.4455C60.0174 79.1467 60.2513 78.8802 60.5391 78.6621C60.8268 78.4441 61.1625 78.2791 61.5257 78.177C61.889 78.0749 62.2723 78.038 62.6525 78.0684C63.0327 78.0987 63.4019 78.1958 63.7376 78.3537C64.4939 78.7959 65.039 79.4621 65.271 80.2281C65.5006 80.9923 65.6239 81.7776 65.6382 82.5674C66.6154 80.7943 66.825 78.7747 66.2288 76.8783V76.8783Z" fill="#CCCCCC"/>
<path d="M106.907 100.249V100.26C106.887 100.218 106.873 100.173 106.867 100.127L106.907 100.249Z" fill="#F2F2F2"/>
<path d="M106.909 100.26C106.942 100.382 106.982 100.504 107.022 100.62C106.967 100.633 106.912 100.642 106.855 100.649L106.909 100.26Z" fill="#F2F2F2"/>
<path d="M155.451 103.873C155.45 112.029 151.815 119.869 145.308 125.747C138.801 131.626 129.928 135.088 120.549 135.407V72.3389C129.929 72.6564 138.803 76.1177 145.31 81.9968C151.817 87.8759 155.452 95.7161 155.451 103.873Z" fill="#70EC44"/>
<path d="M106.867 100.127L106.907 100.249V100.26C106.887 100.218 106.873 100.173 106.867 100.127V100.127Z" fill="#FFB6B6"/>
<path d="M129.718 97.7086C129.72 98.5417 129.601 99.3717 129.365 100.179V100.185C128.831 102.006 127.723 103.661 126.166 104.964C124.608 106.267 122.663 107.167 120.549 107.561V87.8506C123.144 88.3353 125.469 89.5781 127.138 91.3719C128.806 93.1657 129.717 95.4022 129.718 97.7086Z" fill="#A0616A"/>
<path d="M146.375 124.992C143.133 128.206 139.17 130.812 134.73 132.65C130.289 134.489 125.464 135.522 120.549 135.685V111.985C123.385 111.869 125.954 111.748 125.868 111.661L133.582 115.691L133.575 115.662L136.605 115.824C138.3 115.912 139.935 116.399 141.334 117.234C142.733 118.069 143.844 119.219 144.547 120.562L146.302 124.812L146.375 124.992Z" fill="#3F3D56"/>
<path d="M106.909 100.26C106.942 100.382 106.982 100.504 107.022 100.62C106.967 100.633 106.912 100.642 106.855 100.649L106.909 100.26Z" fill="#2F2E41"/>
<path d="M129.398 100.666C129.385 100.504 129.378 100.347 129.365 100.185V100.179C129.326 99.0638 129.138 97.9565 128.804 96.8793C128.37 95.6616 127.556 94.496 126.321 93.8466C124.473 92.8724 121.877 93.4 120.549 94.8614V82.7012C121.806 82.9865 123.002 83.4446 124.092 84.0581C127.147 85.7793 129.373 88.4106 130.352 91.4574C131.316 94.527 130.977 97.7955 129.398 100.666Z" fill="#2F2E41"/>
<path d="M120.049 202C119.934 202.005 119.821 201.97 119.735 201.903C119.65 201.836 119.598 201.742 119.592 201.642V0.358145C119.604 0.259878 119.657 0.16889 119.741 0.102748C119.826 0.0366061 119.935 0 120.049 0C120.163 0 120.273 0.0366061 120.357 0.102748C120.441 0.16889 120.495 0.259878 120.506 0.358145V201.642C120.5 201.742 120.449 201.836 120.363 201.903C120.277 201.97 120.164 202.005 120.049 202V202Z" fill="#2F2E41"/>
<path d="M165.621 94.0863L152.985 91.3928L136.137 78.9468L138.942 75.0767L154.204 83.525C154.204 83.525 164.302 85.7527 167.755 88.3213L165.621 94.0863Z" fill="#FFB6B6"/>
<path d="M136.723 79.1821C138.423 79.1821 139.802 77.9845 139.802 76.5071C139.802 75.0297 138.423 73.832 136.723 73.832C135.023 73.832 133.645 75.0297 133.645 76.5071C133.645 77.9845 135.023 79.1821 136.723 79.1821Z" fill="#FFB6B6"/>
<path d="M166.214 86.884L154.495 82.7319L148.863 88.5434L153.047 91.5389L164.454 94.1148L164.462 94.1408C165.263 96.7064 170.414 98.4484 174.594 99.4578C175.973 99.7897 177.445 99.6542 178.714 99.0789C179.982 98.5037 180.951 97.5314 181.426 96.3587V96.3587C181.77 95.4916 181.827 94.5583 181.593 93.6642C181.358 92.7702 180.84 91.951 180.097 91.2994L176.301 87.9918L166.214 86.884Z" fill="#E6E6E6"/>
<path d="M133.812 191.238L129.705 189.88L133.778 175.47L139.839 177.474L133.812 191.238Z" fill="#FFB6B6"/>
<path d="M135.371 190.42L134.215 190.037L130.4 186.951L127.283 187.746L127.282 187.745C125.915 187.294 124.398 187.332 123.064 187.852C121.729 188.373 120.687 189.332 120.167 190.52L120.104 190.666L133.346 195.044L135.371 190.42Z" fill="#2F2E41"/>
<path d="M175.328 197.221L170.934 197.221L168.844 182.494L175.329 182.494L175.328 197.221Z" fill="#FFB6B6"/>
<path d="M176.45 195.974L175.213 195.974L170.384 194.268L167.796 195.974H167.796C166.333 195.974 164.931 196.479 163.897 197.378C162.862 198.276 162.281 199.495 162.281 200.766V200.922L176.45 200.922L176.45 195.974Z" fill="#2F2E41"/>
<path d="M182.028 133.786C182.028 133.786 182.541 139.136 181.258 144.263C180.454 147.477 180.154 154.35 180.042 159.032C179.976 161.819 178.533 162.263 178.533 162.263L179.49 168.673L177.154 191.968L168.688 191.299L166.379 144.263L151.163 154.718L151.585 155.941C151.79 156.535 150.276 156.459 149.67 156.788L148.178 159.798C148.207 160.295 148.06 160.788 147.757 161.211C147.453 161.634 147.008 161.966 146.481 162.162L138.552 182.659L132.369 179.436L134.43 160.812L137.315 152.216L148.934 139.804L149.19 136.238L150.345 136.279L150.933 134.789L152.012 132.225L182.028 133.786Z" fill="#2F2E41"/>
<path d="M182.472 134.91L182.517 134.854C184.959 131.883 181.287 124.745 180.733 123.71C181.39 123.525 181.954 123.147 182.327 122.641C182.7 122.135 182.86 121.532 182.779 120.935L182.54 119.172L182.291 117.442L184.075 115.892L184.08 115.853L185.106 108.051L186.598 102.869C187.16 100.91 187.112 98.8563 186.459 96.9187C185.806 94.9811 184.571 93.2294 182.882 91.8434L179.433 89.0178L175.241 83.6289H168.482L166.165 87.4327C163.918 87.8839 161.924 89.0058 160.532 90.6029C159.139 92.2 158.435 94.171 158.542 96.1727L159.068 106.149L157.011 118.57L157.01 120.818L155.939 121.852C155.553 122.225 155.273 122.671 155.121 123.154C154.968 123.637 154.948 124.145 155.061 124.636L155.201 125.248C154.657 125.451 154.177 125.764 153.8 126.161C153.424 126.559 153.163 127.029 153.039 127.532L152.663 129.057C152.341 129.426 150.217 131.887 150.217 132.56C150.217 132.661 150.303 132.758 150.487 132.867C151.934 133.719 159.935 135.455 163.476 134.224C167.248 132.913 182.243 134.879 182.394 134.899L182.472 134.91Z" fill="#E6E6E6"/>
<path d="M170.989 81.8892C175.932 81.8892 179.94 78.4067 179.94 74.1108C179.94 69.815 175.932 66.3325 170.989 66.3325C166.045 66.3325 162.037 69.815 162.037 74.1108C162.037 78.4067 166.045 81.8892 170.989 81.8892Z" fill="#FFB6B6"/>
<path d="M168.07 108.279L161.851 118.21L143.707 129.194L140.115 125.85L153.407 115.18C153.407 115.18 158.46 107.264 162.199 105.017L168.07 108.279Z" fill="#FFB6B6"/>
<path d="M141.141 130.754C142.841 130.754 144.22 129.557 144.22 128.079C144.22 126.602 142.841 125.404 141.141 125.404C139.441 125.404 138.062 126.602 138.062 128.079C138.062 129.557 139.441 130.754 141.141 130.754Z" fill="#FFB6B6"/>
<path d="M167.51 109.604L171.42 101.448L170.006 96.9417C169.725 96.0578 169.164 95.2599 168.389 94.6382C167.613 94.0165 166.652 93.5958 165.616 93.4235V93.4235C164.209 93.1982 162.756 93.4456 161.551 94.1155C160.345 94.7855 159.478 95.8282 159.124 97.0326C158.053 100.686 157.23 105.436 159.393 107.316L159.415 107.335L152.979 114.629L162.459 119.285L167.51 109.604Z" fill="#E6E6E6"/>
<path d="M179.834 68.7504C179.106 67.898 178.06 67.292 177.259 66.49C176.856 66.0249 176.423 65.58 175.962 65.1575C174.995 64.4592 173.775 64.0806 172.518 64.0884C171.154 64.058 169.802 64.307 168.569 64.8152C167.337 65.3235 166.259 66.0767 165.424 67.014C164.773 66.6826 164.123 66.3512 163.472 66.0199C163.215 66.6076 162.958 67.1953 162.701 67.7831C162.491 67.6238 162.222 67.5345 161.942 67.5311C161.663 67.5277 161.391 67.6104 161.175 67.7644C160.959 67.9185 160.813 68.1341 160.762 68.3729C160.712 68.6117 160.76 68.8583 160.899 69.0691C160.744 68.6534 160.035 68.5653 159.644 68.8398C159.463 68.9922 159.328 69.1814 159.253 69.3904C159.177 69.5994 159.163 69.8214 159.212 70.0363C159.292 70.5117 159.534 70.9555 159.906 71.3105C160.279 71.6655 160.765 71.9155 161.303 72.0285C162.151 72.1928 163.139 72.0202 163.819 72.4919C164.363 72.8701 164.528 73.5587 165.084 73.9244C165.769 74.375 166.737 74.1666 167.588 74.2662C168.33 74.3768 168.998 74.7253 169.459 75.2427C169.92 75.7601 170.141 76.4089 170.078 77.0611C170.182 76.644 170.38 76.2489 170.661 75.8985C170.804 75.7253 171.003 75.592 171.232 75.5148C171.461 75.4376 171.71 75.4198 171.951 75.4635C172.726 75.6655 172.853 76.584 172.665 77.2683C172.167 79.083 170.278 82.0163 170.278 82.0163C172.731 82.8571 175.653 82.0621 177.546 80.4666C179.438 78.8712 180.424 76.6121 180.853 74.3514C181.217 72.4343 181.166 70.3109 179.834 68.7504Z" fill="#2F2E41"/>
<path d="M260.864 201.216C260.864 201.272 260.851 201.327 260.827 201.379C260.802 201.431 260.766 201.478 260.72 201.518C260.675 201.557 260.621 201.589 260.561 201.61C260.501 201.631 260.438 201.642 260.373 201.642H144.844C144.714 201.642 144.589 201.597 144.497 201.517C144.405 201.437 144.354 201.329 144.354 201.216C144.354 201.103 144.405 200.994 144.497 200.914C144.589 200.834 144.714 200.79 144.844 200.79H260.373C260.438 200.789 260.501 200.8 260.561 200.822C260.621 200.843 260.675 200.874 260.72 200.914C260.766 200.954 260.802 201.001 260.827 201.052C260.851 201.104 260.864 201.16 260.864 201.216V201.216Z" fill="#CCCCCC"/>
</g>
<defs>
<clipPath id="clip0_38_249">
<rect width="266" height="202" fill="white"/>
</clipPath>
</defs>
</svg>
