<svg width="234" height="156" viewBox="0 0 234 156" fill="none" xmlns="http://www.w3.org/2000/svg">
<g clip-path="url(#clip0_60_292)">
<path d="M211.17 27.5752H205.617C205.872 28.1998 205.97 28.8774 205.901 29.5484C205.832 30.2194 205.598 30.8632 205.221 31.4231C204.844 31.9829 204.335 32.4416 203.738 32.7588C203.141 33.076 202.475 33.242 201.799 33.242H177.429C176.752 33.242 176.087 33.076 175.49 32.7588C174.893 32.4416 174.384 31.9829 174.007 31.4231C173.63 30.8632 173.396 30.2194 173.327 29.5484C173.258 28.8774 173.356 28.1998 173.611 27.5752H168.425C166.123 27.5752 163.916 28.4874 162.288 30.111C160.66 31.7347 159.746 33.9368 159.746 36.2331V145.964C159.746 148.26 160.66 150.462 162.288 152.086C163.916 153.71 166.123 154.622 168.425 154.622H211.17C213.471 154.622 215.679 153.71 217.306 152.086C218.934 150.462 219.848 148.26 219.848 145.964V36.233C219.848 33.9368 218.934 31.7347 217.306 30.111C215.679 28.4874 213.471 27.5752 211.17 27.5752Z" fill="#F0F0F0"/>
<path d="M211.22 69.5985C210.135 66.4901 208.384 63.6551 206.088 61.2913C203.792 58.9275 201.007 57.0917 197.928 55.9119C194.848 54.7322 191.547 54.2369 188.255 54.4605C184.964 54.6842 181.761 55.6214 178.869 57.2069C175.978 58.7924 173.469 60.988 171.515 63.6405C169.562 66.2931 168.212 69.3387 167.56 72.5651C166.908 75.7915 166.969 79.1209 167.74 82.3213C168.51 85.5216 169.971 88.5159 172.02 91.0951C172.224 91.3511 172.436 91.607 172.651 91.8548C172.668 91.871 172.68 91.8872 172.696 91.9035C173.227 92.5136 173.791 93.094 174.386 93.6421C174.541 93.7843 174.704 93.9305 174.866 94.0686C175.176 94.3448 175.494 94.6088 175.823 94.8607C175.954 94.9622 176.08 95.0638 176.214 95.1613C176.735 95.5553 177.277 95.9209 177.835 96.2702L177.859 96.2824C178.018 96.38 178.181 96.4774 178.344 96.5709C178.637 96.7455 178.938 96.9121 179.239 97.0705L179.431 97.168C179.871 97.3955 180.319 97.6108 180.779 97.8098C180.872 97.8504 180.974 97.891 181.068 97.9316C181.076 97.9357 181.08 97.9357 181.088 97.9398C181.304 98.0292 181.52 98.1144 181.74 98.1957C182.462 98.4709 183.199 98.7068 183.947 98.9025C185.855 99.41 187.822 99.6667 189.798 99.6662C190.519 99.6662 191.231 99.6337 191.936 99.5646C193.545 99.4164 195.134 99.0964 196.675 98.61C196.679 98.61 196.683 98.606 196.687 98.606C197.661 98.2966 198.612 97.9206 199.534 97.4808C199.538 97.4767 199.546 97.4767 199.55 97.4727C199.757 97.3751 199.957 97.2696 200.161 97.168C200.193 97.1517 200.226 97.1355 200.258 97.1192C200.421 97.0339 200.584 96.9486 200.747 96.8593C201.154 96.6358 201.553 96.4003 201.948 96.1484C202.058 96.0834 202.164 96.0144 202.274 95.9412C202.429 95.8397 202.583 95.7341 202.734 95.6244C202.933 95.4863 203.133 95.3441 203.328 95.1979C203.389 95.1532 203.455 95.1085 203.516 95.0598C207.33 92.1712 210.131 88.1518 211.514 83.5779C212.898 79.0039 212.795 74.1103 211.22 69.5985L211.22 69.5985Z" fill="white"/>
<path d="M201.553 94.1175C199.624 93.1033 197.61 92.258 195.535 91.5909L195.27 88.6702L184.537 87.5166L183.173 91.2497L179.321 92.6917C179.183 92.7439 179.052 92.812 178.93 92.8948H178.926C178.711 93.0398 178.528 93.2269 178.388 93.4448C178.248 93.6627 178.154 93.9068 178.111 94.1622C178.07 94.4161 178.08 94.6757 178.14 94.9259L178.344 95.7586C178.637 95.9333 178.938 96.0998 179.239 96.2582L179.431 96.3557C179.871 96.5832 180.319 96.7985 180.779 96.9975C180.872 97.0382 180.974 97.0788 181.068 97.1194C181.076 97.1235 181.08 97.1235 181.088 97.1275C181.304 97.2169 181.52 97.3022 181.739 97.3834C182.462 97.6586 183.198 97.8946 183.946 98.0902C185.855 98.5978 187.822 98.8545 189.798 98.8539C190.518 98.8539 191.231 98.8214 191.935 98.7524C193.545 98.6041 195.134 98.2841 196.675 97.7978C196.679 97.7978 196.683 97.7937 196.687 97.7937C197.661 97.4843 198.612 97.1083 199.533 96.6685C199.537 96.6645 199.546 96.6644 199.55 96.6604C199.757 96.5629 199.957 96.4573 200.16 96.3558C200.193 96.3395 200.225 96.3232 200.258 96.307C200.421 96.2217 200.584 96.1364 200.747 96.047C201.154 95.8236 201.553 95.588 201.948 95.3362C202.058 95.2712 202.164 95.2021 202.274 95.129C202.428 95.0274 202.583 94.9218 202.734 94.8121C202.355 94.5684 201.96 94.3369 201.553 94.1175Z" fill="#E4E4E4"/>
<path d="M181.41 95.9169L180.738 92.8906H178.983C178.965 92.8909 178.948 92.8922 178.93 92.8947H178.926C178.295 92.9479 177.688 93.1574 177.159 93.504C176.8 93.7325 176.481 94.0179 176.214 94.3489C176.735 94.743 177.277 95.1086 177.835 95.4579L177.859 95.4701C178.018 95.5676 178.181 95.6651 178.344 95.7585C178.637 95.9332 178.938 96.0997 179.24 96.2581L179.431 96.3556C179.871 96.5831 180.319 96.7984 180.779 96.9974C180.873 97.0381 180.974 97.0787 181.068 97.1193C181.076 97.1233 181.08 97.1233 181.088 97.1274C181.304 97.2168 181.52 97.3021 181.74 97.3833L181.41 95.9169Z" fill="#E4E4E4"/>
<path d="M189.483 85.6696C193.752 85.6696 197.213 82.2169 197.213 77.9578C197.213 73.6988 193.752 70.2461 189.483 70.2461C185.213 70.2461 181.752 73.6988 181.752 77.9578C181.752 82.2169 185.213 85.6696 189.483 85.6696Z" fill="#A0616A"/>
<path d="M211.22 69.5985C210.135 66.4901 208.384 63.6551 206.088 61.2913C203.792 58.9275 201.007 57.0917 197.928 55.9119C194.848 54.7322 191.547 54.2369 188.255 54.4605C184.964 54.6842 181.761 55.6214 178.869 57.2069C175.978 58.7924 173.469 60.988 171.515 63.6405C169.562 66.2931 168.212 69.3387 167.56 72.5651C166.908 75.7915 166.969 79.1209 167.74 82.3213C168.51 85.5216 169.971 88.5159 172.02 91.0951C172.224 91.3511 172.436 91.607 172.651 91.8548C172.668 91.871 172.68 91.8872 172.696 91.9035C173.227 92.5136 173.791 93.094 174.386 93.6421C174.541 93.7843 174.704 93.9305 174.866 94.0686C175.176 94.3448 175.494 94.6088 175.823 94.8607C175.954 94.9622 176.08 95.0638 176.214 95.1613C176.735 95.5553 177.277 95.9209 177.835 96.2702L177.859 96.2824C178.018 96.38 178.181 96.4774 178.344 96.5709C178.637 96.7455 178.938 96.9121 179.239 97.0705L179.431 97.168C179.871 97.3955 180.319 97.6108 180.779 97.8098C180.872 97.8504 180.974 97.891 181.068 97.9316C181.076 97.9357 181.08 97.9357 181.088 97.9398C181.304 98.0292 181.52 98.1144 181.74 98.1957C182.462 98.4709 183.199 98.7068 183.947 98.9025C185.855 99.41 187.822 99.6667 189.798 99.6662C190.519 99.6662 191.231 99.6337 191.936 99.5646C193.545 99.4164 195.134 99.0964 196.675 98.61C196.679 98.61 196.683 98.606 196.687 98.606C197.661 98.2966 198.612 97.9206 199.534 97.4808C199.538 97.4767 199.546 97.4767 199.55 97.4727C199.757 97.3751 199.957 97.2696 200.161 97.168C200.193 97.1517 200.226 97.1355 200.258 97.1192C200.421 97.0339 200.584 96.9486 200.747 96.8593C201.154 96.6358 201.553 96.4003 201.948 96.1484C202.058 96.0834 202.164 96.0144 202.274 95.9412C202.429 95.8397 202.583 95.7341 202.734 95.6244C202.933 95.4863 203.133 95.3441 203.328 95.1979C203.389 95.1532 203.455 95.1085 203.516 95.0598C207.33 92.1712 210.131 88.1518 211.514 83.5779C212.898 79.0039 212.795 74.1103 211.22 69.5985L211.22 69.5985ZM202.767 94.0726C202.632 94.1783 202.494 94.2798 202.355 94.3733C202.221 94.4748 202.087 94.5723 201.948 94.6616C201.83 94.747 201.712 94.8282 201.59 94.9054L201.553 94.9298C201.464 94.9907 201.374 95.0476 201.284 95.1044C200.946 95.3156 200.604 95.5187 200.258 95.7137C200.222 95.7341 200.185 95.7544 200.148 95.7747C199.994 95.86 199.839 95.9412 199.684 96.0225C199.664 96.0347 199.639 96.0428 199.619 96.055L199.595 96.0671C199.399 96.1687 199.2 96.2662 199 96.3596C198.23 96.7295 197.437 97.0497 196.626 97.3183C196.52 97.3548 196.415 97.3914 196.309 97.4239C194.85 97.8867 193.346 98.1918 191.822 98.3338C191.154 98.3947 190.478 98.4272 189.798 98.4272C187.929 98.431 186.069 98.1879 184.264 97.7041C183.338 97.463 182.431 97.1562 181.548 96.7861C181.503 96.7658 181.455 96.7496 181.41 96.7293C181.361 96.7089 181.316 96.6927 181.271 96.6724C181.223 96.6521 181.178 96.6318 181.129 96.6074C180.746 96.4408 180.367 96.258 179.997 96.0671L179.818 95.9737C179.366 95.7381 178.922 95.4863 178.49 95.2181C178.364 95.141 178.234 95.0597 178.112 94.9744C178.079 94.9541 178.051 94.9338 178.018 94.9135C177.729 94.7226 177.44 94.5235 177.159 94.3164C176.968 94.1742 176.776 94.032 176.589 93.8858C176.275 93.6502 175.974 93.3983 175.681 93.1384C175.526 93.0084 175.376 92.8662 175.229 92.7322C174.652 92.2003 174.105 91.6362 173.592 91.0423C173.421 90.8473 173.254 90.6524 173.095 90.4492C173.059 90.4091 173.025 90.367 172.993 90.3233C170.348 86.9929 168.757 82.9518 168.422 78.7154C168.088 74.4791 169.027 70.2395 171.118 66.5373C173.209 62.8351 176.358 59.8381 180.163 57.9286C183.968 56.019 188.258 55.2834 192.484 55.8156C196.71 56.3478 200.681 58.1236 203.891 60.9166C207.102 63.7097 209.405 67.3933 210.508 71.4977C211.612 75.6022 211.464 79.9414 210.086 83.962C208.707 87.9827 206.159 91.5025 202.767 94.0726H202.767Z" fill="#E4E4E4"/>
<path d="M205.493 117.407H174.169C173.172 117.406 172.217 117.011 171.513 116.308C170.809 115.604 170.413 114.651 170.413 113.657C170.413 112.663 170.809 111.71 171.513 111.007C172.217 110.304 173.172 109.908 174.169 109.907H205.493C206.49 109.907 207.446 110.302 208.151 111.006C208.855 111.709 209.252 112.663 209.252 113.657C209.252 114.652 208.855 115.606 208.151 116.309C207.446 117.012 206.49 117.407 205.493 117.407Z" fill="white"/>
<path d="M205.493 128.97H174.169C173.172 128.969 172.217 128.573 171.513 127.87C170.809 127.167 170.413 126.214 170.413 125.22C170.413 124.226 170.809 123.272 171.513 122.569C172.217 121.866 173.172 121.471 174.169 121.47H205.493C206.49 121.47 207.446 121.865 208.151 122.568C208.855 123.271 209.252 124.225 209.252 125.22C209.252 126.214 208.855 127.168 208.151 127.871C207.446 128.574 206.49 128.97 205.493 128.97Z" fill="white"/>
<path d="M71.9255 28.2168H66.3726C66.6279 28.8414 66.7254 29.519 66.6564 30.19C66.5874 30.861 66.3541 31.5048 65.9769 32.0647C65.5998 32.6245 65.0904 33.0832 64.4937 33.4004C63.897 33.7176 63.2312 33.8836 62.5551 33.8836H38.1844C37.5083 33.8836 36.8425 33.7176 36.2458 33.4004C35.6491 33.0833 35.1397 32.6245 34.7626 32.0647C34.3854 31.5048 34.1521 30.861 34.0831 30.19C34.0141 29.519 34.1116 28.8414 34.3669 28.2168H29.1805C26.8788 28.2168 24.6714 29.129 23.0438 30.7526C21.4163 32.3763 20.502 34.5785 20.502 36.8747V146.606C20.502 148.902 21.4163 151.104 23.0438 152.728C24.6714 154.351 26.8788 155.263 29.1805 155.263H71.9255C74.2272 155.263 76.4346 154.351 78.0621 152.728C79.6897 151.104 80.6041 148.902 80.6041 146.606V36.8746C80.604 34.5784 79.6897 32.3763 78.0621 30.7526C76.4346 29.129 74.2272 28.2168 71.9255 28.2168Z" fill="#F0F0F0"/>
<path d="M71.9754 70.2401C70.8908 67.1317 69.1396 64.2967 66.8439 61.9329C64.5482 59.5691 61.7633 57.7333 58.6834 56.5535C55.6034 55.3738 52.3025 54.8785 49.011 55.1021C45.7194 55.3258 42.5164 56.263 39.6252 57.8485C36.734 59.434 34.2244 61.6296 32.2712 64.2821C30.318 66.9347 28.9682 69.9803 28.3161 73.2067C27.6641 76.4331 27.7253 79.7625 28.4956 82.9629C29.2658 86.1632 30.7266 89.1575 32.776 91.7367C32.9796 91.9926 33.1914 92.2486 33.4073 92.4963C33.4236 92.5126 33.4357 92.5288 33.452 92.5451C33.9828 93.1552 34.5469 93.7356 35.1418 94.2837C35.2966 94.4258 35.4595 94.5721 35.6223 94.7102C35.9317 94.9864 36.2494 95.2504 36.5792 95.5023C36.7094 95.6038 36.8357 95.7054 36.9701 95.8029C37.4912 96.1969 38.0328 96.5625 38.5907 96.9118L38.6151 96.924C38.7738 97.0215 38.9368 97.119 39.0996 97.2125C39.3927 97.3871 39.6941 97.5537 39.9953 97.7121L40.1868 97.8096C40.6266 98.0371 41.0745 98.2524 41.5346 98.4514C41.6282 98.492 41.73 98.5326 41.8237 98.5732C41.8318 98.5773 41.8358 98.5773 41.8439 98.5814C42.0599 98.6708 42.2756 98.756 42.4955 98.8373C43.2178 99.1125 43.9545 99.3484 44.7024 99.5441C46.6112 100.052 48.5782 100.308 50.5536 100.308C51.2744 100.308 51.9869 100.275 52.6913 100.206C54.3009 100.058 55.8899 99.738 57.431 99.2516C57.435 99.2516 57.4391 99.2476 57.4431 99.2476C58.4167 98.9382 59.3677 98.5622 60.2894 98.1224C60.2934 98.1183 60.3015 98.1183 60.3057 98.1143C60.5133 98.0167 60.7129 97.9111 60.9165 97.8096C60.9491 97.7933 60.9815 97.7771 61.0141 97.7608C61.1769 97.6755 61.34 97.5902 61.5028 97.5009C61.91 97.2774 62.309 97.0419 62.7039 96.79C62.8138 96.725 62.9198 96.656 63.0297 96.5828C63.1844 96.4813 63.3391 96.3757 63.4898 96.266C63.6892 96.1279 63.8888 95.9857 64.0843 95.8395C64.1453 95.7948 64.2105 95.7501 64.2716 95.7014C68.0863 92.8128 70.8864 88.7934 72.2703 84.2195C73.6543 79.6455 73.551 74.7519 71.9754 70.2401L71.9754 70.2401Z" fill="white"/>
<path d="M66.248 118.049H34.9239C33.927 118.049 32.9709 117.654 32.266 116.95C31.5611 116.247 31.165 115.293 31.165 114.299C31.165 113.304 31.5611 112.35 32.266 111.647C32.9709 110.944 33.927 110.549 34.9239 110.549H66.248C67.2444 110.55 68.1996 110.945 68.9037 111.648C69.6079 112.352 70.0035 113.305 70.0035 114.299C70.0035 115.293 69.6079 116.246 68.9037 116.949C68.1996 117.652 67.2444 118.048 66.248 118.049Z" fill="white"/>
<path d="M66.2481 129.61H34.924C34.4301 129.611 33.9409 129.514 33.4845 129.326C33.028 129.138 32.6132 128.861 32.2638 128.513C31.9144 128.165 31.6372 127.751 31.4481 127.296C31.259 126.841 31.1616 126.353 31.1616 125.86C31.1616 125.368 31.259 124.88 31.4481 124.424C31.6372 123.969 31.9144 123.556 32.2638 123.207C32.6132 122.859 33.028 122.583 33.4845 122.395C33.9409 122.207 34.4301 122.11 34.924 122.11H66.2481C67.245 122.11 68.2011 122.505 68.9061 123.209C69.611 123.912 70.007 124.866 70.007 125.86C70.007 126.855 69.611 127.809 68.9061 128.512C68.2011 129.215 67.245 129.61 66.2481 129.61Z" fill="white"/>
<path d="M42.5604 82.973L43.8778 87.5259L60.7142 87.2296L60.5666 78.8875C60.4498 72.2844 55.7721 66.5894 49.1533 66.7059C42.5346 66.8223 38.326 72.4046 38.4428 79.0077L39.4043 87.6047L42.1494 87.5564L42.5604 82.973Z" fill="#2F2E41"/>
<path d="M49.9056 86.156C54.0776 86.156 57.4596 82.782 57.4596 78.62C57.4596 74.458 54.0776 71.084 49.9056 71.084C45.7336 71.084 42.3516 74.458 42.3516 78.62C42.3516 82.782 45.7336 86.156 49.9056 86.156Z" fill="#FFB6B6"/>
<path d="M64.9416 90.3729L64.7704 93.5427C61.145 97.3047 56.1995 99.5192 50.9723 99.7212C45.7451 99.9232 40.6428 98.097 36.7365 94.626C36.5619 94.4727 36.3907 94.3125 36.2231 94.1488C37.2706 93.1108 40.1618 90.5471 43.3705 90.3102L57.8397 89.4011C57.8397 89.4011 63.3214 88.7602 64.9416 90.3729Z" fill="#E4E4E4"/>
<path d="M58.1753 73.3287C58.1653 72.7516 57.9842 72.1905 57.655 71.7159C57.6202 71.6671 57.5852 71.6219 57.5503 71.5766C57.2704 71.2202 56.9117 70.9333 56.5022 70.7381C56.0928 70.5429 55.6436 70.4448 55.1899 70.4515L49.7605 70.549L44.3346 70.6431C43.5572 70.6586 42.8177 70.9807 42.2779 71.5388C41.738 72.097 41.4418 72.8457 41.454 73.6213L42.7459 76.2163L43.4896 77.7071L43.6118 77.6375C48.308 75.0041 50.2283 74.9693 56.4435 77.418L56.5691 77.4668L57.0615 76.2093L58.1787 73.3565L58.1753 73.3287Z" fill="#2F2E41"/>
<path d="M66.6558 92.5045C66.2193 93.0618 65.8253 93.0517 65.333 93.5602C64.0901 94.8525 62.1066 95.9592 60.5564 96.8823L60.2178 90.8284L64.9418 90.3721C65.7281 90.8805 66.3292 91.6283 66.6558 92.5045Z" fill="#E4E4E4"/>
<path d="M71.9754 70.2401C70.8908 67.1317 69.1396 64.2967 66.8439 61.9329C64.5482 59.5691 61.7633 57.7333 58.6834 56.5535C55.6034 55.3738 52.3025 54.8785 49.011 55.1021C45.7194 55.3258 42.5164 56.263 39.6252 57.8485C36.734 59.434 34.2244 61.6296 32.2712 64.2821C30.318 66.9347 28.9682 69.9803 28.3161 73.2067C27.6641 76.4331 27.7253 79.7625 28.4956 82.9629C29.2658 86.1632 30.7266 89.1575 32.776 91.7367C32.9796 91.9926 33.1914 92.2486 33.4073 92.4963C33.4236 92.5126 33.4357 92.5288 33.452 92.5451C33.9828 93.1552 34.5469 93.7356 35.1418 94.2837C35.2966 94.4258 35.4595 94.5721 35.6223 94.7102C35.9317 94.9864 36.2494 95.2504 36.5792 95.5023C36.7094 95.6038 36.8357 95.7054 36.9701 95.8029C37.4912 96.1969 38.0328 96.5625 38.5907 96.9118L38.6151 96.924C38.7738 97.0215 38.9368 97.119 39.0996 97.2125C39.3927 97.3871 39.6941 97.5537 39.9953 97.7121L40.1868 97.8096C40.6266 98.0371 41.0745 98.2524 41.5346 98.4514C41.6282 98.492 41.73 98.5326 41.8237 98.5732C41.8318 98.5773 41.8358 98.5773 41.8439 98.5814C42.0599 98.6708 42.2756 98.756 42.4955 98.8373C43.2178 99.1125 43.9545 99.3484 44.7024 99.5441C46.6112 100.052 48.5782 100.308 50.5536 100.308C51.2744 100.308 51.9869 100.275 52.6913 100.206C54.3009 100.058 55.8899 99.738 57.431 99.2516C57.435 99.2516 57.4391 99.2476 57.4431 99.2476C58.4167 98.9382 59.3677 98.5622 60.2894 98.1224C60.2934 98.1183 60.3015 98.1183 60.3057 98.1143C60.5133 98.0167 60.7129 97.9111 60.9165 97.8096C60.9491 97.7933 60.9815 97.7771 61.0141 97.7608C61.1769 97.6755 61.34 97.5902 61.5028 97.5009C61.91 97.2774 62.309 97.0419 62.7039 96.79C62.8138 96.725 62.9198 96.656 63.0297 96.5828C63.1844 96.4813 63.3391 96.3757 63.4898 96.266C63.6892 96.1279 63.8888 95.9857 64.0843 95.8395C64.1453 95.7948 64.2105 95.7501 64.2716 95.7014C68.0863 92.8128 70.8864 88.7934 72.2703 84.2195C73.6543 79.6455 73.551 74.7519 71.9754 70.2401L71.9754 70.2401ZM63.5224 94.7142C63.388 94.8199 63.2496 94.9214 63.1111 95.0149C62.9767 95.1164 62.8425 95.2139 62.7039 95.3032C62.5858 95.3886 62.4677 95.4698 62.3456 95.547L62.309 95.5714C62.2194 95.6323 62.1299 95.6891 62.0402 95.746C61.7022 95.9572 61.3602 96.1603 61.0141 96.3553C60.9775 96.3756 60.9408 96.396 60.9042 96.4163C60.7495 96.5016 60.5948 96.5828 60.4401 96.6641C60.4197 96.6763 60.3952 96.6844 60.3749 96.6966L60.3505 96.7087C60.155 96.8103 59.9554 96.9078 59.756 97.0012C58.9861 97.3711 58.1931 97.6913 57.3821 97.9599C57.2761 97.9964 57.1704 98.033 57.0646 98.0654C55.6059 98.5283 54.1015 98.8334 52.5774 98.9754C51.9096 99.0363 51.2336 99.0688 50.5537 99.0688C48.6852 99.0726 46.8245 98.8295 45.0201 98.3457C44.0941 98.1046 43.1865 97.7978 42.3042 97.4277C42.2593 97.4074 42.2104 97.3912 42.1657 97.3708C42.117 97.3505 42.072 97.3343 42.0273 97.314C41.9784 97.2937 41.9337 97.2734 41.8847 97.249C41.502 97.0824 41.1233 96.8996 40.7529 96.7087L40.5737 96.6153C40.1216 96.3797 39.6778 96.1278 39.2462 95.8597C39.12 95.7826 38.9897 95.7013 38.8675 95.616C38.8351 95.5957 38.8064 95.5754 38.7738 95.5551C38.4847 95.3642 38.1956 95.1651 37.9147 94.958C37.7235 94.8158 37.532 94.6736 37.3447 94.5274C37.0312 94.2918 36.7298 94.0399 36.4367 93.78C36.282 93.65 36.1313 93.5078 35.9848 93.3737C35.4074 92.8419 34.8609 92.2778 34.3479 91.6839C34.1769 91.4889 34.0099 91.2939 33.851 91.0908C33.8149 91.0507 33.781 91.0086 33.7492 90.9649C31.1037 87.6345 29.5124 83.5934 29.1783 79.357C28.8442 75.1207 29.7825 70.8811 31.8736 67.1789C33.9646 63.4767 37.1135 60.4797 40.9188 58.5702C44.7241 56.6606 49.0133 55.925 53.2394 56.4572C57.4654 56.9894 61.4369 58.7652 64.6471 61.5582C67.8574 64.3513 70.161 68.0349 71.2643 72.1393C72.3675 76.2438 72.2203 80.583 70.8415 84.6036C69.4626 88.6243 66.9146 92.1441 63.5224 94.7142Z" fill="#E4E4E4"/>
<path d="M139.125 88.9374C139.444 89.0013 139.772 88.9948 140.088 88.9182C140.404 88.8416 140.699 88.6969 140.953 88.4943C141.206 88.2916 141.413 88.0359 141.556 87.7452C141.7 87.4545 141.779 87.1359 141.786 86.8118L158.582 71.0406L154.803 68.0332L139.452 84.5212C138.906 84.5454 138.387 84.7688 137.995 85.149C137.602 85.5292 137.363 86.0399 137.322 86.5843C137.282 87.1286 137.443 87.6688 137.776 88.1025C138.108 88.5362 138.588 88.8333 139.125 88.9374H139.125Z" fill="#FFB7B7"/>
<path d="M156.202 73.5901L152.934 69.7698C152.841 69.6611 152.773 69.5337 152.734 69.3962C152.695 69.2588 152.686 69.1145 152.707 68.9733C152.729 68.832 152.781 68.6971 152.86 68.5778C152.939 68.4584 153.042 68.3574 153.164 68.2815L157.418 65.6248C157.978 65.1532 158.703 64.9224 159.433 64.9832C160.163 65.0439 160.84 65.3912 161.314 65.9488C161.788 66.5065 162.021 67.2289 161.962 67.9578C161.903 68.6866 161.557 69.3623 160.999 69.8367L157.711 73.5983C157.617 73.706 157.501 73.7922 157.37 73.8509C157.24 73.9097 157.098 73.9397 156.955 73.939C156.811 73.9382 156.67 73.9066 156.54 73.8464C156.41 73.7862 156.295 73.6988 156.202 73.5901Z" fill="#6C63FF"/>
<path d="M147.415 151.413L143.308 151.412L141.354 135.61L147.415 135.611L147.415 151.413Z" fill="#FFB7B7"/>
<path d="M148.462 155.383L135.221 155.383V155.216C135.221 153.852 135.764 152.544 136.73 151.58C137.697 150.616 139.008 150.074 140.375 150.074H140.375L148.462 150.075L148.462 155.383Z" fill="#2F2E41"/>
<path d="M180.241 151.413L176.135 151.412L174.181 135.61L180.242 135.611L180.241 151.413Z" fill="#FFB7B7"/>
<path d="M181.289 155.383L168.047 155.383V155.216C168.047 153.852 168.59 152.544 169.557 151.58C170.524 150.616 171.834 150.074 173.201 150.074H173.202L181.289 150.075L181.289 155.383Z" fill="#2F2E41"/>
<path d="M169.195 81.9668L173.335 66.7095L167.965 63.6982H160.469L157.553 66.8099C157.553 66.8099 152.683 70.1908 153.861 73.9366L155.763 82.4686L152.855 96.0195L138.199 116.296L134.729 136.212L148.386 139.784L163.154 110.775L170.314 142.895L183.634 142.227L179.044 103.281C179.044 103.281 177.736 91.4165 170.877 84.0086L169.195 81.9668Z" fill="#2F2E41"/>
<path d="M177.744 95.4658C177.975 95.2376 178.152 94.9617 178.265 94.6575C178.377 94.3533 178.421 94.0282 178.394 93.7052C178.367 93.3821 178.269 93.0689 178.108 92.7876C177.946 92.5063 177.725 92.2638 177.459 92.0772L174.247 70.4609L169.637 71.9131L174.252 92.7318C173.967 93.198 173.864 93.7521 173.961 94.2892C174.059 94.8263 174.35 95.3091 174.78 95.6461C175.211 95.9831 175.75 96.1509 176.296 96.1177C176.843 96.0844 177.358 95.8525 177.744 95.4658V95.4658Z" fill="#FFB7B7"/>
<path d="M175.041 73.8536L170.04 74.4289C169.898 74.4453 169.754 74.4308 169.617 74.3866C169.481 74.3424 169.356 74.2694 169.251 74.1726C169.145 74.0758 169.062 73.9575 169.007 73.8258C168.951 73.694 168.925 73.5519 168.93 73.4091L169.092 68.4048C169.012 67.678 169.224 66.9491 169.682 66.3782C170.14 65.8072 170.806 65.4407 171.534 65.3591C172.263 65.2774 172.994 65.4873 173.567 65.9427C174.141 66.3981 174.51 67.0618 174.593 67.7883L175.89 72.6085C175.927 72.7465 175.934 72.8909 175.91 73.0318C175.886 73.1726 175.832 73.3067 175.751 73.4249C175.671 73.5431 175.566 73.6425 175.443 73.7165C175.32 73.7905 175.183 73.8373 175.041 73.8537V73.8536Z" fill="#6C63FF"/>
<path d="M155.834 59.3597V52.9312C155.835 50.6475 156.746 48.4578 158.365 46.8435C159.984 45.2291 162.18 44.3223 164.469 44.3223C166.758 44.3223 168.953 45.2291 170.573 46.8435C172.192 48.4578 173.102 50.6475 173.104 52.9312V59.3597C173.103 59.6665 172.981 59.9606 172.763 60.1775C172.546 60.3945 172.251 60.5165 171.944 60.5168H156.994C156.686 60.5165 156.392 60.3945 156.174 60.1775C155.957 59.9606 155.834 59.6665 155.834 59.3597Z" fill="#2F2E41"/>
<path d="M162.694 60.3666C166.191 60.3666 169.025 57.539 169.025 54.051C169.025 50.563 166.191 47.7354 162.694 47.7354C159.198 47.7354 156.364 50.563 156.364 54.051C156.364 57.539 159.198 60.3666 162.694 60.3666Z" fill="#FFB7B7"/>
<path d="M153.792 53.4451C153.794 51.6384 154.514 49.9064 155.794 48.6289C157.075 47.3515 158.811 46.6329 160.622 46.6309H161.911C163.722 46.6329 165.458 47.3515 166.739 48.629C168.019 49.9064 168.739 51.6385 168.741 53.4451V53.5736H166.018L165.089 50.9786L164.903 53.5736H163.495L163.027 52.2643L162.933 53.5736H153.792L153.792 53.4451Z" fill="#2F2E41"/>
<path d="M162.072 61.239C161.944 61.0663 161.867 60.861 161.851 60.6469C161.835 60.4328 161.88 60.2184 161.981 60.0286C163.347 57.4372 165.259 52.6487 162.721 49.6956L162.538 49.4834H169.907V60.5198L163.213 61.698C163.145 61.71 163.077 61.7161 163.008 61.7161C162.825 61.7161 162.645 61.6729 162.482 61.5899C162.319 61.507 162.179 61.3867 162.072 61.239Z" fill="#2F2E41"/>
<path d="M132.32 155.316H80.3874C77.4641 155.313 74.6615 154.153 72.5944 152.091C70.5273 150.029 69.3646 147.233 69.3613 144.316V10.9999C69.3646 8.08356 70.5273 5.28762 72.5944 3.22546C74.6615 1.16329 77.4641 0.00331341 80.3874 0H87.4061L87.1352 0.662617C86.8547 1.34839 86.7477 2.09245 86.8234 2.82923C86.8991 3.56602 87.1553 4.27292 87.5694 4.88766C87.9835 5.5024 88.5428 6.00611 89.198 6.35441C89.8532 6.70271 90.5842 6.88492 91.3266 6.88498H120.935C121.678 6.88492 122.409 6.7027 123.064 6.35441C123.719 6.00611 124.279 5.50241 124.693 4.88768C125.107 4.27295 125.363 3.56606 125.439 2.82927C125.515 2.09249 125.408 1.34842 125.127 0.662617L124.856 0H132.32C135.243 0.00330741 138.046 1.16328 140.113 3.22544C142.18 5.2876 143.343 8.08354 143.346 10.9999V144.316C143.343 147.233 142.18 150.029 140.113 152.091C138.046 154.153 135.243 155.313 132.32 155.316Z" fill="white"/>
<path d="M132.32 155.316H80.3874C77.4641 155.313 74.6615 154.153 72.5944 152.091C70.5273 150.029 69.3646 147.233 69.3613 144.316V10.9999C69.3646 8.08356 70.5273 5.28762 72.5944 3.22546C74.6615 1.16329 77.4641 0.00331341 80.3874 0H87.4061L87.1352 0.662617C86.8547 1.34839 86.7477 2.09245 86.8234 2.82923C86.8991 3.56602 87.1553 4.27292 87.5694 4.88766C87.9835 5.5024 88.5428 6.00611 89.198 6.35441C89.8532 6.70271 90.5842 6.88492 91.3266 6.88498H120.935C121.678 6.88492 122.409 6.7027 123.064 6.35441C123.719 6.00611 124.279 5.50241 124.693 4.88768C125.107 4.27295 125.363 3.56606 125.439 2.82927C125.515 2.09249 125.408 1.34842 125.127 0.662617L124.856 0H132.32C135.243 0.00330741 138.046 1.16328 140.113 3.22544C142.18 5.2876 143.343 8.08354 143.346 10.9999V144.316C143.343 147.233 142.18 150.029 140.113 152.091C138.046 154.153 135.243 155.313 132.32 155.316ZM80.3874 0.961984C77.7197 0.965021 75.1622 2.02356 73.2759 3.90538C71.3896 5.7872 70.3286 8.33861 70.3256 10.9999V144.316C70.3286 146.978 71.3896 149.529 73.2759 151.411C75.1622 153.293 77.7197 154.351 80.3874 154.354H132.32C134.988 154.351 137.545 153.293 139.432 151.411C141.318 149.529 142.379 146.978 142.382 144.316V10.9999C142.379 8.33859 141.318 5.78717 139.432 3.90536C137.545 2.02355 134.988 0.965013 132.32 0.961984H126.244C126.459 1.77323 126.486 2.6231 126.32 3.44601C126.154 4.26893 125.802 5.04289 125.289 5.70819C124.776 6.37349 124.116 6.91234 123.362 7.28317C122.607 7.654 121.777 7.84689 120.935 7.84696H91.3266C90.4854 7.84667 89.6554 7.65362 88.9008 7.28271C88.1462 6.9118 87.487 6.37294 86.9742 5.70768C86.4614 5.04242 86.1086 4.26854 85.943 3.44573C85.7774 2.62292 85.8034 1.77315 86.0191 0.961975L80.3874 0.961984Z" fill="#3F3D56"/>
<path d="M133.835 47.1604C132.518 43.3839 130.39 39.9396 127.601 37.0677C124.812 34.1958 121.428 31.9654 117.686 30.532C113.944 29.0987 109.934 28.4969 105.935 28.7686C101.936 29.0404 98.0442 30.1791 94.5316 32.1054C91.019 34.0316 87.9699 36.6991 85.5968 39.9218C83.2238 43.1445 81.584 46.8448 80.7917 50.7646C79.9995 54.6845 80.0739 58.7296 81.0097 62.6179C81.9455 66.5061 83.7203 70.1439 86.2102 73.2776C86.4576 73.5885 86.7148 73.8994 86.9769 74.2004C86.9967 74.2202 87.0115 74.2399 87.0313 74.2597C87.6763 75.0009 88.3617 75.706 89.0845 76.372C89.2724 76.5447 89.4702 76.7223 89.6681 76.8901C90.0442 77.2257 90.4299 77.5465 90.8307 77.8525C91.6131 78.4677 92.4289 79.0394 93.2745 79.565L93.3042 79.5798C93.8532 79.9204 94.4122 80.2362 94.9813 80.5373L95.2137 80.6557C95.748 80.9321 96.2922 81.1936 96.8512 81.4355C96.9649 81.4848 97.0886 81.5342 97.2024 81.5835C97.2123 81.5885 97.2174 81.5885 97.2273 81.5934C98.3567 82.062 99.5171 82.4528 100.7 82.763C103.019 83.3796 105.409 83.6916 107.809 83.6909C108.684 83.6909 109.55 83.6514 110.406 83.5675C112.361 83.3874 114.292 82.9986 116.164 82.4077C116.169 82.4077 116.174 82.4028 116.179 82.4028C117.362 82.0269 118.517 81.5701 119.637 81.0357C119.642 81.0308 119.652 81.0308 119.657 81.0259C119.909 80.9074 120.152 80.7791 120.399 80.6557C120.439 80.636 120.478 80.6162 120.518 80.5965C120.716 80.4928 120.914 80.3892 121.111 80.2806C121.606 80.0092 122.091 79.723 122.571 79.417C122.704 79.338 122.833 79.2541 122.967 79.1653C123.402 78.879 123.832 78.573 124.248 78.2621C124.322 78.2078 124.401 78.1536 124.476 78.0943C129.11 74.5847 132.512 69.7014 134.193 64.1444C135.875 58.5874 135.749 52.642 133.835 47.1604H133.835Z" fill="white"/>
<path d="M116.903 67.5299C119.184 67.5299 121.033 65.6851 121.033 63.4095C121.033 61.1338 119.184 59.2891 116.903 59.2891C114.622 59.2891 112.773 61.1338 112.773 63.4095C112.773 65.6851 114.622 67.5299 116.903 67.5299Z" fill="#2F2E41"/>
<path d="M118.054 59.4028C118.769 59.4028 119.472 59.5879 120.093 59.9399C120.715 60.292 121.234 60.799 121.601 61.4114C121.967 62.0237 122.168 62.7204 122.184 63.4334C122.199 64.1464 122.029 64.8512 121.69 65.479C122.048 65.032 122.309 64.5156 122.456 63.9625C122.603 63.4095 122.632 62.832 122.543 62.2669C122.454 61.7017 122.248 61.1613 121.938 60.68C121.628 60.1987 121.22 59.7872 120.742 59.4716C120.264 59.156 119.725 58.9432 119.159 58.8469C118.594 58.7506 118.015 58.7728 117.459 58.9121C116.902 59.0514 116.381 59.3048 115.929 59.6561C115.476 60.0073 115.102 60.4488 114.83 60.9524C115.216 60.4688 115.706 60.0783 116.265 59.81C116.823 59.5417 117.435 59.4025 118.055 59.4028H118.054Z" fill="#2F2E41"/>
<path d="M109.185 63.4006C115.886 63.4006 121.318 57.9814 121.318 51.2965C121.318 44.6116 115.886 39.1924 109.185 39.1924C102.484 39.1924 97.0518 44.6116 97.0518 51.2965C97.0518 57.9814 102.484 63.4006 109.185 63.4006Z" fill="#2F2E41"/>
<path d="M99.6623 43.7872C101.753 41.4416 104.675 39.9981 107.813 39.7612C110.95 39.5244 114.057 40.5128 116.477 42.5178C116.378 42.4236 116.279 42.3288 116.177 42.2375C113.78 40.098 110.629 38.9957 107.418 39.1728C104.206 39.3499 101.196 40.7919 99.0501 43.1819C96.9039 45.5719 95.7968 48.7143 95.9722 51.9183C96.1475 55.1224 97.591 58.1258 99.9853 60.2685C100.008 60.2891 100.031 60.3096 100.055 60.33C100.157 60.4213 100.263 60.5076 100.369 60.595C98.0893 58.4316 96.7414 55.4694 96.6097 52.3334C96.478 49.1975 97.5727 46.1332 99.6628 43.7871L99.6623 43.7872Z" fill="#2F2E41"/>
<path d="M109.082 63.2984C113.398 63.2984 116.896 59.8081 116.896 55.5027C116.896 51.1973 113.398 47.707 109.082 47.707C104.766 47.707 101.268 51.1973 101.268 55.5027C101.268 59.8081 104.766 63.2984 109.082 63.2984Z" fill="#A0616A"/>
<path d="M123.065 75.8146V78.4302C122.585 78.7362 122.101 79.0225 121.606 79.2939C121.408 79.4024 121.21 79.5061 121.012 79.6097C120.973 79.6295 120.933 79.6492 120.894 79.669C120.646 79.7923 120.404 79.9207 120.152 80.0391C120.147 80.044 120.137 80.044 120.132 80.049C119.012 80.5834 117.857 81.0401 116.674 81.416C116.669 81.416 116.664 81.421 116.659 81.421C114.787 82.0119 112.856 82.4007 110.901 82.5807C110.045 82.6646 109.179 82.7041 108.303 82.7041C105.903 82.7048 103.514 82.3929 101.195 81.7763C100.012 81.466 98.8513 81.0752 97.7219 80.6066C97.712 80.6017 97.7069 80.6017 97.697 80.5968C97.5832 80.5474 97.4595 80.4981 97.3458 80.4487C96.7868 80.2069 96.2426 79.9453 95.7083 79.669L95.4759 79.5505C94.9068 79.2495 94.3478 78.9336 93.7988 78.5931L93.7691 78.5783C92.9236 78.0527 92.1077 77.481 91.3253 76.8658C90.9245 76.5598 90.5388 76.239 90.1627 75.9034C89.9648 75.7356 89.767 75.5579 89.5791 75.3852C88.8563 74.7193 88.1709 74.0141 87.5259 73.2729C87.6114 72.7589 87.7372 72.2523 87.902 71.7578L87.9068 71.7528C87.9364 71.6686 87.9711 71.5862 88.0107 71.5061C88.038 71.4352 88.0693 71.366 88.1046 71.2988C88.9902 69.6455 90.5931 69.2359 92.5818 69.1471C93.7048 69.0977 94.9464 69.152 96.2576 69.1372C96.9501 69.1322 97.6673 69.1076 98.3847 69.0434C102.911 68.6338 102.09 65.9688 102.293 64.5326C102.496 63.1409 103.752 64.3451 103.836 64.4241L103.841 64.429C106.403 65.6249 109.237 66.1205 112.053 65.8651C112.538 65.8059 113.023 65.7714 113.508 65.7566C114.784 65.7418 114.507 66.107 114.067 66.408C113.853 66.5483 113.63 66.6736 113.399 66.7831C113.399 66.7831 113.196 68.0169 112.988 69.8627C112.79 71.6295 119.029 72.2415 120.251 72.6264H120.255C120.953 72.8823 121.575 73.3079 122.066 73.8647C122.557 74.4215 122.9 75.0917 123.065 75.8146Z" fill="#3F3D56"/>
<path d="M102.398 45.7578V53.5554H104.208L106.511 51.0938L106.203 53.5554H114.202L113.707 51.0938L114.697 53.5554H115.972V45.7578H102.398Z" fill="#2F2E41"/>
<path d="M101.165 54.9898C101.505 54.9898 101.782 54.4847 101.782 53.8616C101.782 53.2385 101.505 52.7334 101.165 52.7334C100.824 52.7334 100.548 53.2385 100.548 53.8616C100.548 54.4847 100.824 54.9898 101.165 54.9898Z" fill="#A0616A"/>
<path d="M117 54.9898C117.34 54.9898 117.617 54.4847 117.617 53.8616C117.617 53.2385 117.34 52.7334 117 52.7334C116.659 52.7334 116.383 53.2385 116.383 53.8616C116.383 54.4847 116.659 54.9898 117 54.9898Z" fill="#A0616A"/>
<path d="M133.835 47.1604C132.518 43.3839 130.39 39.9396 127.601 37.0677C124.812 34.1958 121.428 31.9654 117.686 30.532C113.944 29.0987 109.934 28.4969 105.935 28.7686C101.936 29.0404 98.0442 30.1791 94.5316 32.1054C91.019 34.0316 87.9699 36.6991 85.5968 39.9218C83.2238 43.1445 81.584 46.8448 80.7917 50.7646C79.9995 54.6845 80.0739 58.7296 81.0097 62.6179C81.9455 66.5061 83.7203 70.1439 86.2102 73.2776C86.4576 73.5885 86.7148 73.8994 86.9769 74.2004C86.9967 74.2202 87.0115 74.2399 87.0313 74.2597C87.6763 75.0009 88.3617 75.706 89.0845 76.372C89.2724 76.5447 89.4702 76.7223 89.6681 76.8901C90.0442 77.2257 90.4299 77.5465 90.8307 77.8525C91.6131 78.4677 92.4289 79.0394 93.2745 79.565L93.3042 79.5798C93.8532 79.9204 94.4122 80.2362 94.9813 80.5373L95.2137 80.6557C95.748 80.9321 96.2922 81.1936 96.8512 81.4355C96.9649 81.4848 97.0886 81.5342 97.2024 81.5835C97.2123 81.5885 97.2174 81.5885 97.2273 81.5934C98.3567 82.062 99.5171 82.4528 100.7 82.763C103.019 83.3796 105.409 83.6916 107.809 83.6909C108.684 83.6909 109.55 83.6514 110.406 83.5675C112.361 83.3874 114.292 82.9986 116.164 82.4077C116.169 82.4077 116.174 82.4028 116.179 82.4028C117.362 82.0269 118.517 81.5701 119.637 81.0357C119.642 81.0308 119.652 81.0308 119.657 81.0259C119.909 80.9074 120.152 80.7791 120.399 80.6557C120.439 80.636 120.478 80.6162 120.518 80.5965C120.716 80.4928 120.914 80.3892 121.111 80.2806C121.606 80.0092 122.091 79.723 122.571 79.417C122.704 79.338 122.833 79.2541 122.967 79.1653C123.402 78.879 123.832 78.573 124.248 78.2621C124.322 78.2078 124.401 78.1536 124.476 78.0943C129.11 74.5847 132.512 69.7014 134.193 64.1444C135.875 58.5874 135.749 52.642 133.835 47.1604H133.835ZM123.565 76.8951C123.402 77.0234 123.234 77.1468 123.066 77.2603C122.902 77.3837 122.739 77.5021 122.571 77.6107C122.427 77.7143 122.284 77.813 122.135 77.9068C122.012 77.9907 121.888 78.0697 121.764 78.1486C121.354 78.4053 120.938 78.652 120.518 78.8889C120.473 78.9136 120.429 78.9382 120.384 78.9629C120.196 79.0666 120.008 79.1653 119.82 79.264C119.795 79.2788 119.766 79.2887 119.741 79.3035L119.711 79.3183C119.474 79.4417 119.232 79.5601 118.989 79.6736C118.054 80.123 117.09 80.5121 116.105 80.8383C115.976 80.8827 115.848 80.9271 115.719 80.9666C113.947 81.5289 112.119 81.8996 110.268 82.0721C109.456 82.1461 108.635 82.1856 107.809 82.1856C105.539 82.1903 103.278 81.8949 101.086 81.3072C99.9607 81.0142 98.8581 80.6415 97.7862 80.1918C97.6724 80.1474 97.5586 80.098 97.4497 80.0536C97.3905 80.0289 97.3359 80.0043 97.2765 79.9747C96.8115 79.7723 96.3516 79.5502 95.9014 79.3183L95.6837 79.2048C95.1347 78.9185 94.5953 78.6125 94.0709 78.2868C93.8781 78.1683 93.6851 78.045 93.4972 77.9167C92.9034 77.5268 92.3247 77.1073 91.7606 76.6681C91.3797 76.3818 91.0138 76.0758 90.6575 75.76C90.4695 75.6021 90.2864 75.4293 90.1084 75.2664C89.407 74.6203 88.743 73.9348 88.1197 73.2134C87.912 72.9765 87.7091 72.7396 87.5161 72.4929C87.4722 72.444 87.4309 72.393 87.3924 72.3399C84.1782 68.2935 82.2448 63.3839 81.839 58.2369C81.4331 53.09 82.5731 47.9392 85.1136 43.4412C87.654 38.9433 91.4798 35.3022 96.1031 32.9822C100.726 30.6622 105.937 29.7685 111.072 30.415C116.206 31.0616 121.031 33.2192 124.932 36.6125C128.832 40.0059 131.631 44.4813 132.971 49.4679C134.311 54.4546 134.132 59.7265 132.457 64.6113C130.782 69.4962 127.686 73.7725 123.565 76.8951Z" fill="#3F3D56"/>
<path d="M126.828 105.205H88.771C87.5605 105.204 86.3999 104.723 85.5442 103.869C84.6886 103.015 84.208 101.856 84.208 100.649C84.208 99.4411 84.6886 98.2828 85.5442 97.4285C86.3999 96.5742 87.5605 96.0938 88.771 96.0928H126.828C127.428 96.0923 128.022 96.2097 128.577 96.4385C129.131 96.6672 129.635 97.0027 130.06 97.4258C130.484 97.8489 130.821 98.3513 131.051 98.9043C131.28 99.4573 131.399 100.05 131.399 100.649C131.399 101.247 131.28 101.84 131.051 102.393C130.821 102.946 130.484 103.448 130.06 103.872C129.635 104.295 129.131 104.63 128.577 104.859C128.022 105.088 127.428 105.205 126.828 105.205Z" fill="#70EC44"/>
<path d="M126.828 119.252H88.771C87.5605 119.251 86.3999 118.77 85.5442 117.916C84.6886 117.062 84.208 115.903 84.208 114.696C84.208 113.488 84.6886 112.33 85.5442 111.475C86.3999 110.621 87.5605 110.141 88.771 110.14H126.828C127.428 110.139 128.022 110.257 128.577 110.485C129.131 110.714 129.635 111.05 130.06 111.473C130.484 111.896 130.821 112.398 131.051 112.951C131.28 113.504 131.399 114.097 131.399 114.696C131.399 115.294 131.28 115.887 131.051 116.44C130.821 116.993 130.484 117.495 130.06 117.919C129.635 118.342 129.131 118.677 128.577 118.906C128.022 119.135 127.428 119.252 126.828 119.252Z" fill="#70EC44"/>
<path d="M106.468 139.184C108.99 139.184 111.035 137.144 111.035 134.628C111.035 132.112 108.99 130.072 106.468 130.072C103.946 130.072 101.901 132.112 101.901 134.628C101.901 137.144 103.946 139.184 106.468 139.184Z" fill="#3F3D56"/>
<path d="M128.846 134.628C126.685 133.829 124.003 132.464 122.341 131.018L123.512 134.248H115.221V135.008H123.512L122.341 138.239C124.003 136.793 126.685 135.428 128.846 134.628Z" fill="#3F3D56"/>
<path d="M84.0889 134.628C86.2504 133.829 88.9322 132.464 90.5946 131.018L89.423 134.248H97.7145V135.008H89.423L90.5946 138.239C88.9322 136.793 86.2504 135.428 84.0889 134.628Z" fill="#3F3D56"/>
<path d="M188.138 68.257C188.138 68.257 188.069 67.8741 185.384 68.8829C182.7 69.8917 181.091 77.3361 182.433 81.7075C182.974 83.4692 182.534 84.7393 181.816 85.6281C179.121 88.963 180.182 93.9721 184.107 95.687C184.218 95.7354 184.331 95.7833 184.446 95.8306L186.124 96.8394C186.124 96.8394 183.985 94.0192 185.056 90.4117C185.985 87.338 186.1 84.0747 185.389 80.943C185.266 80.4147 185.127 79.8701 184.968 79.3144C183.626 74.6067 184.279 75.1504 188.977 70.4427C188.977 70.4427 191.661 72.4603 194.01 73.4691C196.359 74.4779 198.372 75.4866 196.695 78.8493C195.017 82.2119 190.99 85.2383 193.675 89.6097C196.359 93.9811 196.695 92.2998 196.359 93.9812L196.024 95.6625L198.037 93.6449L196.695 96.335C196.695 96.335 201.057 96.335 202.399 92.9723L203.07 93.6449C203.07 93.6449 205.755 88.9372 200.721 84.5658C200.721 84.5658 199.044 83.557 201.393 80.1943C203.742 76.8317 201.938 69.602 198.917 68.257C195.897 66.9119 188.138 68.257 188.138 68.257Z" fill="#2F2E41"/>
</g>
<defs>
<clipPath id="clip0_60_292">
<rect width="234" height="156" fill="white"/>
</clipPath>
</defs>
</svg>
