<svg width="828" height="559" viewBox="0 0 828 559" fill="none" xmlns="http://www.w3.org/2000/svg">
<path d="M582.325 354.341L561.392 357.513L550.667 358.5L547.806 358.766C547.806 358.766 542.699 359.549 542.2 358.766C541.701 357.984 531.859 358.766 531.859 358.766C531.859 358.766 525.88 351.876 511.673 355.515C510.238 356.336 508.622 356.815 506.958 356.913C506.956 356.885 506.956 356.857 506.958 356.829C507.009 355.245 506.805 349.783 501.819 346.794C500.401 346.936 499.025 347.343 497.769 347.994L497.655 348.055L497.317 348.245L497.274 348.29C497.421 347.665 497.52 347.03 497.572 346.391C497.572 346.152 497.572 345.913 497.6 345.673C498.172 345.52 498.672 345.182 499.018 344.716C499.16 344.44 499.221 344.131 499.195 343.824C499.195 343.713 499.195 343.599 499.195 343.489C499.193 343.465 499.193 343.441 499.195 343.417C499.195 343.417 499.195 343.417 499.195 343.44C499.113 342.315 498.942 341.197 498.684 340.097L500.224 341.085C500.594 341.32 501.057 341.571 501.497 341.438C501.639 341.39 501.766 341.31 501.87 341.205C501.974 341.1 502.05 340.973 502.094 340.834C502.369 340.113 502.169 339.25 502.751 338.654C502.888 338.514 503.061 338.4 503.179 338.251C503.339 338.049 503.416 337.796 503.395 337.541C503.396 337.394 503.384 337.246 503.359 337.101V337.131C503.258 336.759 503.241 336.37 503.312 335.991C503.518 336.069 503.743 336.08 503.956 336.023C504.168 335.966 504.356 335.845 504.491 335.676C504.702 335.356 504.807 334.981 504.79 334.601C504.825 333.959 504.852 333.302 504.837 332.649C504.839 332.636 504.839 332.624 504.837 332.611V332.611C504.797 331.065 504.495 329.542 503.395 328.307C503.682 326.537 501.69 324.608 499.466 324.365C498.92 324.308 498.248 324.277 498.004 323.879C497.922 323.689 497.886 323.484 497.898 323.278C497.843 322.606 497.364 322.01 496.904 321.444C496.717 321.197 496.492 320.979 496.236 320.798C495.506 320.342 494.469 320.464 493.565 320.62C491.91 320.901 490.265 321.215 488.63 321.562C488.434 320.797 488.446 319.996 488.666 319.237C488.818 318.857 488.91 318.458 488.941 318.052C488.948 317.924 488.933 317.796 488.897 317.672V317.722C488.875 317.658 488.848 317.596 488.819 317.535C488.741 317.397 488.628 317.279 488.491 317.192C488.353 317.106 488.196 317.054 488.033 317.042C487.82 317.035 487.609 317.088 487.427 317.194C487.244 317.301 487.097 317.456 487.004 317.642C486.069 318.958 485.421 320.444 485.098 322.01C484.475 321.589 483.753 321.326 482.997 321.244C482.242 321.162 481.477 321.263 480.773 321.539C480.418 321.724 480.034 321.852 479.637 321.919C479.307 321.92 478.982 321.837 478.694 321.679C478.407 321.521 478.167 321.293 477.999 321.018C477.547 320.369 477.347 319.594 476.474 319.165C476.28 319.069 476.064 319.018 475.846 319.018C475.627 319.018 475.412 319.069 475.217 319.165C475.115 319.217 475.025 319.288 474.952 319.374C474.879 319.46 474.825 319.559 474.793 319.666C474.795 319.647 474.795 319.628 474.793 319.609C474.787 319.665 474.787 319.721 474.793 319.776C474.793 319.799 474.793 319.822 474.793 319.845C474.793 319.868 474.793 319.902 474.793 319.928C474.761 320.661 475.292 321.611 474.691 322.188C474.449 322.383 474.168 322.527 473.866 322.61L471.728 323.351C470.587 323.809 469.38 324.096 468.149 324.201C467.03 324.239 465.898 324 464.794 324.027C464.742 324.001 464.692 323.972 464.645 323.939C464.398 323.952 464.153 323.98 463.91 324.023C463.934 324.053 463.96 324.08 463.989 324.106H463.91C464.473 324.711 465.215 325.133 466.036 325.314C466.542 325.436 467.077 325.474 467.568 325.626C468.059 325.778 468.526 326.082 468.613 326.499C468.622 326.849 468.535 327.195 468.361 327.502L468.342 327.472C468.29 327.607 468.265 327.75 468.267 327.893C468.258 327.961 468.258 328.03 468.267 328.099C468.353 328.338 468.526 328.538 468.754 328.663C468.981 328.788 469.248 328.829 469.505 328.778L466.978 330.317C466.79 330.426 466.614 330.553 466.452 330.697L466.381 330.678C466.309 330.746 466.253 330.827 466.215 330.918C466.177 331.008 466.159 331.104 466.161 331.202C466.153 331.276 466.163 331.352 466.189 331.422L467.002 331.646L464.782 334.616C464.647 334.789 464.529 334.973 464.429 335.167L464.405 335.129C464.355 335.25 464.328 335.379 464.326 335.509C464.319 335.573 464.319 335.638 464.326 335.703C464.345 335.81 464.388 335.911 464.451 336.001C464.514 336.09 464.596 336.166 464.691 336.223C464.787 336.279 464.894 336.315 465.005 336.328C465.116 336.341 465.229 336.332 465.336 336.299C464.85 336.771 464.458 337.326 464.181 337.936L464.146 337.913L464.11 337.993C464.055 338.113 464.027 338.242 464.028 338.373C464.011 338.473 464.032 338.575 464.087 338.662C464.187 338.763 464.31 338.84 464.447 338.885C464.583 338.931 464.729 338.944 464.873 338.924C466.051 338.924 467.147 338.145 467.332 337.214C467.693 337.594 467.305 338.046 466.963 338.438C465.572 340.01 464.158 341.609 463.427 343.444C463.17 344.073 463.014 344.736 462.963 345.411C462.963 345.411 462.963 345.381 462.963 345.366C462.963 345.415 462.963 345.464 462.963 345.514C462.865 346.773 463.276 348.021 464.11 348.993C464.419 349.296 464.696 349.628 464.935 349.984C465.375 350.774 465.124 351.789 465.808 352.457C466.359 351.036 467.027 349.659 467.804 348.34C467.791 348.697 467.736 349.051 467.638 349.396V349.365C467.638 349.456 467.607 349.544 467.599 349.631C467.595 349.696 467.595 349.76 467.599 349.825C467.581 350.054 467.638 350.283 467.763 350.478C467.888 350.673 468.074 350.825 468.295 350.911C468.99 351.151 469.709 350.664 470.18 350.178C470.247 350.345 470.314 350.509 470.389 350.672C471.851 353.817 474.494 356.308 477.783 357.642L477.846 357.767C475.194 359.287 469.029 362.982 468.629 364.399C468.114 366.207 468.299 370.963 471.992 371.927C472.791 372.138 473.62 372.223 474.447 372.178C474.29 372.417 474.137 372.66 473.987 372.896C472.966 374.499 472.11 375.984 471.85 376.782C471.104 379.11 464.126 381.928 464.126 381.928C464.126 381.928 457.769 386.866 456.402 396.362C456.402 396.362 449.672 404.817 445.936 406.579C442.199 408.342 435.721 419.144 435.721 419.144C435.721 419.144 429.305 423.497 427.942 427.74C426.578 431.983 423.227 433.027 423.227 433.027C423.227 433.027 423.533 433.171 424.013 433.46C423.859 433.54 423.698 433.631 423.518 433.737C420.469 435.492 413.739 440.297 415.228 447.791C416.674 455.008 425.113 447.985 429.214 444.057L429.584 443.7C429.521 444.105 429.434 444.506 429.324 444.901C430.212 443.562 431.312 442.367 432.585 441.361C433.955 440.291 435.081 438.957 435.89 437.445C436.51 436.305 437.504 435.166 439.033 434.786C442.396 433.965 459.463 421.283 463.207 414.704C466.951 408.125 474.793 405.588 474.793 405.588L478.392 416.47C478.941 418.134 479.037 419.907 478.671 421.617C477.885 425.324 476.899 432.488 479.28 438.06C479.28 438.06 479.39 437.961 479.59 437.798C479.916 439.211 480.333 441.068 480.71 442.895C480.8 443.343 480.887 443.792 480.969 444.232C481.209 445.474 481.409 446.64 481.523 447.571C482.022 451.567 483.393 460.728 484.513 461.666C485.633 462.605 491.978 481.63 491.978 481.63C491.978 481.63 497.584 494.081 496.716 499.6C496.637 500.276 496.649 500.959 496.751 501.632C496.944 503.005 497.231 504.364 497.608 505.7C497.718 506.103 497.828 506.513 497.953 506.931C498.056 507.292 498.166 507.66 498.276 508.029C500.99 516.936 506.184 528.844 506.184 528.844C506.184 528.844 506.616 529.926 507.178 531.373C507.363 531.859 507.571 532.387 507.772 532.931C508.695 535.362 509.669 538.089 509.669 538.708C509.669 538.848 509.866 539.004 510.207 539.164C509.318 540.594 508.53 542.081 507.85 543.615C506.758 546.107 503.615 548.576 503.615 548.576C503.615 548.576 499.875 549.601 499.875 552.754V555.162C499.875 555.162 507.819 555.014 510.435 555.721C513.052 556.427 516.541 555.219 516.541 555.219L517.287 554.285C517.287 554.285 526.351 554.665 526.913 552.488C527.078 551.85 527.07 550.49 526.936 548.868C526.765 546.891 526.463 544.925 526.033 542.985C526.63 542.962 527.039 542.924 527.039 542.924C527.039 542.924 531.184 545.507 531.616 548.063C531.748 548.814 532.048 549.529 532.494 550.157C532.941 550.786 533.523 551.313 534.201 551.702C534.201 551.702 538.503 553.601 546.753 552.731C551.075 552.287 551.888 550.16 551.492 548.268C551.13 546.536 549.747 545.002 549.091 545.127C547.724 545.393 542.208 537.728 542.208 537.728L539.407 532.03C539.658 528.992 538.919 527.552 537.882 526.941C538.593 520.533 538.688 511.945 538.688 511.945C538.688 511.945 539.312 501.61 538.688 492.33C538.063 483.051 538.063 464.849 535.937 458.742C534.955 455.901 533.533 447.943 532.299 440.248C532.205 439.67 532.111 439.108 532.024 438.527C531.726 436.655 531.447 434.824 531.187 433.107C531.309 433.05 531.435 432.993 531.545 432.932L530.877 427.295L530.783 426.517C530.806 426.54 530.838 426.555 530.861 426.574C533.105 428.568 530.115 417.53 530.115 417.53C530.115 417.53 528.767 404.836 528.858 397.536C528.866 394.938 528.723 392.342 528.429 389.76C528.202 387.588 528.732 384.766 532.126 382.779C533.018 382.235 533.855 381.611 534.625 380.914C535.572 380.082 537.639 379.015 542.09 378.89C549.555 378.658 557.02 374.898 557.02 374.898C557.02 374.898 565.62 375.369 569.592 370.435C573.564 365.501 583.547 364.331 583.547 364.331L582.325 354.341ZM428.393 437.672L427.289 436.176C427.699 436.644 428.069 437.145 428.393 437.672V437.672ZM522.359 498.768C522.296 499.528 522.249 500.421 522.241 501.427C522.21 504.572 522.532 508.766 523.998 512.773L523.373 528.555H523.322C522.795 528.502 522.304 530.112 521.923 532.236C521.612 531.359 521.225 530.509 520.768 529.694C520.022 528.638 520.646 522.77 520.646 522.77C520.646 522.77 517.527 517.954 517.283 516.894C517.04 515.834 513.292 498.689 513.292 498.689C513.292 498.689 513.044 485.303 511.673 481.9C510.302 478.497 509.929 463.695 509.929 463.695C509.929 463.695 516.78 474.379 517.283 479.784L522.638 496.345C522.638 496.345 522.473 497.249 522.359 498.768Z" fill="url(#paint0_linear_75_1604)"/>
<path d="M537.348 511.455C537.348 511.455 537.144 530.245 535.097 532.802C533.05 535.358 522.344 532.919 522.344 532.919L523.129 512.268C521.711 508.302 521.397 504.147 521.432 501.032C521.432 500.037 521.483 499.133 521.542 498.4C521.656 496.881 521.813 495.984 521.813 495.984L516.639 479.583C516.156 474.228 509.54 463.63 509.54 463.63C509.54 463.63 509.901 478.288 511.225 481.661C512.549 485.034 512.797 498.294 512.797 498.294C512.797 498.294 516.407 515.28 516.647 516.328C516.886 517.377 519.896 522.143 519.896 522.143C519.896 522.143 519.295 527.959 520.018 529.007C520.741 530.055 523.746 538.199 523.023 539.711C522.3 541.222 509.308 539.126 509.308 537.963C509.308 537.352 508.365 534.648 507.473 532.239L506.899 530.697C506.357 529.265 505.937 528.194 505.937 528.194C505.937 528.194 500.924 516.397 498.303 507.573C498.193 507.193 498.091 506.844 497.989 506.491C497.871 506.073 497.761 505.666 497.659 505.268C497.295 503.944 497.018 502.599 496.83 501.241C496.731 500.574 496.719 499.898 496.794 499.228C497.635 493.759 492.221 481.429 492.221 481.429C492.221 481.429 486.084 462.582 485 461.651C483.916 460.721 482.592 451.65 482.112 447.693C482.002 446.766 481.81 445.611 481.578 444.384C481.499 443.947 481.413 443.503 481.327 443.055C480.592 439.389 479.688 435.595 479.688 435.595L493.184 426.984L528.681 423.262C528.681 423.262 529.671 430.615 530.916 438.721C531.003 439.283 531.093 439.86 531.184 440.426C532.362 448.046 533.749 455.931 534.696 458.742C536.739 464.793 536.739 482.823 537.344 492.011C537.949 501.199 537.348 511.455 537.348 511.455Z" fill="#63667E"/>
<path opacity="0.1" d="M502.432 434.007L506.899 456.057H509.021L504.778 433.24L502.432 434.007Z" fill="black"/>
<path opacity="0.1" d="M481.594 444.388C481.515 443.951 481.429 443.507 481.342 443.059C483.421 442.648 488.123 440.973 487.393 434.258H488.835C488.835 434.258 490.202 443.104 481.594 444.388Z" fill="black"/>
<path opacity="0.1" d="M531.199 440.442C528.504 440.92 520.081 442.322 518.317 441.395C516.215 440.29 514.136 434.3 514.136 434.3L516.062 434.007C516.062 434.007 514.364 442.793 530.932 438.736C531.019 439.298 531.109 439.868 531.199 440.442Z" fill="black"/>
<path d="M530.472 433.195C528.044 434.558 522.344 435.215 515.708 435.473C515.103 435.496 514.494 435.519 513.873 435.534C503.116 435.861 490.555 435.272 485.55 434.995C484.14 434.919 483.33 434.866 483.33 434.866L487.723 431.93L494.944 429.37L510.133 426.49L529.596 425.966L529.793 427.581L530.472 433.195Z" fill="#33363D"/>
<path d="M515.708 435.489C515.103 435.512 514.494 435.534 513.873 435.55C513.111 432.427 510.707 427.436 510.707 427.436L512.75 427.174L515.708 435.489Z" fill="#63667E"/>
<path d="M433.756 441.965C433.756 441.965 432.908 442.914 431.603 444.198C427.643 448.091 419.491 455.046 418.1 447.898C416.658 440.487 423.16 435.743 426.103 433.988C426.936 433.491 427.482 433.229 427.482 433.229L433.756 441.965Z" fill="#FFA2A2"/>
<path d="M506.676 358.25C506.676 358.25 502.075 355.458 501.218 355.72C500.362 355.982 501.218 359.727 501.218 359.727C500.109 361.774 498.354 363.426 496.209 364.445C493.75 365.688 491.369 367.07 489.078 368.585C487.305 368.418 485.515 368.611 483.824 369.152C482.132 369.693 480.576 370.57 479.256 371.726C478.333 372.326 477.289 372.73 476.192 372.911C475.096 373.092 473.972 373.045 472.895 372.775C469.328 371.818 469.151 367.108 469.646 365.319C470.039 363.913 475.987 360.267 478.549 358.748C479.256 358.33 479.704 358.075 479.704 358.075C479.704 358.075 491.263 357.695 493.871 352.928C494.674 351.455 495.871 350.217 497.337 349.343V349.343L497.403 349.309L497.734 349.119L497.84 349.062C499.054 348.415 500.39 348.009 501.768 347.869C507.414 351.356 506.676 358.25 506.676 358.25Z" fill="#CED7E7"/>
<path opacity="0.1" d="M506.676 358.25C506.676 358.25 502.075 355.458 501.218 355.72C500.362 355.982 501.218 359.727 501.218 359.727C500.109 361.774 498.354 363.426 496.209 364.445C493.75 365.688 491.369 367.07 489.078 368.585C487.305 368.418 485.515 368.611 483.824 369.152C482.132 369.693 480.576 370.57 479.256 371.726C478.333 372.326 477.289 372.73 476.192 372.911C475.096 373.092 473.972 373.045 472.895 372.775C469.328 371.818 469.151 367.108 469.646 365.319C470.039 363.913 475.987 360.267 478.549 358.748C479.256 358.33 479.704 358.075 479.704 358.075C479.704 358.075 491.263 357.695 493.871 352.928C494.674 351.455 495.871 350.217 497.337 349.343V349.343L497.403 349.309L497.734 349.119L497.84 349.062C499.054 348.415 500.39 348.009 501.768 347.869C507.414 351.356 506.676 358.25 506.676 358.25Z" fill="black"/>
<path opacity="0.1" d="M529.793 427.596C527.628 425.617 514.152 429.221 514.152 429.221C514.152 429.221 504.872 431.796 497.793 432.214C496.829 432.276 495.862 432.288 494.897 432.248C491.923 432.1 488.823 433.263 486.222 434.657L485.566 435.036C484.156 434.96 483.346 434.907 483.346 434.907L487.739 431.971L494.96 429.411L510.149 426.532L529.612 426.008L529.793 427.596Z" fill="black"/>
<path opacity="0.1" d="M431.603 444.198C432.503 438.402 427.851 435.033 426.103 433.988C426.936 433.491 427.482 433.229 427.482 433.229L433.768 441.965C433.768 441.965 432.908 442.914 431.603 444.198Z" fill="black"/>
<path d="M580.679 365.231C580.679 365.231 571.05 366.371 567.203 371.278C563.357 376.186 555.047 375.699 555.047 375.699C555.047 375.699 547.826 379.422 540.609 379.653C536.323 379.79 534.323 380.831 533.411 381.655C532.67 382.345 531.862 382.964 530.999 383.505C527.722 385.473 527.208 388.264 527.432 390.418C527.712 392.977 527.85 395.548 527.844 398.121C527.758 405.338 529.058 417.925 529.058 417.925C529.058 417.925 531.946 428.861 529.777 426.886C527.608 424.91 514.136 428.511 514.136 428.511C514.136 428.511 504.857 431.087 497.777 431.508C496.813 431.569 495.846 431.579 494.881 431.539C491.907 431.39 488.807 432.553 486.206 433.95C483.968 435.171 481.875 436.624 479.963 438.284C477.661 432.765 478.62 425.666 479.374 421.997C479.727 420.303 479.635 418.551 479.107 416.9L475.63 406.12C475.63 406.12 468.051 408.619 464.441 415.134C460.83 421.648 444.345 434.213 441.091 435.029C439.602 435.409 438.644 436.53 438.043 437.646C437.27 439.139 436.185 440.461 434.856 441.528C433.625 442.53 432.564 443.713 431.713 445.034C433.882 437.122 425.82 433.282 425.82 433.282C425.82 433.282 429.065 432.234 430.389 428.055C431.713 423.877 437.854 419.566 437.854 419.566C437.854 419.566 444.113 408.863 447.723 407.115C451.334 405.368 457.832 396.997 457.832 396.997C459.152 387.573 465.297 382.688 465.297 382.688C465.297 382.688 472.039 379.897 472.762 377.591C473.013 376.801 473.838 375.331 474.824 373.743C475.744 372.247 476.789 370.655 477.634 369.413C478.478 368.171 479.142 367.214 479.142 367.214L489.947 367.115L491.911 367.096L497.667 356.62C497.667 356.62 499.714 354.645 503.261 356.97C504.281 357.628 505.494 357.951 506.719 357.889C508.327 357.789 509.886 357.314 511.264 356.507C524.984 352.898 530.759 359.727 530.759 359.727C530.759 359.727 540.263 358.949 540.743 359.727C541.222 360.506 546.156 359.727 546.156 359.727L559.275 358.482L579.493 355.344L580.679 365.231Z" fill="#70EC44"/>
<path d="M501.741 361.741L495.604 371.51C495.604 371.51 478.879 383.262 481.287 374.07C481.678 372.524 481.817 370.928 481.7 369.341C481.664 368.722 481.59 368.103 481.495 367.491C481.059 364.956 480.288 362.486 479.201 360.141C479.079 359.86 478.954 359.591 478.808 359.325C478.62 358.945 478.435 358.565 478.25 358.208C477.476 356.692 476.595 355.229 475.614 353.829C475.614 353.829 493.785 339.52 494.386 348.477C494.518 350.5 494.996 352.488 495.8 354.36L495.942 354.676C496.953 356.884 498.407 358.876 500.22 360.536C500.694 360.975 501.203 361.377 501.741 361.741V361.741Z" fill="#FFA2A2"/>
<path d="M477.437 370.815L480.266 378.954L491.773 380.759L498.374 373.739C498.374 373.739 502.165 368.505 502.405 368.387C502.644 368.27 503.246 363.271 503.246 363.271L503.953 360.445L499.501 358.998L493.243 365.569L490.685 367.088L487.845 367.757L478.415 370.416L477.437 370.815Z" fill="#CED7E7"/>
<path opacity="0.1" d="M506.675 358.949C506.675 358.949 503.532 358.918 502.696 359.18C501.859 359.443 501.218 360.423 501.218 360.423C500.11 362.471 498.355 364.124 496.209 365.144C493.75 366.387 491.369 367.769 489.078 369.284C487.305 369.116 485.515 369.308 483.823 369.85C482.132 370.391 480.576 371.268 479.256 372.425C477.94 373.28 476.39 373.737 474.805 373.739C475.724 372.243 476.769 370.651 477.614 369.409C481.496 368.999 489.711 367.544 489.711 367.544L489.927 367.111C490.689 365.592 493.27 360.461 494.221 358.911C495.329 357.103 498.802 351.455 498.912 351.276L495.502 354.292L497.325 350.046L497.392 350.011L497.722 349.821L497.828 349.764C499.042 349.118 500.378 348.712 501.757 348.572C506.059 351.231 506.671 355.827 506.719 357.897C506.725 358.248 506.71 358.599 506.675 358.949Z" fill="black"/>
<path opacity="0.1" d="M478.537 358.052L479.429 359.951C479.429 359.951 479.354 360.012 479.197 360.126C479.075 359.845 478.95 359.575 478.804 359.31C478.616 358.93 478.431 358.55 478.246 358.193C478.341 358.14 478.427 358.083 478.513 358.037L478.537 358.052Z" fill="black"/>
<path opacity="0.1" d="M500.236 360.537C499.154 361.879 497.779 362.975 496.209 363.746C493.749 364.99 491.368 366.373 489.078 367.89C486.524 367.646 483.953 368.151 481.7 369.341C481.665 368.722 481.59 368.103 481.496 367.491C485.362 366.914 489.711 366.143 489.711 366.143C489.711 366.143 493.097 359.34 494.221 357.509C494.614 356.894 495.258 355.819 495.958 354.676C496.969 356.884 498.423 358.876 500.236 360.537Z" fill="black"/>
<path d="M506.676 358.25C506.676 358.25 503.532 358.22 502.692 358.482C501.851 358.744 501.218 359.728 501.218 359.728C500.109 361.774 498.354 363.426 496.209 364.445C493.75 365.688 491.369 367.071 489.078 368.585C487.305 368.418 485.515 368.611 483.824 369.152C482.132 369.693 480.576 370.57 479.256 371.726C478.333 372.326 477.289 372.73 476.192 372.911C475.096 373.092 473.972 373.045 472.895 372.775C469.328 371.818 469.151 367.108 469.646 365.319C470.039 363.913 475.987 360.267 478.549 358.748L479.441 360.666C477.583 362.043 475.637 363.305 473.614 364.445C469.776 366.667 471.717 369.068 471.717 369.068C473.098 368.836 474.5 368.747 475.901 368.802C477.889 368.931 489.711 366.838 489.711 366.838C489.711 366.838 493.097 360.031 494.221 358.204C495.345 356.377 498.802 350.748 498.912 350.57L495.502 353.608L497.325 349.362L497.392 349.328L497.722 349.138L497.828 349.081C499.042 348.434 500.378 348.028 501.757 347.888C507.414 351.356 506.676 358.25 506.676 358.25Z" fill="#70EC44"/>
<path opacity="0.1" d="M495.816 354.368C494.049 357.009 491.368 358.957 488.253 359.865C485.138 360.773 481.791 360.581 478.808 359.325C477.9 357.412 476.832 355.573 475.614 353.829C475.614 353.829 493.785 339.52 494.386 348.477C494.522 350.504 495.005 352.494 495.816 354.368Z" fill="black"/>
<path d="M497.667 346.464C497.667 346.795 497.655 347.122 497.631 347.444C497.373 350.918 495.714 354.156 493.012 356.46C490.31 358.764 486.781 359.951 483.183 359.766C479.585 359.58 476.206 358.037 473.773 355.467C471.34 352.898 470.048 349.508 470.173 346.027C470.299 342.546 471.833 339.251 474.445 336.852C477.057 334.453 480.539 333.141 484.142 333.198C487.744 333.255 491.18 334.677 493.709 337.158C496.238 339.639 497.659 342.98 497.667 346.464V346.464Z" fill="#FFA2A2"/>
<path opacity="0.1" d="M462.036 389.195C462.036 389.195 465.057 394.661 468.774 397.669C472.491 400.677 474.667 405.349 474.667 405.349C474.667 405.349 473.587 396.29 462.036 389.195Z" fill="black"/>
<path opacity="0.1" d="M457.341 402.922C457.341 402.922 467.949 400.362 473.288 402.922H457.341Z" fill="black"/>
<path opacity="0.1" d="M453.491 418.18L464.904 414.381C464.904 414.381 457.592 419.441 453.491 418.18Z" fill="black"/>
<path opacity="0.1" d="M433.756 433.05C433.756 433.05 438.691 432.818 440.255 434.33C440.255 434.33 435.442 434.679 433.756 433.05Z" fill="black"/>
<path opacity="0.1" d="M548.903 359.461C548.903 359.461 537.839 365.812 537.348 376.049L548.903 359.461Z" fill="black"/>
<path opacity="0.1" d="M562.269 369.067C562.269 369.067 548.549 371.745 546.262 373.139C543.976 374.533 539.045 375.232 539.045 375.232C539.045 375.232 558.898 372.676 562.269 369.067Z" fill="black"/>
<path opacity="0.1" d="M522.026 425.211C521.028 426.213 508.711 429.039 497.702 431.402C496.703 431.466 495.701 431.477 494.701 431.436C491.616 431.284 488.414 432.481 485.703 433.916C482.38 434.6 480.231 435.029 480.231 435.029C480.231 435.029 476.612 432.272 481.602 426.046C486.591 419.821 487.468 409.998 487.468 409.998L509.681 404.506C509.681 404.506 515.673 412.482 518.541 413.762C521.409 415.042 523.872 423.365 522.026 425.211Z" fill="black"/>
<path d="M521.24 425.487C520.273 426.467 508.396 429.21 497.781 431.508C496.817 431.569 495.85 431.579 494.885 431.538C491.911 431.39 488.811 432.552 486.21 433.95C483.004 434.611 480.93 435.029 480.93 435.029C480.93 435.029 477.441 432.351 482.254 426.293C487.067 420.234 487.908 410.701 487.908 410.701L509.328 405.353C509.328 405.353 515.103 413.101 517.869 414.347C520.635 415.593 523.008 423.698 521.24 425.487Z" fill="#70EC44"/>
<path opacity="0.1" d="M503.851 501.743L497.667 505.283C497.303 503.959 497.026 502.614 496.838 501.256C497.737 501.982 503.851 501.743 503.851 501.743Z" fill="black"/>
<path opacity="0.1" d="M498.005 506.506C500.189 506.103 505.375 505.101 508.22 504.159C505.642 505.374 500.979 507.406 498.331 507.577C498.209 507.224 498.107 506.859 498.005 506.506Z" fill="black"/>
<path opacity="0.1" d="M510.042 503.262C509.815 503.532 509.147 503.836 508.223 504.143C509.327 503.642 510.042 503.262 510.042 503.262Z" fill="black"/>
<path opacity="0.1" d="M513.775 532.509C512.023 532.65 509.174 532.422 507.489 532.255L506.915 530.713C508.719 530.899 512.298 531.191 513.775 530.766C515.791 530.188 516.396 532.308 513.775 532.509Z" fill="black"/>
<path opacity="0.1" d="M529.431 501.595C529.141 501.557 524.465 501.048 521.456 501.033C521.456 500.037 521.507 499.133 521.566 498.4C523.64 499.247 529.121 501.492 529.431 501.595Z" fill="black"/>
<path d="M525.99 551.619C525.447 553.78 516.694 553.4 516.694 553.4L515.971 554.327C515.971 554.327 512.604 555.519 510.078 554.821C507.552 554.122 499.863 554.27 499.863 554.27V551.881C499.863 548.77 503.473 547.752 503.473 547.752C503.473 547.752 506.51 545.31 507.563 542.837C508.22 541.306 508.983 539.82 509.846 538.389C509.846 538.389 507.021 535.073 514.6 534.211C522.065 533.375 519.138 539.927 519.055 540.11C519.177 540.003 521.978 537.569 523.534 538.336C524.658 538.894 525.675 544.181 525.994 548.01C526.139 549.636 526.147 550.984 525.99 551.619Z" fill="#CED7E7"/>
<path opacity="0.1" d="M525.99 551.619C525.447 553.78 516.694 553.4 516.694 553.4L515.971 554.327C515.971 554.327 512.604 555.519 510.078 554.821C507.552 554.122 499.863 554.27 499.863 554.27V551.991C504.491 552.211 513.755 552.507 515.837 551.47C515.837 551.47 518.332 550.859 518.906 550.453C519.389 550.107 524.473 548.5 525.978 548.025C526.139 549.636 526.147 550.984 525.99 551.619Z" fill="black"/>
<path d="M545.151 551.858C537.179 552.701 533.026 550.836 533.026 550.836C532.366 550.445 531.801 549.92 531.371 549.298C530.94 548.676 530.654 547.971 530.531 547.232C530.111 544.702 526.108 542.146 526.108 542.146C526.108 542.146 521.177 542.609 520.572 541.211C520.426 540.618 520.371 540.008 520.407 539.399C520.407 535.65 521.377 527.777 522.497 527.891C523.817 528.031 527.899 533.258 528.308 533.782C527.95 533.22 524.399 527.366 532.276 526.671C532.276 526.671 538.711 523.154 538.051 531.355L540.758 536.995C540.758 536.995 546.086 544.592 547.406 544.326C548.038 544.2 549.37 545.72 549.724 547.437C550.105 549.309 549.315 551.417 545.151 551.858Z" fill="#CED7E7"/>
<path opacity="0.1" d="M497.667 346.464C497.667 346.795 497.655 347.122 497.631 347.444L497.297 347.565L496.005 348.021C495.787 348.111 495.554 348.163 495.317 348.173C495.133 348.165 494.952 348.117 494.789 348.033C494.627 347.948 494.486 347.828 494.378 347.683C494.192 347.408 494.059 347.103 493.985 346.783L493.007 343.148C492.811 342.426 492.508 341.594 491.671 341.324C491.427 341.273 491.187 341.204 490.952 341.119C490.43 340.88 490.32 340.318 490.143 339.847C489.75 338.749 488.701 337.872 487.566 337.188C486.798 336.669 485.886 336.385 484.949 336.375C484.447 336.383 483.962 336.551 483.57 336.854C482.749 337.526 482.863 338.434 482.961 339.391C483.059 340.348 483.323 341.37 483.032 342.327C482.835 342.95 482.415 343.531 482.34 344.177C482.277 344.697 482.454 345.225 482.423 345.746C482.417 346.027 482.312 346.298 482.127 346.514C481.942 346.731 481.686 346.88 481.401 346.938C481.35 346.623 480.875 346.521 480.557 346.35C479.838 345.97 479.798 345.142 479.83 344.45C479.885 343.417 479.936 342.38 479.987 341.347C479.67 343.658 479.177 345.943 478.514 348.184C478.432 348.574 478.245 348.936 477.971 349.233C477.81 349.388 477.605 349.493 477.381 349.534C477.158 349.575 476.927 349.551 476.718 349.464C476.475 349.316 476.295 349.088 476.211 348.822C475.709 347.619 475.536 346.311 475.708 345.024C475.272 346.707 474.836 348.408 473.995 349.988C473.662 350.615 473.155 351.295 472.334 351.42C472.083 351.428 471.835 351.468 471.595 351.538C471.499 351.582 471.413 351.643 471.34 351.717C470.539 349.91 470.164 347.953 470.242 345.989C470.319 344.024 470.848 342.101 471.789 340.358C472.73 338.616 474.061 337.097 475.683 335.913C477.306 334.728 479.181 333.908 481.173 333.51C483.164 333.112 485.222 333.148 487.197 333.614C489.173 334.079 491.017 334.964 492.595 336.203C494.173 337.443 495.447 339.006 496.323 340.78C497.2 342.554 497.657 344.494 497.663 346.46L497.667 346.464Z" fill="black"/>
<path d="M483.57 336.174C483.961 335.869 484.447 335.699 484.949 335.691C485.886 335.703 486.797 335.986 487.566 336.504C488.701 337.173 489.734 338.046 490.143 339.163C490.32 339.634 490.426 340.2 490.929 340.439C491.164 340.52 491.404 340.587 491.648 340.641C492.488 340.91 492.791 341.742 492.983 342.464L493.97 346.099C494.034 346.419 494.16 346.725 494.343 346.999C494.45 347.145 494.591 347.265 494.753 347.351C494.916 347.436 495.097 347.485 495.282 347.493C495.52 347.483 495.755 347.43 495.973 347.337L497.266 346.881C497.946 346.642 498.684 346.357 498.995 345.803C499.157 345.445 499.212 345.05 499.152 344.663C499.076 343.503 498.908 342.35 498.649 341.214L500.134 342.19C500.491 342.422 500.939 342.669 501.364 342.54C501.502 342.49 501.626 342.41 501.726 342.306C501.826 342.202 501.9 342.076 501.941 341.94C502.208 341.226 502.016 340.371 502.574 339.782C502.707 339.645 502.872 339.528 502.99 339.383C503.497 338.753 502.896 337.898 503.104 337.161C503.305 337.238 503.526 337.248 503.733 337.191C503.94 337.134 504.122 337.013 504.251 336.846C504.456 336.528 504.555 336.157 504.538 335.783C504.656 333.637 504.711 331.312 503.191 329.565C503.47 327.81 501.544 325.899 499.415 325.66C498.885 325.599 498.236 325.569 498.005 325.178C497.922 324.989 497.886 324.785 497.898 324.581C497.843 323.917 497.384 323.324 496.94 322.766C496.762 322.519 496.545 322.303 496.295 322.124C495.592 321.676 494.59 321.797 493.718 321.949C492.118 322.225 490.528 322.535 488.949 322.88C488.763 322.129 488.775 321.346 488.984 320.601C489.145 320.039 489.42 319.461 489.121 318.899C489.045 318.759 488.933 318.64 488.795 318.554C488.658 318.468 488.499 318.418 488.336 318.409C488.128 318.404 487.923 318.457 487.746 318.563C487.57 318.669 487.429 318.823 487.342 319.005C486.437 320.313 485.812 321.783 485.503 323.328C484.909 322.922 484.219 322.667 483.497 322.588C482.774 322.508 482.043 322.606 481.37 322.872C481.03 323.057 480.661 323.185 480.278 323.252C479.958 323.248 479.645 323.163 479.37 323.007C479.094 322.85 478.865 322.627 478.706 322.359C478.274 321.714 478.077 320.946 477.237 320.525C477.05 320.429 476.841 320.379 476.63 320.379C476.418 320.379 476.21 320.429 476.023 320.525C474.911 321.151 476.298 322.705 475.473 323.522C475.244 323.712 474.976 323.854 474.687 323.939L472.624 324.672C471.525 325.127 470.358 325.41 469.167 325.512C467.8 325.565 466.417 325.159 465.073 325.432C465.613 326.027 466.331 326.445 467.128 326.629C467.615 326.746 468.13 326.784 468.605 326.936C468.836 326.986 469.049 327.091 469.226 327.243C469.402 327.394 469.536 327.587 469.615 327.802C469.721 328.338 469.186 328.854 469.293 329.39C469.373 329.62 469.537 329.814 469.753 329.938C469.969 330.061 470.224 330.105 470.471 330.062L468.031 331.582C467.591 331.855 467.1 332.254 467.265 332.687L468.051 332.907L465.933 335.843C465.658 336.141 465.501 336.523 465.489 336.922C465.51 337.024 465.552 337.121 465.613 337.207C465.674 337.293 465.753 337.366 465.844 337.421C465.936 337.476 466.038 337.513 466.144 337.528C466.251 337.544 466.36 337.538 466.464 337.511C465.956 338.022 465.556 338.623 465.285 339.281C465.236 339.367 465.208 339.463 465.205 339.562C465.202 339.66 465.222 339.758 465.266 339.847C465.359 339.944 465.475 340.019 465.604 340.065C465.733 340.11 465.872 340.125 466.008 340.109C467.147 340.109 468.204 339.349 468.365 338.411C468.715 338.791 468.342 339.239 468.008 339.623C466.668 341.18 465.301 342.768 464.59 344.583C463.879 346.399 463.91 348.518 465.242 350.079C465.537 350.382 465.8 350.711 466.028 351.063C466.452 351.846 466.208 352.848 466.868 353.513C467.399 352.107 468.043 350.743 468.794 349.434C468.751 349.894 468.682 350.352 468.585 350.805C468.554 351.045 468.602 351.288 468.722 351.5C468.843 351.711 469.031 351.88 469.257 351.982C469.949 352.226 470.668 351.705 471.119 351.223C471.232 351.079 471.375 350.961 471.54 350.877C471.779 350.808 472.026 350.769 472.275 350.759C473.096 350.634 473.599 349.958 473.936 349.327C474.777 347.751 475.217 346.049 475.649 344.359C475.476 345.646 475.651 346.955 476.156 348.157C476.237 348.424 476.416 348.652 476.659 348.799C476.869 348.885 477.1 348.908 477.323 348.866C477.546 348.824 477.751 348.719 477.912 348.564C478.187 348.267 478.374 347.906 478.455 347.516C479.117 345.274 479.609 342.989 479.928 340.679L479.771 343.782C479.735 344.481 479.771 345.301 480.494 345.681C480.82 345.852 481.279 345.954 481.342 346.266C481.627 346.21 481.883 346.062 482.069 345.846C482.254 345.629 482.357 345.358 482.36 345.077C482.395 344.553 482.218 344.029 482.281 343.505C482.356 342.863 482.78 342.281 482.973 341.655C483.264 340.701 483.008 339.702 482.902 338.722C482.796 337.743 482.737 336.842 483.57 336.174Z" fill="#896363"/>
<path opacity="0.1" d="M545.151 551.858C537.179 552.701 533.026 550.836 533.026 550.836C532.366 550.445 531.801 549.92 531.371 549.298C530.94 548.676 530.654 547.971 530.531 547.232C530.111 544.702 526.108 542.146 526.108 542.146C526.108 542.146 521.177 542.609 520.572 541.211C520.426 540.618 520.371 540.008 520.407 539.399C522.23 539.821 526.43 540.79 527.73 541.15C529.42 541.614 534.354 549.351 534.354 549.351C539.104 551.767 546.966 548.667 549.724 547.452C550.105 549.309 549.315 551.417 545.151 551.858Z" fill="black"/>
<path opacity="0.1" d="M509.846 538.389C509.846 538.389 507.418 541.99 519.055 540.129Z" fill="black"/>
<path opacity="0.1" d="M528.312 533.782C528.312 533.782 540.585 536.361 538.055 531.354Z" fill="black"/>
<g opacity="0.1">
<path opacity="0.1" d="M469.379 328.745C469.312 328.913 469.29 329.094 469.316 329.273C469.368 329.478 469.5 329.655 469.685 329.766L470.514 329.25C470.295 329.287 470.068 329.259 469.865 329.169C469.662 329.079 469.493 328.931 469.379 328.745V328.745Z" fill="black"/>
<path opacity="0.1" d="M467.132 326.515C467.623 326.633 468.137 326.671 468.613 326.823C469.01 326.925 469.35 327.173 469.56 327.514C469.627 327.347 469.649 327.167 469.623 326.99C469.544 326.774 469.41 326.582 469.234 326.43C469.057 326.279 468.843 326.173 468.613 326.124C468.137 325.972 467.623 325.934 467.132 325.816C466.653 325.7 466.2 325.503 465.792 325.235C465.553 325.244 465.315 325.272 465.081 325.318C465.62 325.912 466.337 326.33 467.132 326.515V326.515Z" fill="black"/>
<path opacity="0.1" d="M468.853 348.621C468.101 349.93 467.456 351.294 466.924 352.7C466.267 352.036 466.507 351.033 466.083 350.25C465.856 349.897 465.593 349.568 465.297 349.267C464.628 348.472 464.241 347.491 464.193 346.467C464.084 347.727 464.479 348.979 465.297 349.966C465.593 350.267 465.856 350.596 466.083 350.949C466.507 351.732 466.267 352.731 466.924 353.399C467.423 352.084 468.02 350.806 468.711 349.574C468.797 349.263 468.845 348.943 468.853 348.621Z" fill="black"/>
<path opacity="0.1" d="M465.604 336.33C465.534 336.48 465.505 336.644 465.521 336.808C465.544 336.925 465.594 337.035 465.668 337.129C465.743 337.223 465.839 337.299 465.949 337.351C466.113 337.12 466.296 336.902 466.495 336.698C466.326 336.748 466.143 336.738 465.98 336.671C465.817 336.603 465.684 336.483 465.604 336.33Z" fill="black"/>
<path opacity="0.1" d="M488.858 321.368C488.875 321.07 488.924 320.775 489.004 320.487C489.145 320.001 489.365 319.507 489.227 319.013C489.172 319.271 489.078 319.534 489.004 319.773C488.858 320.292 488.808 320.832 488.858 321.368Z" fill="black"/>
<path opacity="0.1" d="M475.626 320.943C475.582 321.385 475.618 321.831 475.732 322.261C475.777 321.819 475.741 321.373 475.626 320.943V320.943Z" fill="black"/>
<path opacity="0.1" d="M468.409 337.598C468.232 338.521 467.171 339.277 466.051 339.296C465.803 339.315 465.557 339.242 465.364 339.091L465.328 339.167C465.279 339.253 465.252 339.349 465.248 339.447C465.244 339.545 465.263 339.643 465.305 339.733C465.399 339.83 465.516 339.904 465.646 339.949C465.776 339.994 465.915 340.008 466.051 339.991C466.515 339.983 466.969 339.859 467.367 339.63C467.599 339.353 467.835 339.079 468.067 338.81C468.19 338.673 468.302 338.529 468.405 338.377C468.413 338.351 468.42 338.324 468.424 338.297V338.316C468.507 338.213 468.551 338.085 468.548 337.954C468.545 337.824 468.496 337.698 468.409 337.598V337.598Z" fill="black"/>
<path opacity="0.1" d="M467.481 331.927C467.39 332.007 467.324 332.11 467.291 332.224C467.258 332.338 467.258 332.459 467.293 332.573L467.662 332.676L468.079 332.094L467.481 331.927Z" fill="black"/>
<path opacity="0.1" d="M503.01 338.594C502.892 338.738 502.727 338.856 502.593 338.973C502.032 339.562 502.228 340.417 501.961 341.131C501.919 341.267 501.845 341.392 501.745 341.496C501.645 341.6 501.521 341.681 501.383 341.731C500.959 341.86 500.511 341.613 500.154 341.381L498.668 340.405C498.727 340.671 498.782 340.941 498.833 341.211L500.154 342.077C500.511 342.312 500.959 342.559 501.383 342.43C501.521 342.379 501.644 342.299 501.744 342.195C501.844 342.091 501.918 341.966 501.961 341.83C502.228 341.116 502.032 340.261 502.593 339.672C502.727 339.532 502.892 339.418 503.01 339.273C503.113 339.12 503.181 338.947 503.21 338.767C503.24 338.586 503.229 338.401 503.179 338.225C503.152 338.359 503.095 338.485 503.01 338.594V338.594Z" fill="black"/>
<path opacity="0.1" d="M499.164 344.492C499.147 344.666 499.097 344.835 499.014 344.99C498.704 345.545 497.965 345.829 497.282 346.069L495.993 346.525C495.774 346.616 495.54 346.668 495.302 346.68C495.117 346.672 494.936 346.624 494.773 346.538C494.61 346.453 494.47 346.332 494.363 346.187C494.175 345.912 494.042 345.607 493.97 345.286L492.988 341.651C492.791 340.93 492.493 340.098 491.652 339.828C491.408 339.775 491.168 339.708 490.933 339.627C490.41 339.384 490.3 338.822 490.147 338.351C489.754 337.249 488.705 336.375 487.57 335.692C486.801 335.174 485.89 334.891 484.953 334.879C484.451 334.886 483.965 335.056 483.574 335.361C482.918 335.897 482.859 336.584 482.91 337.329C482.925 337.084 482.992 336.845 483.106 336.626C483.22 336.407 483.379 336.213 483.574 336.056C483.967 335.754 484.451 335.585 484.953 335.574C485.889 335.589 486.8 335.872 487.57 336.387C488.705 337.059 489.738 337.933 490.147 339.046C490.32 339.517 490.43 340.079 490.933 340.322C491.168 340.403 491.408 340.47 491.652 340.523C492.493 340.793 492.791 341.625 492.988 342.346L493.97 345.978C494.041 346.299 494.174 346.604 494.363 346.878C494.469 347.025 494.609 347.146 494.772 347.232C494.935 347.319 495.116 347.368 495.302 347.375C495.54 347.362 495.773 347.309 495.993 347.22L497.274 346.771C497.958 346.532 498.696 346.247 499.007 345.693C499.169 345.335 499.224 344.94 499.164 344.553C499.168 344.546 499.168 344.523 499.164 344.492Z" fill="black"/>
<path opacity="0.1" d="M504.558 334.996C504.575 335.371 504.475 335.741 504.271 336.06C504.142 336.227 503.96 336.348 503.753 336.405C503.545 336.462 503.324 336.452 503.124 336.375C503.068 336.626 503.068 336.885 503.124 337.135V337.082C503.324 337.158 503.545 337.169 503.753 337.112C503.96 337.055 504.142 336.933 504.271 336.766C504.475 336.448 504.575 336.077 504.558 335.703C504.593 335.084 504.621 334.449 504.605 333.823C504.597 334.206 504.578 334.617 504.558 334.996Z" fill="black"/>
<path opacity="0.1" d="M475.708 343.535C475.34 345.25 474.765 346.918 473.995 348.503C473.657 349.134 473.155 349.81 472.33 349.935C472.081 349.945 471.834 349.985 471.595 350.053C471.432 350.138 471.29 350.256 471.178 350.399C470.727 350.893 470 351.413 469.316 351.158C469.154 351.097 469.011 350.997 468.9 350.868C468.789 350.738 468.715 350.583 468.684 350.418C468.684 350.509 468.652 350.596 468.644 350.684C468.609 350.923 468.656 351.167 468.777 351.379C468.898 351.591 469.087 351.759 469.316 351.857C470.008 352.104 470.727 351.58 471.178 351.098C471.291 350.957 471.433 350.841 471.595 350.756C471.833 350.684 472.08 350.644 472.33 350.638C473.155 350.513 473.657 349.837 473.995 349.206C474.731 347.702 475.284 346.12 475.642 344.492C475.642 344.172 475.664 343.852 475.708 343.535Z" fill="black"/>
<path opacity="0.1" d="M479.987 339.866C479.668 342.177 479.176 344.462 478.514 346.703C478.433 347.094 478.244 347.456 477.968 347.752C477.807 347.907 477.601 348.012 477.378 348.054C477.155 348.096 476.924 348.073 476.714 347.987C476.474 347.837 476.297 347.61 476.215 347.345C475.89 346.556 475.704 345.721 475.665 344.872C475.614 345.956 475.806 347.038 476.227 348.044C476.309 348.31 476.486 348.539 476.726 348.69C476.936 348.774 477.167 348.797 477.39 348.755C477.613 348.713 477.818 348.609 477.979 348.454C478.255 348.159 478.444 347.796 478.525 347.406C479.155 345.274 479.63 343.102 479.948 340.907L479.987 339.866Z" fill="black"/>
<path opacity="0.1" d="M483.028 340.853C482.835 341.48 482.415 342.057 482.34 342.703C482.315 342.911 482.315 343.122 482.34 343.33C482.435 342.715 482.831 342.156 483.016 341.552C483.141 341.111 483.182 340.652 483.138 340.196C483.124 340.418 483.087 340.639 483.028 340.853V340.853Z" fill="black"/>
<path opacity="0.1" d="M481.401 345.465C481.346 345.153 480.875 345.051 480.553 344.88C480.329 344.74 480.145 344.547 480.019 344.32C479.894 344.093 479.83 343.838 479.834 343.581V343.668C479.798 344.367 479.834 345.187 480.557 345.567C480.879 345.738 481.342 345.837 481.405 346.152C481.69 346.094 481.945 345.945 482.13 345.728C482.315 345.511 482.418 345.24 482.423 344.959C482.432 344.779 482.425 344.599 482.403 344.42C482.374 344.675 482.261 344.914 482.081 345.102C481.9 345.29 481.662 345.417 481.401 345.465Z" fill="black"/>
</g>
<path d="M593.55 349.977C593.55 349.977 586.392 347.824 587.476 355.443C588.56 363.062 591.326 363.53 591.326 363.53C591.326 363.53 593.731 363.005 594.033 359.982C594.336 356.959 593.55 349.977 593.55 349.977Z" fill="#FFA2A2"/>
<g opacity="0.1">
<path opacity="0.1" d="M756.766 512.287C762.789 520.882 760.863 551.656 760.863 551.656C760.863 551.656 730.611 541.971 724.569 533.375C723.137 531.33 722.135 529.032 721.621 526.613C721.108 524.194 721.092 521.7 721.575 519.275C722.55 514.377 725.498 510.054 729.771 507.258C734.043 504.461 739.289 503.42 744.355 504.363C749.422 505.306 753.893 508.157 756.785 512.287H756.766Z" fill="#6C63FF"/>
<path opacity="0.1" d="M756.766 512.287C762.789 520.882 760.863 551.656 760.863 551.656C760.863 551.656 730.611 541.971 724.569 533.375C723.137 531.33 722.135 529.032 721.621 526.613C721.108 524.194 721.092 521.7 721.575 519.275C722.55 514.377 725.498 510.054 729.771 507.258C734.043 504.461 739.289 503.42 744.355 504.363C749.422 505.306 753.893 508.157 756.785 512.287H756.766Z" fill="black"/>
<path opacity="0.1" d="M729.881 507.288C729.881 507.288 752.566 524.221 760.981 551.679" stroke="#535461" stroke-miterlimit="10"/>
<path opacity="0.1" d="M766.694 528.354C766.694 528.354 750.586 525.695 761.586 551.489C761.586 551.489 772.78 547.368 773.652 537.105C773.826 535.108 773.236 533.119 771.994 531.514C770.752 529.91 768.945 528.801 766.914 528.399L766.694 528.354Z" fill="#6C63FF"/>
<path opacity="0.1" d="M766.933 528.331C766.933 528.331 770.002 542.598 761.606 551.501" stroke="#535461" stroke-miterlimit="10"/>
</g>
<g opacity="0.1">
<path opacity="0.1" d="M590.407 486.55C590.407 486.55 614.601 426.916 660.855 404.358C680.271 394.892 696.238 379.897 705.899 361.057C710.467 352.115 714.178 342.788 716.986 333.192" stroke="#535461" stroke-width="2" stroke-miterlimit="10"/>
<path opacity="0.1" d="M746.048 318.808C741.27 324.76 716.275 333.648 716.275 333.648C716.275 333.648 718.986 308.032 723.764 302.084C724.883 300.629 726.292 299.404 727.908 298.482C729.523 297.56 731.313 296.959 733.172 296.713C735.031 296.468 736.921 296.584 738.733 297.053C740.545 297.523 742.242 298.338 743.725 299.45C745.207 300.561 746.445 301.948 747.366 303.528C748.288 305.108 748.874 306.85 749.09 308.651C749.306 310.453 749.149 312.278 748.626 314.02C748.104 315.762 747.227 317.386 746.048 318.797V318.808Z" fill="#6C63FF"/>
<path opacity="0.1" d="M738.002 365.588C730.647 368.072 704.666 362.398 704.666 362.398C704.666 362.398 721.343 342.324 728.698 339.84C730.447 339.249 732.299 338.997 734.148 339.099C735.998 339.2 737.809 339.652 739.477 340.43C741.146 341.208 742.639 342.296 743.873 343.632C745.107 344.968 746.056 346.526 746.667 348.217C747.278 349.907 747.538 351.698 747.433 353.486C747.328 355.274 746.86 357.024 746.056 358.638C745.251 360.251 744.126 361.695 742.744 362.887C741.362 364.08 739.751 364.998 738.002 365.588V365.588Z" fill="#6C63FF"/>
<path opacity="0.1" d="M691.975 421.298C684.326 419.855 664.866 402.276 664.866 402.276C664.866 402.276 689.748 393.084 697.393 394.532C699.211 394.875 700.941 395.562 702.485 396.552C704.028 397.542 705.355 398.816 706.389 400.302C707.423 401.788 708.144 403.456 708.512 405.211C708.879 406.966 708.885 408.774 708.529 410.532C708.174 412.289 707.464 413.962 706.44 415.454C705.416 416.947 704.097 418.229 702.561 419.229C701.024 420.229 699.298 420.926 697.483 421.281C695.667 421.636 693.797 421.642 691.979 421.298H691.975Z" fill="#6C63FF"/>
<path opacity="0.1" d="M647.328 455.87C639.541 455.696 617.284 441.551 617.284 441.551C617.284 441.551 640.197 428.428 647.988 428.602C649.84 428.644 651.665 429.038 653.36 429.762C655.054 430.486 656.585 431.526 657.863 432.821C659.142 434.117 660.145 435.643 660.813 437.314C661.482 438.984 661.804 440.765 661.761 442.555C661.717 444.346 661.31 446.111 660.561 447.749C659.812 449.387 658.737 450.866 657.397 452.103C656.057 453.339 654.478 454.308 652.75 454.955C651.022 455.601 649.18 455.912 647.328 455.87V455.87Z" fill="#6C63FF"/>
<path opacity="0.1" d="M680.358 346.012C681.442 353.468 698.556 373.196 698.556 373.196C698.556 373.196 709.38 349.669 708.296 342.21C707.722 338.673 705.732 335.496 702.757 333.364C699.781 331.233 696.058 330.318 692.391 330.817C688.724 331.316 685.407 333.189 683.156 336.032C680.904 338.874 679.899 342.459 680.358 346.012V346.012Z" fill="#6C63FF"/>
<path opacity="0.1" d="M628.666 387.06C632.01 393.871 654.428 407.738 654.428 407.738C654.428 407.738 657.476 382.157 654.129 375.354C653.334 373.736 652.217 372.286 650.842 371.086C649.468 369.886 647.862 368.959 646.117 368.359C644.371 367.759 642.521 367.497 640.671 367.588C638.821 367.68 637.008 368.122 635.335 368.891C633.662 369.66 632.162 370.739 630.921 372.068C629.68 373.397 628.721 374.95 628.101 376.637C627.48 378.324 627.209 380.113 627.303 381.901C627.398 383.69 627.855 385.443 628.65 387.06H628.666Z" fill="#6C63FF"/>
</g>
<g opacity="0.1">
<path opacity="0.1" d="M586.403 379.14C586.403 379.14 595.145 357.592 611.854 349.449C618.886 346.074 624.596 340.586 628.128 333.807C629.779 330.577 631.12 327.208 632.135 323.742" stroke="#535461" stroke-width="2" stroke-miterlimit="10"/>
<path opacity="0.1" d="M642.641 318.55C640.912 320.699 631.884 323.909 631.884 323.909C631.884 323.909 632.862 314.656 634.591 312.514C634.979 311.948 635.484 311.466 636.074 311.097C636.664 310.729 637.326 310.482 638.019 310.372C638.713 310.262 639.422 310.291 640.103 310.458C640.783 310.625 641.421 310.926 641.976 311.342C642.531 311.759 642.992 312.281 643.329 312.877C643.665 313.473 643.871 314.13 643.934 314.806C643.996 315.482 643.914 316.164 643.691 316.808C643.469 317.452 643.111 318.045 642.641 318.55V318.55Z" fill="#6C63FF"/>
<path opacity="0.1" d="M639.725 335.449C637.07 336.345 627.684 334.309 627.684 334.309C627.684 334.309 633.707 327.054 636.362 326.158C637.006 325.893 637.698 325.759 638.398 325.763C639.097 325.768 639.788 325.911 640.427 326.184C641.067 326.457 641.642 326.855 642.116 327.351C642.59 327.848 642.954 328.434 643.185 329.072C643.415 329.71 643.508 330.387 643.457 331.061C643.406 331.735 643.213 332.392 642.888 332.991C642.564 333.59 642.116 334.118 641.572 334.543C641.028 334.968 640.399 335.28 639.725 335.46V335.449Z" fill="#6C63FF"/>
<path opacity="0.1" d="M623.095 355.576C620.345 355.052 613.304 348.701 613.304 348.701C613.304 348.701 622.289 345.381 625.051 345.905C625.744 345.993 626.411 346.216 627.01 346.562C627.61 346.909 628.129 347.37 628.537 347.918C628.945 348.466 629.232 349.089 629.381 349.749C629.53 350.409 629.537 351.091 629.403 351.753C629.268 352.416 628.995 353.044 628.599 353.601C628.203 354.157 627.693 354.629 627.101 354.987C626.509 355.345 625.848 355.582 625.157 355.684C624.467 355.785 623.762 355.748 623.087 355.576H623.095Z" fill="#6C63FF"/>
<path opacity="0.1" d="M606.967 368.064C604.154 368 596.115 362.891 596.115 362.891C596.115 362.891 604.394 358.147 607.207 358.212C608.5 358.321 609.702 358.902 610.567 359.838C611.433 360.773 611.898 361.992 611.868 363.247C611.837 364.501 611.313 365.698 610.403 366.593C609.493 367.488 608.264 368.014 606.967 368.064V368.064Z" fill="#6C63FF"/>
<path opacity="0.1" d="M618.895 328.368C619.288 331.061 625.472 338.191 625.472 338.191C625.472 338.191 629.401 329.69 629.008 326.997C628.957 326.323 628.763 325.666 628.439 325.067C628.114 324.468 627.666 323.94 627.122 323.515C626.578 323.09 625.949 322.778 625.275 322.598C624.601 322.418 623.896 322.373 623.203 322.467C622.511 322.562 621.845 322.792 621.249 323.145C620.652 323.498 620.137 323.965 619.735 324.518C619.333 325.072 619.053 325.699 618.911 326.361C618.77 327.023 618.771 327.706 618.915 328.368H618.895Z" fill="#6C63FF"/>
<path opacity="0.1" d="M600.209 343.205C601.419 345.662 609.525 350.676 609.525 350.676C609.525 350.676 610.625 341.435 609.415 338.977C608.781 337.886 607.742 337.069 606.509 336.69C605.275 336.311 603.939 336.399 602.77 336.936C601.601 337.473 600.687 338.418 600.211 339.582C599.736 340.746 599.735 342.041 600.209 343.205V343.205Z" fill="#6C63FF"/>
<path opacity="0.1" d="M584.125 360.035C584.887 362.652 591.982 368.919 591.982 368.919C591.982 368.919 594.709 359.989 593.923 357.368C593.773 356.713 593.486 356.095 593.08 355.551C592.674 355.006 592.157 354.548 591.562 354.203C590.966 353.858 590.304 353.634 589.616 353.545C588.928 353.456 588.229 353.503 587.56 353.684C586.892 353.865 586.269 354.176 585.728 354.598C585.188 355.019 584.743 355.543 584.419 356.136C584.096 356.73 583.9 357.381 583.846 358.05C583.791 358.719 583.878 359.392 584.101 360.027L584.125 360.035Z" fill="#6C63FF"/>
</g>
<g opacity="0.1">
<path opacity="0.1" d="M660.026 557.867C660.026 557.867 660.395 534.727 673.089 521.433C678.454 515.892 681.812 508.817 682.66 501.272C683.033 497.686 683.066 494.075 682.758 490.484" stroke="#535461" stroke-width="2" stroke-miterlimit="10"/>
<path opacity="0.1" d="M690.706 482.064C689.869 484.65 682.577 490.727 682.577 490.727C682.577 490.727 680.141 481.725 680.978 479.127C681.449 477.964 682.358 477.016 683.523 476.475C684.688 475.933 686.022 475.839 687.255 476.211C688.489 476.583 689.531 477.393 690.172 478.479C690.812 479.564 691.003 480.844 690.706 482.06V482.064Z" fill="#6C63FF"/>
<path opacity="0.1" d="M694.109 498.875C691.944 500.615 682.412 501.88 682.412 501.88C682.412 501.88 685.422 493.045 687.587 491.301C688.635 490.563 689.935 490.238 691.223 490.393C692.51 490.547 693.689 491.17 694.519 492.134C695.349 493.097 695.768 494.331 695.692 495.583C695.616 496.835 695.05 498.012 694.109 498.875V498.875Z" fill="#6C63FF"/>
<path opacity="0.1" d="M685.858 523.359C683.08 523.807 674.193 520.244 674.193 520.244C674.193 520.244 681.407 514.087 684.18 513.639C685.47 513.514 686.761 513.868 687.791 514.63C688.821 515.391 689.513 516.503 689.726 517.739C689.939 518.976 689.658 520.244 688.94 521.288C688.222 522.331 687.12 523.072 685.858 523.359V523.359Z" fill="#6C63FF"/>
<path opacity="0.1" d="M675.25 540.523C672.59 541.416 663.208 539.357 663.208 539.357C663.208 539.357 669.259 532.129 671.915 531.217C672.56 530.948 673.255 530.811 673.957 530.814C674.66 530.816 675.354 530.959 675.997 531.233C676.64 531.506 677.217 531.905 677.693 532.405C678.169 532.904 678.534 533.493 678.764 534.135C678.994 534.776 679.084 535.457 679.03 536.134C678.976 536.811 678.777 537.47 678.448 538.069C678.118 538.669 677.664 539.196 677.113 539.619C676.563 540.041 675.929 540.349 675.25 540.523V540.523Z" fill="#6C63FF"/>
<path opacity="0.1" d="M672.04 499.304C673.384 501.697 681.76 506.274 681.76 506.274C681.76 506.274 682.338 496.991 680.974 494.598C680.28 493.541 679.197 492.779 677.944 492.465C676.69 492.151 675.361 492.309 674.223 492.907C673.086 493.505 672.226 494.498 671.817 495.685C671.408 496.873 671.481 498.166 672.02 499.304H672.04Z" fill="#6C63FF"/>
<path opacity="0.1" d="M659.928 519.53C661.951 521.429 671.36 523.366 671.36 523.366C671.36 523.366 669.039 514.342 667.015 512.446C666.023 511.656 664.76 511.257 663.477 511.328C662.194 511.399 660.986 511.935 660.093 512.829C659.201 513.723 658.69 514.909 658.662 516.151C658.634 517.393 659.092 518.6 659.943 519.53H659.928Z" fill="#6C63FF"/>
<path opacity="0.1" d="M650.962 540.747C652.624 542.943 661.57 546.399 661.57 546.399C661.57 546.399 660.859 537.12 659.213 534.924C658.379 533.964 657.2 533.346 655.913 533.196C654.626 533.045 653.328 533.374 652.282 534.114C651.236 534.855 650.52 535.952 650.28 537.184C650.04 538.416 650.294 539.69 650.99 540.747H650.962Z" fill="#6C63FF"/>
</g>
<g opacity="0.1">
<path opacity="0.1" d="M601.113 554.228C601.113 554.228 601.482 531.085 614.176 517.791C619.541 512.249 622.899 505.174 623.747 497.629C624.12 494.045 624.153 490.436 623.845 486.846" stroke="#535461" stroke-width="2" stroke-miterlimit="10"/>
<path opacity="0.1" d="M631.793 478.421C630.956 481.019 623.664 487.089 623.664 487.089C623.664 487.089 621.229 478.09 622.065 475.492C622.225 474.832 622.524 474.21 622.944 473.666C623.363 473.123 623.894 472.668 624.503 472.331C625.112 471.994 625.786 471.783 626.484 471.709C627.181 471.635 627.887 471.701 628.557 471.903C629.227 472.105 629.847 472.438 630.378 472.881C630.909 473.325 631.339 473.869 631.643 474.481C631.947 475.092 632.117 475.758 632.143 476.436C632.168 477.114 632.05 477.789 631.793 478.421V478.421Z" fill="#6C63FF"/>
<path opacity="0.1" d="M635.203 495.232C633.039 496.976 623.507 498.237 623.507 498.237C623.507 498.237 626.517 489.402 628.682 487.662C629.73 486.93 631.027 486.61 632.31 486.767C633.594 486.923 634.768 487.545 635.596 488.506C636.423 489.467 636.843 490.695 636.77 491.944C636.698 493.192 636.138 494.367 635.203 495.232V495.232Z" fill="#6C63FF"/>
<path opacity="0.1" d="M626.925 519.72C624.148 520.165 615.261 516.602 615.261 516.602C615.261 516.602 622.474 510.445 625.248 510C625.928 509.846 626.634 509.828 627.322 509.947C628.01 510.067 628.665 510.322 629.247 510.696C629.829 511.071 630.325 511.556 630.705 512.124C631.085 512.691 631.34 513.328 631.456 513.994C631.571 514.661 631.543 515.343 631.374 515.999C631.205 516.655 630.899 517.27 630.475 517.807C630.05 518.344 629.516 518.79 628.905 519.12C628.295 519.449 627.621 519.653 626.925 519.72Z" fill="#6C63FF"/>
<path opacity="0.1" d="M616.353 536.881C613.693 537.777 604.311 535.715 604.311 535.715C604.311 535.715 610.346 528.471 613.002 527.571C613.645 527.307 614.338 527.173 615.038 527.178C615.737 527.184 616.428 527.328 617.067 527.602C617.706 527.875 618.281 528.273 618.755 528.771C619.228 529.268 619.592 529.854 619.822 530.492C620.051 531.131 620.143 531.808 620.091 532.483C620.039 533.157 619.845 533.814 619.52 534.412C619.195 535.011 618.746 535.538 618.201 535.962C617.656 536.386 617.027 536.698 616.353 536.877V536.881Z" fill="#6C63FF"/>
<path opacity="0.1" d="M613.127 495.665C614.471 498.058 622.847 502.635 622.847 502.635C622.847 502.635 623.425 493.352 622.062 490.959C621.779 490.33 621.365 489.765 620.844 489.3C620.323 488.835 619.708 488.479 619.037 488.256C618.367 488.033 617.655 487.948 616.949 488.005C616.242 488.063 615.556 488.262 614.933 488.59C614.31 488.918 613.765 489.367 613.332 489.91C612.899 490.453 612.588 491.077 612.418 491.743C612.248 492.409 612.223 493.101 612.345 493.776C612.468 494.452 612.734 495.095 613.127 495.665V495.665Z" fill="#6C63FF"/>
<path opacity="0.1" d="M601.023 515.888C603.046 517.787 612.455 519.728 612.455 519.728C612.455 519.728 610.134 510.699 608.11 508.808C607.644 508.295 607.073 507.881 606.434 507.592C605.794 507.303 605.099 507.146 604.393 507.13C603.687 507.114 602.986 507.239 602.333 507.498C601.68 507.758 601.089 508.145 600.599 508.636C600.108 509.127 599.728 509.711 599.483 510.351C599.238 510.991 599.133 511.674 599.174 512.355C599.215 513.037 599.402 513.702 599.723 514.31C600.044 514.918 600.492 515.455 601.038 515.888H601.023Z" fill="#6C63FF"/>
<path opacity="0.1" d="M592.049 537.105C593.711 539.3 602.657 542.757 602.657 542.757C602.657 542.757 601.946 533.478 600.3 531.282C599.925 530.712 599.432 530.222 598.854 529.843C598.275 529.464 597.622 529.204 596.935 529.079C596.248 528.954 595.542 528.966 594.86 529.116C594.178 529.265 593.536 529.549 592.972 529.948C592.408 530.347 591.934 530.854 591.581 531.438C591.228 532.021 591.003 532.668 590.919 533.339C590.835 534.01 590.895 534.69 591.094 535.338C591.293 535.986 591.627 536.587 592.077 537.105H592.049Z" fill="#6C63FF"/>
</g>
<path d="M215.181 381.161C217.014 381.161 218.499 379.235 218.499 376.859C218.499 374.482 217.014 372.556 215.181 372.556C213.348 372.556 211.862 374.482 211.862 376.859C211.862 379.235 213.348 381.161 215.181 381.161Z" fill="#E6E6E6"/>
<path d="M354.655 421.423C356.487 421.423 357.973 419.497 357.973 417.121C357.973 414.745 356.487 412.818 354.655 412.818C352.822 412.818 351.336 414.745 351.336 417.121C351.336 419.497 352.822 421.423 354.655 421.423Z" fill="#E6E6E6"/>
<path d="M263.505 327.605C265.338 327.605 266.824 325.679 266.824 323.303C266.824 320.926 265.338 319 263.505 319C261.672 319 260.187 320.926 260.187 323.303C260.187 325.679 261.672 327.605 263.505 327.605Z" fill="#E6E6E6"/>
<path d="M323.005 477.82L319.146 455.381C319.068 454.927 319.18 454.461 319.457 454.087C319.734 453.712 320.153 453.459 320.623 453.383L338.152 450.565C338.622 450.49 339.103 450.598 339.49 450.866C339.878 451.134 340.14 451.539 340.218 451.993L344.078 474.432C344.155 474.886 344.043 475.352 343.766 475.726C343.489 476.101 343.07 476.354 342.6 476.43L325.072 479.248C324.602 479.323 324.121 479.215 323.733 478.947C323.346 478.679 323.084 478.274 323.005 477.82V477.82Z" fill="#3F3D56"/>
<path d="M323.184 470.826L320.703 456.401C320.63 455.975 320.735 455.539 320.994 455.188C321.254 454.838 321.647 454.601 322.086 454.529L337.151 452.108C337.591 452.037 338.042 452.139 338.405 452.39C338.767 452.64 339.013 453.02 339.086 453.445L342.521 473.413C342.593 473.838 342.488 474.274 342.229 474.625C341.97 474.976 341.577 475.213 341.137 475.284L331.805 476.784C329.845 477.097 327.836 476.645 326.22 475.528C324.604 474.412 323.512 472.72 323.184 470.826V470.826Z" fill="white"/>
<path d="M323.835 460.033C323.763 459.618 323.866 459.192 324.119 458.849C324.373 458.506 324.757 458.275 325.186 458.205L335.637 456.525C335.849 456.491 336.067 456.497 336.278 456.545C336.488 456.592 336.687 456.678 336.862 456.8C337.038 456.921 337.187 457.075 337.301 457.252C337.415 457.429 337.492 457.626 337.528 457.832C337.563 458.038 337.556 458.248 337.507 458.452C337.459 458.655 337.369 458.847 337.243 459.017C337.118 459.187 336.959 459.331 336.776 459.441C336.593 459.552 336.389 459.626 336.176 459.66L325.726 461.34C325.296 461.409 324.855 461.31 324.501 461.065C324.146 460.82 323.906 460.449 323.835 460.033Z" fill="#70EC44"/>
<path d="M324.673 464.911C324.602 464.495 324.705 464.069 324.958 463.726C325.212 463.384 325.595 463.152 326.025 463.082L336.475 461.402C336.688 461.368 336.906 461.375 337.116 461.422C337.327 461.469 337.525 461.556 337.701 461.677C337.877 461.799 338.026 461.952 338.14 462.129C338.254 462.306 338.331 462.504 338.367 462.709C338.402 462.915 338.395 463.126 338.346 463.329C338.298 463.532 338.208 463.725 338.082 463.894C337.957 464.064 337.798 464.208 337.615 464.319C337.432 464.429 337.228 464.504 337.015 464.538L326.565 466.218C326.135 466.286 325.694 466.187 325.339 465.942C324.985 465.697 324.745 465.326 324.673 464.911Z" fill="#70EC44"/>
<path d="M325.512 469.788C325.441 469.372 325.544 468.946 325.797 468.603C326.051 468.261 326.434 468.029 326.864 467.959L337.314 466.279C337.744 466.21 338.185 466.309 338.54 466.554C338.895 466.799 339.134 467.171 339.205 467.586C339.277 468.002 339.175 468.428 338.921 468.771C338.668 469.114 338.284 469.346 337.854 469.415L327.403 471.095C326.973 471.163 326.533 471.064 326.178 470.819C325.824 470.574 325.584 470.203 325.512 469.788Z" fill="#70EC44"/>
<path d="M315.091 456.671C314.634 456.174 314.296 455.586 314.1 454.95C313.903 454.313 313.854 453.642 313.955 452.985C314.056 452.327 314.304 451.7 314.683 451.145C315.062 450.591 315.562 450.124 316.148 449.776L310.034 421.63L318.138 424.643L322.829 451.532C323.368 452.522 323.511 453.669 323.233 454.755C322.955 455.841 322.275 456.791 321.321 457.424C320.367 458.058 319.206 458.331 318.058 458.192C316.91 458.053 315.854 457.512 315.091 456.671V456.671Z" fill="#FFB8B8"/>
<path d="M312.393 545.69L319.063 545.69L322.237 520.816L312.392 520.816L312.393 545.69Z" fill="#FFB6B6"/>
<path d="M310.692 543.584L312.569 543.584L319.899 540.702L323.828 543.584H323.828C326.049 543.584 328.178 544.436 329.748 545.954C331.318 547.472 332.2 549.53 332.2 551.677V551.94L310.692 551.941L310.692 543.584Z" fill="#2F2E41"/>
<path d="M252.123 537.306L258.093 540.182L272.41 519.289L263.599 515.044L252.123 537.306Z" fill="#FFB6B6"/>
<path d="M251.571 534.688L253.252 535.497L261.142 536.079L263.328 540.352L263.329 540.353C265.316 541.31 266.828 542.992 267.533 545.027C268.237 547.062 268.077 549.285 267.087 551.206L266.965 551.442L247.716 542.167L251.571 534.688Z" fill="#2F2E41"/>
<path d="M315.348 432.723L272.937 433.793L273.675 453.759C273.675 453.759 272.937 459.107 274.412 460.534C275.887 461.96 276.625 461.96 275.887 464.456C275.15 466.951 273.243 490.798 273.243 490.798C273.243 490.798 255.836 520.554 256.574 521.267C257.311 521.98 258.049 521.267 257.311 523.05C256.574 524.832 255.836 524.119 256.574 524.832C257.227 525.513 257.842 526.227 258.418 526.972H270.439C270.439 526.972 271.111 523.406 271.111 523.05C271.111 522.693 271.849 520.554 271.849 520.197C271.849 519.841 292.852 498.327 292.852 498.327L297.277 462.673L307.972 497.614C307.972 497.614 307.972 528.277 308.71 528.99C309.448 529.703 309.448 529.346 309.079 530.773C308.71 532.199 307.235 531.842 308.341 532.912C309.448 533.982 309.816 532.199 309.448 533.982L309.079 535.764L323.248 535.917C323.248 535.917 324.723 532.912 323.985 531.842C323.248 530.773 323.292 531.065 324.192 529.314C325.092 527.564 325.46 527.207 325.092 526.851C324.723 526.494 324.723 524.598 324.723 524.598C324.723 524.598 319.405 454.472 319.405 453.403C319.377 452.852 319.482 452.303 319.712 451.799V450.347L318.299 445.202L315.348 432.723Z" fill="#2F2E41"/>
<path d="M293.388 362.701L314.631 404.236L310.475 454.644L283.329 452.246L278.461 368.767L293.388 362.701Z" fill="#2F2E41"/>
<path d="M323.218 449.079L310.804 447.982L310.785 447.83L302.455 381.147L304.319 376.15C304.765 374.963 305.521 373.909 306.513 373.088C307.505 372.268 308.7 371.71 309.982 371.468V371.467C310.958 371.286 311.962 371.292 312.936 371.487C313.909 371.682 314.833 372.062 315.654 372.603C316.476 373.145 317.178 373.838 317.721 374.644C318.264 375.449 318.636 376.35 318.817 377.295L321.047 388.937L324.209 428.288L323.218 449.079Z" fill="#2F2E41"/>
<path d="M290.898 368.86L293.402 363.069L301.15 363.201L309.23 374.25L317.71 408.728C317.71 408.728 320.756 433.915 317.71 435.245C314.664 436.574 304.34 434.932 304.34 434.932L290.898 368.86Z" fill="#70EC44"/>
<path d="M301.15 363.201C301.15 363.201 317.841 372.529 318.494 377.398C319.147 382.267 321.332 441.862 321.332 441.862L315.43 438.175L313.817 416.454L306.613 371.984L301.15 363.201Z" fill="#2F2E41"/>
<path d="M297.21 360.488C303.492 360.488 308.585 355.564 308.585 349.49C308.585 343.416 303.492 338.493 297.21 338.493C290.927 338.493 285.834 343.416 285.834 349.49C285.834 355.564 290.927 360.488 297.21 360.488Z" fill="#FFB8B8"/>
<path d="M284.307 342.264C285.584 340.354 287.981 339.08 290.305 339.438C290.521 338.004 291.14 336.656 292.095 335.538C293.049 334.421 294.302 333.579 295.717 333.102C297.133 332.626 298.656 332.534 300.122 332.837C301.587 333.14 302.939 333.825 304.029 334.819C304.388 334.575 304.806 334.425 305.242 334.383C305.678 334.34 306.119 334.408 306.52 334.578C307.32 334.93 308.016 335.47 308.544 336.149C309.877 337.756 310.735 339.683 311.025 341.725C311.315 343.766 311.028 345.845 310.193 347.741C310.477 346.743 309.442 345.804 308.397 345.58C307.352 345.356 306.255 345.568 305.195 345.422C303.836 345.235 302.615 344.473 301.254 344.302C300.11 344.158 298.96 344.441 297.845 344.725C296.73 345.009 295.583 345.299 294.437 345.168C293.292 345.036 291.817 349.233 291.836 352.188C291.84 352.748 291.721 353.467 291.155 353.586C290.457 353.733 290.053 352.802 289.39 352.549C289.084 352.464 288.756 352.497 288.475 352.642C288.194 352.786 287.982 353.03 287.884 353.323C287.8 353.62 287.791 353.933 287.858 354.234C287.924 354.536 288.064 354.817 288.266 355.056C288.674 355.529 289.158 355.935 289.7 356.259L289.427 356.478C288.972 357.059 288.029 357.084 287.374 356.725C286.747 356.315 286.24 355.756 285.9 355.102C284.687 353.153 283.624 351.076 283.196 348.839C282.768 346.602 283.03 344.174 284.307 342.264Z" fill="#2F2E41"/>
<path d="M259.53 423.711L282.256 400.138C282.717 399.662 283.354 399.381 284.028 399.358C284.702 399.336 285.359 399.572 285.853 400.016L304.267 416.61C304.76 417.055 305.05 417.671 305.073 418.323C305.097 418.975 304.852 419.609 304.393 420.087L281.666 443.659C281.206 444.135 280.569 444.416 279.894 444.439C279.22 444.462 278.564 444.225 278.07 443.781L259.656 427.188C259.163 426.742 258.873 426.126 258.849 425.475C258.826 424.823 259.07 424.188 259.53 423.711Z" fill="#E6E6E6"/>
<path d="M267.807 417.864L282.417 402.71C282.848 402.263 283.445 402 284.077 401.979C284.708 401.958 285.323 402.179 285.785 402.595L301.611 416.856C302.072 417.273 302.344 417.85 302.366 418.46C302.389 419.071 302.159 419.665 301.729 420.112L281.506 441.088C281.074 441.535 280.477 441.797 279.846 441.819C279.215 441.84 278.6 441.619 278.137 441.203L268.334 432.368C266.277 430.511 265.067 427.941 264.968 425.222C264.869 422.502 265.89 419.856 267.807 417.864V417.864Z" fill="white"/>
<path d="M280.903 409.247C281.324 408.811 281.908 408.554 282.525 408.533C283.142 408.512 283.742 408.729 284.194 409.135L295.172 419.028C295.624 419.435 295.89 419.999 295.912 420.596C295.933 421.192 295.709 421.773 295.288 422.21C294.867 422.646 294.284 422.904 293.666 422.925C293.049 422.946 292.448 422.729 291.997 422.322L281.019 412.429C280.567 412.022 280.302 411.458 280.28 410.861C280.259 410.265 280.483 409.684 280.903 409.247V409.247Z" fill="#E6E6E6"/>
<path d="M275.963 414.371C276.385 413.934 276.968 413.678 277.585 413.657C278.202 413.636 278.802 413.852 279.254 414.259L290.232 424.151C290.456 424.353 290.637 424.595 290.763 424.864C290.89 425.133 290.961 425.424 290.972 425.719C290.983 426.015 290.933 426.309 290.826 426.586C290.719 426.863 290.557 427.117 290.348 427.333C290.14 427.55 289.889 427.724 289.611 427.847C289.333 427.969 289.032 428.038 288.726 428.048C288.421 428.059 288.116 428.011 287.83 427.907C287.543 427.804 287.28 427.647 287.057 427.445L276.079 417.553C275.628 417.145 275.362 416.581 275.34 415.985C275.319 415.388 275.543 414.808 275.963 414.371V414.371Z" fill="#E6E6E6"/>
<path d="M271.023 419.494C271.445 419.058 272.028 418.801 272.645 418.78C273.262 418.759 273.863 418.976 274.315 419.382L285.293 429.275C285.744 429.682 286.01 430.246 286.032 430.843C286.054 431.439 285.829 432.02 285.408 432.457C284.987 432.894 284.404 433.151 283.787 433.172C283.169 433.193 282.569 432.976 282.117 432.569L271.139 422.676C270.688 422.269 270.422 421.705 270.401 421.108C270.379 420.512 270.603 419.931 271.023 419.494V419.494Z" fill="#E6E6E6"/>
<path d="M297.734 447.59L289.877 458.467L289.511 458.894C288.874 459.634 287.995 460.141 287.02 460.331C286.881 460.358 286.743 460.378 286.603 460.392C286.431 460.409 286.258 460.416 286.085 460.412C285.986 460.41 285.887 460.405 285.789 460.397C285.215 460.349 284.658 460.192 284.148 459.935L280.795 457.671C280.528 457.491 280.338 457.224 280.259 456.919C280.22 456.768 280.209 456.611 280.227 456.457C280.251 456.24 280.332 456.033 280.462 455.854L290.136 442.461C290.342 442.177 290.655 441.984 291.008 441.923C291.36 441.863 291.723 441.94 292.017 442.138L297.4 445.773C297.413 445.781 297.425 445.79 297.438 445.799C297.446 445.805 297.454 445.811 297.462 445.817C297.472 445.825 297.483 445.833 297.493 445.841C297.506 445.851 297.519 445.862 297.531 445.873C297.542 445.883 297.554 445.893 297.565 445.903L297.571 445.909C297.585 445.923 297.599 445.936 297.612 445.95C297.626 445.963 297.639 445.978 297.652 445.992C297.661 446.002 297.67 446.013 297.679 446.023L297.68 446.024C297.706 446.055 297.73 446.088 297.753 446.122C297.76 446.132 297.767 446.143 297.774 446.153L297.777 446.158C297.783 446.166 297.788 446.175 297.793 446.184C297.809 446.209 297.823 446.236 297.837 446.263C297.86 446.307 297.88 446.353 297.897 446.399C297.903 446.414 297.908 446.429 297.913 446.444C297.917 446.457 297.921 446.469 297.924 446.482L297.925 446.485L297.927 446.49C297.93 446.501 297.933 446.512 297.936 446.522C297.941 446.543 297.946 446.565 297.951 446.586C297.952 446.592 297.953 446.597 297.954 446.603C297.956 446.609 297.957 446.615 297.958 446.621C297.959 446.627 297.96 446.633 297.961 446.638L297.962 446.648C297.965 446.665 297.967 446.682 297.969 446.699C297.972 446.721 297.974 446.743 297.975 446.764C297.976 446.782 297.977 446.8 297.977 446.818C297.978 446.834 297.978 446.85 297.977 446.866C297.977 446.87 297.977 446.874 297.977 446.878C297.977 446.895 297.976 446.911 297.975 446.928C297.972 446.969 297.967 447.01 297.96 447.051C297.958 447.066 297.955 447.081 297.952 447.096C297.948 447.115 297.944 447.133 297.94 447.15C297.938 447.157 297.936 447.164 297.934 447.171C297.932 447.181 297.929 447.19 297.926 447.2C297.923 447.211 297.919 447.222 297.916 447.233L297.907 447.259C297.902 447.274 297.896 447.289 297.89 447.304C297.887 447.313 297.883 447.322 297.879 447.332C297.852 447.396 297.82 447.459 297.782 447.519C297.777 447.526 297.773 447.534 297.768 447.541C297.757 447.558 297.746 447.574 297.734 447.59Z" fill="white"/>
<path d="M292.413 448.004C293.05 448.004 293.566 447.504 293.566 446.888C293.566 446.273 293.05 445.773 292.413 445.773C291.776 445.773 291.26 446.273 291.26 446.888C291.26 447.504 291.776 448.004 292.413 448.004Z" fill="#6C63FF"/>
<path d="M279.384 458.672C278.927 458.175 278.589 457.587 278.392 456.951C278.196 456.314 278.147 455.643 278.247 454.986C278.348 454.328 278.597 453.7 278.976 453.146C279.355 452.592 279.855 452.125 280.441 451.777L274.327 423.631L282.431 426.644L287.122 453.533C287.66 454.523 287.804 455.67 287.526 456.756C287.248 457.842 286.568 458.792 285.614 459.425C284.66 460.059 283.499 460.332 282.351 460.193C281.202 460.054 280.147 459.513 279.384 458.672V458.672Z" fill="#FFB8B8"/>
<path d="M274.894 447.25L271.596 426.706L270.357 387.251L271.278 375.425C271.352 374.467 271.623 373.532 272.073 372.675C272.523 371.818 273.144 371.055 273.9 370.431C274.656 369.808 275.532 369.334 276.479 369.039C277.425 368.744 278.422 368.633 279.413 368.712C280.714 368.819 281.964 369.25 283.042 369.963C284.12 370.675 284.989 371.645 285.564 372.778L287.974 377.552L287.114 444.868L274.894 447.25Z" fill="#2F2E41"/>
<path d="M288.302 353.948C288.309 353.824 288.348 353.703 288.415 353.596C288.482 353.489 288.575 353.4 288.686 353.337C288.797 353.273 288.922 353.237 289.051 353.231C289.18 353.226 289.309 353.251 289.425 353.304C289.541 353.358 289.642 353.439 289.719 353.539C289.796 353.639 289.845 353.756 289.864 353.88C289.883 354.003 289.87 354.129 289.826 354.247C289.783 354.364 289.71 354.469 289.614 354.553L290.935 356.651C290.989 356.737 291.006 356.841 290.981 356.938C290.957 357.036 290.893 357.121 290.804 357.173C290.715 357.225 290.608 357.242 290.507 357.218C290.405 357.194 290.318 357.132 290.264 357.046L288.779 354.687C288.631 354.626 288.505 354.523 288.42 354.39C288.334 354.258 288.293 354.104 288.302 353.948V353.948Z" fill="white"/>
<path d="M289.229 355.374C289.278 355.468 289.396 355.505 289.493 355.458C289.59 355.411 289.629 355.297 289.58 355.203L289.226 354.525C289.177 354.431 289.059 354.393 288.962 354.441C288.865 354.488 288.826 354.602 288.875 354.696L289.229 355.374Z" fill="#2F2E41"/>
<g clip-path="url(#clip0_75_1604)">
<path d="M439.653 244.74L451.071 284.118C451.071 284.118 448.718 318.997 459.698 312.172C470.935 305.189 466.757 275.777 466.757 275.777L460.175 240.45L439.653 244.74Z" fill="#FFB8B8"/>
<path d="M445.754 134.276L455.183 143.392V186.827C455.183 186.827 460.73 194.871 459.621 197.016C458.511 199.16 457.402 199.16 458.511 200.769C459.621 202.378 460.73 203.45 459.621 204.523C458.511 205.595 458.511 208.276 459.621 209.349C460.73 210.421 462.948 212.03 461.284 213.639C459.621 215.247 457.402 214.175 459.621 220.074C461.839 225.972 465.722 227.581 464.612 229.726C463.503 231.871 463.503 237.233 463.503 237.233L439.653 240.45L434.661 179.856L445.754 134.276Z" fill="#70EC44"/>
<path d="M464.612 236.697L436.88 237.769L437.989 249.03L462.394 244.74L464.612 236.697Z" fill="#3F3D56"/>
<path d="M388.347 78.2402L385.019 110.414L418.853 115.24L421.349 96.7403L423.845 78.2402H388.347Z" fill="#FFB6B6"/>
<path opacity="0.1" d="M435.073 68.7495L431.745 100.924L465.579 105.75L468.075 87.2496L470.571 68.7495H435.073Z" fill="#FFB6B6"/>
<path d="M314.855 231.334L333.713 270.479C333.713 270.479 337.041 288.711 342.033 289.248C347.025 289.784 352.017 270.479 352.017 270.479L345.361 260.291L337.596 231.334H314.855Z" fill="#FFB6B6"/>
<path d="M443.946 311.202H337.33C338.174 298.283 338.706 290.319 338.706 290.319L340.122 288.164L346.987 277.734L351.89 270.288L353.599 267.688L354.234 266.726L360.949 265.541L430.223 253.32C431.368 258.28 432.99 263.126 435.065 267.795C435.537 268.835 436.045 269.874 436.588 270.901C438.33 274.188 440.456 277.301 442.982 279.594C443.557 280.116 443.974 281.508 444.243 283.647C444.91 288.889 444.719 298.636 443.946 311.202Z" fill="#2F2E41"/>
<path d="M406.928 88.6966C421.632 88.6966 433.552 77.1728 433.552 62.9574C433.552 48.7421 421.632 37.2183 406.928 37.2183C392.224 37.2183 380.304 48.7421 380.304 62.9574C380.304 77.1728 392.224 88.6966 406.928 88.6966Z" fill="#FFA2A2"/>
<path d="M349.262 120.145L345.379 118C345.379 118 328.185 129.261 322.638 154.464C317.092 179.667 313.209 186.101 313.209 186.101C313.209 186.101 307.663 187.174 311.545 190.928C315.428 194.681 315.428 194.145 312.1 196.29C308.772 198.435 306.553 194.145 308.772 198.435C310.991 202.725 313.764 201.652 311.545 204.333C309.327 207.015 305.444 207.015 307.663 209.159C309.881 211.304 305.444 216.13 308.217 218.275C310.991 220.42 312.1 220.957 312.1 224.71C312.083 226.901 312.458 229.078 313.209 231.145H342.051C342.051 231.145 336.505 220.957 338.169 218.812C339.833 216.667 340.387 214.522 339.278 213.449C338.169 212.377 334.841 214.522 338.169 211.841C341.497 209.159 342.606 210.768 341.497 207.551C340.388 204.333 338.169 205.942 340.387 204.333C342.606 202.725 344.27 203.261 343.161 201.652C342.051 200.043 339.833 200.044 342.051 198.971C344.27 197.899 345.934 198.971 345.379 196.29C344.825 193.609 344.27 194.681 345.379 193.609C346.489 192.536 358.137 156.072 358.137 155C358.137 153.928 349.262 120.145 349.262 120.145Z" fill="#70EC44"/>
<path d="M342.033 224.363L307.09 226.508L315.964 234.552L340.369 235.088L342.033 224.363Z" fill="#3F3D56"/>
<path d="M352.017 264.581L344.806 277.45C344.806 277.45 366.438 280.131 374.203 282.812C381.968 285.494 401.936 289.247 401.936 289.247L406.928 270.479L352.017 264.581Z" fill="#3F3D56"/>
<path d="M415.248 270.479L421.349 288.175L445.754 283.349L442.981 266.726L415.248 270.479Z" fill="#3F3D56"/>
<path d="M425.273 103.407C425.273 103.407 423.609 102.334 419.727 104.479C415.844 106.624 403.087 107.697 396.986 101.262C390.884 94.8271 386.447 89.4648 384.783 90.5372C383.119 91.6097 382.01 103.943 382.01 103.943L376.463 108.233L343.739 119.494L346.512 191.885L351.504 208.508C351.504 208.508 347.621 221.378 352.613 228.885C357.605 236.392 349.84 239.074 349.84 239.074C349.84 239.074 348.176 241.218 349.285 246.581C350.394 251.943 348.176 271.784 348.176 271.784C348.176 271.784 395.322 292.161 444.686 274.465L439.14 254.088L436.366 208.508C436.366 208.508 439.14 201.001 438.585 197.784C438.03 194.566 455.225 149.523 455.225 149.523C455.225 149.523 452.452 127.001 438.03 122.175C423.609 117.349 421.391 112.523 421.391 112.523C421.391 112.523 428.047 105.552 425.273 103.407Z" fill="#70EC44"/>
<path d="M380.12 66.2544C380.12 66.2544 377.355 62.2451 378.418 57.9274C379.054 55.476 379.305 52.9462 379.163 50.4228C379.163 50.4228 381.396 43.4322 383.629 39.5256C385.862 35.6191 384.799 33.9743 391.817 32.7407C398.835 31.507 395.964 22.666 414.466 32.2266C415.09 33.0693 415.959 33.7142 416.962 34.0802C417.965 34.4461 419.058 34.5166 420.102 34.2827C423.93 33.5631 425.312 38.7032 425.312 38.7032C425.312 38.7032 427.864 37.264 428.821 39.32C429.778 41.3761 436.602 38.086 436.602 51.9644C436.602 65.8428 428.837 78.2398 428.837 78.2398C428.837 78.2398 429.406 54.8947 416.752 52.5302C404.098 50.1657 390.488 43.2779 387.191 52.119C383.895 60.96 380.12 66.2544 380.12 66.2544Z" fill="#2F2E41"/>
<path d="M429.114 71.8054C430.493 71.8054 431.61 70.3649 431.61 68.588C431.61 66.8111 430.493 65.3706 429.114 65.3706C427.736 65.3706 426.618 66.8111 426.618 68.588C426.618 70.3649 427.736 71.8054 429.114 71.8054Z" fill="#A0616A"/>
</g>
<path d="M655.725 457.842C649.38 456.647 643.339 454.129 637.97 450.443L638.557 449.617C643.814 453.22 649.729 455.678 655.939 456.841C665.342 458.583 679.412 457.728 693.043 443.767C719.571 416.597 744.89 413.86 745.142 413.836L745.235 414.856C744.986 414.88 720.021 417.58 693.743 444.494C683.009 455.487 671.994 458.529 663.091 458.529C660.62 458.527 658.155 458.297 655.725 457.842Z" fill="#2F2E41"/>
<path d="M731.851 436.344C735.143 436.344 737.811 433.592 737.811 430.198C737.811 426.803 735.143 424.052 731.851 424.052C728.56 424.052 725.892 426.803 725.892 430.198C725.892 433.592 728.56 436.344 731.851 436.344Z" fill="#2F2E41"/>
<path d="M689.636 465.026C692.928 465.026 695.596 462.274 695.596 458.88C695.596 455.485 692.928 452.733 689.636 452.733C686.345 452.733 683.676 455.485 683.676 458.88C683.676 462.274 686.345 465.026 689.636 465.026Z" fill="#2F2E41"/>
<path d="M678.459 257.787C673.046 263.804 687.199 278.407 687.199 278.407C687.199 278.407 658.539 283.391 660.813 283.089C663.087 282.787 661.909 257.925 661.909 257.925C661.909 257.925 683.872 251.77 678.459 257.787Z" fill="#FFB8B8"/>
<path d="M698.407 322.184L673.505 335.303L659.981 343.296C659.981 343.296 644.04 364.004 641.065 376.276C638.091 388.549 653.943 411.231 655.738 413.575C656.664 414.77 657.493 416.041 658.216 417.377C658.836 418.327 664.191 417.1 670.038 415.807C675.886 414.514 669.262 405.582 669.262 405.582C669.262 405.582 661.799 385.917 661.243 385.474C660.723 385.061 658.958 381.66 660.228 380.172C661.419 378.857 662.339 377.307 662.932 375.614C663.424 374.159 664.125 372.788 665.012 371.547C665.012 371.547 687.54 352.68 694.576 346.256C701.612 339.833 720.317 343.87 720.317 343.87C720.317 343.87 711.486 378.801 709.277 381.16C707.068 383.519 706.829 385.616 707.829 389.615C708.829 393.613 721.875 389.815 721.875 389.815L726.693 376.265C726.693 376.265 734.515 358.701 738.761 340.579C740.885 331.518 736.83 326.118 732.245 322.983C727.836 320.034 722.499 318.939 717.33 319.922L694.311 324.086L710.277 316.993L698.407 322.184Z" fill="#2F2E41"/>
<path d="M606.559 288.422L576.832 278.944C576.832 278.944 564.824 262.981 570.481 260.164C576.138 257.347 583.221 273.964 583.221 273.964L603.924 275.346L606.559 288.422Z" fill="#FFB6B6"/>
<path d="M731.525 271.825L757.952 254.889C757.952 254.889 765.647 236.309 759.482 235.062C753.318 233.815 750.549 251.741 750.549 251.741L730.86 258.487L731.525 271.825Z" fill="#FFB6B6"/>
<path d="M736.471 252.677L736.974 272.75L692.431 280.957C698.983 295.413 697.318 311.866 713.81 319.077L658.223 347.116C660.7 325.073 650.367 308.469 640.709 287.827C628.946 283.429 615.283 286.653 600.81 293.126L598.209 272.298L659.734 267.742L669.84 271.726L680.676 267.026C696.602 262.147 719.469 252.869 736.471 252.677Z" fill="#70EC44"/>
<path d="M708.751 388.976C707.4 390.189 706.142 400.167 706.094 403.789C706.045 407.41 710.669 408.345 713.195 408.526C715.722 408.707 715.419 410.296 717.087 411.624C718.756 412.952 724.237 412.74 731.436 410.235C738.634 407.729 726.592 399.517 725.544 399.14C724.495 398.763 720.08 387.472 720.08 387.472C720.08 387.472 710.102 387.764 708.751 388.976Z" fill="#2F2E41"/>
<path d="M669.38 411.763C670.985 412.583 674.653 421.907 675.59 425.398C676.526 428.888 672.284 431.001 669.884 431.836C667.485 432.671 668.168 434.13 666.88 435.85C665.593 437.57 660.238 438.798 652.659 438.255C645.079 437.712 654.711 426.621 655.633 425.983C656.554 425.344 658.051 413.268 658.051 413.268C658.051 413.268 667.776 410.943 669.38 411.763Z" fill="#2F2E41"/>
<path d="M655.656 251.913C654.942 250.445 654.537 248.838 654.465 247.197C654.394 245.557 654.659 243.919 655.242 242.39C656.414 239.412 659.013 236.421 664.615 235.527C676.84 233.578 683.345 242.409 683.004 245.297C682.662 248.185 681.021 255.167 681.021 255.167C681.021 255.167 681.754 248.556 678.607 248.323C675.461 248.09 663.26 247.105 660.171 250.446C659.284 251.353 658.646 252.487 658.323 253.731C657.999 254.975 658.001 256.286 658.328 257.529L655.656 251.913Z" fill="#2F2E41"/>
<path d="M668.699 265.726C675.281 265.726 680.616 260.224 680.616 253.436C680.616 246.648 675.281 241.146 668.699 241.146C662.117 241.146 656.781 246.648 656.781 253.436C656.781 260.224 662.117 265.726 668.699 265.726Z" fill="#FFB6B6"/>
<g clip-path="url(#clip1_75_1604)">
<path d="M132.738 464.283C130.527 464.28 128.352 465.041 126.419 466.492H139.04C137.113 465.041 134.944 464.281 132.738 464.283V464.283Z" fill="#E6E6E6"/>
<path d="M157.229 462.074C153.536 462.068 149.933 463.612 146.915 466.492H167.529C164.515 463.615 160.917 462.072 157.229 462.074V462.074Z" fill="#E6E6E6"/>
<path d="M97.8677 314.229C97.8677 314.229 84.5578 308.619 86.601 317.848C88.6442 327.077 99.8551 322.415 99.8551 322.415L97.8677 314.229Z" fill="#FFB8B8"/>
<path d="M148.746 279.589C148.746 279.589 141.925 266.977 135.298 280.07C128.657 293.187 122.484 303.956 122.484 303.956L105.992 311.231L96.4517 312.377L99.0799 323.853L126.82 318.408C126.82 318.408 157.704 293.587 148.746 279.589Z" fill="#70EC44"/>
<path d="M118.3 349.43C118.3 349.43 107.938 359.243 108.629 368.122C109.32 377.001 113.81 401.302 113.81 401.302L123.136 399.432C123.136 399.432 124.172 380.74 120.718 373.73L137.297 361.113L118.3 349.43Z" fill="#FFB8B8"/>
<path d="M141.269 372.562C141.269 372.562 140.578 389.853 142.305 396.862C144.032 403.872 145.759 430.042 145.759 430.042H155.431C155.431 430.042 159.921 407.143 154.395 396.862C154.395 396.862 152.667 383.31 157.503 376.768L141.269 372.562Z" fill="#FFB8B8"/>
<path d="M139.024 324.662C139.024 324.662 116.573 343.822 116.573 349.897L134.534 369.992L140.751 360.645L140.061 374.665L159.403 379.805C159.403 379.805 166.311 344.289 165.966 342.887C165.62 341.485 164.584 320.923 164.584 320.923L139.024 324.662Z" fill="#F2F2F2"/>
<path d="M123.136 397.096L113.119 399.9L114.899 409.798C115.775 414.671 115.875 419.739 115.192 424.667V424.667C115.192 424.667 125.554 428.406 125.554 426.537C125.554 424.667 123.136 417.19 123.827 412.05C124.517 406.909 123.136 397.096 123.136 397.096Z" fill="#6C63FF"/>
<path d="M128.317 432.145C127.971 430.276 125.102 421.8 124.982 423.234C124.863 424.668 119.336 427.004 117.264 424.2C117.264 424.2 114.501 420.929 113.464 424.2C112.428 427.472 110.356 433.079 110.356 433.079C110.356 433.079 101.03 439.155 102.412 442.426C102.691 443.087 103.465 443.366 104.522 443.391C104.497 443.477 104.484 443.569 104.484 443.662V443.993C104.484 444.197 104.544 444.393 104.651 444.537C104.757 444.681 104.902 444.762 105.052 444.762H105.297C105.448 444.762 105.593 444.681 105.699 444.537C105.806 444.393 105.866 444.197 105.866 443.993V443.662C105.865 443.543 105.844 443.425 105.804 443.319C106.086 443.286 106.379 443.242 106.68 443.188C106.601 443.322 106.557 443.49 106.556 443.662V443.993C106.556 444.197 106.616 444.393 106.723 444.537C106.83 444.681 106.974 444.762 107.125 444.762H107.37C107.52 444.762 107.665 444.681 107.772 444.537C107.878 444.393 107.938 444.197 107.938 443.993V443.662C107.938 443.525 107.91 443.391 107.859 443.273C107.807 443.155 107.733 443.058 107.644 442.993C108.439 442.813 109.269 442.585 110.094 442.332C110.04 442.451 110.011 442.588 110.01 442.727V443.059C110.01 443.263 110.07 443.458 110.177 443.602C110.284 443.747 110.428 443.828 110.579 443.828H110.824C110.974 443.828 111.119 443.747 111.226 443.602C111.332 443.458 111.392 443.263 111.392 443.059V442.727C111.392 442.579 111.36 442.433 111.3 442.309C111.24 442.184 111.155 442.086 111.054 442.026C111.673 441.822 112.279 441.609 112.857 441.398C112.803 441.517 112.774 441.653 112.774 441.793V442.124C112.774 442.328 112.834 442.524 112.94 442.668C113.047 442.812 113.191 442.893 113.342 442.893H113.587C113.738 442.893 113.882 442.812 113.989 442.668C114.095 442.524 114.155 442.328 114.155 442.124V441.793C114.155 441.629 114.116 441.47 114.044 441.339C113.972 441.207 113.871 441.11 113.756 441.062C115.784 440.289 117.264 439.622 117.264 439.622C117.264 439.622 118.982 438.776 121.063 437.633V437.918C121.063 438.122 121.123 438.318 121.23 438.462C121.336 438.606 121.481 438.687 121.632 438.687H121.876C122.027 438.687 122.172 438.606 122.278 438.462C122.385 438.318 122.445 438.122 122.445 437.918V437.587C122.445 437.47 122.425 437.355 122.387 437.251C122.349 437.146 122.293 437.055 122.225 436.984C122.643 436.746 123.064 436.502 123.481 436.253V436.516C123.481 436.72 123.541 436.916 123.648 437.06C123.754 437.204 123.899 437.285 124.05 437.285H124.294C124.445 437.285 124.59 437.204 124.696 437.06C124.803 436.916 124.863 436.72 124.863 436.516V436.185C124.863 436.061 124.841 435.939 124.798 435.83C124.756 435.72 124.694 435.626 124.619 435.556C125.07 435.271 125.504 434.987 125.904 434.708C125.903 434.733 125.899 434.758 125.899 434.783V435.114C125.899 435.318 125.959 435.514 126.065 435.658C126.172 435.802 126.317 435.883 126.467 435.883H126.712C126.863 435.883 127.007 435.802 127.114 435.658C127.221 435.514 127.281 435.318 127.281 435.114V434.783C127.28 434.606 127.235 434.434 127.152 434.297C127.069 434.159 126.954 434.065 126.826 434.03C127.791 433.271 128.4 432.598 128.317 432.145Z" fill="#2F2E41"/>
<path d="M156.121 427.939L145.179 427.004C145.179 427.004 145.842 442.425 144.516 447.566C143.19 452.706 143.853 454.576 143.853 454.576L153.469 455.51L156.121 427.939Z" fill="#6C63FF"/>
<path d="M156.256 462.022C156.206 460.097 154.706 450.998 154.368 452.367C154.03 453.735 148.265 454.461 146.67 451.134C146.67 451.134 144.472 447.156 142.954 450.063C141.437 452.97 138.546 457.87 138.546 457.87C138.546 457.87 128.489 461.18 129.336 464.769C129.507 465.495 130.221 465.987 131.251 466.309C131.214 466.386 131.187 466.473 131.172 466.563L131.121 466.887C131.09 467.087 131.118 467.295 131.2 467.466C131.282 467.637 131.411 467.757 131.559 467.8L131.798 467.869C131.945 467.911 132.099 467.873 132.226 467.762C132.352 467.651 132.441 467.476 132.472 467.277L132.523 466.953C132.541 466.836 132.539 466.715 132.515 466.6C132.797 466.647 133.09 466.686 133.393 466.719C133.295 466.828 133.226 466.979 133.199 467.148L133.148 467.472C133.117 467.671 133.145 467.879 133.227 468.05C133.309 468.222 133.438 468.342 133.585 468.384L133.825 468.453C133.972 468.496 134.126 468.457 134.253 468.346C134.379 468.235 134.468 468.061 134.499 467.861L134.55 467.538C134.571 467.404 134.565 467.264 134.533 467.135C134.5 467.005 134.443 466.889 134.366 466.8C135.171 466.848 136.018 466.859 136.864 466.844C136.792 466.946 136.743 467.071 136.721 467.208L136.67 467.532C136.639 467.731 136.667 467.94 136.749 468.111C136.831 468.282 136.96 468.402 137.107 468.444L137.347 468.514C137.494 468.556 137.648 468.518 137.775 468.407C137.901 468.296 137.99 468.121 138.021 467.922L138.072 467.598C138.095 467.452 138.086 467.301 138.047 467.162C138.007 467.024 137.939 466.903 137.85 466.816C138.487 466.791 139.113 466.754 139.71 466.711C139.639 466.812 139.59 466.937 139.568 467.073L139.517 467.397C139.485 467.597 139.514 467.805 139.596 467.976C139.678 468.147 139.807 468.267 139.954 468.31L140.193 468.379C140.341 468.421 140.495 468.383 140.621 468.272C140.748 468.161 140.836 467.987 140.868 467.787L140.919 467.463C140.944 467.303 140.93 467.137 140.88 466.988C140.83 466.839 140.746 466.716 140.64 466.636C142.743 466.452 144.294 466.217 144.294 466.217C144.294 466.217 146.105 465.874 148.316 465.343L148.272 465.622C148.241 465.822 148.269 466.03 148.351 466.201C148.433 466.372 148.562 466.492 148.71 466.535L148.949 466.604C149.096 466.647 149.25 466.608 149.377 466.497C149.503 466.386 149.592 466.212 149.623 466.012L149.674 465.688C149.692 465.574 149.69 465.456 149.669 465.343C149.648 465.23 149.608 465.125 149.552 465.036C149.998 464.922 150.447 464.802 150.893 464.676L150.853 464.933C150.821 465.133 150.85 465.341 150.932 465.512C151.014 465.683 151.143 465.803 151.29 465.846L151.53 465.915C151.677 465.958 151.831 465.919 151.957 465.808C152.084 465.697 152.173 465.523 152.204 465.323L152.255 464.999C152.274 464.878 152.271 464.753 152.247 464.634C152.222 464.515 152.177 464.405 152.114 464.315C152.599 464.164 153.067 464.008 153.502 463.849C153.496 463.873 153.489 463.895 153.485 463.92L153.434 464.244C153.402 464.444 153.431 464.652 153.513 464.823C153.595 464.994 153.724 465.114 153.871 465.157L154.11 465.226C154.258 465.268 154.412 465.23 154.538 465.119C154.665 465.008 154.753 464.834 154.785 464.634L154.836 464.31C154.863 464.137 154.845 463.956 154.785 463.798C154.726 463.641 154.627 463.516 154.507 463.445C155.569 462.975 156.268 462.489 156.256 462.022Z" fill="#2F2E41"/>
<path d="M139.024 263.911C144.556 263.911 149.041 257.843 149.041 250.359C149.041 242.874 144.556 236.807 139.024 236.807C133.492 236.807 129.007 242.874 129.007 250.359C129.007 257.843 133.492 263.911 139.024 263.911Z" fill="#FFB8B8"/>
<path d="M148.005 248.957C148.005 248.957 153.531 258.303 156.294 257.836L144.205 270.454C144.205 270.454 142.824 262.509 141.097 261.575C139.37 260.64 148.005 248.957 148.005 248.957Z" fill="#FFB8B8"/>
<path d="M169.592 318.353C169.592 318.353 169.591 266.786 163.198 262.344C156.808 257.905 152.581 255.371 152.581 255.371C152.487 257.063 152.131 258.71 151.538 260.204C150.944 261.699 150.125 263.008 149.134 264.048C147.015 266.261 144.904 268.096 143.725 268.102L143.687 267.883L143.543 267.327L140.06 274.659C140.06 274.659 136.952 275.594 135.916 278.398C135.355 279.914 137.998 295.185 136.434 309.007C135.106 320.733 129.511 331.319 129.353 332.606C129.085 334.782 135.885 329.082 138.947 326.417C138.992 326.485 139.024 326.531 139.024 326.531C139.024 326.531 137.297 327.466 140.751 326.064C142.708 325.269 145.441 325.225 147.442 325.336C147.44 326.148 147.454 326.793 147.486 327.232C147.832 331.905 165.102 338.448 167.52 337.046C169.938 335.644 169.592 318.353 169.592 318.353Z" fill="#70EC44"/>
<path d="M157.503 336.111C157.503 336.111 147.141 348.729 154.049 351.065C160.957 353.402 163.72 337.981 163.72 337.981L157.503 336.111Z" fill="#FFB8B8"/>
<path d="M145.414 368.823C145.414 368.823 150.25 362.748 153.013 366.019C155.776 369.291 157.503 371.627 157.503 371.627C157.503 371.627 149.559 365.085 145.414 368.823Z" fill="#6C63FF"/>
<path d="M146.67 441.514C146.67 441.514 149.395 438.09 150.953 439.933C152.51 441.777 153.484 443.094 153.484 443.094C153.484 443.094 149.006 439.407 146.67 441.514Z" fill="#2F2E41"/>
<path d="M116.135 409.664C116.135 409.664 118.006 405.315 119.893 406.465C121.78 407.616 122.994 408.493 122.994 408.493C122.994 408.493 117.917 406.728 116.135 409.664Z" fill="#2F2E41"/>
<path d="M166.982 268.756C163.558 259.445 153.14 264.523 154.833 274.668C154.858 274.819 154.885 274.972 154.912 275.126C156.697 284.73 159.612 293.882 163.547 302.231L159.748 325.129L155.603 336.812L164.238 339.616L174.946 304.567C174.946 304.567 171.992 282.382 166.982 268.756Z" fill="#70EC44"/>
<path opacity="0.2" d="M161.993 302.932L155.431 336.578L160.957 320.69L161.993 302.932Z" fill="black"/>
<path d="M145.315 234.562C145.315 234.562 139.778 226.675 134.205 231.642C128.632 236.608 125.988 241.433 126.534 244.792C127.081 248.152 128.698 252.824 128.698 252.824C128.698 252.824 127.693 245.865 132.307 245.35C136.922 244.835 143.298 240.703 143.298 240.703L147.61 253.163C147.61 253.163 148.22 250.276 149.91 251.104C151.601 251.932 150.29 235.485 145.315 234.562Z" fill="#2F2E41"/>
<path d="M109.838 412.751C109.837 413.935 109.764 415.116 109.62 416.284V416.288C109.223 419.429 108.305 422.407 106.933 424.996C105.562 427.586 103.773 429.721 101.703 431.239C99.6323 432.757 97.3341 433.619 94.9815 433.76C92.629 433.9 90.2835 433.316 88.1222 432.051H88.1188C87.4792 431.678 86.8595 431.245 86.2639 430.756C84.4181 429.249 82.8239 427.238 81.5824 424.853C80.3409 422.468 79.4792 419.76 79.052 416.901C78.8517 415.534 78.751 414.144 78.7515 412.751C78.7515 412.115 78.7722 411.484 78.8136 410.863V410.858C79.172 405.492 81.0392 400.517 84.03 396.959C87.0207 393.401 90.9067 391.532 94.8863 391.738C98.8658 391.943 102.635 394.208 105.417 398.064C108.198 401.92 109.779 407.074 109.834 412.461V412.466C109.838 412.564 109.838 412.653 109.838 412.751Z" fill="#6C63FF"/>
<path d="M98.1209 405.727H91.1595L87.6787 397.572L90.0397 392.036L90.1776 391.985C93.1665 390.905 96.3231 391.024 99.2627 392.329L99.3878 392.385L101.602 397.572L98.1209 405.727ZM91.5582 404.792H97.7222L100.804 397.572L98.9218 393.162C96.1903 391.99 93.2707 391.878 90.4945 392.839L88.4764 397.572L91.5582 404.792Z" fill="white"/>
<path d="M97.7752 422.551H90.8138L87.333 414.394L90.8138 406.238H97.7752L101.256 414.394L97.7752 422.551ZM91.2125 421.616H97.3765L100.458 414.394L97.3765 407.172H91.2125L88.1307 414.394L91.2125 421.616Z" fill="white"/>
<path d="M94.2944 434.248C92.1235 434.253 89.9751 433.651 87.9844 432.48L87.6294 432.271L91.159 423.995H98.1204L101.501 431.918L101.165 432.136C99.0225 433.533 96.6733 434.255 94.2944 434.248V434.248ZM88.617 431.825C90.5162 432.859 92.55 433.364 94.5967 433.309C96.6434 433.254 98.6608 432.641 100.528 431.507L97.7217 424.929H91.558L88.617 431.825Z" fill="white"/>
<path d="M109.519 414.139H102.557L99.0767 405.984L102.557 397.825H105.727L105.829 397.97C108.578 401.883 110.132 407.057 110.18 412.455V412.591L109.519 414.139ZM102.956 413.204H109.12L109.487 412.344C109.421 407.293 107.975 402.454 105.429 398.759H102.956L99.8744 405.984L102.956 413.204Z" fill="white"/>
<path d="M102.462 431.201L99.0767 423.275L102.557 415.115H109.518L109.965 416.158L109.961 416.367C109.583 419.343 108.748 422.178 107.508 424.689C106.268 427.2 104.653 429.33 102.765 430.941L102.462 431.201ZM99.8744 423.275L102.698 429.886C104.409 428.349 105.872 426.359 106.999 424.036C108.127 421.714 108.895 419.107 109.259 416.372L109.12 416.05H102.956L99.8744 423.275Z" fill="white"/>
<path d="M86.3872 431.403L86.0856 431.156C84.1994 429.614 82.5703 427.559 81.3014 425.121C80.0324 422.683 79.1513 419.915 78.7136 416.992L78.688 416.819L79.4159 415.115H86.3774L89.858 423.275L86.3872 431.403ZM79.4171 416.98C79.8366 419.663 80.6476 422.206 81.8026 424.46C82.9576 426.714 84.4334 428.633 86.1435 430.105L89.0603 423.275L85.9784 416.05H79.8146L79.4171 416.98Z" fill="white"/>
<path d="M86.3769 413.204H79.4158L78.4683 410.989V410.863C78.8093 405.567 80.5929 400.632 83.4727 397.015L83.5722 396.89H86.3771L89.8578 405.049L86.3769 413.204ZM79.8141 412.27H85.9782L89.06 405.049L85.9781 397.825H83.8448C81.18 401.227 79.5181 405.822 79.1675 410.757L79.8141 412.27Z" fill="white"/>
</g>
<defs>
<linearGradient id="paint0_linear_75_1604" x1="499.285" y1="555.945" x2="499.285" y2="317.03" gradientUnits="userSpaceOnUse">
<stop stop-color="#808080" stop-opacity="0.25"/>
<stop offset="0.54" stop-color="#808080" stop-opacity="0.12"/>
<stop offset="1" stop-color="#808080" stop-opacity="0.1"/>
</linearGradient>
<clipPath id="clip0_75_1604">
<rect width="418.856" height="313.058" fill="white" transform="translate(70.2915)"/>
</clipPath>
<clipPath id="clip1_75_1604">
<rect width="296" height="238.531" fill="white" transform="translate(0 230)"/>
</clipPath>
</defs>
</svg>
