<svg width="412" height="229" viewBox="0 0 412 229" fill="none" xmlns="http://www.w3.org/2000/svg">
<g clip-path="url(#clip0_60_1051)">
<path d="M55.9528 228.201C55.9479 228.213 55.9479 228.228 55.943 228.239H24.0698C23.4698 227.946 22.8797 227.642 22.2994 227.334C18.7158 225.455 15.4063 223.282 12.4291 220.851C9.0161 218.038 6.19643 214.826 4.07348 211.335C-0.131361 204.396 -1.42478 196.501 1.8309 189.367C1.83088 189.367 1.83099 189.366 1.83123 189.366C1.83148 189.365 1.83184 189.365 1.8323 189.364C1.83276 189.364 1.83331 189.364 1.83391 189.364C1.83452 189.363 1.83516 189.363 1.83581 189.363C1.9145 189.185 2.00302 189.002 2.09155 188.819C2.22433 188.998 2.3522 189.173 2.4899 189.348L2.49481 189.352C4.32218 191.731 6.39443 193.992 8.69142 196.113V196.117C8.86849 196.28 9.04551 196.444 9.22747 196.604C9.22746 196.604 9.22758 196.605 9.22782 196.605C9.22806 196.606 9.22842 196.606 9.22888 196.606C9.22933 196.607 9.22989 196.607 9.23049 196.607C9.23109 196.607 9.23174 196.607 9.2324 196.607C14.8098 201.652 21.5482 205.852 29.1058 208.995C29.1304 209.007 29.15 209.014 29.1746 209.026C29.1998 209.038 29.2261 209.048 29.2533 209.056C29.2582 209.06 29.2631 209.06 29.2681 209.064C30.9451 209.764 32.6664 210.403 34.4171 210.981V210.985C35.7942 211.446 37.1958 211.864 38.6072 212.252C41.617 213.07 44.8628 213.816 47.7448 214.893C50.548 215.939 53.0168 217.297 54.625 219.34C54.7479 219.508 54.8708 219.671 54.984 219.839L54.0446 224.868L55.9184 224.861L55.7413 227.334L55.6921 228.049L55.9528 228.201Z" fill="#F0F0F0"/>
<path d="M48.0843 228.239H47.4106C47.3466 227.934 47.2827 227.634 47.2089 227.333C47.0179 226.511 46.7584 225.699 46.4319 224.902C46.2844 224.544 46.1172 224.194 45.9254 223.848C44.8385 221.877 42.9697 220.146 40.2058 219.568C39.4012 219.403 38.5741 219.312 37.7419 219.298C36.0944 219.244 34.4223 219.408 32.7847 219.477C32.3814 219.492 31.9732 219.503 31.5798 219.499H31.5699C29.4401 219.527 27.3279 219.197 25.3783 218.533C22.9705 217.641 20.7781 216.437 18.8964 214.972C17.6651 214.06 16.4947 213.1 15.3899 212.095V212.092C15.2424 211.966 15.0997 211.837 14.9571 211.704C12.3533 209.283 10.0775 206.662 8.16548 203.881C7.19067 202.476 6.31562 201.031 5.54422 199.552C5.53399 199.538 5.52574 199.524 5.51963 199.51C3.79378 196.249 2.55624 192.845 1.83117 189.366C1.83116 189.366 1.83128 189.365 1.83152 189.365C1.83176 189.365 1.83212 189.364 1.83258 189.364C1.83304 189.363 1.83359 189.363 1.83419 189.363C1.83479 189.363 1.83545 189.363 1.8361 189.363C1.79678 189.207 1.76726 189.047 1.73773 188.891C1.6738 188.568 2.33772 188.552 2.39674 188.876C2.42625 189.036 2.45575 189.188 2.49017 189.347L2.4951 189.351C3.19294 192.682 4.36393 195.944 5.98683 199.076V199.08C6.07046 199.24 6.15404 199.396 6.23765 199.552C8.54612 203.883 11.7063 207.913 15.6063 211.498L15.6112 211.506C15.6506 211.544 15.6949 211.578 15.7391 211.616C15.741 211.618 15.7424 211.619 15.7432 211.621C15.7441 211.623 15.7444 211.625 15.744 211.628C15.7489 211.624 15.7489 211.628 15.7489 211.628C16.6588 212.461 17.6128 213.26 18.6063 214.036C20.4432 215.537 22.5741 216.806 24.9209 217.795C26.8805 218.571 29.0486 218.981 31.2503 218.99C31.4716 218.99 31.6929 218.993 31.9142 218.99C32.0912 218.99 32.2683 218.986 32.4453 218.978C34.1125 218.917 35.8043 218.754 37.4813 218.776C38.2439 218.788 39.004 218.849 39.7534 218.959C40.9843 219.163 42.1455 219.566 43.1609 220.142C44.1763 220.718 45.0228 221.453 45.6451 222.3C46.2706 223.118 46.7692 223.99 47.1303 224.898C47.2533 225.195 47.3565 225.495 47.4598 225.8V225.804C47.6172 226.291 47.7549 226.785 47.8729 227.284C47.8786 227.3 47.8819 227.316 47.8827 227.333C47.9565 227.634 48.0204 227.938 48.0843 228.239Z" fill="white"/>
<path d="M15.6421 211.954C13.9564 212.925 11.8793 213.401 9.78171 213.297C7.68416 213.193 5.70275 212.515 4.19134 211.385C3.88654 211.156 4.33312 210.778 4.63833 211.008C6.04324 212.062 7.88901 212.693 9.84251 212.787C11.796 212.881 13.7285 212.432 15.2913 211.52C15.6312 211.322 15.9801 211.757 15.6421 211.954Z" fill="white"/>
<path d="M31.2222 219.147C31.8822 215.862 30.9176 212.506 28.5209 209.747C28.2832 209.474 28.8437 209.203 29.0812 209.476C31.5683 212.35 32.5629 215.845 31.8664 219.261C31.7997 219.587 31.1559 219.471 31.2222 219.147Z" fill="white"/>
<path d="M5.8083 199.148C6.56177 198.878 7.21654 198.467 7.71383 197.952C8.21111 197.437 8.53533 196.835 8.65736 196.199C8.71867 195.873 9.36246 195.99 9.30155 196.314C9.1625 197.015 8.80339 197.68 8.2556 198.25C7.7078 198.82 6.988 199.277 6.15908 199.582C6.08406 199.616 5.9952 199.626 5.91059 199.611C5.82598 199.596 5.75196 199.557 5.70356 199.501C5.65749 199.443 5.64264 199.374 5.66226 199.308C5.68187 199.242 5.73436 199.185 5.80831 199.148H5.8083Z" fill="white"/>
<path d="M60.7627 211.502L60.4922 213.431L56.189 213.382L55.5398 216.859L55.4267 217.457V217.46L54.9841 219.838L54.0448 224.868L55.9185 224.86L55.7415 227.333L55.6923 228.049L55.9529 228.201L56.0119 228.239L56.0316 228.25C55.9775 228.334 55.9185 228.418 55.8595 228.505C55.8939 228.414 55.9185 228.33 55.9431 228.239H43.4909C43.2597 227.938 43.0335 227.638 42.8122 227.333C40.8906 224.746 39.1967 222.062 37.7418 219.298C37.6533 219.127 37.5598 218.956 37.4812 218.781V218.777C36.1876 216.248 35.1629 213.642 34.4173 210.985V210.981C34.0132 209.526 33.7063 208.055 33.4976 206.575C32.9645 202.751 33.2118 198.885 34.2304 195.119C34.2386 195.101 34.2452 195.082 34.2501 195.062C36.2123 187.875 40.9975 181.232 48.576 177.025C48.8908 176.842 49.2154 176.671 49.5449 176.503C49.5498 176.499 49.5498 176.499 49.5547 176.499C49.5554 176.499 49.556 176.499 49.5566 176.499C49.5572 176.499 49.5577 176.499 49.5582 176.498C49.5587 176.498 49.559 176.498 49.5593 176.497C49.5595 176.497 49.5596 176.496 49.5596 176.496C49.7662 176.393 49.9678 176.29 50.1744 176.188C50.1448 176.393 50.1104 176.598 50.0858 176.804C49.6884 179.552 49.5832 182.321 49.7711 185.083V185.09C49.776 185.303 49.7908 185.517 49.8104 185.733V185.741C50.3466 192.376 52.4658 198.878 56.0611 204.916C56.0672 204.932 56.0755 204.948 56.0857 204.962C56.0956 204.981 56.1054 204.996 56.1153 205.015C57.4602 207.262 59.0133 209.43 60.7627 211.502Z" fill="#F0F0F0"/>
<path d="M50.3801 176.375C50.2816 176.516 50.179 176.661 50.0862 176.804C49.3517 177.879 48.6757 178.976 48.058 180.097C46.9541 182.076 46.036 184.114 45.3106 186.195C45.2518 186.357 45.1938 186.523 45.1407 186.688C43.6079 191.229 42.9947 195.925 43.323 200.611C43.3233 200.657 43.3276 200.699 43.3327 200.745C43.411 201.839 43.5466 202.929 43.7396 204.015C44.0367 206.069 44.7499 208.074 45.8528 209.957C46.0072 210.203 46.1705 210.443 46.3418 210.675C46.7681 211.243 47.2629 211.778 47.8196 212.274C48.221 212.636 48.6535 212.977 49.1142 213.295C49.392 213.49 49.6786 213.679 49.9782 213.859C50.151 213.964 50.3288 214.068 50.5065 214.171C50.6534 214.248 50.7962 214.33 50.943 214.407C52.4699 215.215 54.1166 215.934 55.54 216.861L55.4282 217.459C54.041 216.493 52.3667 215.762 50.8269 214.963C49.862 214.469 48.9587 213.907 48.1286 213.283C48.0197 213.197 47.9059 213.112 47.801 213.022C47.2392 212.574 46.7319 212.087 46.2854 211.567C46.0581 211.308 45.8437 211.039 45.6414 210.757C44.4189 208.924 43.6077 206.943 43.2425 204.899C42.969 203.595 42.7804 202.282 42.6777 200.963C42.6596 200.792 42.6472 200.624 42.6388 200.451C42.4462 197.306 42.669 194.154 43.3038 191.044C44.1052 187.099 45.5579 183.25 47.6262 179.591C48.2169 178.543 48.861 177.512 49.5587 176.496C49.6475 176.357 49.742 176.221 49.8406 176.08C50.0408 175.791 50.5804 176.086 50.3801 176.375Z" fill="white"/>
<path d="M42.9915 200.97C40.8896 200.96 38.8607 200.372 37.267 199.312C35.6732 198.252 34.6185 196.788 34.2912 195.182C34.2264 194.857 34.8765 194.764 34.9414 195.089C35.2426 196.585 36.2253 197.949 37.712 198.934C39.1987 199.919 41.0914 200.46 43.0487 200.46C43.474 200.46 43.4144 200.97 42.9915 200.969V200.97Z" fill="white"/>
<path d="M49.833 213.97C52.9161 211.655 54.758 208.526 54.9914 205.207C55.0142 204.878 55.6727 204.923 55.6499 205.251C55.3987 208.705 53.4733 211.958 50.2581 214.362C49.9515 214.591 49.528 214.198 49.833 213.97H49.833Z" fill="white"/>
<path d="M45.1055 186.165C45.9177 186.3 46.7605 186.277 47.5582 186.097C48.3559 185.918 49.0835 185.588 49.6757 185.137C49.9784 184.905 50.4016 185.298 50.1009 185.529C49.4436 186.024 48.6395 186.388 47.7587 186.588C46.8779 186.787 45.9473 186.817 45.0482 186.675C44.962 186.667 44.883 186.634 44.8271 186.582C44.7713 186.531 44.7428 186.465 44.7476 186.398C44.7556 186.33 44.7977 186.268 44.8647 186.224C44.9317 186.181 45.0182 186.16 45.1055 186.165H45.1055Z" fill="white"/>
<path d="M146.866 228.547C146.866 228.607 146.851 228.666 146.822 228.721C146.793 228.776 146.749 228.826 146.695 228.868C146.641 228.91 146.576 228.943 146.505 228.966C146.434 228.989 146.358 229 146.281 229H8.43582C8.35897 229 8.28286 228.989 8.21186 228.966C8.14086 228.943 8.07634 228.91 8.022 228.868C7.96765 228.826 7.92454 228.776 7.89513 228.721C7.86572 228.666 7.85059 228.607 7.85059 228.547C7.85059 228.488 7.86572 228.429 7.89513 228.374C7.92454 228.319 7.96765 228.269 8.022 228.227C8.07634 228.185 8.14086 228.152 8.21186 228.129C8.28286 228.106 8.35897 228.095 8.43582 228.095H146.281C146.358 228.095 146.434 228.106 146.505 228.129C146.576 228.152 146.641 228.185 146.695 228.227C146.749 228.269 146.793 228.319 146.822 228.374C146.851 228.429 146.866 228.488 146.866 228.547Z" fill="#CCCCCC"/>
<path d="M385.421 42.2003H296.3C295.918 42.2007 295.54 42.1428 295.187 42.0299C294.833 41.9171 294.513 41.7515 294.242 41.5427C293.972 41.3339 293.758 41.0859 293.611 40.8129C293.465 40.5399 293.39 40.2472 293.39 39.9517C293.39 39.6562 293.465 39.3635 293.611 39.0905C293.758 38.8175 293.972 38.5695 294.242 38.3607C294.513 38.1518 294.833 37.9863 295.187 37.8734C295.54 37.7606 295.918 37.7027 296.3 37.7031H385.421C385.803 37.7027 386.181 37.7606 386.534 37.8734C386.888 37.9863 387.208 38.1518 387.479 38.3607C387.749 38.5695 387.963 38.8175 388.11 39.0905C388.256 39.3635 388.331 39.6562 388.331 39.9517C388.331 40.2472 388.256 40.5399 388.11 40.8129C387.963 41.0859 387.749 41.3339 387.479 41.5427C387.208 41.7515 386.888 41.9171 386.534 42.0299C386.181 42.1428 385.803 42.2007 385.421 42.2003Z" fill="#70EC44"/>
<path d="M385.421 51.0853H296.3C295.53 51.0845 294.792 50.8472 294.247 50.4256C293.703 50.004 293.397 49.4325 293.397 48.8366C293.397 48.2407 293.703 47.6692 294.247 47.2476C294.792 46.8259 295.53 46.5887 296.3 46.5879H385.421C386.192 46.5887 386.93 46.8259 387.474 47.2476C388.019 47.6692 388.324 48.2407 388.324 48.8366C388.324 49.4325 388.019 50.004 387.474 50.4256C386.93 50.8472 386.192 51.0845 385.421 51.0853Z" fill="#70EC44"/>
<path d="M334.932 59.971H296.3C295.53 59.9702 294.792 59.733 294.247 59.3113C293.703 58.8897 293.397 58.3182 293.397 57.7223C293.397 57.1264 293.703 56.5549 294.247 56.1333C294.792 55.7117 295.53 55.4744 296.3 55.4736H334.932C335.314 55.4733 335.693 55.5311 336.046 55.644C336.399 55.7568 336.72 55.9224 336.99 56.1312C337.26 56.3401 337.475 56.5881 337.621 56.8611C337.767 57.1341 337.843 57.4268 337.843 57.7223C337.843 58.0179 337.767 58.3105 337.621 58.5835C337.475 58.8565 337.26 59.1046 336.99 59.3134C336.72 59.5223 336.399 59.6878 336.046 59.8007C335.693 59.9135 335.314 59.9714 334.932 59.971Z" fill="#70EC44"/>
<path d="M385.421 92.7315H296.3C295.529 92.7315 294.79 92.4946 294.245 92.0729C293.7 91.6512 293.394 91.0793 293.394 90.4829C293.394 89.8866 293.7 89.3147 294.245 88.893C294.79 88.4713 295.529 88.2344 296.3 88.2344H385.421C386.192 88.2344 386.931 88.4713 387.476 88.893C388.021 89.3147 388.328 89.8866 388.328 90.4829C388.328 91.0793 388.021 91.6512 387.476 92.0729C386.931 92.4946 386.192 92.7315 385.421 92.7315Z" fill="#70EC44"/>
<path d="M385.421 101.617H296.3C295.529 101.617 294.79 101.38 294.245 100.958C293.7 100.536 293.394 99.9642 293.394 99.3678C293.394 98.7714 293.7 98.1995 294.245 97.7778C294.79 97.3561 295.529 97.1191 296.3 97.1191H385.421C386.192 97.1191 386.931 97.3561 387.477 97.7778C388.022 98.1995 388.328 98.7714 388.328 99.3678C388.328 99.9642 388.022 100.536 387.477 100.958C386.931 101.38 386.192 101.617 385.421 101.617Z" fill="#70EC44"/>
<path d="M334.932 110.502H296.3C295.529 110.502 294.79 110.265 294.245 109.844C293.7 109.422 293.394 108.85 293.394 108.254C293.394 107.657 293.7 107.085 294.245 106.664C294.79 106.242 295.529 106.005 296.3 106.005H334.932C335.314 106.005 335.692 106.062 336.046 106.175C336.399 106.288 336.72 106.454 336.99 106.662C337.26 106.871 337.475 107.119 337.621 107.392C337.767 107.665 337.843 107.958 337.843 108.254C337.843 108.549 337.767 108.842 337.621 109.115C337.475 109.388 337.26 109.636 336.99 109.845C336.72 110.054 336.399 110.219 336.046 110.332C335.692 110.445 335.314 110.503 334.932 110.502Z" fill="#70EC44"/>
<path d="M385.421 146.041H296.3C295.918 146.041 295.54 145.983 295.188 145.87C294.835 145.757 294.515 145.591 294.245 145.383C293.975 145.174 293.761 144.926 293.615 144.653C293.469 144.38 293.394 144.088 293.394 143.793C293.394 143.497 293.469 143.205 293.615 142.932C293.761 142.659 293.975 142.411 294.245 142.203C294.515 141.994 294.835 141.828 295.188 141.715C295.54 141.602 295.918 141.544 296.3 141.544H385.421C385.803 141.544 386.181 141.602 386.533 141.715C386.886 141.828 387.207 141.994 387.476 142.203C387.746 142.411 387.96 142.659 388.107 142.932C388.253 143.205 388.328 143.497 388.328 143.793C388.328 144.088 388.253 144.38 388.107 144.653C387.96 144.926 387.746 145.174 387.476 145.383C387.207 145.591 386.886 145.757 386.533 145.87C386.181 145.983 385.803 146.041 385.421 146.041Z" fill="#70EC44"/>
<path d="M385.421 154.926H296.3C295.53 154.925 294.792 154.688 294.247 154.266C293.703 153.845 293.397 153.273 293.397 152.677C293.397 152.082 293.703 151.51 294.247 151.088C294.792 150.667 295.53 150.429 296.3 150.429H385.421C386.192 150.429 386.93 150.667 387.474 151.088C388.019 151.51 388.324 152.082 388.324 152.677C388.324 153.273 388.019 153.845 387.474 154.266C386.93 154.688 386.192 154.925 385.421 154.926Z" fill="#70EC44"/>
<path d="M334.932 163.812H296.3C295.529 163.812 294.79 163.575 294.245 163.153C293.7 162.732 293.394 162.16 293.394 161.563C293.394 160.967 293.7 160.395 294.245 159.973C294.79 159.551 295.529 159.314 296.3 159.314H334.932C335.314 159.314 335.692 159.372 336.046 159.485C336.399 159.598 336.72 159.763 336.99 159.972C337.26 160.181 337.475 160.429 337.621 160.702C337.767 160.975 337.843 161.268 337.843 161.563C337.843 161.859 337.767 162.151 337.621 162.424C337.475 162.697 337.26 162.945 336.99 163.154C336.72 163.363 336.399 163.529 336.046 163.642C335.692 163.754 335.314 163.812 334.932 163.812Z" fill="#70EC44"/>
<path d="M260.746 117.179H207.093C205.655 117.178 204.276 116.735 203.26 115.949C202.243 115.162 201.671 114.096 201.669 112.983V85.7534C201.671 84.641 202.243 83.5745 203.26 82.7879C204.276 82.0013 205.655 81.5589 207.093 81.5576H260.746C262.184 81.5589 263.562 82.0013 264.579 82.7879C265.596 83.5745 266.168 84.641 266.169 85.7534V112.983C266.168 114.096 265.596 115.162 264.579 115.949C263.562 116.735 262.184 117.178 260.746 117.179Z" fill="#70EC44"/>
<path d="M256.975 84.96H210.865C209.556 84.9609 208.3 85.3636 207.374 86.0797C206.448 86.7957 205.927 87.7667 205.925 88.7796V109.956C205.927 110.969 206.448 111.94 207.374 112.656C208.3 113.373 209.555 113.776 210.865 113.777H240.268C246.006 113.773 251.508 112.007 255.566 108.868C259.624 105.728 261.906 101.472 261.912 97.0323V88.7796C261.911 87.7669 261.39 86.796 260.465 86.0799C259.539 85.3638 258.284 84.961 256.975 84.96Z" fill="white"/>
<path d="M260.746 66.6476H207.093C205.655 66.6463 204.276 66.2039 203.26 65.4173C202.243 64.6307 201.671 63.5642 201.669 62.4518V35.2221C201.671 34.1097 202.243 33.0433 203.26 32.2567C204.276 31.4701 205.655 31.0276 207.093 31.0264H260.746C262.184 31.0276 263.562 31.4701 264.579 32.2567C265.596 33.0432 266.168 34.1097 266.169 35.2221V62.4518C266.168 63.5642 265.596 64.6307 264.579 65.4173C263.562 66.2039 262.184 66.6463 260.746 66.6476Z" fill="#70EC44"/>
<path d="M256.975 34.4287H210.865C209.556 34.4299 208.301 34.8327 207.375 35.5487C206.449 36.2647 205.928 37.2355 205.925 38.2483V59.4243C205.927 60.4374 206.448 61.4086 207.374 62.125C208.3 62.8413 209.555 63.2444 210.865 63.2458H240.268C246.007 63.2422 251.509 61.4769 255.567 58.3374C259.626 55.1979 261.908 50.9409 261.912 46.5011V38.2483C261.911 37.2356 261.39 36.2647 260.465 35.5486C259.539 34.8325 258.284 34.4298 256.975 34.4287Z" fill="white"/>
<path d="M260.746 170.488H207.093C205.655 170.487 204.276 170.045 203.26 169.258C202.243 168.472 201.671 167.405 201.669 166.293V139.063C201.671 137.951 202.243 136.884 203.26 136.097C204.276 135.311 205.655 134.868 207.093 134.867H260.746C262.184 134.868 263.562 135.311 264.579 136.097C265.596 136.884 266.168 137.951 266.169 139.063V166.293C266.168 167.405 265.596 168.472 264.579 169.258C263.562 170.045 262.184 170.487 260.746 170.488Z" fill="#70EC44"/>
<path d="M256.975 138.27H210.865C209.556 138.271 208.3 138.673 207.374 139.389C206.448 140.105 205.927 141.076 205.925 142.089V163.265C205.927 164.278 206.448 165.249 207.374 165.966C208.3 166.682 209.555 167.085 210.865 167.087H240.268C246.006 167.082 251.509 165.317 255.566 162.177C259.624 159.038 261.907 154.781 261.912 150.342V142.089C261.911 141.076 261.39 140.106 260.465 139.389C259.539 138.673 258.284 138.271 256.975 138.27Z" fill="white"/>
<path d="M410.704 7.90416H179.294C178.95 7.90387 178.621 7.79813 178.378 7.61013C178.135 7.42214 177.998 7.16725 177.998 6.90139V1.00278C177.998 0.736916 178.135 0.482023 178.378 0.294028C178.621 0.106034 178.95 0.000291041 179.294 0H410.704C411.048 0.000290036 411.377 0.106034 411.62 0.294028C411.863 0.482023 412 0.736916 412 1.00278V6.90139C412 7.16725 411.863 7.42214 411.62 7.61013C411.377 7.79813 411.048 7.90387 410.704 7.90416Z" fill="#70EC44"/>
<path d="M185.52 5.08762C186.536 5.08762 187.36 4.45021 187.36 3.66393C187.36 2.87764 186.536 2.24023 185.52 2.24023C184.504 2.24023 183.68 2.87764 183.68 3.66393C183.68 4.45021 184.504 5.08762 185.52 5.08762Z" fill="white"/>
<path d="M192.505 5.08762C193.521 5.08762 194.345 4.45021 194.345 3.66393C194.345 2.87764 193.521 2.24023 192.505 2.24023C191.488 2.24023 190.665 2.87764 190.665 3.66393C190.665 4.45021 191.488 5.08762 192.505 5.08762Z" fill="white"/>
<path d="M199.49 5.08762C200.507 5.08762 201.33 4.45021 201.33 3.66393C201.33 2.87764 200.507 2.24023 199.49 2.24023C198.474 2.24023 197.65 2.87764 197.65 3.66393C197.65 4.45021 198.474 5.08762 199.49 5.08762Z" fill="white"/>
<path d="M403.86 2.68459H395.816C395.658 2.68459 395.506 2.63602 395.395 2.54958C395.283 2.46313 395.22 2.34589 395.22 2.22364C395.22 2.10139 395.283 1.98415 395.395 1.8977C395.506 1.81126 395.658 1.7627 395.816 1.7627H403.86C404.018 1.7627 404.169 1.81126 404.281 1.8977C404.393 1.98415 404.456 2.10139 404.456 2.22364C404.456 2.34589 404.393 2.46313 404.281 2.54958C404.169 2.63602 404.018 2.68459 403.86 2.68459Z" fill="white"/>
<path d="M403.86 4.4131H395.816C395.738 4.4131 395.66 4.40117 395.588 4.37801C395.516 4.35485 395.45 4.3209 395.395 4.27809C395.339 4.23529 395.296 4.18447 395.266 4.12855C395.236 4.07263 395.22 4.01268 395.22 3.95215C395.22 3.89162 395.236 3.83168 395.266 3.77576C395.296 3.71983 395.339 3.66902 395.395 3.62622C395.45 3.58341 395.516 3.54946 395.588 3.5263C395.66 3.50313 395.738 3.49121 395.816 3.49121H403.86C403.938 3.49121 404.015 3.50313 404.088 3.5263C404.16 3.54946 404.226 3.58341 404.281 3.62622C404.336 3.66902 404.38 3.71983 404.41 3.77576C404.44 3.83168 404.456 3.89162 404.456 3.95215C404.456 4.01268 404.44 4.07263 404.41 4.12855C404.38 4.18447 404.336 4.23529 404.281 4.27809C404.226 4.3209 404.16 4.35485 404.088 4.37801C404.015 4.40117 403.938 4.4131 403.86 4.4131Z" fill="white"/>
<path d="M403.86 6.14162H395.816C395.658 6.14162 395.506 6.09306 395.395 6.00661C395.283 5.92017 395.22 5.80292 395.22 5.68067C395.22 5.55842 395.283 5.44118 395.395 5.35474C395.506 5.26829 395.658 5.21973 395.816 5.21973H403.86C404.018 5.21973 404.169 5.26829 404.281 5.35474C404.393 5.44118 404.456 5.55842 404.456 5.68067C404.456 5.80292 404.393 5.92017 404.281 6.00661C404.169 6.09306 404.018 6.14162 403.86 6.14162Z" fill="white"/>
<path d="M363.463 60.583C365.301 60.583 366.791 59.4303 366.791 58.0083C366.791 56.5863 365.301 55.4336 363.463 55.4336C361.625 55.4336 360.135 56.5863 360.135 58.0083C360.135 59.4303 361.625 60.583 363.463 60.583Z" fill="#70EC44"/>
<path d="M374.271 60.583C376.109 60.583 377.599 59.4303 377.599 58.0083C377.599 56.5863 376.109 55.4336 374.271 55.4336C372.433 55.4336 370.943 56.5863 370.943 58.0083C370.943 59.4303 372.433 60.583 374.271 60.583Z" fill="#70EC44"/>
<path d="M385.079 60.583C386.917 60.583 388.407 59.4303 388.407 58.0083C388.407 56.5863 386.917 55.4336 385.079 55.4336C383.241 55.4336 381.75 56.5863 381.75 58.0083C381.75 59.4303 383.241 60.583 385.079 60.583Z" fill="#70EC44"/>
<path d="M363.463 110.75C365.301 110.75 366.791 109.597 366.791 108.175C366.791 106.753 365.301 105.601 363.463 105.601C361.625 105.601 360.135 106.753 360.135 108.175C360.135 109.597 361.625 110.75 363.463 110.75Z" fill="#70EC44"/>
<path d="M374.271 110.75C376.109 110.75 377.599 109.597 377.599 108.175C377.599 106.753 376.109 105.601 374.271 105.601C372.433 105.601 370.943 106.753 370.943 108.175C370.943 109.597 372.433 110.75 374.271 110.75Z" fill="#70EC44"/>
<path d="M385.079 110.75C386.917 110.75 388.407 109.597 388.407 108.175C388.407 106.753 386.917 105.601 385.079 105.601C383.241 105.601 381.75 106.753 381.75 108.175C381.75 109.597 383.241 110.75 385.079 110.75Z" fill="#70EC44"/>
<path d="M363.463 164.154C365.301 164.154 366.791 163.002 366.791 161.58C366.791 160.158 365.301 159.005 363.463 159.005C361.625 159.005 360.135 160.158 360.135 161.58C360.135 163.002 361.625 164.154 363.463 164.154Z" fill="#70EC44"/>
<path d="M374.271 164.154C376.109 164.154 377.599 163.002 377.599 161.58C377.599 160.158 376.109 159.005 374.271 159.005C372.433 159.005 370.943 160.158 370.943 161.58C370.943 163.002 372.433 164.154 374.271 164.154Z" fill="#70EC44"/>
<path d="M385.079 164.154C386.917 164.154 388.407 163.002 388.407 161.58C388.407 160.158 386.917 159.005 385.079 159.005C383.241 159.005 381.75 160.158 381.75 161.58C381.75 163.002 383.241 164.154 385.079 164.154Z" fill="#70EC44"/>
<path d="M268.734 60.23L251.58 51.8272C251.252 51.6667 250.875 51.5775 250.487 51.569C250.099 51.5605 249.716 51.633 249.377 51.7788C249.039 51.9246 248.757 52.1384 248.562 52.3976C248.367 52.6569 248.266 52.952 248.269 53.2519L248.438 67.7405C248.442 68.1256 248.619 68.4976 248.937 68.7935C249.256 69.0894 249.697 69.2909 250.186 69.3638C250.675 69.4367 251.181 69.3766 251.619 69.1936C252.057 69.0106 252.4 68.7161 252.589 68.3599L254.821 64.1597L261.044 73.6514C261.34 74.1005 261.854 74.4405 262.473 74.5968C263.093 74.753 263.767 74.7127 264.348 74.4847C264.929 74.2567 265.369 73.8597 265.572 73.3808C265.775 72.9018 265.724 72.3802 265.43 71.9303L259.066 62.2228L267.223 63.2851C267.714 63.349 268.218 63.2795 268.651 63.0883C269.083 62.8972 269.417 62.5961 269.595 62.2362C269.773 61.8764 269.784 61.48 269.628 61.1142C269.471 60.7485 269.155 60.4361 268.734 60.23Z" fill="#3F3D56"/>
<path d="M51.5285 150.44C51.9453 150.089 52.2575 149.672 52.4433 149.217C52.6291 148.763 52.6838 148.283 52.6037 147.81C52.5237 147.338 52.3106 146.885 51.9797 146.483C51.6488 146.081 51.208 145.74 50.6884 145.485L54.1409 134.215L46.8337 136.28L44.6753 146.666C44.1777 147.369 44.0311 148.19 44.2633 148.972C44.4955 149.753 45.0903 150.442 45.935 150.907C46.7797 151.373 47.8157 151.582 48.8466 151.496C49.8775 151.41 50.8318 151.034 51.5285 150.44Z" fill="#FFB8B8"/>
<path d="M69.1008 103.213L66.1682 109.047C66.1682 109.047 67.425 114.881 65.3303 116.178C63.2356 117.474 64.0735 117.474 64.0735 118.447C64.0013 119.144 63.7402 119.822 63.3071 120.436C62.8741 121.05 62.2787 121.587 61.5598 122.012C59.884 122.984 52.343 142.755 52.343 142.755H44.802C45.0456 141.248 45.0456 139.724 44.802 138.217C44.383 135.948 46.0588 130.114 46.8967 129.142C47.7346 128.17 46.8967 126.873 46.8967 124.929C46.8967 122.984 48.5725 122.012 48.5725 118.771C48.5725 115.53 53.5998 90.2491 53.1809 87.3321C52.7619 84.4151 57.3703 81.8223 57.3703 81.8223H61.5598L69.1008 103.213Z" fill="#E6E6E6"/>
<path d="M53.7974 221.423H59.2253L61.8087 205.226H53.7969L53.7974 221.423Z" fill="#FFB6B6"/>
<path d="M52.0256 218.547L60.6979 218.146V221.021L68.9429 225.426C69.3501 225.644 69.6568 225.956 69.8182 226.318C69.9796 226.68 69.9872 227.073 69.8399 227.438C69.6927 227.804 69.3982 228.123 68.9996 228.35C68.6009 228.577 68.119 228.699 67.6241 228.699H57.2994L55.5198 225.856L54.825 228.699H50.9321L52.0256 218.547Z" fill="#2F2E41"/>
<path d="M84.2886 221.423H89.7165L92.2999 205.226H84.2881L84.2886 221.423Z" fill="#FFB6B6"/>
<path d="M82.5168 218.547L91.1891 218.146V221.021L99.4341 225.426C99.8414 225.644 100.148 225.956 100.309 226.318C100.471 226.68 100.478 227.073 100.331 227.438C100.184 227.804 99.8894 228.123 99.4908 228.35C99.0921 228.577 98.6102 228.699 98.1153 228.699H87.7906L86.011 225.856L85.3162 228.699H81.4233L82.5168 218.547Z" fill="#2F2E41"/>
<path d="M51.4551 207.455H51.5141L54.5252 181.118C53.8496 180.11 53.5068 178.988 53.5271 177.852C53.5475 176.717 53.9305 175.603 54.642 174.61L54.7915 174.4L54.404 173.011C53.9062 171.225 54.1346 169.364 55.0578 167.683L54.0646 143.116C50.5852 125.671 67.1669 114.294 67.1669 114.294H92.0065L97.3393 128.468C99.3416 143.56 105.603 159.433 104.774 174.064C104.143 185.193 97.0477 195.182 94.6307 206.02L94.7832 206.08C95.3324 206.227 95.5679 206.815 95.3094 207.395C95.0509 207.974 94.3962 208.325 93.847 208.178L80.7288 207.825C80.1797 207.679 79.9441 207.09 80.2026 206.511C80.4611 205.931 81.1159 205.58 81.665 205.727L82.557 206.076L89.0152 179.52L89.2264 174.878L88.7914 169.612L78.4202 147.065L70.8091 176.195L63.0348 207.748C63.2492 207.898 63.3997 208.095 63.4664 208.313C63.5331 208.531 63.5129 208.759 63.4084 208.968C63.3039 209.176 63.1202 209.356 62.8813 209.482C62.6424 209.608 62.3597 209.675 62.0704 209.674H51.4551C51.2667 209.674 51.0801 209.646 50.9061 209.59C50.732 209.534 50.5739 209.452 50.4407 209.349C50.3075 209.246 50.2018 209.124 50.1297 208.989C50.0576 208.855 50.0205 208.71 50.0205 208.565C50.0205 208.419 50.0576 208.275 50.1297 208.14C50.2018 208.005 50.3075 207.883 50.4407 207.78C50.5739 207.677 50.732 207.595 50.9061 207.539C51.0801 207.484 51.2667 207.455 51.4551 207.455Z" fill="#2F2E41"/>
<path d="M49.3966 126.143C48.5811 126.143 48.1179 126.019 47.9385 125.754C47.6753 125.365 48.1321 124.856 48.6608 124.267C49.0532 123.882 49.3626 123.451 49.5772 122.99C49.8935 122.011 52.028 97.2905 50.7512 92.3511C50.4558 91.2082 50.7101 89.7432 51.5067 87.9969C53.6825 83.2278 56.6525 81.762 62.5691 78.8424C63.0494 78.6053 63.5495 78.3577 64.0695 78.0996C64.7421 77.7652 64.7047 76.6565 64.665 75.4824C64.6211 74.1776 64.5755 72.8281 65.4018 71.9847L65.4555 71.9297L65.5422 71.9141C67.5409 71.5567 74.2629 70.8931 78.2439 71.9189L78.2989 71.9334L78.3399 71.965C79.2856 72.6966 79.3718 74.1137 79.4551 75.4839C79.5233 76.609 79.5879 77.6712 80.1229 78.1327C84.2131 81.6598 88.852 81.5911 88.8991 81.5903L89.1289 81.5851L89.1517 81.762C90.9309 95.7623 93.799 116.893 94.4085 117.725C94.4404 117.763 94.4582 117.807 94.4599 117.852C94.4617 117.898 94.4474 117.943 94.4186 117.982C93.5238 119.275 52.4703 126.143 49.3966 126.143Z" fill="#E6E6E6"/>
<path d="M76.1127 67.9508C82.8126 67.9508 88.2439 63.749 88.2439 58.5657C88.2439 53.3825 82.8126 49.1807 76.1127 49.1807C69.4128 49.1807 63.9814 53.3825 63.9814 58.5657C63.9814 63.749 69.4128 67.9508 76.1127 67.9508Z" fill="#FFB8B8"/>
<path d="M42.7869 54.3755C44.838 52.525 45.8131 50.0699 47.4528 47.9687C49.0925 45.8673 51.9459 43.9867 54.9604 44.4757C57.0384 44.8128 58.6443 46.2314 59.4573 47.8129C60.2702 49.3944 60.4226 51.1385 60.565 52.8471C60.5147 49.3358 63.505 45.9319 67.6241 44.8115C71.743 43.6911 76.6725 44.9408 79.2608 47.7617C80.3903 46.9518 81.8646 46.4907 83.4044 46.4657C84.9441 46.4406 86.4421 46.8535 87.6146 47.6261C89.9297 49.2268 90.442 52.2737 88.7394 54.3155C87.8845 55.309 86.5902 56.0268 85.0996 56.3343C83.609 56.6418 82.0245 56.5178 80.6437 55.9855L79.6871 56.6663C79.9349 57.3939 79.8443 58.1658 79.431 58.847C79.0176 59.5282 78.308 60.0753 77.4261 60.3926C76.0027 60.8374 73.9933 60.7634 73.4607 61.9189C73.0885 62.7264 73.7842 63.5882 74.5242 64.2087C75.2641 64.8291 76.1427 65.4698 76.2316 66.3284C76.3659 67.6239 74.6354 68.5314 73.0624 68.8047C71.1339 69.103 69.1342 68.9493 67.3193 68.3633C65.5044 67.7773 63.9568 66.7856 62.8745 65.5152C62.8324 65.4653 62.7866 65.4153 62.7371 65.3652C61.5106 64.1518 60.6167 62.7575 60.1101 61.2678C59.6036 59.7781 59.495 58.2241 59.7909 56.7008C59.9139 56.1022 59.79 55.657 59.2566 55.5153C56.951 54.9026 50.4916 56.1885 48.5367 57.3507C46.5817 58.5128 45.0162 60.0508 43.1332 61.288C41.2501 62.5251 38.8505 63.4795 36.4596 63.1425C34.5447 62.8727 32.9156 61.7972 31.8199 60.4999C30.7866 59.1574 30.0146 57.7044 29.5288 56.1877C33.7632 58.0801 39.5584 57.288 42.7869 54.3755Z" fill="#2F2E41"/>
<path d="M95.5607 150.44C95.1439 150.089 94.8317 149.672 94.6459 149.217C94.4601 148.763 94.4054 148.283 94.4855 147.81C94.5656 147.338 94.7786 146.885 95.1095 146.483C95.4404 146.081 95.8812 145.74 96.4008 145.485L92.9482 134.215L100.256 136.28L102.414 146.665C102.911 147.369 103.058 148.19 102.826 148.972C102.594 149.753 101.999 150.442 101.154 150.907C100.309 151.373 99.2735 151.582 98.2426 151.496C97.2117 151.41 96.2575 151.034 95.5607 150.44H95.5607Z" fill="#FFB8B8"/>
<path d="M77.9883 103.213L80.9209 109.047C80.9209 109.047 79.6641 114.881 81.7588 116.178C83.8535 117.474 83.0156 117.474 83.0156 118.447C83.0878 119.144 83.3489 119.822 83.782 120.436C84.2151 121.05 84.8104 121.587 85.5293 122.012C87.2051 122.984 94.7461 142.755 94.7461 142.755H102.287C102.044 141.248 102.044 139.724 102.287 138.217C102.706 135.948 101.03 130.114 100.192 129.142C99.3545 128.17 100.192 126.873 100.192 124.929C100.192 122.984 98.5166 122.012 98.5166 118.771C98.5166 115.53 93.4893 90.2491 93.9082 87.3321C94.3272 84.4151 89.7188 81.8223 89.7188 81.8223H85.5293L77.9883 103.213Z" fill="#E6E6E6"/>
</g>
<defs>
<clipPath id="clip0_60_1051">
<rect width="412" height="229" fill="white"/>
</clipPath>
</defs>
</svg>
