<svg width="30" height="30" viewBox="0 0 30 30" fill="none" xmlns="http://www.w3.org/2000/svg">
<path d="M11.25 26.25H22.5C23.5375 26.25 24.425 25.625 24.8 24.725L28.575 15.9125C28.6875 15.625 28.75 15.325 28.75 15V12.5C28.75 11.125 27.625 10 26.25 10H18.3625L19.55 4.2875L19.5875 3.8875C19.5875 3.375 19.375 2.9 19.0375 2.5625L17.7125 1.25L9.475 9.4875C9.025 9.9375 8.75 10.5625 8.75 11.25V23.75C8.75 25.125 9.875 26.25 11.25 26.25ZM11.25 11.25L16.675 5.825L15 12.5H26.25V15L22.5 23.75H11.25V11.25ZM1.25 11.25H6.25V26.25H1.25V11.25Z" fill="black"/>
</svg>
