<svg width="30" height="30" viewBox="0 0 30 30" fill="none" xmlns="http://www.w3.org/2000/svg">
<path d="M11 26H22.25C23.2875 26 24.175 25.375 24.55 24.475L28.325 15.6625C28.4375 15.375 28.5 15.075 28.5 14.75V12.25C28.5 10.875 27.375 9.75 26 9.75H18.1125L19.3 4.0375L19.3375 3.6375C19.3375 3.125 19.125 2.65 18.7875 2.3125L17.4625 1L9.225 9.2375C8.775 9.6875 8.5 10.3125 8.5 11V23.5C8.5 24.875 9.625 26 11 26ZM11 11L16.425 5.575L14.75 12.25H26V14.75L22.25 23.5H11V11ZM1 11H6V26H1V11Z" fill="#3771E2"/>
</svg>
