<svg width="45" height="45" viewBox="0 0 45 45" fill="none" xmlns="http://www.w3.org/2000/svg">
<path d="M36.125 9.375V8.875H35.625H9.375H8.875V9.375V35.625V36.125H9.375H35.625H36.125V35.625V9.375ZM12.2719 31.375L16.8869 25.4369L20.5021 29.8122L20.8999 30.2938L21.2827 29.8001L26.5062 23.0617L32.7492 31.375H12.2719ZM9.375 6.125H35.625C37.4114 6.125 38.875 7.58864 38.875 9.375V35.625C38.875 37.4114 37.4114 38.875 35.625 38.875H9.375C7.58864 38.875 6.125 37.4114 6.125 35.625V9.375C6.125 7.58864 7.58864 6.125 9.375 6.125Z" stroke="#70EC44"/>
<circle cx="20.5" cy="16.5" r="2.5" fill="#70EC44"/>
</svg>
