<svg width="32" height="32" viewBox="0 0 32 32" fill="none" xmlns="http://www.w3.org/2000/svg">
<g clip-path="url(#clip0_220_113)">
<path d="M30.391 12.68L27.327 12.066C27.173 11.623 26.991 11.193 26.79 10.777L28.526 8.17295C29.055 7.37995 28.95 6.32295 28.276 5.64995L26.352 3.72595C25.965 3.33895 25.454 3.13995 24.936 3.13995C24.553 3.13995 24.166 3.24995 23.829 3.47595L21.225 5.21095C20.807 5.00895 20.377 4.82895 19.934 4.67495L19.32 1.60995C19.134 0.673953 18.312 0.00195312 17.359 0.00195312H14.639C13.686 0.00195312 12.865 0.674953 12.678 1.60995L12.064 4.67495C11.621 4.82895 11.191 5.00995 10.775 5.21095L8.172 3.47595C7.833 3.24995 7.447 3.13995 7.063 3.13995C6.546 3.13995 6.035 3.33895 5.648 3.72595L3.725 5.64995C3.051 6.32395 2.946 7.37995 3.475 8.17295L5.21 10.777C5.008 11.194 4.828 11.624 4.674 12.067L1.608 12.68C0.673 12.867 0 13.688 0 14.641V17.361C0 18.314 0.673 19.136 1.608 19.322L4.673 19.937C4.827 20.38 5.008 20.81 5.209 21.226L3.475 23.83C2.946 24.623 3.051 25.68 3.725 26.353L5.649 28.277C6.036 28.664 6.547 28.863 7.064 28.863C7.448 28.863 7.835 28.752 8.172 28.527L10.776 26.791C11.193 26.994 11.623 27.174 12.066 27.328L12.679 30.392C12.866 31.328 13.687 32.001 14.64 32.001H17.36C18.313 32.001 19.135 31.327 19.321 30.392L19.936 27.328C20.379 27.174 20.809 26.992 21.225 26.791L23.829 28.527C24.167 28.752 24.554 28.863 24.936 28.863C25.454 28.863 25.965 28.664 26.352 28.277L28.276 26.353C28.95 25.679 29.055 24.623 28.526 23.83L26.79 21.226C26.993 20.808 27.173 20.378 27.327 19.935L30.391 19.322C31.326 19.137 32 18.314 32 17.361V14.641C32 13.688 31.326 12.867 30.391 12.68ZM26.934 17.975C26.239 18.114 25.67 18.61 25.438 19.28C25.309 19.649 25.159 20.007 24.991 20.354C24.68 20.993 24.733 21.747 25.126 22.336L26.862 24.94L24.938 26.864L22.334 25.128C22 24.905 21.613 24.792 21.225 24.792C20.928 24.792 20.629 24.858 20.354 24.991C20.006 25.159 19.649 25.311 19.278 25.44C18.61 25.672 18.114 26.241 17.975 26.936L17.36 30.002H14.64L14.027 26.936C13.888 26.241 13.392 25.672 12.723 25.44C12.354 25.311 11.995 25.161 11.648 24.993C11.372 24.858 11.074 24.792 10.776 24.792C10.387 24.792 10.001 24.905 9.667 25.128L7.063 26.864L5.139 24.94L6.874 22.336C7.267 21.746 7.318 20.992 7.011 20.356C6.843 20.008 6.692 19.651 6.563 19.28C6.331 18.612 5.761 18.116 5.067 17.977L2.002 17.362L2 14.641L5.066 14.028C5.76 13.889 6.33 13.393 6.562 12.724C6.691 12.355 6.84 11.996 7.009 11.649C7.319 11.011 7.267 10.257 6.873 9.66795L5.139 7.06395L7.062 5.13995L9.666 6.87495C10 7.09795 10.387 7.21095 10.775 7.21095C11.072 7.21095 11.37 7.14495 11.646 7.01195C11.993 6.84395 12.351 6.69295 12.721 6.56395C13.39 6.33195 13.886 5.76195 14.025 5.06795L14.639 2.00295L17.359 2.00195L17.972 5.06795C18.111 5.76195 18.607 6.33195 19.277 6.56395C19.646 6.69295 20.004 6.84195 20.351 7.01095C20.628 7.14495 20.925 7.21095 21.224 7.21095C21.613 7.21095 21.999 7.09795 22.333 6.87495L24.937 5.13995L26.861 7.06395L25.125 9.66795C24.732 10.258 24.682 11.011 24.988 11.648C25.156 11.995 25.308 12.353 25.437 12.723C25.669 13.392 26.238 13.888 26.933 14.027L29.997 14.641L30 17.361L26.934 17.975Z" fill="#333333"/>
<path d="M16 9.00098C12.135 9.00098 9 12.136 9 16.001C9 19.867 12.135 23.001 16 23.001C19.865 23.001 23 19.866 23 16.001C23 12.136 19.865 9.00098 16 9.00098ZM16 22.127C12.618 22.127 9.875 19.383 9.875 16.002C9.875 12.62 12.618 9.87698 16 9.87698C19.381 9.87698 22.125 12.62 22.125 16.002C22.125 19.383 19.381 22.127 16 22.127Z" fill="#333333"/>
</g>
<defs>
<clipPath id="clip0_220_113">
<rect width="32" height="32" fill="white"/>
</clipPath>
</defs>
</svg>
