<svg width="446" height="306" viewBox="0 0 446 306" fill="none" xmlns="http://www.w3.org/2000/svg">
<g clip-path="url(#clip0_72_1362)">
<path opacity="0.1" d="M252.271 41.6601C223.683 41.6981 196.165 33.6442 169.845 24.697C143.525 15.7499 117.408 5.73095 89.3514 1.48544C71.3075 -1.24354 50.7891 -0.992691 36.6844 8.91604C23.1075 18.4485 19.1759 34.2257 17.279 48.8018C15.8525 59.7672 15.1946 71.276 20.5374 81.3064C24.2472 88.2695 30.5958 94.0087 35.0705 100.645C50.6897 123.731 41.2967 153.222 26.1174 176.844C19 187.927 10.6626 198.55 5.28158 210.268C-0.0994713 221.986 -2.3062 235.274 3.18194 246.84C8.62035 258.303 20.9046 266.623 34.0876 272.305C60.859 283.867 92.0285 286.345 122.361 287.299C189.503 289.416 256.776 285.099 323.869 280.781C348.697 279.185 373.637 277.577 397.953 272.951C411.453 270.386 425.355 266.577 434.928 258.231C447.078 247.634 449.564 230.333 440.722 217.896C425.895 197.037 386.797 193.104 376.165 170.534C370.302 158.11 375.358 143.86 382.804 131.884C398.775 106.187 426.266 83.1688 426.728 54.427C427.046 34.6894 412.75 15.4344 391.398 6.856C369.017 -2.12913 338.501 0.181762 322.821 16.9282C306.697 34.1801 277.512 41.6335 252.271 41.6601Z" fill="#59FF1E"/>
<path d="M379.591 245.289C379.591 245.289 374.891 242.207 370.233 244.4C370.233 244.4 371.667 247.144 377.564 246.886L379.591 245.289Z" fill="#6C63FF"/>
<path d="M380.188 245.453C380.188 245.453 381.619 250.866 378.031 254.549C378.031 254.549 375.874 252.317 378.031 246.852L380.188 245.453Z" fill="#6C63FF"/>
<path d="M386.032 240.258C386.032 240.258 385.684 235.655 375.224 237.183C375.224 237.183 375.174 240.151 378.846 241.558C382.517 242.964 384.2 241.778 386.032 240.258Z" fill="#6C63FF"/>
<path d="M386.69 240.227C386.69 240.227 391.111 241.637 387.168 251.386C387.168 251.386 384.25 250.74 383.726 246.859C383.202 242.978 384.755 241.64 386.69 240.227Z" fill="#6C63FF"/>
<path d="M392.595 233.697C392.595 233.697 393.195 226.122 382.506 226.898C382.506 226.898 381.741 233.739 390.71 235.518L392.595 233.697Z" fill="#6C63FF"/>
<path d="M399.659 225.145C399.659 225.145 398.194 216.559 387.508 219.117C387.508 219.117 387.47 226.54 397.915 227.19L399.659 225.145Z" fill="#6C63FF"/>
<path d="M404.822 216.304C404.822 216.304 402.366 207.942 391.78 210.443C391.78 210.443 394.301 217.965 404.118 217.847L404.822 216.304Z" fill="#6C63FF"/>
<path d="M409.725 207.669C409.725 207.669 407.327 198.991 397.104 201.587C397.104 201.587 400.515 209.831 409.048 209.136L409.725 207.669Z" fill="#6C63FF"/>
<path d="M412.884 199.467C412.884 199.467 411.04 188.855 401.51 191.204C401.51 191.204 404.279 200.858 412.184 201.014L412.884 199.467Z" fill="#6C63FF"/>
<path d="M415.848 189.558C415.848 189.558 413.633 178.862 403.992 181.956C403.992 181.956 407.77 192.066 415.163 191.021L415.848 189.558Z" fill="#6C63FF"/>
<path d="M417.668 180.337C417.668 180.337 414.154 169.638 406.7 169.927C406.7 169.927 410.291 181.226 417.045 182.469L417.668 180.337Z" fill="#6C63FF"/>
<path d="M418.846 171.337C418.846 171.337 415.022 158.46 408.956 159.452C408.956 159.452 411.603 169.296 418.632 173.344L418.846 171.337Z" fill="#6C63FF"/>
<path d="M419.511 160.6C419.511 160.6 415.924 149.87 409.95 149.44C409.95 149.44 412.39 159.999 419.393 163.389L419.511 160.6Z" fill="#6C63FF"/>
<path d="M420.234 150.581C420.234 150.581 415.763 139.84 411.82 139.597C411.82 139.597 413.763 150.174 419.852 152.345L420.234 150.581Z" fill="#6C63FF"/>
<path d="M420.728 141.261C420.728 141.261 417.978 129.596 414.027 128.627C414.027 128.627 414.567 138.171 420.33 142.135L420.728 141.261Z" fill="#6C63FF"/>
<path d="M422.219 129.053C422.219 129.053 419.328 119.753 416.127 118.335C416.127 118.335 416.758 129.3 421.481 131.326L422.219 129.053Z" fill="#6C63FF"/>
<path d="M423.454 121.072L424.036 104.675C424.036 104.675 418.05 117.035 423.022 123.949L423.454 121.072Z" fill="#6C63FF"/>
<path d="M428.075 104.762C428.075 104.762 432.385 92.7891 433.429 92.1201C433.429 92.1201 424.977 99.889 425.803 109.881L428.075 104.762Z" fill="#6C63FF"/>
<path d="M392.886 233.64C392.886 233.64 400.466 232.656 400.24 243.302C400.24 243.302 393.391 244.412 391.153 235.605L392.886 233.64Z" fill="#6C63FF"/>
<path d="M400.018 224.856C400.018 224.856 408.776 224.83 408.05 235.727C408.05 235.727 400.695 237.034 398.271 226.916L400.018 224.856Z" fill="#6C63FF"/>
<path d="M404.906 217.008C404.906 217.008 412.857 213.302 417.943 222.869C417.943 222.869 410.6 225.955 404.202 218.555L404.906 217.008Z" fill="#6C63FF"/>
<path d="M409.901 207.749C409.901 207.749 418.043 203.808 422.824 213.15C422.824 213.15 414.341 216.054 409.228 209.228L409.901 207.749Z" fill="#6C63FF"/>
<path d="M412.78 199.699C412.78 199.699 420.617 192.261 426.87 199.783C426.87 199.783 418.865 205.906 412.421 201.356L412.78 199.699Z" fill="#6C63FF"/>
<path d="M415.404 189.304C415.404 189.304 423.286 181.702 429.49 189.653C429.49 189.653 420.644 195.898 415.121 190.9L415.404 189.304Z" fill="#6C63FF"/>
<path d="M416.876 180.034C416.876 180.034 422.95 170.532 430.102 172.652C430.102 172.652 423.799 182.713 416.945 182.265L416.876 180.034Z" fill="#6C63FF"/>
<path d="M418.667 171.276C418.667 171.276 424.786 159.311 430.576 161.394C430.576 161.394 426.163 170.592 418.51 173.294L418.667 171.276Z" fill="#6C63FF"/>
<path d="M419.091 159.977C419.091 159.977 425.382 150.558 431.276 151.71C431.276 151.71 426.132 161.261 418.479 162.702L419.091 159.977Z" fill="#6C63FF"/>
<path d="M419.581 150.372C419.581 150.372 424.457 139.802 428.419 139.729C428.419 139.729 426.078 150.224 419.909 152.166L419.581 150.372Z" fill="#6C63FF"/>
<path d="M420.537 141.034C420.537 141.034 425.956 130.33 430.029 130.308C430.029 130.308 427.256 139.46 420.716 141.972L420.537 141.034Z" fill="#6C63FF"/>
<path d="M421.351 129.722C421.351 129.722 425.405 120.866 428.763 119.862C428.763 119.862 426.736 130.657 421.799 132.071L421.351 129.722Z" fill="#6C63FF"/>
<path d="M423.937 120.748L432.997 107.031C432.997 107.031 430.675 120.562 422.613 123.375L423.937 120.748Z" fill="#6C63FF"/>
<path d="M430.155 105.868C430.155 105.868 440.684 98.6463 441.066 97.4795C441.066 97.4795 435.712 107.593 425.769 109.38L430.155 105.868Z" fill="#6C63FF"/>
<path d="M430.786 102.618C430.786 102.618 442.875 91.0677 445.962 91.0791C445.962 91.0791 435.991 91.5314 430.496 102.003L430.786 102.618Z" fill="#6C63FF"/>
<path d="M421.47 131.436L421.91 131.493C424.181 113.823 427.493 103.367 431.234 102.086L431.088 101.668C427.122 103.036 423.787 113.333 421.47 131.436Z" fill="#444053"/>
<path d="M418.127 173.694L418.792 173.747C418.934 172.097 419.041 170.41 419.114 168.726C419.749 154.101 420.731 140.668 422.024 130.6L421.642 130.125C420.345 140.216 419.083 154.051 418.448 168.699C418.376 170.372 418.268 172.052 418.127 173.694Z" fill="#444053"/>
<path d="M367.185 253.72C367.3 253.67 379.014 248.471 391.172 236.073C398.296 228.811 404.214 220.472 408.708 211.367C414.33 199.991 417.756 186.012 418.904 172.432L418.211 172.755C415.63 203.237 401.667 224.066 390.564 235.411C378.525 247.699 366.94 252.846 366.826 252.895L367.185 253.72Z" fill="#444053"/>
<path d="M397.517 32.3945H30.0296C29.1614 32.3945 28.3287 32.7373 27.7147 33.3475C27.1008 33.9576 26.7559 34.7851 26.7559 35.648V45.1273H400.79V35.648C400.79 34.7851 400.446 33.9576 399.832 33.3475C399.218 32.7373 398.385 32.3945 397.517 32.3945Z" fill="#3F3D56"/>
<path d="M26.7559 45.127V258.444C26.7559 260.184 27.4513 261.852 28.6893 263.083C29.9272 264.313 31.6062 265.004 33.3569 265.004H394.189C395.94 265.004 397.619 264.313 398.857 263.083C400.095 261.852 400.79 260.184 400.79 258.444V45.127H26.7559Z" fill="white"/>
<path opacity="0.8" d="M32.6802 40.1862C33.5251 40.1862 34.21 39.5055 34.21 38.6658C34.21 37.8262 33.5251 37.1455 32.6802 37.1455C31.8353 37.1455 31.1504 37.8262 31.1504 38.6658C31.1504 39.5055 31.8353 40.1862 32.6802 40.1862Z" fill="#FA5959"/>
<path opacity="0.8" d="M36.8872 40.1862C37.7321 40.1862 38.417 39.5055 38.417 38.6658C38.417 37.8262 37.7321 37.1455 36.8872 37.1455C36.0423 37.1455 35.3574 37.8262 35.3574 38.6658C35.3574 39.5055 36.0423 40.1862 36.8872 40.1862Z" fill="#FED253"/>
<path opacity="0.8" d="M41.0942 40.1862C41.9391 40.1862 42.624 39.5055 42.624 38.6658C42.624 37.8262 41.9391 37.1455 41.0942 37.1455C40.2494 37.1455 39.5645 37.8262 39.5645 38.6658C39.5645 39.5055 40.2494 40.1862 41.0942 40.1862Z" fill="#8CCF4D"/>
<path d="M351.99 191.588C351.98 191.128 351.922 190.671 351.818 190.223C351.474 188.938 350.698 187.384 349.42 186.996C348.102 186.595 346.828 186.06 345.619 185.4C345.389 181.325 346.33 177.156 345.305 173.207C344.923 171.762 344.292 170.379 344.124 168.9C343.913 167.061 344.418 165.1 343.68 163.404C343.099 162.067 341.821 161.124 340.448 160.63C339.075 160.136 337.595 160.003 336.138 159.87C334.302 159.721 328.359 159.022 326.286 160.653C326.143 160.763 326.015 160.891 325.904 161.033C325.858 161.095 325.817 161.161 325.781 161.23L325.762 161.261C325.721 161.34 325.686 161.423 325.659 161.508C325.63 161.601 325.608 161.696 325.594 161.793C325.594 161.823 325.594 161.854 325.594 161.884C325.594 161.915 325.594 162.017 325.594 162.086V162.188C325.594 162.257 325.594 162.325 325.594 162.397C325.594 162.469 325.594 162.45 325.594 162.477C325.621 162.819 325.67 163.161 325.67 163.499C325.674 163.668 325.659 163.836 325.624 164.001C325.497 164.449 325.281 164.868 324.99 165.233L324.921 165.331C324.879 165.392 324.837 165.449 324.798 165.51C324.76 165.571 324.73 165.617 324.699 165.67C324.668 165.723 324.638 165.757 324.611 165.807C324.574 165.869 324.541 165.934 324.512 166C324.512 166.038 324.469 166.073 324.454 166.111C324.406 166.213 324.368 166.32 324.339 166.43C324.25 166.76 324.242 167.107 324.316 167.441C324.42 167.867 324.597 168.272 324.84 168.638C324.936 168.794 325.039 168.946 325.146 169.098L325.414 169.459C325.364 169.812 325.337 170.167 325.334 170.523C325.334 171.714 325.606 172.888 326.129 173.959C326.653 175.029 327.414 175.968 328.355 176.704C328.507 178.309 328.49 179.925 328.305 181.527C328.271 181.861 328.229 182.199 328.183 182.534C328.137 182.868 328.103 183.089 328.057 183.366C327.497 183.446 326.927 183.403 326.386 183.241C326.136 183.13 325.881 183.033 325.621 182.948C324.508 182.671 323.372 183.773 322.27 183.439C322.27 183.492 322.24 183.541 322.221 183.591C321.991 183.449 321.726 183.371 321.456 183.366C320.802 183.336 320.27 182.865 319.796 182.42L318.339 181.055C318.244 180.972 318.159 180.877 318.086 180.774C318.008 180.626 317.949 180.469 317.91 180.307C317.666 179.52 317.073 178.893 316.499 178.296C316.391 178.16 316.246 178.056 316.082 177.996C316.019 177.986 315.955 177.986 315.891 177.996C315.852 177.943 315.81 177.892 315.765 177.844C315.666 177.731 315.56 177.624 315.448 177.524C314.751 176.886 314.683 176.339 314.078 175.624C313.551 174.943 313.073 174.225 312.648 173.477C312.598 173.078 312.529 172.667 312.445 172.253C312.252 171.304 311.972 170.375 311.608 169.478L310.843 167.794L310.755 167.882C310.2 167.061 309.608 166.612 309.076 166.719C308.185 166.901 307.745 168.619 307.887 170.865L308.192 173.146C308.192 173.203 308.219 173.26 308.235 173.317C308.179 173.587 308.151 173.862 308.15 174.138C308.15 174.457 308.449 174.693 308.606 174.978C308.856 175.364 308.989 175.814 308.988 176.274C308.969 176.437 308.919 176.593 308.911 176.753C308.932 177.11 309.057 177.453 309.271 177.741L311.183 180.934L311.566 181.603L311.589 181.633C311.709 181.867 311.885 182.067 312.101 182.218C312.176 183.018 312.39 183.798 312.732 184.526C312.797 184.67 312.87 184.807 312.946 184.944C313.46 185.784 314.066 186.565 314.751 187.274L315.662 188.288C316.56 189.284 317.459 190.284 318.434 191.204C318.784 191.573 319.205 191.866 319.674 192.066C319.903 192.158 320.152 192.187 320.397 192.152C320.641 192.116 320.872 192.017 321.066 191.865C321.066 192.336 321.066 192.808 321.066 193.279C321.208 193.288 321.345 193.334 321.463 193.413C321.581 193.492 321.676 193.6 321.737 193.728C321.799 193.855 321.825 193.997 321.813 194.138C321.801 194.279 321.752 194.414 321.67 194.529C320.867 196.578 320.056 198.646 318.84 200.481C319.698 200.986 320.494 201.59 321.211 202.279C321.676 202.792 322.09 203.348 322.446 203.94C322.481 204.221 322.508 204.499 322.523 204.776C322.806 209.307 321.043 213.803 319.463 218.121C319.008 219.345 318.511 220.626 318.549 221.899C318.249 222.083 317.963 222.287 317.692 222.511C318.006 223.324 317.884 224.05 317.849 224.921C317.838 225.442 317.73 225.958 317.532 226.441C317.366 226.776 317.182 227.102 316.981 227.418C315.991 229.155 315.773 231.219 315.574 233.203C315.455 234.4 315.922 235.863 315.375 236.935C314.43 238.775 313.593 240.736 313.463 242.781C313.458 243.241 313.399 243.699 313.287 244.145C313.168 244.525 312.958 244.848 312.851 245.221C312.74 245.72 312.715 246.234 312.774 246.741C312.847 248.563 312.575 250.382 311.971 252.104C311.493 253.461 310.965 254.913 311.34 256.308C310.417 257.271 309.848 258.515 309.722 259.839C309.712 260.178 309.671 260.515 309.6 260.846C309.483 261.185 309.329 261.51 309.141 261.815C308.371 263.209 308.011 264.789 308.101 266.376C306.953 267.923 306.38 269.831 306.039 271.728C305.699 273.624 305.55 275.555 305.114 277.429C304.532 279.907 303.481 282.412 303.274 284.951C302.035 285.738 301.5 287.262 301.262 288.702C301.025 290.143 300.987 291.655 300.379 292.986C300.065 293.677 299.614 294.297 299.316 295.004C299.107 295.567 298.953 296.149 298.857 296.741C298.673 297.668 298.513 298.702 298.738 299.592C298.414 299.933 298.035 300.219 297.618 300.439C297.679 300.203 297.729 299.968 297.771 299.728C296.784 300.618 294.994 300.306 294.206 301.374C293.97 301.718 293.877 302.141 293.949 302.551C294.02 302.962 294.25 303.329 294.589 303.575C294.835 303.724 295.102 303.838 295.38 303.913C297.293 304.521 299.258 305.133 301.224 304.81C301.457 304.785 301.682 304.714 301.886 304.601C302.142 304.414 302.352 304.172 302.502 303.894C302.796 303.43 303.091 302.967 303.381 302.503C304.086 302.712 304.802 302.878 305.527 303.001C305.599 303.609 305.653 304.217 305.68 304.825C306.062 304.901 306.575 304.924 306.754 304.571C306.809 304.437 306.831 304.292 306.819 304.149C306.819 303.879 306.858 303.522 306.881 303.157H306.957C308.124 303.204 309.285 302.97 310.342 302.476C309.933 299.109 311.283 295.817 312.453 292.632C313.688 289.28 314.748 285.867 315.815 282.454C316.58 280.052 317.425 277.725 318.174 275.32C319.118 272.279 320.065 269.238 321.016 266.198C321.429 264.86 321.846 263.537 322.32 262.207C323.318 259.515 324.503 256.895 325.865 254.366C326.248 253.647 326.63 252.937 326.944 252.192C327.326 251.283 327.598 250.333 327.904 249.394C328.571 247.468 329.373 245.591 330.306 243.777C330.332 243.727 330.352 243.682 330.378 243.636C330.688 244.894 330.998 246.171 331.204 247.437C331.484 248.989 331.506 250.576 331.269 252.135C331.086 253.195 330.738 254.244 330.78 255.32C330.837 256.806 331.637 258.155 332.03 259.588C332.284 260.66 332.428 261.755 332.459 262.857C332.566 264.567 333.499 266.486 332.841 268.071C330.795 273.092 331.786 278.763 330.619 284.035C330.019 286.741 328.179 289.284 328.325 292.051C328.427 294.014 328.6 295.973 328.845 297.927C328.904 298.543 329.065 299.146 329.323 299.709C329.475 300.006 329.65 300.291 329.847 300.561C329.678 300.625 329.537 300.796 329.415 301.157C329.101 302.108 329.415 303.286 330.264 303.818C330.61 304.002 330.983 304.13 331.369 304.198C331.889 304.345 332.427 304.419 332.967 304.419C333.136 304.41 333.303 304.389 333.468 304.358C334.06 304.605 334.663 304.82 335.277 305.004C335.277 305.16 335.308 305.316 335.327 305.471C335.328 305.553 335.346 305.633 335.381 305.707C335.415 305.781 335.464 305.847 335.526 305.901C335.622 305.945 335.727 305.964 335.832 305.954H337.909C337.909 305.783 337.909 305.608 337.909 305.437C338.146 305.462 338.387 305.437 338.614 305.363C338.841 305.29 339.05 305.17 339.228 305.012C339.412 304.779 339.543 304.509 339.611 304.221C340.177 302.313 340.739 300.404 341.297 298.493C341.967 296.381 342.245 294.166 342.119 291.956C341.381 284.951 343.003 277.923 342.475 270.899C342.158 266.677 342.376 262.433 343.125 258.265C343.297 257.323 343.508 256.365 343.584 255.426C343.753 253.655 343.546 251.865 343.672 250.105C343.714 249.489 343.798 248.877 343.875 248.265C344.399 244.467 344.674 240.639 344.697 236.806C344.685 235.536 344.606 234.267 344.46 233.005C344.859 232.904 345.221 232.693 345.504 232.397C345.845 231.956 345.757 231.336 345.753 230.774C345.753 229.428 346.323 228.159 346.782 226.889C347.371 225.139 347.853 223.354 348.227 221.546C348.622 220.088 348.838 218.589 348.87 217.08C348.87 216.928 348.862 216.776 348.847 216.624C348.991 216.524 349.111 216.394 349.199 216.243C349.298 216.021 349.36 215.783 349.382 215.54C349.52 214.571 349.661 213.598 349.799 212.625C349.901 211.928 350.002 211.233 350.101 210.538L351.317 202.104C351.421 201.371 351.528 200.641 351.631 199.911L351.948 197.73C351.983 197.471 352.021 197.213 352.048 196.969C352.981 195.419 352.09 193.351 351.99 191.588ZM341.844 223.165C341.393 222.1 340.972 221.01 341.079 219.862H341.037C341.138 219.509 341.12 219.132 340.987 218.79C340.869 218.512 340.662 218.277 340.536 217.999C340.401 217.661 340.33 217.3 340.33 216.935C340.235 214.623 340.418 212.309 340.877 210.04C340.926 209.774 340.98 209.505 341.029 209.238C341.19 209.146 341.337 209.033 341.465 208.9C341.667 208.672 341.833 208.416 341.959 208.14C342.391 207.277 342.785 206.399 343.148 205.506C343.267 205.217 343.439 204.883 343.733 204.811C343.672 207.034 343.902 209.303 342.991 211.31C342.819 211.634 342.69 211.979 342.609 212.336C342.525 212.902 342.762 213.476 342.678 214.039C342.636 214.332 342.51 214.601 342.46 214.89C342.422 215.032 342.423 215.181 342.462 215.323C342.501 215.464 342.577 215.593 342.682 215.696C342.732 215.731 342.788 215.76 342.846 215.78C342.823 215.932 342.804 216.088 342.789 216.236C342.758 216.547 342.743 216.84 342.724 217.023C342.636 217.952 342.601 218.886 342.62 219.82C342.62 220.827 342.659 221.834 342.643 222.861C342.658 223.155 342.608 223.449 342.498 223.723C342.422 223.865 342.324 223.993 342.207 224.104C342.097 223.761 341.974 223.461 341.844 223.165Z" fill="url(#paint0_linear_72_1362)"/>
<path d="M311.654 179.064C312.821 178.826 313.218 175.971 312.541 172.687C311.864 169.403 310.369 166.934 309.202 167.171C308.035 167.409 307.638 170.264 308.315 173.548C308.992 176.832 310.487 179.302 311.654 179.064Z" fill="#FBBEBE"/>
<path d="M329.476 301.23C329.162 302.172 329.476 303.351 330.325 303.864C330.669 304.046 331.039 304.174 331.422 304.244C331.941 304.389 332.478 304.462 333.017 304.46C333.679 304.43 334.314 304.172 334.975 304.08C335.052 304.061 335.132 304.072 335.201 304.111C335.234 304.146 335.259 304.188 335.273 304.234C335.288 304.28 335.292 304.329 335.285 304.377C335.292 304.751 335.32 305.124 335.369 305.494C335.37 305.576 335.388 305.656 335.422 305.73C335.456 305.804 335.506 305.87 335.568 305.924C335.663 305.968 335.769 305.986 335.874 305.977H337.947C337.994 304.167 337.794 302.359 337.354 300.603C337.325 300.468 337.273 300.34 337.201 300.223C337.025 300.031 336.794 299.898 336.539 299.842C336.033 299.633 335.485 299.538 334.937 299.565C334.268 299.652 333.709 300.082 333.139 300.439C332.57 300.796 331.793 301.112 331.101 300.929C330.409 300.747 329.831 300.173 329.476 301.23Z" fill="#3F3D56"/>
<path d="M299.04 299.561C298.457 300.182 297.743 300.665 296.948 300.975L296.596 301.143C296.548 301.161 296.506 301.194 296.478 301.238C296.471 301.267 296.471 301.298 296.478 301.327C296.484 301.357 296.497 301.385 296.516 301.409C296.809 301.859 297.241 302.201 297.748 302.385C298.255 302.568 298.808 302.581 299.323 302.424C299.551 302.367 299.762 302.257 299.939 302.104C300.23 301.761 300.397 301.33 300.413 300.88C300.529 300.417 300.509 299.93 300.356 299.478C299.824 298.288 299.629 298.828 299.04 299.561Z" fill="#FBBEBE"/>
<path d="M306.987 304.244C306.999 304.387 306.977 304.532 306.922 304.666C306.743 305.015 306.242 304.996 305.852 304.92C305.792 303.631 305.635 302.347 305.381 301.081C304.639 301.047 304.104 301.747 303.706 302.374L302.681 303.989C302.533 304.267 302.324 304.509 302.069 304.696C301.864 304.807 301.64 304.878 301.408 304.905C299.449 305.228 297.472 304.616 295.583 304.008C295.305 303.934 295.038 303.821 294.791 303.674C294.454 303.428 294.226 303.061 294.155 302.652C294.083 302.242 294.174 301.821 294.409 301.477C295.2 300.412 296.979 300.717 297.965 299.835C297.863 300.455 297.693 301.063 297.461 301.648C298.78 301.45 299.667 300.249 300.731 299.447C300.998 299.222 301.319 299.07 301.664 299.006C301.921 298.985 302.181 299.012 302.429 299.086C303.655 299.393 304.802 299.954 305.794 300.732C306.196 301.047 306.823 301.492 306.999 301.978C307.186 302.56 306.987 303.624 306.987 304.244Z" fill="#3F3D56"/>
<path d="M333.296 178.84C337.66 178.84 341.198 175.324 341.198 170.987C341.198 166.65 337.66 163.135 333.296 163.135C328.933 163.135 325.395 166.65 325.395 170.987C325.395 175.324 328.933 178.84 333.296 178.84Z" fill="#FBBEBE"/>
<path d="M348.862 217.35C348.83 218.851 348.616 220.343 348.223 221.793C347.849 223.594 347.366 225.371 346.778 227.114C346.323 228.38 345.753 229.649 345.757 230.991C345.757 231.55 345.848 232.169 345.504 232.61C345.198 232.92 344.811 233.139 344.387 233.245C344.176 233.301 343.981 233.405 343.817 233.549C343.654 233.694 343.527 233.875 343.447 234.077C343.087 233.544 342.819 232.956 342.651 232.336C341.965 230.248 341.328 228.149 340.739 226.038C340.685 225.917 340.662 225.784 340.671 225.652C340.68 225.519 340.722 225.391 340.792 225.278C340.889 225.194 341.003 225.131 341.125 225.092C341.517 224.933 341.876 224.704 342.184 224.415C342.329 224.288 342.448 224.134 342.536 223.963C342.647 223.691 342.698 223.398 342.685 223.104C342.685 222.097 342.685 221.094 342.659 220.086C342.643 219.156 342.678 218.226 342.766 217.3C342.766 217.118 342.8 216.825 342.831 216.514C342.888 215.917 343.003 215.225 343.328 214.993C343.814 214.67 345.267 215.103 345.818 215.179C346.766 215.309 347.73 215.461 348.655 215.639C348.79 216.2 348.859 216.774 348.862 217.35Z" fill="#3F3D56"/>
<path d="M316.958 179.779C316.652 180.387 315.918 180.679 315.352 181.063L313.413 182.386C313.283 182.502 313.131 182.591 312.966 182.647C312.801 182.703 312.627 182.726 312.453 182.713C312.295 182.655 312.15 182.566 312.028 182.452C311.905 182.338 311.806 182.2 311.738 182.048C311.739 182.038 311.739 182.027 311.738 182.017L311.336 181.348L309.424 178.163C309.211 177.878 309.087 177.537 309.068 177.183C309.068 177.019 309.125 176.867 309.141 176.704C309.146 176.245 309.013 175.795 308.758 175.411C308.605 175.126 308.299 174.891 308.307 174.572C308.292 174.152 308.365 173.734 308.521 173.344C308.722 172.983 309.01 172.677 309.359 172.454C309.539 172.325 309.722 172.204 309.913 172.074C310.015 172.005 310.127 171.954 310.246 171.922C310.563 171.858 310.877 172.12 311.198 172.131C312.579 173.051 313.111 174.792 314.197 176.046C314.809 176.761 314.87 177.308 315.562 177.947C315.673 178.045 315.78 178.152 315.883 178.262C316.02 178.41 316.136 178.577 316.228 178.756C316.354 179.083 317.115 179.467 316.958 179.779Z" fill="#3F3D56"/>
<path d="M330.52 178.843C331.09 180.04 331.533 181.356 331.369 182.671C331.335 183.027 331.221 183.371 331.036 183.678C330.485 184.518 329.33 184.67 328.325 184.719C328.113 184.702 327.899 184.726 327.697 184.791C327.495 184.857 327.308 184.961 327.147 185.099C327.012 185.293 326.947 185.526 326.96 185.762C326.973 185.997 327.064 186.221 327.219 186.399C327.543 186.742 327.944 187.003 328.39 187.159C329.981 187.855 331.698 188.429 333.426 188.269C334.23 188.193 335.01 187.961 335.809 187.844C336.68 187.75 337.556 187.702 338.433 187.699C339.473 187.661 340.509 187.558 341.546 187.456L344.292 187.186C344.442 187.188 344.587 187.135 344.701 187.038C344.904 186.802 344.644 186.456 344.391 186.278C342.934 185.206 341.079 184.468 340.249 182.857C339.867 182.097 339.748 181.192 339.465 180.371C339.182 179.55 338.731 178.809 338.555 177.973C338.461 177.239 338.419 176.5 338.429 175.761C338.438 175.015 338.165 174.293 337.664 173.739C337.117 173.233 336.325 173.104 335.583 173.074C333.755 172.994 331.809 173.427 330.512 174.708C330.164 175.054 329.866 175.468 329.506 175.78C329.147 176.091 328.657 176.183 328.894 176.593C329.132 177.004 329.598 177.258 329.851 177.619C330.106 178.009 330.33 178.418 330.52 178.843Z" fill="#FBBEBE"/>
<path d="M346.097 189.9C345.615 192.827 344.83 195.697 343.756 198.464C343.216 199.713 342.757 200.995 342.379 202.303C342.085 203.481 342.142 204.743 341.871 205.925C341.534 207.396 341.198 208.87 340.926 210.353C340.471 212.616 340.288 214.926 340.383 217.232C340.384 217.595 340.454 217.955 340.59 218.293C340.716 218.566 340.919 218.802 341.037 219.083C341.126 219.33 341.162 219.593 341.144 219.854C341.125 220.116 341.052 220.371 340.93 220.603C340.734 221.039 340.468 221.439 340.142 221.789C336.578 222.846 332.765 222.5 329.051 222.724C325.628 222.93 322.167 223.629 318.794 223.047C318.411 221.527 319.05 219.935 319.597 218.452C321.184 214.146 322.94 209.661 322.657 205.149C322.627 204.623 322.567 204.099 322.477 203.58C321.922 200.383 322.527 197.073 323.494 193.975C324.095 192.044 324.068 189.988 323.93 187.977C323.862 187.324 323.853 186.667 323.903 186.012C323.959 185.344 324.209 184.706 324.622 184.176C324.622 184.15 324.657 184.123 324.676 184.097C324.695 184.07 324.844 184.074 324.963 184.097C324.993 184.109 325.026 184.116 325.058 184.116C325.091 184.116 325.124 184.109 325.154 184.097L325.196 184.07C325.212 184.059 325.232 184.052 325.252 184.052C325.271 184.052 325.291 184.059 325.307 184.07C325.395 184.123 325.445 184.306 325.636 184.34C325.918 184.382 326.203 184.409 326.489 184.42C326.832 184.43 327.173 184.478 327.506 184.564H327.552C328.049 184.647 328.56 184.604 329.036 184.439C329.353 184.36 329.658 184.243 329.946 184.089C330.03 183.998 330.558 183.914 330.665 183.85C331.013 183.64 330.937 182.66 331.009 182.257C331.049 181.853 331.146 181.456 331.296 181.079C331.47 180.8 331.711 180.568 331.996 180.403C332.281 180.238 332.603 180.145 332.933 180.132C333.592 180.117 334.25 180.175 334.895 180.307C336.322 180.509 337.782 180.474 339.182 180.801C339.886 180.965 340.655 181.212 341.301 180.893C341.477 180.934 341.504 181.086 341.504 181.273C341.487 181.45 341.451 181.624 341.397 181.793C341.152 182.842 341.982 183.808 342.747 184.568C343.07 184.926 343.451 185.228 343.875 185.461C344.257 185.636 344.64 185.708 345.022 185.898C345.332 186.062 345.595 186.302 345.787 186.594C346.008 186.929 346.156 187.305 346.223 187.7C346.305 188.435 346.263 189.179 346.097 189.9Z" fill="#3F3D56"/>
<path opacity="0.1" d="M346.097 189.9C345.615 192.827 344.83 195.696 343.756 198.463C343.216 199.713 342.757 200.995 342.38 202.302C342.085 203.481 342.142 204.742 341.871 205.924C341.534 207.395 341.198 208.87 340.926 210.352C340.846 210.398 340.762 210.44 340.678 210.478C340.202 210.704 339.698 210.865 339.178 210.957C338.246 211.069 337.302 211.038 336.379 210.866L330.921 210.14C328.741 209.847 326.42 209.493 324.802 208.026C323.903 207.221 323.314 206.156 322.668 205.13C322.638 204.604 322.578 204.08 322.488 203.56C321.934 200.364 322.538 197.053 323.506 193.956C324.106 192.025 324.079 189.969 323.942 187.958C323.874 187.305 323.865 186.647 323.915 185.993C323.97 185.325 324.22 184.687 324.634 184.157C324.746 184.125 324.859 184.099 324.974 184.081C325.051 184.066 325.129 184.056 325.208 184.051H325.319C325.447 184.051 325.576 184.067 325.701 184.096C325.962 184.179 326.217 184.277 326.466 184.389H326.512C326.84 184.496 327.184 184.545 327.529 184.533C328.034 184.533 328.554 184.454 329.059 184.419C329.682 184.323 330.321 184.436 330.872 184.743C331.227 185.027 331.564 185.332 331.881 185.659C332.264 185.957 332.695 186.19 333.155 186.346C336.447 187.595 340.099 187.519 343.336 186.134C343.647 185.958 343.999 185.869 344.357 185.875C344.621 185.927 344.871 186.033 345.091 186.187C345.321 186.32 345.546 186.449 345.779 186.567C346 186.902 346.148 187.278 346.215 187.673C346.303 188.417 346.263 189.17 346.097 189.9Z" fill="black"/>
<path d="M349.428 187.384C347.905 186.922 346.442 186.284 345.068 185.484C344.847 185.331 344.597 185.225 344.334 185.172C343.975 185.168 343.622 185.257 343.309 185.43C340.074 186.815 336.423 186.892 333.132 185.643C332.672 185.485 332.242 185.253 331.858 184.955C331.54 184.63 331.203 184.324 330.849 184.039C329.59 183.23 327.85 184.18 326.443 183.659C326.193 183.548 325.938 183.451 325.678 183.367C324.565 183.089 323.433 184.191 322.339 183.857C321.932 184.956 321.631 186.091 321.44 187.247C321.285 188.575 321.202 189.909 321.192 191.246C321.192 192.048 321.154 192.85 321.192 193.652C321.327 193.673 321.455 193.723 321.57 193.797C321.684 193.871 321.782 193.968 321.857 194.081C321.907 194.214 321.928 194.355 321.917 194.496C321.907 194.638 321.865 194.775 321.796 194.898C320.997 196.939 320.186 199.003 318.974 200.831C319.828 201.337 320.621 201.939 321.337 202.625C322.676 204.032 323.334 206.004 324.779 207.304C326.408 208.767 328.73 209.125 330.898 209.414L336.356 210.14C337.28 210.311 338.225 210.343 339.159 210.235C339.677 210.141 340.18 209.978 340.655 209.752C340.965 209.623 341.247 209.437 341.488 209.205C341.69 208.977 341.856 208.721 341.982 208.444C342.414 207.585 342.808 206.707 343.171 205.818C343.297 205.503 343.489 205.134 343.833 205.107C345.86 203.29 347.772 201.428 349.799 199.611C350.614 198.94 351.344 198.175 351.975 197.331C352.981 195.852 352.067 193.758 351.975 191.972C351.964 191.515 351.906 191.06 351.803 190.615C351.474 189.319 350.702 187.768 349.428 187.384Z" fill="#70EC44"/>
<path opacity="0.1" d="M316.958 179.778C316.652 180.387 315.918 180.679 315.352 181.063L313.413 182.386C313.283 182.502 313.132 182.591 312.967 182.647C312.802 182.703 312.627 182.725 312.453 182.713C312.295 182.655 312.151 182.566 312.028 182.452C311.905 182.338 311.806 182.2 311.738 182.048C311.738 181.96 311.738 181.865 311.738 181.774C311.723 181.466 311.764 181.158 311.86 180.866C312.05 180.436 312.344 180.06 312.717 179.771C313.437 179.093 314.293 178.575 315.23 178.251C315.376 178.194 315.534 178.178 315.688 178.205C315.748 178.22 315.805 178.245 315.857 178.277C315.994 178.426 316.109 178.592 316.201 178.771C316.354 179.083 317.115 179.467 316.958 179.778Z" fill="black"/>
<path d="M321.525 183.785C320.875 183.754 320.343 183.287 319.869 182.842L318.419 181.504C318.322 181.423 318.237 181.328 318.167 181.223C318.088 181.075 318.029 180.918 317.991 180.756C317.684 179.988 317.202 179.301 316.583 178.749C316.476 178.613 316.331 178.51 316.167 178.452C316.011 178.424 315.851 178.44 315.704 178.498C314.767 178.822 313.911 179.34 313.191 180.018C312.819 180.307 312.525 180.683 312.334 181.113C312.238 181.406 312.197 181.714 312.212 182.021C312.221 183.026 312.448 184.016 312.878 184.925C312.943 185.066 313.015 185.206 313.092 185.343C313.602 186.181 314.205 186.96 314.889 187.665L315.799 188.676C316.694 189.672 317.589 190.668 318.561 191.584C318.909 191.953 319.331 192.246 319.8 192.443C320.035 192.539 320.292 192.568 320.543 192.528C320.794 192.487 321.029 192.379 321.223 192.215C321.406 192.004 321.544 191.759 321.628 191.493C322.217 189.973 322.775 188.391 322.81 186.753C322.818 186.097 322.79 185.441 322.726 184.788C322.668 184.097 322.175 183.827 321.525 183.785Z" fill="#70EC44"/>
<path d="M344.701 236.996C344.679 240.819 344.405 244.637 343.882 248.425C343.806 249.037 343.722 249.649 343.68 250.261C343.553 252.036 343.76 253.819 343.592 255.582C343.504 256.536 343.305 257.482 343.137 258.414C342.389 262.57 342.171 266.803 342.486 271.013C343.014 278.018 341.396 285.027 342.131 292.013C342.22 293.371 342.144 294.736 341.905 296.076C341.768 296.908 341.57 297.728 341.312 298.531C340.754 300.434 340.193 302.335 339.63 304.233C339.563 304.521 339.433 304.791 339.247 305.023C339.052 305.191 338.823 305.315 338.576 305.388C338.328 305.461 338.068 305.48 337.813 305.445C335.606 305.377 333.529 304.43 331.525 303.507C331.295 303.416 331.082 303.288 330.894 303.127C330.478 302.697 330.512 302.021 330.328 301.454C330.145 300.888 329.648 300.356 329.365 299.774C329.132 299.224 328.991 298.64 328.948 298.045C328.693 296.099 328.519 294.145 328.428 292.184C328.282 289.425 330.118 286.886 330.722 284.202C331.87 278.927 330.898 273.271 332.937 268.265C333.579 266.684 332.646 264.769 332.554 263.066C332.521 261.967 332.378 260.875 332.126 259.805C331.743 258.376 330.936 257.03 330.879 255.548C330.837 254.476 331.185 253.431 331.365 252.374C331.603 250.819 331.581 249.236 331.3 247.688C331.097 246.411 330.787 245.134 330.478 243.887L330.409 244.028C329.477 245.838 328.676 247.711 328.011 249.634C327.705 250.565 327.437 251.515 327.055 252.42C326.741 253.18 326.355 253.876 325.976 254.59C324.618 257.11 323.436 259.72 322.438 262.401C321.964 263.716 321.547 265.061 321.134 266.38L318.3 275.502C317.535 277.901 316.698 280.219 315.948 282.614C314.889 286.034 313.83 289.425 312.598 292.769C311.451 295.943 310.085 299.231 310.495 302.583C309.44 303.076 308.282 303.309 307.118 303.263C305.146 303.09 303.213 302.624 301.381 301.88C300.65 301.61 299.893 301.306 299.4 300.709C298.551 299.679 298.761 298.17 299.017 296.859C299.114 296.268 299.268 295.688 299.476 295.126C299.767 294.426 300.241 293.807 300.539 293.115C301.14 291.789 301.178 290.287 301.415 288.847C301.652 287.406 302.18 285.886 303.419 285.103C303.63 282.572 304.678 280.075 305.255 277.6C305.691 275.726 305.836 273.799 306.181 271.899C306.525 269.999 307.079 268.098 308.234 266.559C308.143 264.972 308.504 263.391 309.275 261.998C309.461 261.692 309.613 261.367 309.73 261.029C309.801 260.699 309.842 260.363 309.852 260.025C309.979 258.705 310.547 257.464 311.466 256.502C311.084 255.115 311.615 253.666 312.093 252.321C312.695 250.604 312.968 248.79 312.896 246.973C312.837 246.466 312.862 245.952 312.969 245.453C313.076 245.073 313.286 244.75 313.409 244.385C313.518 243.938 313.576 243.48 313.581 243.02C313.73 240.964 314.568 239.026 315.493 237.19C316.044 236.118 315.577 234.662 315.692 233.469C315.891 231.485 316.109 229.432 317.099 227.703C317.283 227.376 317.482 227.065 317.646 226.726C317.846 226.243 317.953 225.728 317.964 225.206C317.998 224.336 318.121 223.613 317.807 222.804C319.853 221.112 322.645 220.637 325.307 220.523C327.969 220.409 330.661 220.649 333.266 220.086C334.03 219.915 334.795 219.68 335.602 219.566C337.434 219.299 339.293 219.714 341.102 220.124C340.976 221.264 341.396 222.359 341.867 223.42C343.703 227.715 344.667 232.329 344.701 236.996Z" fill="#33313F"/>
<path opacity="0.1" d="M335.694 237.866L331.3 247.688C331.097 246.41 330.787 245.133 330.478 243.887L330.409 244.027V243.822L332.803 238.588L335.694 237.866Z" fill="black"/>
<path opacity="0.1" d="M348.862 217.35C348.608 217.538 348.306 217.65 347.99 217.673C347.505 217.69 347.021 217.624 346.559 217.479L343.117 216.624C343.009 216.597 342.904 216.56 342.804 216.514C342.861 215.917 342.976 215.225 343.301 214.993C343.787 214.67 345.24 215.103 345.791 215.179C346.739 215.309 347.703 215.461 348.628 215.639C348.772 216.199 348.85 216.773 348.862 217.35Z" fill="black"/>
<path d="M351.773 194.735C351.845 195.05 351.948 195.362 352.01 195.681C352.113 196.465 352.085 197.259 351.929 198.034L351.616 200.208L351.302 202.393L350.09 210.805L349.791 212.888L349.371 215.795C349.351 216.037 349.289 216.274 349.187 216.494C349.062 216.701 348.887 216.873 348.678 216.996C348.469 217.119 348.233 217.188 347.99 217.198C347.506 217.213 347.022 217.147 346.56 217.004L343.118 216.145C342.967 216.118 342.823 216.06 342.697 215.974C342.592 215.872 342.516 215.744 342.477 215.603C342.438 215.462 342.437 215.313 342.475 215.172C342.525 214.883 342.651 214.613 342.693 214.324C342.777 213.762 342.54 213.184 342.624 212.625C342.707 212.269 342.835 211.926 343.007 211.603C344.154 209.083 343.489 206.141 343.879 203.404C344.23 201.251 345.145 199.227 346.533 197.536C347.389 196.469 348.373 195.509 349.463 194.678C349.891 194.347 350.572 193.667 351.111 193.538C351.803 193.393 351.658 194.256 351.773 194.735Z" fill="#70EC44"/>
<path d="M325.724 161.995C325.472 162.793 325.866 163.671 325.686 164.484C325.491 165.381 324.642 166.005 324.401 166.906C324.018 168.278 325.189 169.528 326.045 170.668C329.22 174.902 328.803 180.763 327.717 185.929C326.843 190.073 325.634 194.14 324.102 198.091C323.624 199.319 323.097 200.566 322.156 201.485C323.915 200.984 325.785 200.478 327.548 200.965C329.782 201.58 331.709 203.735 333.973 203.245C335.335 202.945 336.291 201.744 337.515 201.079C339.81 199.851 342.575 200.623 345.133 201.018C345.685 201.147 346.262 201.118 346.797 200.934C347.206 200.716 347.553 200.398 347.807 200.011C348.948 198.555 349.632 196.796 349.772 194.956C349.833 194.039 349.697 193.12 349.373 192.26C349.049 191.399 348.545 190.617 347.895 189.965C347.351 189.456 346.701 189.045 346.284 188.445C345.879 187.743 345.662 186.95 345.653 186.141C345.351 181.961 346.376 177.692 345.321 173.648C344.938 172.208 344.315 170.828 344.147 169.353C343.936 167.517 344.437 165.552 343.703 163.872C343.125 162.538 341.852 161.592 340.479 161.105C339.106 160.619 337.637 160.482 336.18 160.345C334.084 160.17 326.6 159.277 325.724 161.995Z" fill="#33313F"/>
<g opacity="0.1">
<path opacity="0.1" d="M327.717 185.929C326.847 190.056 325.645 194.106 324.122 198.042C324.385 197.521 324.607 196.974 324.818 196.43C326.351 192.48 327.56 188.412 328.432 184.268C329.522 179.099 329.939 173.245 326.764 169.007C325.999 167.996 325.017 166.902 325.051 165.716C324.768 166.074 324.548 166.478 324.401 166.909C324.018 168.281 325.189 169.532 326.045 170.672C329.22 174.902 328.803 180.763 327.717 185.929Z" fill="black"/>
<path opacity="0.1" d="M325.732 164.1C326.039 163.721 326.268 163.286 326.405 162.819C326.464 162.255 326.449 161.685 326.359 161.124C326.064 161.344 325.843 161.648 325.724 161.994C325.499 162.667 325.759 163.397 325.732 164.1Z" fill="black"/>
<path opacity="0.1" d="M348.526 198.338C348.272 198.724 347.925 199.041 347.516 199.258C346.981 199.445 346.403 199.475 345.852 199.341C343.294 198.961 340.498 198.178 338.234 199.406C337.006 200.067 336.054 201.268 334.689 201.572C332.428 202.074 330.501 199.919 328.267 199.292C326.684 198.855 325.016 199.216 323.422 199.672C323.105 200.344 322.677 200.958 322.156 201.489C323.915 200.987 325.785 200.482 327.548 200.968C329.782 201.584 331.709 203.739 333.973 203.249C335.335 202.948 336.291 201.747 337.515 201.082C339.81 199.855 342.575 200.626 345.133 201.021C345.685 201.151 346.262 201.122 346.797 200.938C347.206 200.719 347.553 200.401 347.807 200.014C348.5 199.106 349.035 198.088 349.39 197.004C349.134 197.469 348.845 197.914 348.526 198.338Z" fill="black"/>
</g>
<path d="M121.076 199.95C124.367 199.95 127.035 198.505 127.035 196.722C127.035 194.939 124.367 193.494 121.076 193.494C117.785 193.494 115.117 194.939 115.117 196.722C115.117 198.505 117.785 199.95 121.076 199.95Z" fill="#70EC44"/>
<path d="M190.31 87.0289C190.309 85.0212 191.284 83.0489 193.138 81.3104C194.992 79.5719 197.658 78.1286 200.868 77.1257C197.659 76.1217 194.019 75.593 190.314 75.5928C186.608 75.5925 182.968 76.1208 179.758 77.1244C176.549 78.128 173.884 79.5716 172.031 81.3101C170.178 83.0486 169.203 85.0207 169.203 87.0282C169.203 89.0357 170.178 91.0078 172.031 92.7463C173.884 94.4848 176.549 95.9284 179.758 96.932C182.968 97.9356 186.608 98.4639 190.314 98.4636C194.019 98.4634 197.659 97.9347 200.868 96.9307C197.658 95.9281 194.992 94.485 193.138 92.7467C191.285 91.0085 190.309 89.0364 190.31 87.0289Z" fill="#CCCCCC"/>
<path d="M216.846 87.0289C216.846 85.0212 217.821 83.0489 219.675 81.3104C221.528 79.5719 224.194 78.1285 227.405 77.1257C224.196 76.1217 220.556 75.593 216.85 75.5928C213.145 75.5925 209.504 76.1208 206.295 77.1244C203.086 78.128 200.421 79.5716 198.568 81.3101C196.715 83.0486 195.739 85.0207 195.739 87.0282C195.739 89.0357 196.715 91.0078 198.568 92.7463C200.421 94.4848 203.086 95.9284 206.295 96.932C209.504 97.9356 213.145 98.4639 216.85 98.4636C220.556 98.4634 224.196 97.9347 227.405 96.9307C224.195 95.9281 221.529 94.485 219.675 92.7467C217.821 91.0085 216.846 89.0364 216.846 87.0289Z" fill="#CCCCCC"/>
<path d="M242.78 98.4646C254.438 98.4646 263.889 93.3448 263.889 87.0292C263.889 80.7136 254.438 75.5938 242.78 75.5938C231.123 75.5938 221.672 80.7136 221.672 87.0292C221.672 93.3448 231.123 98.4646 242.78 98.4646Z" fill="#70EC44"/>
<path d="M278.057 122.746H155.032C153.861 122.745 152.738 122.493 151.91 122.044C151.082 121.596 150.616 120.987 150.614 120.353V53.7048C150.616 53.0703 151.082 52.462 151.91 52.0133C152.738 51.5647 153.861 51.3123 155.032 51.3115H278.057C279.228 51.3123 280.351 51.5647 281.18 52.0133C282.008 52.462 282.474 53.0703 282.475 53.7048V120.353C282.474 120.987 282.008 121.596 281.18 122.044C280.351 122.493 279.228 122.745 278.057 122.746ZM155.032 52.2694C154.329 52.2698 153.655 52.4212 153.159 52.6904C152.662 52.9595 152.382 53.3246 152.382 53.7053V120.353C152.382 120.734 152.662 121.099 153.159 121.368C153.655 121.638 154.329 121.789 155.032 121.789H278.057C278.76 121.789 279.434 121.638 279.931 121.368C280.428 121.099 280.707 120.734 280.708 120.353V53.7053C280.707 53.3246 280.428 52.9595 279.931 52.6904C279.434 52.4212 278.76 52.2698 278.057 52.2694H155.032Z" fill="#CCCCCC"/>
<path d="M305.527 173.835H116.844V174.792H305.527V173.835Z" fill="#CCCCCC"/>
<path d="M122.802 167.858C126.093 167.858 128.761 166.412 128.761 164.629C128.761 162.847 126.093 161.401 122.802 161.401C119.512 161.401 116.844 162.847 116.844 164.629C116.844 166.412 119.512 167.858 122.802 167.858Z" fill="#70EC44"/>
<path d="M305.527 206.114H116.844V207.072H305.527V206.114Z" fill="#CCCCCC"/>
<path d="M302.074 242.872H242.445C241.415 242.872 240.428 242.65 239.699 242.255C238.971 241.861 238.561 241.326 238.56 240.768V229.446C238.561 228.887 238.971 228.353 239.699 227.958C240.428 227.563 241.415 227.341 242.445 227.341H302.074C303.104 227.341 304.092 227.563 304.82 227.958C305.548 228.353 305.958 228.887 305.959 229.446V240.768C305.958 241.326 305.548 241.861 304.82 242.255C304.092 242.65 303.104 242.872 302.074 242.872Z" fill="#70EC44"/>
<path d="M142.24 167.858C145.53 167.858 148.198 166.412 148.198 164.629C148.198 162.847 145.53 161.401 142.24 161.401C138.949 161.401 136.281 162.847 136.281 164.629C136.281 166.412 138.949 167.858 142.24 167.858Z" fill="#70EC44"/>
<path d="M161.677 167.858C164.967 167.858 167.635 166.412 167.635 164.629C167.635 162.847 164.967 161.401 161.677 161.401C158.386 161.401 155.718 162.847 155.718 164.629C155.718 166.412 158.386 167.858 161.677 167.858Z" fill="#70EC44"/>
<path d="M142.24 200.138C145.53 200.138 148.198 198.693 148.198 196.91C148.198 195.127 145.53 193.682 142.24 193.682C138.949 193.682 136.281 195.127 136.281 196.91C136.281 198.693 138.949 200.138 142.24 200.138Z" fill="#70EC44"/>
<path d="M161.677 200.138C164.967 200.138 167.635 198.693 167.635 196.91C167.635 195.127 164.967 193.682 161.677 193.682C158.386 193.682 155.718 195.127 155.718 196.91C155.718 198.693 158.386 200.138 161.677 200.138Z" fill="#70EC44"/>
</g>
<defs>
<linearGradient id="paint0_linear_72_1362" x1="293.95" y1="232.769" x2="352.465" y2="232.769" gradientUnits="userSpaceOnUse">
<stop stop-color="#808080" stop-opacity="0.25"/>
<stop offset="0.54" stop-color="#808080" stop-opacity="0.12"/>
<stop offset="1" stop-color="#808080" stop-opacity="0.1"/>
</linearGradient>
<clipPath id="clip0_72_1362">
<rect width="446" height="306" fill="white"/>
</clipPath>
</defs>
</svg>
